<?xml version="1.0" encoding="UTF-8"?><svg id="Calque_2" xmlns="http://www.w3.org/2000/svg" viewBox="0 0 131.71 64.33"><defs><style>.cls-1{fill:#fff;stroke-width:0px;}</style></defs><g id="activités"><path class="cls-1" d="M69.56,59.77h.19l2.09,4.42h-1.12l-.21-.44h-1.69l-.21.44h-1.13l2.08-4.42ZM70.15,62.99l-.49-1.08h-.01l-.5,1.08h1Z"/><path class="cls-1" d="M73.8,59.91h1.79c.92,0,1.52.56,1.52,1.36,0,.75-.38,1.17-1.01,1.33l1.15,1.59h-1.31l-1.09-1.6v1.6h-1.05v-4.28ZM75.69,61.76c.24,0,.39-.24.39-.49s-.18-.47-.42-.47h-.81v.96h.84Z"/><path class="cls-1" d="M81.41,59.77c.81,0,1.38.31,1.83.78l-.72.68c-.3-.29-.68-.48-1.11-.48-.76,0-1.25.57-1.25,1.29s.49,1.29,1.25,1.29c.43,0,.81-.19,1.11-.48l.7.68c-.43.45-1.02.78-1.81.78-1.35,0-2.32-1-2.32-2.28s.96-2.28,2.32-2.28Z"/><path class="cls-1" d="M87.06,59.77h.19l2.09,4.42h-1.12l-.21-.44h-1.69l-.21.44h-1.13l2.08-4.42ZM87.65,62.99l-.49-1.08h-.01l-.5,1.08h1Z"/><path class="cls-1" d="M91.3,59.91h1.49c1.26,0,2.24.93,2.24,2.13,0,1.14-.87,2.14-2.24,2.14h-1.49v-4.28ZM92.77,63.23c.67,0,1.18-.47,1.18-1.19,0-.66-.45-1.18-1.18-1.18h-.42v2.37h.42Z"/><path class="cls-1" d="M97.21,59.91h2.83v.93h-1.78v.77h1.65v.91h-1.65v.77h1.86v.9h-2.91v-4.28Z"/><path class="cls-1" d="M107.15,59.77c.79,0,1.34.29,1.79.75l-.73.67c-.29-.26-.66-.43-1.06-.43-.76,0-1.25.57-1.25,1.29,0,.79.56,1.29,1.28,1.29.75,0,1.11-.41,1.14-.83h-1.22v-.9h2.35v.41c0,1.26-.74,2.32-2.29,2.32-1.35,0-2.32-1-2.32-2.28s.96-2.28,2.32-2.28Z"/><path class="cls-1" d="M113.18,59.77h.19l2.09,4.42h-1.12l-.21-.44h-1.69l-.21.44h-1.13l2.08-4.42ZM113.77,62.99l-.49-1.08h-.01l-.5,1.08h1Z"/><path class="cls-1" d="M117.42,59.91h.98l1.09,2.31,1.1-2.31h.96v4.28h-1.04v-1.9l-.93,2.04h-.17l-.93-2.06v1.92h-1.05v-4.28Z"/><path class="cls-1" d="M123.85,59.91h2.83v.93h-1.78v.77h1.65v.91h-1.65v.77h1.86v.9h-2.91v-4.28Z"/><path class="cls-1" d="M129.82,62.93c0,.25.2.45.44.45.26,0,.43-.15.43-.37,0-.32-.42-.41-.77-.53-.72-.26-1.12-.59-1.12-1.33s.65-1.38,1.45-1.38c.95,0,1.4.61,1.45,1.4h-.98c0-.24-.15-.44-.44-.44-.23,0-.45.13-.45.41,0,.32.39.38.76.48.76.23,1.12.66,1.12,1.33,0,.76-.64,1.38-1.45,1.38-.93,0-1.46-.63-1.46-1.4h1.02Z"/><path class="cls-1" d="M61.33,8.11l-5.57-1.4-1.4,5.57-5.57-1.4-1.4,5.57,5.57,1.4-1.4,5.57,5.57,1.4,1.4-5.57,5.57,1.4,1.4-5.57-5.57-1.4,1.4-5.57ZM78.59,8.94c-.15-2.32-2.15-4.08-4.47-3.93-2.32.15-4.08,2.15-3.93,4.47.15,2.32,2.15,4.08,4.47,3.93,2.32-.15,4.08-2.15,3.93-4.47ZM79,15.26c-2.32.15-4.08,2.15-3.93,4.47.15,2.32,2.15,4.08,4.47,3.93,2.32-.15,4.08-2.15,3.93-4.47-.15-2.32-2.15-4.08-4.47-3.93ZM121.48,19.07h-31.49l-.9-14.01c-.19-2.98-2.77-5.24-5.74-5.05l-37.55,2.42c-1.44.09-2.76.74-3.71,1.83-.95,1.08-1.43,2.48-1.33,3.92l.7,10.89H9.39C4.22,19.07,0,23.28,0,28.45h1.22c0-4.5,3.66-8.16,8.16-8.16h32.13l.26,4.06c.09,1.44.74,2.76,1.83,3.71,1,.87,2.25,1.35,3.56,1.35.12,0,.24,0,.36-.01l37.55-2.42c2.98-.19,5.24-2.77,5.05-5.74l-.06-.95h31.41c4.5,0,8.16,3.66,8.16,8.16h1.22c0-5.17-4.21-9.38-9.38-9.38ZM85,25.76l-37.55,2.42c-1.12.07-2.19-.3-3.03-1.03-.84-.74-1.34-1.76-1.41-2.88l-1.04-16.17c-.07-1.12.3-2.19,1.03-3.03.74-.84,1.76-1.34,2.88-1.41l37.55-2.42c.09,0,.18,0,.27,0,2.19,0,4.03,1.71,4.18,3.92l1.04,16.17c.15,2.3-1.61,4.3-3.91,4.45Z"/><path class="cls-1" d="M15.39,37.97h2.64v15.09h7.92v-15.09h2.64v-3.77h-13.2v3.77ZM30.78,53.06h5.28v-3.77h2.64v3.77h5.28v-18.86h-13.2v18.86ZM36.06,37.97h2.64v7.54h-2.64v-7.54ZM0,45.51h7.92v3.77H0v3.77h13.2v-11.32h-7.92v-3.77h7.92v-3.77H0v11.32ZM46.25,53.06h5.18v-7.54h2.98v3.77h3.77v3.75h3.77v-3.77h-3.76v-3.75h3.77v-11.32h-15.7v18.86ZM51.44,37.96h6.74v3.77h-6.74v-3.77Z"/><path class="cls-1" d="M79.36,34.08h-.02l-4.75,18.89h3.45l.87-3.63h4.04l.83,3.63h3.57l-3.63-14.38-4.37-4.51ZM79.64,46.27l1.34-5.62,1.28,5.62h-2.62ZM91.31,49.75h.15l-.15-.16v.16ZM94.71,34.02h-6.53v12.33l3.13,3.25v-12.34h2.24c.9,0,1.34.46,1.32,1.37v9.75c.02.91-.42,1.37-1.32,1.37h-2.09l3.12,3.22h.13c2.19-.02,3.28-1.15,3.28-3.4v-12.15c0-2.25-1.09-3.38-3.28-3.4ZM99.86,52.99h3.07v-15.67l-3.07-3.17v18.84ZM111.48,48.38c.02.91-.42,1.37-1.32,1.37h-.08l2.84,2.94c1.12-.47,1.68-1.51,1.68-3.11v-15.5h-3.12v14.31ZM104.79,44.27l3.13,3.25v-13.45h-3.13v10.2ZM125.91,38.16l-2.31,6.35-3.84-10.5h-3.29v19.04h3.11v-10.7l3,8.42h2.1l2.99-8.4v10.68h3.04v-9.92l-4.81-4.98ZM70.8,48.37c.02.67-.22,1.1-.69,1.28l2.66,2.75c.77-.55,1.16-1.49,1.16-2.83v-2.28h-3.12v1.09ZM70.64,34h-3.25c-2.19.02-3.29,1.15-3.29,3.41v6.03l3.14,3.24v-8.07c-.02-.92.42-1.37,1.32-1.37h.93c.83,0,1.26.4,1.32,1.19v1.04h3.12v-2.27c-.08-2.12-1.17-3.19-3.29-3.2Z"/></g></svg>