<?xml version="1.0" encoding="UTF-8"?><svg id="Calque_2" xmlns="http://www.w3.org/2000/svg" viewBox="0 0 133.89 67.39"><defs><style>.cls-1{fill:#fff;stroke-width:0px;}</style></defs><g id="activités"><path class="cls-1" d="M34.79,32.34c-.08,0-.49.19-.49.19,0,.11.11.19.15.26h.08c.15,0,.53-.19.53-.38,0-.08-.19-.08-.26-.08ZM7.87,35.36c-.15,0-.26.08-.26.23,0,.08,0,.15.08.15l.19-.38ZM33.62,32.98c0,.08.08.08.11.08.23,0,.53-.15.72-.26h-.04c-.26,0-.56.11-.79.19ZM42.48,32.22v-.1l-.17.2c.1,0,.17.02.17-.1ZM52.88,22.02c-.22,0-.27.27-.49.27l-.05.2.05.2c.1,0,.2-.1.25-.2.12,0,.15-.1.12-.2l.25-.1-.12-.17ZM58.94,20.76l-.05.27s-.15,0-.15.07c0,.02.07.02.1.02.12,0,.22-.1.22-.22,0-.07-.05-.15-.12-.15ZM59.24,27.12h-.15l.07.2h.22c0-.1-.02-.2-.15-.2ZM72.45,29.41c0,.17.02.27.22.27l-.22-.27ZM65.4,15.56l-.22.02c0,.12.1.12.2.12h.17v-.02c0-.1-.07-.12-.15-.12ZM78.17,30.5c-.07.05-.07.17-.07.25h.35l-.02-.2c-.1,0-.17-.05-.25-.05ZM65.01,15.81l.05-.1-.37-.05c0,.12.22.15.32.15ZM93.65,28.58s.05.05.05.07l.1.15.2.05v-.17c-.15,0-.12-.2-.27-.2l-.2-.2c0-.1.02-.17-.1-.17h-.1l.1.27c.15,0,.1.2.1.3.02-.02.07-.1.12-.1ZM92.1,25.96s-.05.07-.05.1c-.02,0-.05,0-.05.02,0,.07.2.2.25.25,0-.02-.07-.37-.15-.37ZM96.61,19.97c-.15.07-.42.12-.42.32.15-.05.32-.07.49-.07l.17-.15.07-.2c0-.07-.1-.1-.15-.1l-.17.2ZM95.58,20.44l-.12.17h-.27v.1c0,.07.07.07.15.07h.2c.1-.05.17-.15.25-.25.07,0,.15-.07.15-.15l-.15-.15c-.02.1-.1.2-.2.2ZM92.35,26.43c0,.17.12.27.2.39,0,.15.15.3.25.37.02.2.07.42.17.59l.22.02s.05-.02.05-.05c0-.22-.44-.74-.54-.86-.12,0-.12-.12-.07-.2-.12-.07-.1-.27-.27-.27ZM99.92,15.36c.12-.05.27-.07.39-.1v-.1c-.12,0-.39.02-.39.2ZM94.2,30.23c0-.1-.1-.05-.1-.15l.1-.1c-.07,0-.1-.12-.1-.17-.07-.02-.1-.12-.1-.2-.15-.1-.3-.27-.39-.42v-.25c-.12,0-.1-.2-.07-.27-.1,0-.15-.1-.27-.1-.02-.1-.12-.39-.25-.39l-.15-.37c-.1-.07-.2-.17-.25-.3,0-.2-.22-.42-.27-.62-.07-.02-.1-.1-.1-.17-.1-.1-.2-.22-.2-.35-.07-.02-.07-.12-.07-.17l-.2-.15c-.12-.39-.37-.79-.64-1.08v-.05c0-.1-.05-.15-.15-.15-.2-.32-.32-.74-.39-1.11l.42-.15c.1-.02.15-.15,0-.15l.07-.17c.17,0,.44-.2.49-.2,0-.05.02-.07.05-.07.05,0,.1.02.15.05,0,.07,0,.12.07.12h.07c.05-.15.17-.32.32-.39,0-.3.49-.02.32-.44l.17-.07s.07.07.12.07c.02,0,.02-.02.02-.05.22-.02.44-.15.64-.25-.05-.02-.12-.07-.12-.12,0-.02.07-.02.07-.02.1-.02.39-.07.47-.17l.25-.1c.07-.1.2-.2.32-.2.1-.1.22-.2.35-.2.02-.07.12-.07.17-.07l.15-.15c0-.07-.05-.1-.12-.1s-.12.02-.2.05c-.02.07-.12.1-.2.1-.02.07-.1.1-.17.1l-.15.07-.02-.27s-.1-.02-.1-.07l.02-.1.15.17s.17-.1.05-.1l.07-.2c0-.1.17-.05.22-.05s.07,0,.07-.05l.2-.2c.15-.02.27,0,.27-.15,0-.05.3-.12.39-.27.1,0,.22.02.27.1,0,.02,0,.07.02.07.07,0,.44-.42.49-.47.07,0,.12-.07.12-.15-.05-.02-.39-.15-.39-.2,0-.02.05-.02.07-.02l.2.1c.12,0,.17.1.3.1.12-.12,0-.1.22-.1l.17-.2c.07,0,.79-.35.79-.44.3,0,.71-.37,1.01-.37l.69-.54c.15,0,.35-.12.35-.3,0-.05.86-.32.86-.52.32-.07.32-.12.39-.39-.1,0-.15.1-.25.1l-.27.2h-.25c-.05.07-.15.15-.22.2h-.12c-.07,0-.22,0-.22-.1.02,0,.07-.02.07-.07,0-.02-.12-.02-.15-.02-.07.07-.15.1-.25.1-.15,0-.12-.1-.25-.1,0-.07.02-.17.07-.25h.05c.3,0-.05-.22.35-.22.07,0,.1-.05.1-.1l.22-.1.15-.25c0-.22.02-.12.15-.12t.05-.02l.32-.15.15-.2h.35s.07-.12.07-.17c0-.07-.05-.07-.1-.07-.12,0-1.08.22-1.08.35h-.37c0,.12-.1.15-.2.1,0,.07-.12.07-.17.07l-.02.17h-.15c-.07,0-.17-.02-.2-.1,0,0,0-.1-.02-.1s-.05.07-.07.1c-.2.12-.74.39-.96.39-.05,0-.07,0-.07-.05,0-.22.71-.39.86-.42,0-.12.27-.17.37-.17l.07-.1h.1l.17-.07.07-.1h.12l.07-.2s-.05-.1-.05-.15c0-.02.02-.05.07-.05,0,.02,0,.1.05.1s.1-.05.12-.1c-.02-.02-.05-.05-.05-.07,0-.1.25-.12.25-.3l.39-.25s.27-.39.27-.2c.17,0,.15-.3.37-.3l.32-.15s.3-.3.49-.3l.37-.17c.12,0,.07-.1.2-.1l.1-.1c.17,0,.42-.05.42-.27.05,0,.17-.05.17-.1-.05-.02-.15-.02-.22-.02-.25.2-1.65.67-1.65.67-.1,0-.22.02-.27.1-.25.15-2.12.76-2.44.81l-.2.17s-.3.2-.37.2c-.05,0-.15.02-.15.1l-.67.37-.17-.2c-.12,0-.07.1-.2.1q0,.2-.2.2s0-.1-.02-.1-.07.07-.07.1l-.37.2c-.1,0-1.06.49-1.11.52,0,0,0-.1-.02-.1s-.05.07-.07.1h-.22c-.22.3-.59.44-.81.76-.15,0-.22.1-.35.1,0,.02,0,.1-.05.1s-.1-.05-.12-.1c0-.02,0-.07-.05-.07-.25,0-.39.39-.59.47-.15,0-.32.17-.42.27l-.22.07c0,.07-.12.07-.15.07-.02.07-.12.1-.2.1v.02s-.07.07-.12.07c-.27.15-.54.27-.84.37,0,.05-.02.07-.07.07-.02,0-.1-.02-.1-.05,0-.05.05-.05.07-.05,0-.07-.02-.17-.07-.25,0-.2.35-.32.35-.57l-.1-.2.1-.25s.15-.02.12-.1l.25-.49s.2-.17.02-.17c.07-.27.12-.54.27-.79v-.07c0-.07.02-.15.1-.15,0-.07.02-.2.1-.25.02-.15.07-.35.17-.47-.12-.02-.37-.07-.37-.22,0-.35.12-.69.2-1.01l-.39-.25s0,.05-.02.05c-.2,0-.32-.35-.59-.35l-.07-.07h-.17c-.02-.07-.1-.39.05-.39-.07-.02-.1-.1-.1-.17-.05-.05-.1-.1-.15-.1s-.05.07-.05.1c-.15.1-.27.17-.27.37l-.2.15-.2-.12c0-.12.1-.12.1-.25l-.27-.15v.37l-.47-.27c-.1.15-.25.1-.25.32-.12.07-.27.22-.27.37l-.2.12-.12.3q-.17,0-.17.17l-.27-.05-.17.05-.1.2c0,.1-.02.1-.1.1-.05,0-.07.02-.07.07-.05.05-.2.22-.2.3,0,.05.02.07.07.07l.1-.1-.02.1-.1.1-.12-.1-.1.17c-.15.02-.07.32-.2.42,0,.2-.3.22-.3.42l-.15.2-.02.25-.2.17-.1.2-.17.1c0,.07,0,.2-.07.27,0,.12-.1.07-.1.2-.05.07-.1.15-.17.2l.07.2c0,.1-.07.15-.17.1l.02.17s-.02.1-.07.1l-.15.22-.2.12c0,.79-.47,1.63-.76,2.32-.17,0-.2.71-.22.81h-.02c-.1,0-.15.07-.15.17l-.12.12-.07.32s-.37.74-.37.84c-.1.05-.1.2-.1.27l-.1.1c0,.2.07.3-.12.3-.05,0-.07.02-.07.07l-.1.22c-.12,0-.25.1-.35.2-.17,0-.3.1-.47.1,0,.1-.1.2-.2.25,0,.12.1.15.1.27h-.02c-.17,0,.05.57-.25.39-.15.2-.2.07-.2.39l-.35.37-.2.07-.1.22c-.15.1-.64.37-.64.62l.2.15c0,.07.02.2.1.25l-.37.3c0,.17-.17.32-.35.32l-.15.15.12.22h.35l.22-.17c.27,0,.52-.3.81-.3.05,0,.05.02.05.07,0,.12-.07.27-.15.39-.02.1-.07.35-.2.35-.1.2-.22.54-.2.76h-.02c-.07,0-.12.07-.12.15l-.1.1c0,.3.05.81-.32.81-.2,0-.2.32-.05.32,0,.22-.1.44-.1.71l-.1.2-.2.1s0,.05-.01.08c-.11,0-.22,0-.33,0h-1.19l-.1-.29.02-.35c-.1-.07-.22-.22-.27-.35v-.05s0-.05-.02-.05c-.12,0,0,.27-.17.27h-.07l-.1-.22.02-.22-.2-.44-.15-.15.02-.27c-.27-.12-.59-.39-.59-.71,0-.07-.02-.12-.1-.12-.02,0-.17-.25-.17-.27-.22-.02-.17-.05-.17-.25,0-.07-.05-.07-.1-.07h-.17s0,.17-.05.17-.07-.05-.07-.07c-.02,0-.1,0-.1-.02,0-.07.2-.15.25-.17-.07-.02-.1-.12-.1-.2-.25,0-.2-.02-.2-.25l-.35-.47-.22.17c.02-.1.07-.2.15-.27-.07-.02-.1-.1-.1-.17-.12-.05-.25-.1-.37-.1-.1,0-.12-.05-.12-.15-.1-.12-.37-.54-.52-.57l-.22-.2c.02-.1.12-.12.2-.1.12-.07.27-.15.42-.15.07,0,.07.05.07.12,0,0,0,.05.02.05.05,0,.15-.22.17-.27.07,0,.17-.02.2-.12l.22-.07c.1-.15.17-.1.32-.1.07,0,.12-.05.1-.12.07,0,.32-.02.32-.12-.07-.1-.54-.05-.25-.22-.17.05-.47.02-.64,0l-.12.1-.07-.1-.27.17c-.17,0,.02.1.02.15s-.07.02-.1.02c0-.07-.05-.07-.12-.07-.1,0-.25.05-.35.1-.12-.02-.35-.1-.44.02l-.02-.15h.07c.07,0,.12-.02.12-.1h.27c.02-.22.42-.25.59-.22.17-.12.39-.22.62-.3v.02c0,.15.47.02.44.27l.3.12.15.2c.12-.12.22-.27.32-.42.02-.25.32-.17.32-.32.05,0,.15,0,.15-.07l.1.1s.05.1.07.1c.05,0,.05-.07.05-.1.07.02.22.07.22-.05h-.07c-.1,0-.25-.02-.25-.15l.39-.17c.17,0,.39-.12.39-.32-.07-.05-.44-.27-.44-.07h-.02c-.1,0-.2-.05-.2-.15l.3-.12h.1c.22,0,0-.32.71-.37l.2-.1.07.15-.2.17h-.27c-.02.1-.07.2-.15.25-.02,0-.1,0-.1.05s.07.1.1.12c.17-.15.39-.25.59-.32.02-.1.12-.2.22-.25h.3l.37-.3s.02-.1.07-.1c.12,0,.22.17.37.17.05,0,.05-.05.05-.1.37-.37,1.9-1.36,1.9-1.68.32-.15.42-.62.71-.76l.02-.15c.07-.05.1-.17.1-.25l.07-.07c0-.37.05-.64.12-1.01-.1,0-.12-.1-.1-.17-.15,0,.02-.17.05-.2-.07-.12-.17-.3-.17-.44-.22-.15-.37-.39-.59-.54,0-.02.02-.12.05-.12s.02.12.02.12c.1.02.17.17.22.2.05-.07.05-.15.05-.22l-.27-.44-.44-.22-.17-.2-.12.07-.15-.17c-.2,0-.25-.2-.32-.35-.1,0-.22-.02-.3-.07l.1-.1-.15-.1c-.15,0-.1.07-.02.15l-.27-.1-.1-.15h.1s0,.1.02.1c.05,0,.12-.07.15-.1-.12-.17-.35-.05-.49-.05-.1,0-.27,0-.27-.12l.3-.07-.2-.17-.25-.02-.02-.1c-.05-.07-.17-.1-.27-.1,0,.05-.02.1-.1.1-.05,0-.1-.07-.1-.12-.27,0-.42-.2-.67-.2-.02-.05-.15-.25-.15-.05l-.27-.2c-.12,0-.25-.07-.37-.07l-.2-.22c-.2-.02-.42-.1-.57-.22l-.1.1-.22-.02s0,.1-.05.1-.1-.05-.15-.1h-.25l-.07-.1-.64-.05c-.05-.07-.2-.07-.27-.07s-.27,0-.25-.12c-.52,0-1.18-.15-1.73-.17,0-.22-1.55-.2-1.82-.2l-1.21.02s-.02.1-.07.1c-.12,0-.22-.12-.35-.12-.05,0-.25.1-.42.1-.07,0-.12,0-.12.07-.25,0-1.73-.12-1.8,0-.47-.02-.69.05-1.11.05l-.25.02-.22.15-.2-.02c-.1.05-.2.12-.32.12l-.2-.05-.2.07c-.49-.02-.96.12-1.45.12-.12,0-.2.1-.17.2h-.35c-.02.1-.2.1-.27.1-.05,0-.12,0-.17.05l-.62.2c-.17-.02-.35-.05-.54-.05-.12,0-.25.07-.32.17-.02,0-.04.01-.05.02-.02-.16-.12-.44-.12-.64-.42,0-.86-.17-1.26-.17l-.12-.25c-.15-.07-.3-.2-.42-.35-.05,0-.3,0-.3.05l.02.02s.07.1.07.15c0,.07-.05.07-.1.07-.12,0-.12-.12-.1-.22-.12,0-.15-.07-.07-.17h-.35s-.07.07-.12.07-.05-.02-.05-.05c-.2-.15-.42-.25-.64-.32h-.2c-.1,0-.17.02-.17.12l.07.12-.44.15c-.25.07-.05.2-.22.2l-.07.1h-.22l-.2.17c0,.12-.12.15-.22.12,0,.2-.47,0-.47.25,0,.2-.39.25-.54.25v.1c0,.25-.02.37-.3.37l-.27.37c-.17,0-.35.3-.44.39-.27,0-.67.52-.81.69,0,.27-.27,0-.27.3,0,.05-.1.05-.12.05,0,.1-.1.2-.2.22,0,.17-.1.07-.15,0-.02.05-.07.07-.12.08l.06-2.14c-.19-.26-.23-.41-.23-.75,0-.26-.11-.41-.3-.64v-.04c0-.34-.49-.08-.49-.75,0-.19-.11-.53-.38-.53l-.08-.45-.3-.3-.08-.53-.19-.34c-.08-.04-.19-.11-.19-.19,0-.04.04-.04.04-.04h.08l.26.23v.04c0,.15.26.56.41.56.08,0,.08-.11.08-.15-.11-.23-.26-.49-.45-.68l-.3-.15c0-.34-.41-.23-.26-.41-.11-.19-.34-.53-.6-.56l-.3-.34h-.04c-.15,0-.26-.08-.26-.23h-.04c-.3,0-.45-.26-.75-.34l-.34-.34-.53-.23-.49-.56c-.3,0-.94-.6-1.2-.56-.26-.08-1.24-.3-1.2-.64-.19-.04-.72-.08-.72-.34l-.87-.3s0,.15-.08.15c-.26,0-.45-.34-.68-.41-.11,0-.49.04-.49-.19l-.34.15c-.23,0-.38-.11-.38-.34l.04-.49c.23,0,.19-.26.19-.41v-.11c.23-.11.23-.41.23-.64,0-.15-.08-.3-.23-.3-.26,0-.26.04-.23.3l-.11.34-.34.34c-.08,0-.15-.08-.15-.15,0-.23.19-.38.19-.6l.11-.23c.04-.23.19-.56.19-.75.11-.26.19.11.23-.6.26,0,.15-.3.19-.45-.15.08-.3.23-.3.41l-.19.3c-.11,0-.19.15-.19.23-.3.56-.83,1.47-1.28,1.92,0,.04-.04.11-.08.11-.15,0-.26-.11-.38-.19,0-.08.04-.15.04-.23,0-.11-.15-.11-.23-.11l-.04-.56c-.11-.11-.26-.26-.41-.26-.11,0-.15.15-.15.23l-.34.15-.23.3c-.11-.08-.26-.15-.41-.15l-.19.23-1.13-.08c-.11-.11-.26-.15-.41-.15-.34,0-.26.41-.49.41-.08.08-.19.15-.3.15-.04,0-.08-.08-.08-.11,0-.23.23-.08.23-.38,0-.19-.23-.19-.34-.15-.08-.04-.15-.04-.23-.04-.11,0-.15.15-.15.26-.23-.11-.68-.23-.83.04-1.51-.11-2.86-.08-4.33-.23l-.23.23c-.23-.08-.49-.08-.72-.08,0,.04-.26-.04-.34-.04-.53,0-3.01.04-3.16.3h-.87c-.34.19-.83.11-1.2.15l-.15.26-.11-.04c-.08,0-.19.04-.26.11-.3.15-.75.15-1.05.11l-.11-.04c-.08,0-.15.08-.19.11l-1.69.3-.08.11-.23-.04-.15.19c-.08,0-.19.04-.23.11h-.6c-.15,0-.26.23-.49.26l-.08.11c-.3.04-.6.19-.87.34-.23-.04-.45-.04-.72-.04-.19,0-.6,0-.56.3l-.53.23h-.19c-.3.15-.3.11-.6.11-.19,0-.15.23-.15.38,0,.11.08.15.19.15l.15-.15,2.9-.08.15-.19c1.13,0,2.15-.19,3.24-.26.08.11.26.26.23,0h1.43c.08.04.19.15.19.23,0,.04-.41.08-.53.11-.15-.08-.34-.08-.49-.08-.19,0-.38.08-.53.19.68.04,1.32,0,2,0,.08,0,.08.08.04.11.04,0,.15.04.15.08l-.04.04c-.11.04-.53.04-.56.19-.41.08-.87.15-1.28.15l.26.11h.04c.19,0,.15.23.38.26-.04.23-.83.11-.94.11-.23,0-.45.11-.68.11l-.72.38c0,.15.11.19.26.19s.68,0,.68-.26h.15c1.24,0,2.9-.15,4.03-.41l.34.08.3-.15h.08c.11,0,.26.04.19.19l.34-.19.9.11c.26-.19.3-.19.68-.08l.15-.11h.38l.08.11c-.04.19-.23.3-.41.26v.04c0,.19-.75-.19-.68.23l-.83.19-.19.23c-.38.04-.79.19-1.17.34l-.3.3-.34-.08-.08.19h-.11c-.3,0-.38.23-.83.23-.04,0-.19.04-.19.11,0,.11.15.11.23.08l.6.08.19-.23c.45.04.98.15,1.43.15.08,0,.15-.04.15-.11l.6.04.11-.11.15.15h.45c.19-.3.45-.11.83-.04.08.08.15.19.26.19.08,0,.08-.11.08-.15l.3-.11c0-.08.04-.15.11-.15.15,0,.6.41.6.11.53,0,.94.04,1.43.15l.15.19v-.04c0-.19.08-.34.26-.34v.08c0,.11.19.11.26.11l.41.41-.34.19c-.08.53-.68,1.17-.72,1.66h-.04c-.23,0-.3.56-.3.72-.11,0-.15.15-.15.23-.15.08-.26.41-.34.56l-.3.26v.45l-.53.68c0,.3-.15.53-.19.79-.11.04-.19.15-.19.26-.11.15-.26.26-.41.38-.26,0-.11.79-.41.79l-.08.56-.19-.04c-.11,0-.11.15-.11.23l-.26.41c.04.11.08.3.08.41,0,0,0,.08-.04.08-.08,0-.11-.23-.19-.23-.04,0-.04.08-.04.08l-.34.26c0,.11-.26.83-.34.87-.11.23-.3.45-.3.72,0,.08.04.15.11.15.08-.11.11-.3.11-.45l.08.34c-.04.08-.23.3-.3.3-.04,0-.04-.08-.04-.08,0,0,0-.19-.04-.19-.08,0-.6.94-.64.98-.04.34-.34.49-.34.83-.26.19-.56,1.73-.79,2.22-.08,0-.15-.04-.15-.11,0-.11.11-.19.19-.23-.04-.04-.08-.04-.11-.04-.15,0-.3.3-.34.45.08.11.11.3.11.45,0,.04,0,.08-.08.08l-.26.19c0,.15-.45.6-.53,1.17.04.04.08.08.11.08.11,0,.19-.26.19-.34.15-.23.34-.41.53-.6,0-.19.15-.15.15-.38l.38-.23s.11-.19.19-.19.08.15.08.19c-.26,0-.11.3-.34.3l-.34.68h-.04c-.15,0-.15.19-.15.3h-.04c-.08,0-.15.11-.15.19-.11.11-.26.19-.41.19l-.04.49c-.11.08-.34.19-.34.34l.26.15c0,.34-.41.34-.41.72,0,.11.23.11.3.11.19,0,.04-.3.34-.34.08-.11.6-1.02.9-1.02.11,0,.11.11.11.19-.26,0-.15.64-.41.64-.04.11-.15.56-.3.49l-.45.68c-.15.04-.26-.11-.41-.11s-.19.19-.19.3c-.08.34-.56.11-.6.38l.15.23-.15-.19-.11-.04c-.11,0-.19.11-.19.23l-.23.23s.08,0,.08.08c0,.04-.15.11-.19.11h-.15c-.23,0-.45.08-.72.04l-.87.19c-.6.53-2.52.68-3.28.83l-.23.23c-.08-.04-.15-.08-.26-.08l-.23.26c-.04.23-.3.3-.49.3l.15.15-.15-.11c-.15.08-.34.19-.45.3.04,0,.08,0,.08.04,0,.08-.08.08-.11.11-.26,0-.49.08-.75.08-.15,0-.56.11-.72.15l-.26.23h-.08c-.15,0-.11.11-.3.08l-.38.15c-.11,0-.34,0-.38.15h-.38l-.04.08h-.08s-.08,0-.08.04c0,.08.19.15.23.19l.34-.19h.38l.11-.11.26.08.11-.15.68.04.04-.11s0,.08-.04.11c-.04.11-.15.19-.26.15l-.23.15c-.38,0-1.43.34-1.69.6-.11,0-.34,0-.41.11h-.15c-.3,0-.75.15-.98.11l-.26.23h-.11c-.15,0-1.02.11-1.02.19s.34.04.41-.11c.11.04.9.3.9,0l.26.15c.11-.08.23-.04.34-.04.45.04.6-.11,1.02-.11l.11-.11c.08.04.19.08.26.08s.26-.04.26-.15l.45-.15c.08.04.19.11.3.11.08,0,.04-.08.04-.11l.04-.04.45-.04.23-.19-.11.41-.45-.08-.34.19c-.15,0-.87.19-.87.38v.04c.3-.04.56-.11.87-.04l.19-.11.15.11c-.15.04-.3.11-.41.19h-.04c-.15,0-.23.11-.38.11l-.19.23-.45.04c-.08.08-.23.08-.34.08l-.19.11h-.3l-.08.08c-.23,0-.38.08-.56.19h-.19l-.11.3.19.08c.08-.04.15-.04.23-.04h-.11s-.04,0-.04-.04.04-.08.08-.08h.04l.04.11c.26-.04.53,0,.79-.04l.04-.19h.3c.23-.15,1.24-.26,1.58-.23.11-.08.26-.15.41-.15.04,0,.08,0,.08.04,0,.08-.23.11-.26.11l-.15.11c-.23,0-.41,0-.64.04l-.11.15h-.26l-.11.15h-.3c0,.11-.15.04-.19.04-.19,0-.23.15-.41.15l-.19.15h-.04c-.11,0-.23.04-.26.15-.64.19-1.02.45-1.77.45l-.08.08c-.53,0-.98.04-1.51.15-.04.23-.72.08-.83.08l-.11.19-.34-.11-.19.3.49.04c-.53.08-1.24.3-1.73.23l-.08.08c-.64-.08-1.24.23-1.88.15l-.11.19-.23-.11-.15.26.34.04c0-.08.19-.04.23-.04.38-.04.75-.11,1.13-.08.04-.11.19-.15.3-.15.04-.04.11-.15.15-.15.08,0,.08.11.08.15l.41.08.19-.19.53.04c.38,0,.87-.26,1.09-.26.19,0,.41.08.6.11-.08.04-.15.08-.15.19-.11,0-.79.11-.79.19.26.15.64.11.94.11,0-.11.15-.11.23-.11.38-.04.87-.15,1.24-.15.11,0,.3.08.38.19l.26.15.15-.11c.26,0,.34-.04.53-.08.11.04.26.08.38.08s.26-.04.3-.15c.6.08,1.2-.08,1.77-.19.19.08.38.11.56.11.08,0,.15-.04.15-.11.11.08.34.11.34-.08l.23-.23.38.11c.49-.19.87-.38,1.39-.26l.23-.11.3.04c.04.11.19.15.3.15.19,0,.53-.15.72-.26h.04v.08s-.04.08,0,.08c.08,0,.11-.11.15-.15.45-.04.9-.11,1.36-.23.23.08.45.11.68.11.08,0,.19,0,.19-.11l.19-.04c.04.08.11.11.19.11l.26-.15c.04-.23.15-.23.23-.04l.08-.15.34.11.11-.19.04.04c.15,0,.79-.3.94-.38l.41.04c0,.08-.26.64-.11.56-.08.11-.11.23-.15.34.04.04.19.08.19.11,0,.15-.41.3-.41.49,0,.08.11.15.23.15.26,0,.41-.75.6-.75,0,0,.04,0,.04.04-.04.11-.04.26-.11.38h-.19l.04.15c-.04.08-.11.41-.23.41l-.04.34c-.15.15-.26.3-.38.49h.04s.08,0,.08.04-.38.53-.41.56c-.15.19-.11.38-.3.6.08.04.15.11.15.19s-.08.15-.11.19l-.19.53c0,.08.04.23.11.23s.11-.04.11-.08l-.04-.08s.94-1.02.94-1.32c0-.19-.38-.08-.38-.34,0-.08.11-.11.19-.11.11-.19.64-.6.45-.49.08-.38.23-.49.49-.75l-.08-.19h.08c0-.19.08-.41.19-.53l.3-.08s.04-.34.08-.34c.08,0,.08.11.08.15,0,.19-.34.72-.38.98l.34-.15c0-.23.15-.23.15-.45.19-.34.53-.68.75-1.02l.08.3c-.34.6-.68,1.2-.98,1.81.26.15.11.6.26.83l-.41.53s.11.08.15.08c.19,0,.53-1.02.87-1.02,0,.04-.08.11-.11.15.3.3-.26,1.43-.49,1.69l-.04.38c-.15.19-.19.41-.23.64-.04.04-.64.56-.3.49-.34.3-.15.79-.34.98l-.3,1.05s.04.08.04.11c0,.15-.38.6-.3.72-.38.23-.41.53-.56.9-.04.08-.11.15-.11.23s.04.11.11.11c.26,0,.38-.38.41-.56.11-.11.11-.26.23-.38l.26-.68c.15-.11.6-.41.38-.64,1.2-1.2,1.28-3.43,2.45-4.59,0,0,.49-1.02.53-1.05l.23-.56-.04-.08c0-.11,1.05-1.66,1.13-1.73v-.23c.11-.11.34-.08.49,0,.11-.08.11-.23.15-.38.08-.38.19-.08.38-.04l.11-.15.34.08c.11-.11.23-.15.38-.15.04-.11.19-.11.26-.08.08-.11.23-.19.34-.19.04-.11.15-.15.26-.15,0-.23,1.02-.04,1.2-.04,0-.11.11-.19.23-.19h.08s-.04-.15.15-.15c.38,0,.79-.04,1.17-.04.19-.19.34-.41.49-.64-.08,0-.23-.04-.23-.11s.15-.04.15-.04c0-.26.15-.15.3-.08.23,0,.15-.38.15-.53,0-.04,0-.11.04-.11.11,0,.19.11.26.19l-.15.26c.15,0,.3-.15.41-.15.08,0,.23.04.23-.08l1.02-.04s.15,0,.15-.08c0-.15-.3-.38-.41-.45.11-.08.19-.23.26-.34l.15.15c0,.15-.04.45.19.45.19,0,.45-.11.64-.19l.11-.49c.11.04.19-.08.26-.08.19,0,.38.15.53.26v-.08c0-.08.11-.08.15-.08.11-.11.34-.04.49-.04.11,0,.19-.11.19-.23l.11.04s.04,0,.04-.04c0-.08-.23-.23-.3-.26,0-.11.11-.23.23-.23.08,0,.08.08.08.11,0,.11,0,.26.15.26.26-.15.56-.34.79-.56l.23.3.34-.26c.08,0,.23.04.23.15.11.08.23.19.38.19.15-.08.26-.23.26-.38-.08,0-.11-.08-.11-.11l.04-.08.15.11.41.08c.11-.04.41-.23.41-.38s-.56-.08-.68-.08l.23-.34c.23,0,.34-.15.49-.15h.08l.26.34s.11-.15.19-.15c.04,0,.04.11.04.11,0,.04,0,.11.08.11s.15-.15.19-.19v-.34c.19,0,.23.19.19.34h.04c.11,0,.38-.04.38-.19,0-.08-.15-.11-.23-.11l.15-.53c.11.04.3.08.38-.08.08,0,.11.08.11.11,0,.15-.11.34-.23.15l-.04.11c0,.11.07.22.18.29-.04.02-.05.06-.05.11,0,.05-.02.07-.07.07l-.12.27c0,.2-.22.3-.22.52-.05.07-.1.15-.17.17-.27.32-.32.79-.62,1.13,0,.07-.12.42-.17.44,0,.15-.32.42-.32.67.07.17.27.17.42.17.1,0,.17-.02.17-.15l.17-.12c.3,0,.3-.32.52-.49,0-.02,0-.1.05-.1.07,0,.15.1.25.1v.02c0,.1-.05.17-.15.17l-.02.47s.02.1.07.1c.2,0,.42-.27.42-.47.1,0,.2-.02.27-.1.02-.15.12-.37.3-.37.02,0,.15,0,.15-.05,0-.12-.25-.02-.25-.12,0-.05.07-.12.12-.17,0-.17.35-.17.35-.42l.07-.02c.07,0,.1.05.1.1l.07.07c-.05.17-.17.32-.17.49-.12,0-.1.07-.1.15,0,.05-.02.05-.05.05l.02.2-.12.2c-.22,0-.15.52-.15.67,0,.07-.05.1-.12.1,0,.2-.2.27-.2.49-.1,0-.1.1-.07.17-.15.22-.3.44-.42.67,0,.1.1.12.2.12h.02l.2-.22.17-.07v-.12s0-.17.1-.17l.1-.2c0-.1.07-.07.15-.07.1,0,.07-.1.07-.15,0-.1.05-.15.12-.15l.02-.2s-.05,0-.05-.02c0-.07.1-.12.1-.02l.39-.32c0-.12.1-.17.1-.3l.2.07c.12,0,.15.1.27.1.1,0,.17-.07.17-.17.17,0,.17-.05.17-.2.27,0,.17-.17.27-.39-.02,0-.07,0-.07-.05,0-.07.25-.3.3-.35.25,0,.42-.22.44-.47l.37-.44s0-.15.05-.15c.12,0,.17.12.27.12.05,0,.05-.07.05-.1l.22-.22c.12,0,.17-.07.17-.17,0-.2.12-.39.12-.59.27,0,.12-.39.32-.39,0-.17.2-.05.3-.05.15,0,.1-.2,0-.27,0-.15.32-.2.32-.44l.15.02c.07,0,.22-.22.22-.3.05-.07.12-.15.2-.2h.67l.17-.2h.62s.27-.22.27-.05l.07.02c.07,0,.12-.05.12-.12l.17-.15.2-.37s.02.07.02.07c0,.15.15.3.3.3.17,0,.39.05.39-.2l.1-.07v-.2c.2,0,.15.05.15.17,0,.1.17.1.22.1.07,0,.17-.02.22-.1.2,0,.3-.07.52-.07.07,0,.1-.02.1-.1.35,0,.67-.1.94-.1.2,0,0,.76,0,.91.07.05.1.15.1.22-.1,0-.12.1-.12.2,0,.52-.1,1.31.17,1.75,0,.17-.05.37-.15.49,0,.12.1.17.1.3l.22.07c.01.36.02.68.06,1l-3.82,14.77,3.22,4.37,4.3-16.61h3.12c1.25,0,1.7.62,1.35,1.85l-3.39,13.12c-.29,1.23-1.06,1.85-2.31,1.85h-2.91l3.21,4.34h.18c3.05-.02,4.96-1.55,5.75-4.58l4.23-16.35c.62-2.4.04-3.85-1.72-4.37.03-.07.08-.12.15-.11,0-.12.1-.17.1-.3l.39-.64-.07-.32.2.12c0-.12.12-.15.22-.15.22,0,.44.15.44.39-.07.07-.12.17-.15.27.02.02.1.1.1.15s-.02.05-.07.05c-.05.12-.17.47-.32.47v.05s0,.1.05.1c.07,0,.2-.15.25-.22,0-.2.3-.22.3-.44.22-.15.42-.32.62-.49l.1-.22.2-.2c.02-.12.12-.15.12-.25.12-.1.2-.25.27-.39.02-.12.12-.12.12-.27,0-.12-.15.02-.17.05.1-.2.22-.47.39-.64l.1.05.12-.17s.39-.91.49-.91l.07-.07.12.07c0-.3.25-.32.49-.42.32,0,.17.27.67.12.05.02.3.07.3.1,0,.07-.12.1-.12.15s.2,0,.25-.07c.1,0,.05.1.05.15s.05.05.07.05l.27.12c.05.1.59.59.74.59.05,0,0-.12.07-.12s.22.25.27.32c.02.12.1.39.25.39.52.59.44.71,1.18,1.11v.05c0,.22.17,0,.27,0,.02,0,.02.02.02.05l.05.1-.07.1s-.22.02-.22.07.1.07.12.1v.12l.15.12c0,.27.2.05.2.3,0,.05.02.1.07.12l.17.17s0,.01,0,.02h-3.38l-4.11,15.88,3.2,4.32,1.13-4.38h1.64l1.26,9.76h4.58l-1.36-9.89c2.26-.41,3.72-1.89,4.38-4.45l1.72-6.66c.19-.74.27-1.39.23-1.95.03-.02.06-.05.09-.08.1,0,.07-.07.07-.15,0-.02.02-.05.07-.05.1-.12.22-.3.22-.47l.17-.25s.2.05.2.07h-.05c-.02.1-.1.44-.22.44l.07.1h.12c.07,0,.07-.05.07-.1,0-.07.05-.07.1-.07,0-.17.15-.35.25-.47.05.05.1.1.17.1.05,0,.05-.05.05-.1.05-.1.39-.54.17-.54.05-.42.35-.84.52-1.21l.1-.07c0-.2.1-.32.1-.49.07-.02.1-.12.1-.2,0-.2.2-.22.2-.44l.1-.17c0-.1.07-.12.07-.22l.1-.17c.17-.07.02-.32.17-.42l.27-.39s-.05-.05-.05-.07c0-.12.25-.15.25-.3,0-.17.17-.3.17-.47.12,0,.17.1.3.1,0,.17-.1.52.2.44l-.1.1.15.2c.15,0,.12.37.3.37l-.02.1c0,.07.07.1.12.1.32.25.39.44.57.76l.15.05.02.22c.12.2.3.39.49.54v.05c0,.07.07.1.15.1.15.25.3.49.47.74,0,.32.64.3.64.67.22,0,.25.37.44.37.17.2.35.39.57.54,0,.1.05.1.12.1.05,0,.07.02.07.07.27.1.59.37.76.59.09,0,1.14.93,1.41,1.05l-5.65,21.84h4.27l3.01-11.63h5.43l1.11-4.27h-5.43l1.39-5.36h8.34l1.11-4.27h-12.2c-.18-.2-.37-.44-.55-.61ZM98.81,16.25l.12-.07.07-.1s.17.12.17.17-.37-.02-.37.2c-.05,0-.27-.05-.27-.15,0-.05.22-.05.27-.05ZM98.31,16.55s.1,0,.1.05-.1.05-.12.05l-.07.1c.02-.07.02-.2.1-.2ZM99.55,15.09s.07,0,.07.05h-.02s-.07,0-.07-.05h.02ZM97.72,16.64s.02.02.02.05,0,.05-.02.05-.05-.05-.05-.07c0,0,.02-.02.05-.02ZM97.52,16.74s.07,0,.07.05c0,.02,0,.05-.02.05-.05,0-.07-.05-.07-.1h.02ZM97.4,16.94c-.07,0-.07-.02-.07-.1.05,0,.07.05.07.1ZM97.4,17.06s0,.07-.02.07c-.05,0-.05-.07-.05-.1l.07.02ZM96.86,17.11l.22-.27s.17.05.17.12c0,.02,0,.05-.02.07-.12,0-.2.07-.32.07l-.05.1v-.1ZM97.15,17.21s0-.1.02-.1.05.07.05.1c-.02.07-.15.1-.22.1-.07.1-.2.15-.32.15,0,0,0,.07-.02.07s-.02-.02-.02-.05.44-.27.52-.27ZM96.14,17.56s.05.02.05.05,0,.07-.05.07c-.02,0-.05-.07-.05-.1.02,0,.02-.02.05-.02ZM96.19,19.53s0,.07-.05.07c-.02,0-.05-.07-.05-.1l.1.02ZM95.97,19.7s.05.02.05.05c0,0,0,.02-.02.02s-.05-.05-.05-.07h.02ZM95.63,18.12s-.05-.07-.05-.1l.1.02s0,.07-.05.07ZM95.82,18.02s-.05-.07-.05-.1l.07.02s0,.07-.02.07ZM95.68,17.85s0-.12.05-.12c.02,0,.07.1.1.12-.22,0-.25.17-.39.17-.05,0-.05-.07-.05-.1.1,0,.17-.07.3-.07ZM95.4,18.12s.07,0,.07.05h-.02s-.07,0-.07-.05h.02ZM95.28,18.05s0,.07-.05.07c-.02,0-.05-.07-.05-.1l.1.02ZM95.23,19.77s.05.02.05.05c-.02.02-.07.05-.12.05-.02,0-.05-.05-.05-.07.02-.02.07-.02.12-.02ZM94.71,18.39c.2,0,.05-.17.37-.2-.07.02-.1.15-.07.2-.17,0-.17.2-.42.2l-.25.25-.35.1c.15-.25.44-.44.71-.54ZM93.16,20.88l.12.1.05.17c-.1,0-.17,0-.17-.1v-.17ZM92.96,21.35c.27-.02.64-.2.84-.37.12,0,.12-.1.25-.1l.15.2s-.07,0-.07.02c0,0,.12.05.15.05l-.35.2s-.05.12-.1.12,0-.22-.07-.22c-.05,0-.05.07-.05.1l-.37.2h-.37s-.1,0-.1-.05.05-.1.1-.15ZM92.69,21.55l.1.2c-.07,0-.1-.02-.1-.1v-.1ZM91.88,17.95s0,.07-.05.07c-.02,0-.05-.07-.05-.1l.1.02ZM91.21,22.29l.27-.1c0-.15.1-.07.15,0l.15-.2s0-.05.05-.05.1.05.15.07c0,.02,0,.1.05.1.17,0,.27-.2.42-.27.05.02.27.1.27.15,0,.02-.1.02-.12.02-.17.15-.99.62-1.28.62,0-.05,0-.1-.05-.1s-.05.07-.05.1c-.05,0-.2,0-.2-.1l.2-.25ZM91.21,14.99l.1.17c-.07,0-.1-.05-.1-.12v-.05ZM90.94,22.95s0,.07-.05.07c-.02,0-.05-.07-.05-.1.02,0,.02-.02.05-.02s.05.02.05.05ZM90.84,18.39s0-.1.02-.1.02.05.02.07c0,.07-.05.12-.12.12,0,.02,0,.07-.02.07s-.02-.05-.02-.07c0-.07.07-.1.12-.1ZM77.46,22.83s-.07.02-.1.02c-.05,0-.07-.02-.07-.07l.17.05ZM78.62,21.7s-.07-.05-.07-.1l.07-.02s.02.02.02.02c0,.02,0,.1-.02.1ZM78.94,21.87l-.2-.02c0-.12.1,0,.1-.12h.2c0,.1-.1.02-.1.15ZM79.09,21.62s-.02-.05-.02-.07v-.02l.07.02s-.02.07-.05.07ZM81.8,16.6l.1.02s-.02.07-.05.07c-.05,0-.05-.05-.05-.07v-.02ZM80.98,15.68h.07s.07,0,.07.02v.02s-.07.02-.1.02c-.05,0-.05-.02-.05-.05v-.02ZM79.85,20.98c.3,0,.25-.1.22-.37.1-.07.25-.2.37-.2.17-.22.44-.57.69-.71.15,0,.05-.2.25-.17.17-.1.39-.3.49-.47.02-.02.15-.44.25-.44.02,0,.02.02.02.05.05.05.12.12.12.2,0,.02-.02.05-.05.07h-.05s-.02.07-.02.1c0,.05-.05.02-.07.02l-.17.2c-.07,0-.07.05-.07.1s-.02.07-.07.07c-.25.25-.54.49-.74.79l-.52.22h-.02c-.1,0,.02.12.05.12-.25.2-.49.44-.69.69,0,.17-.15.12-.27.1l-.22.07c0-.12.1-.12.1-.25l-.17.05s-.05.1-.1.1c-.02,0-.02-.05-.02-.05,0-.15.05-.15.17-.15l.07-.1.07.12.15-.1-.15-.25.12-.07.17.2s.02.12.07.12c.02,0,.02-.05.02-.07ZM79.8,19.77s0,.07-.05.07c-.02,0-.05-.07-.05-.1l.1.02ZM78.57,20.14s.05.02.05.05-.02.05-.05.05-.05-.05-.05-.07c.02,0,.05-.02.05-.02ZM78.57,20.64l.07-.2c.25-.05.47-.07.47-.37.17,0,.17-.17.37-.17h.12l-.22.1c-.15.2-.35.42-.54.57h-.02c-.12,0-.15.17-.3.17,0,.02,0,.07-.02.07s-.05-.05-.05-.07l.12-.1ZM11.26,33.93c-.08,0-.15-.04-.15-.11v-.04l.26.04c0,.08-.04.11-.11.11ZM4.56,36.98c-.11,0-.19,0-.3.04,0-.11.26-.08.34-.08l-.04.04ZM7,37.65s-.11,0-.11-.04.04-.11.04-.15c.04,0,.08.08.08.11v.08ZM11.71,33.66l.08.04s-.04.11-.08.11t-.04-.08s.04-.04.04-.08ZM12.16,35.02l-.15.11-.3-.08.08-.23.41.04-.04.15ZM12.24,34c-.11,0-.15-.08-.15-.15h.08c.08,0,.15,0,.15.08,0,.04-.04.08-.08.08ZM12.58,34.87c-.08,0-.08-.08-.08-.11v-.04c.08,0,.23.04.23.15h-.15ZM13.07,33.66c.08,0,.15.04.15.11t-.08.04c-.08,0-.08-.04-.08-.11v-.04ZM13.03,34.57s.04.19.04.26c-.04-.04-.11-.26-.04-.26ZM13.18,34.42c-.08-.04-.11-.08-.11-.15l.04-.11.3-.11-.23.38ZM13.56,34.72l-.23-.23c.11,0,.23.08.23.19v.04ZM14.35,33.32v-.15c.08,0,.11.11.11.15h-.11ZM22.59,35.51l.08-.11s-.04.08-.08.11ZM23.19,23.35s0,.08-.04.08c-.08,0-.11-.08-.11-.15l.15.04v.04ZM23.53,21.24v-.04h.08s.08.04.08.08-.04.08-.08.08c-.08,0-.08-.04-.08-.11ZM23.87,22.22l-.15.11-.11-.19.11-.15c.04-.15-.08-.49.15-.49l.19-.08c-.04.26-.19.26-.19.79ZM24.63,20.48v.04c0,.15-.08.3-.23.3.08-.23.3-1.13.56-1.13-.04.15-.11.83-.34.79ZM24.89,18.83c-.08,0-.08-.08-.08-.11l.04-.04c.08,0,.11.08.11.15h-.08ZM25.23,19.05c-.11,0-.11-.11-.11-.19h.04c.08,0,.11.04.11.11,0,.04,0,.08-.04.08ZM28.2,12.88s.08.04.08.08,0,.11-.08.11c-.04,0-.08-.11-.08-.15l.08-.04ZM27.75,13.78s0-.26.04-.26c.08,0,.08.26.08.3l-.11.11s-.15-.08-.15-.11.11-.04.15-.04ZM28.65,33.96l-.15.15h-.08c-.08,0-.15,0-.19.08l-.94.38v.08c-.11,0-.19-.23-.19-.26,0-.11.11-.08.15-.08.19,0,.3-.19.56-.19.26-.19.56-.3.83-.49.08.08.15.15.15.26,0,.08-.08.08-.15.08ZM28.62,32.8c-.19,0-.23.15-.45.08,0,.11-.53.3-.6.3-.3,0-.56-.04-.87-.08.04-.49.15-.26.49-.26.26,0,1.13.04,1.13-.38.11.04.72.23.72.3-.11.08-.3.04-.41.04ZM37.43,10.2c0-.26.3-.19.3-.53l.15.19c0,.11-.04.3-.15.38-.04.19-.19.3-.34.34,0,.04,0,.11-.04.11-.11,0-.11-.23-.11-.3,0-.11.04-.23.19-.19ZM35.66,12.09l.15-.53c.19-.26.41-.15.45-.56l.34.34c-.04.19-.15.15-.19.3l-.34.26c0,.19-.11.15-.15.34-.08,0-.3-.04-.26-.15ZM36.64,12.8c0,.19-.08.15-.23.15-.19,0-.04.41-.3.53,0,.11-.08.26-.19.3,0,.04-.04.23-.11.23-.04,0-.04-.08-.04-.11,0-.19.08-.34.19-.45.04-.19.08-.56.34-.53l.34-.11ZM35.43,12.5l.15-.15-.15.23s0,.11-.08.11c-.04,0-.08-.04-.08-.08,0-.08.11-.11.15-.11ZM33.93,15.55s.08-.41.15-.41c.04.08.04.19.04.3s-.08.19-.19.19c-.04,0-.11,0-.11-.08,0-.04.11,0,.11,0ZM33.62,17.62h.08c.19,0-.04-.34.26-.23.04-.3.26-.49.3-.83.19,0,.11-.15.3-.15l.41-.9c.15,0,.15-.11.15-.23,0-.08.04-.11.11-.11l.3-.34s.08.04.08.08c0,.15-.23.26-.23.49,0,.41-.9,1.36-.83,1.84l-.23.26-.15.04c0,.26-.19.11-.26,0,0,.11.08.23.08.34l-.04.15c0,.11-.04.23-.15.23-.15,0-.23-.23-.23-.34l-.11-.3s-.11.08-.19.08-.11-.08-.11-.15c0-.11.11-.19.23-.19.15,0,.23.11.23.26ZM32.76,17.7c.04-.23.38-1.02.56-1.02h.08c-.11.11-.19.3-.15.45l-.49.56c-.04.19-.11.34-.23.49.04-.19.08-.38.23-.49ZM32.87,19.96s0,.08-.04.08-.08-.08-.08-.11,0-.08.04-.08c.08,0,.08.08.08.11ZM32.46,17.09s.08.11.08.19-.04.08-.11.08l-.19.26s-.11,0-.11-.08c0-.15.23-.38.34-.45ZM32.16,18.71l.04-.08.15.08s-.04.11-.11.11c-.04,0-.08-.08-.08-.11ZM32.19,21.24s0,.04-.04.04c-.19.15-.34.38-.41.6,0,.08-.04.34-.19.34-.08-.08-.11-.19-.11-.26,0-.26.15-.53.34-.72,0-.08.04-.19.15-.19.08,0,.26.11.26.19ZM31.93,19.09h-.04c-.08,0-.11-.04-.11-.11.08,0,.15.04.15.11ZM31.78,19.39c-.11-.04-.15,0-.15-.15.08,0,.15.08.15.15ZM31.37,19.84h.04s.08.08.08.11-.04.08-.08.08-.04-.08-.04-.11v-.08ZM31.14,20.22h.04c.08,0,.11.04.11.11,0,.04-.04.08-.08.08-.08,0-.08-.08-.08-.11v-.08ZM31.06,23.42h-.15s-.08.15-.11.15c-.08,0-.04-.15-.04-.19v-.08s.3.08.3.11ZM30.73,20.86c.08,0,.08.04.08.08s-.04.11-.08.11c-.08,0-.08-.11-.08-.15.04,0,.08-.04.08-.04ZM30.54,24.21l-.04.38c-.11,0-.3-.08-.26-.23-.04,0-.11,0-.11-.08s.08-.15.15-.23l.26.15ZM30.35,24.74c0,.08-.08.11-.15.11l-.15-.15.3.04ZM29.11,33.85l.19-.41c.04.08.08.15.08.23l-.26.19ZM29.14,27.56l.11-.04s.04,0,.04.04,0,.15-.08.15-.08-.11-.08-.15ZM29.18,24.59c-.08-.04-.08-.19-.08-.26v-.04l.34-.3h.04c.11,0,.11-.08.11-.15.04-.15.15-.15.19-.3l.3-.3s.04-.3.08-.3.04.11.04.11v.11l-.15.19-.04.34c-.15.15-.72.9-.83.9ZM29.48,26.7v-.08c.08,0,.15.08.15.15h-.04c-.08,0-.11-.04-.11-.08ZM29.82,33.55c-.11,0-.26-.04-.26-.19v-.04c.11,0,.26.04.26.19v.04ZM30.05,33.7l.08-.15s0-.15.04-.15.04.11.04.15l-.15.15ZM30.05,26.73s0,.08-.04.08-.11-.19-.11-.23c0-.11.04-.23.15-.23l.23.04c-.04.11-.11.26-.23.34ZM31.03,26.58s-.08-.04-.08-.08l.04-.08h.04s.08,0,.08.04-.04.11-.08.11ZM31.4,26.39c-.08,0-.15-.04-.15-.11h.04c.08,0,.15.04.15.11h-.04ZM31.52,26.73v-.08h.08q.08,0,.08.04s-.04.11-.08.11c-.08,0-.08-.04-.08-.08ZM31.89,32.23h-.23s-.11-.04-.11-.11l.04-.08c.08,0,.26-.04.19-.15.11,0,.49.08.49-.11l.34.34c-.26-.04-.45.11-.72.11ZM31.85,26.55s.08-.04.11-.04c0,.04-.04.19-.08.19l-.04-.15ZM33.4,31.67c0,.08,0,.19-.11.19l-.34-.41-.68.23.19-.38c.3,0,.19,0,.38-.15l.56.41v.11ZM32.38,26.24c.08.04.11.08.11.15-.08-.04-.11-.04-.11-.15ZM32.65,26.13l.15.04s0,.11-.08.11c-.04,0-.08-.11-.08-.15ZM32.95,25.94l.15.04s0,.11-.08.11c-.04-.04-.08-.08-.08-.15ZM33.25,25.75c.08.04.11.11.11.19-.08,0-.11-.11-.11-.19ZM33.62,25.87c-.08,0-.11-.08-.11-.11s.04-.08.08-.08.08.08.08.11,0,.08-.04.08ZM34,31.1h-.34v-.19l.53-.19s0-.08.04-.08c.15,0,.26.19.34.3-.11.04-.45.15-.56.15ZM34.64,31.33c-.08,0-.11-.11-.11-.15h.04c.08,0,.11,0,.11.08,0,.04,0,.08-.04.08ZM35.28,31.21c-.08,0-.11-.08-.11-.15v-.04l.26.08c0,.08-.08.11-.15.11ZM37.77,29.78c-.15.11-.34.34-.56.26-.34.19-.64.45-1.05.45-.15,0-.19-.08-.19-.23-.11.23-.23.49-.53.49-.15,0-.34,0-.34-.19v-.04c.19,0,.23-.15.19-.3.15-.08.3-.19.49-.19.11,0,.19.11.19.23l.15.04c.08,0,.15-.04.19-.11.38.04.19-.26.45-.34l.83-.23c.08-.08.3-.3.41-.3.08,0,.08.08.08.11l.15.08-.19.19c0,.15-.15.11-.26.08ZM38.29,30.65c-.08,0-.26,0-.26-.11s.34-.19.41-.19l-.15.3ZM39.01,29.93l-.11.15c.04-.11.04-.38.19-.38.08,0,.15.08.15.15s-.19.08-.23.08ZM40.06,29.78s0,.04-.04.04c-.08,0-.19-.26-.19-.34,0-.11.08-.19.19-.19,0-.04,0-.19.08-.19.04,0,.11.19.15.23.04,0,.08,0,.08.04,0,.15-.15.3-.26.41ZM41.76,29.36v.27c-.12.07-.25.22-.32.37l-.17.1s-.03,0-.04,0c.02-.21.41-.18.49-.63-.04-.04-.11-.08-.11-.11,0-.07.13-.04.18-.04l-.02.03ZM41.49,29.03l-.34.26c.03-.11,0-.23-.05-.35h.17s.02.01.03.01c0,0,.01,0,.02-.01h.54v.05c-.07.09-.25.06-.37.03ZM42.9,31.66s-.25.39-.3.39c-.02,0-.02-.05-.02-.07v-.2l.1-.15c.12,0,.05-.2.15-.2.05,0,.2.1.2.17,0,.05-.1.05-.12.05ZM43.14,31.29s-.07-.05-.07-.1h.02s.07,0,.07.05c0,.02,0,.05-.02.05ZM43.39,30.67l-.1.12v.2c-.1,0-.22-.02-.22-.15.05-.12.17-.25.32-.25l.07-.07s0,.15-.07.15ZM43.69,30.28h-.22c0-.12.12-.02.12-.15h.17s-.07.12-.07.15ZM43.88,30.6c-.12,0-.1-.1-.1-.2l.2.2h-.1ZM43.78,29.93s.02-.02.05-.02.05.02.05.05,0,.07-.05.07c-.02,0-.05-.07-.05-.1ZM43.98,29.83c-.17,0-.2,0-.2-.17l.2-.02v.2ZM43.11,18.11h-.04c-.19,0,.04.45.08.53,0,.34-1.28,1.43-1.32,1.66l-.6.49c0,.23-1.05.98-1.24.98l-.34.34v.08c0,.11-.15.11-.23.08,0,.3-.38.41-.53.64h-.08c-.15,0-.49,0-.53.19-1.02.49-1.39.94-2.45,1.32-.04.23-.6.26-.79.3,0,.19-.41.23-.56.23l-.72.3c0,.23-.56.23-.72.23-.11.19-.6.23-.83.19-.04.19-.19.23-.34.23-.08,0-.04.04-.04.08,0,.15-.53-.11-.79.15-.19-.04-.23.11-.41.11-.08-.15-.3-.15-.41-.15,0-.15.08-.34.15-.49.11-.04.23-.15.26-.26,0-.23.11-.38.11-.72l.19-.19c.04-.15.15-.23.19-.38.15-.11.3-.68.38-.87-.08,0-.11-.04-.11-.11s0-.11.04-.19l.38.04c.38-.41.11-1.13.6-1.13.04,0,.04-.04.04-.08.08-.08.15-.26.15-.38h-.08c0-.08.15-.11.19-.11l.19-.53-.04-.26.11.08c.08-.04.23-.68.26-.79l.38-.15.11-.64.26-.15v-.3l.15-.11c0-.15.04-.3.15-.41.04-.34.72-.6.72-1.02,0-.11,0-.26.11-.34l.49-.9v-.49l.34-.19c-.08-.08-.11-.15-.11-.26,0-.15.15-.34.23-.49h.04c.15,0,0-.34.3-.3,0-.04.38-.6.38-.64,0-.19.11-.3.11-.49.11-.15.19-.38.23-.56l-.11-.23c-.11.15-.19.68-.34.68-.11,0-.15-.08-.15-.15,0-.26.19-.3.23-.56-.08,0-.11-.08-.11-.15l.04-.19c.08-.04.38-.3.11-.3l.11-.34c.41.08.26.72.26.98h.04c.38,0,.15-.64.49-.64.19,0,.19-.75.19-.9l.41.04c.19-.08.34-.26.45-.45.08.15.26.23.41.23v.04c0,.26,1.47.49,1.81.6l1.09.34c0,.23.3.04.3.3.11,0,.23.08.23.19.3,0,.34.45.6.49.11.11.6.56.53.75.11.08.15.23.15.34l.26.23c0,.11,0,.26.11.34-.19,1.62-.19,2.82-1.13,4.25ZM45.17,28.33c0,.2-.17.17-.17.32l-.1.02s-.1-.05-.1-.1.02-.15.1-.15l.2-.35.17.07-.1.17ZM48.99,8.7h.08s.04,0,.04.04,0,.11-.04.11c-.08,0-.08-.08-.08-.11v-.04ZM49.04,28.08c-.12,0-.25.07-.37.07l-.17-.02.39-.05s0-.17.07-.17c.02,0,.07.05.1.07.02,0,.15,0,.15.05s-.15.05-.17.05ZM50.22,18.22c0,.06-.02.1-.06.13-.03-.03-.04-.07-.04-.13v-.15s.08.06.13.1c0,.01-.02.03-.02.04ZM53.32,21.08s-.2.07-.2-.02l.2.02ZM51.82,16.3s.04-.07.08-.07c.02,0,.02.07.02.1l-.11.11v-.14ZM51.35,22.59c.17,0,.17-.3.27-.39l.17.1-.17.2c-.02.1-.15.39-.27.39-.02.02-.05.07-.1.07s-.05-.1-.05-.12l.15-.25ZM50.44,24.38s-.05-.15-.05-.22c.05.02.32.12.32.15,0,.1-.2.07-.27.07ZM50.81,23.77v-.12l.1.2s-.1,0-.1-.07ZM50.76,17.09c-.08-.08-.15-.19-.15-.34l.04-.3c0-.11.04-2.33.49-2.3-.04.75-.04,1.51-.15,2.26,0,.11,0,.72-.23.68ZM51.85,27.56c-.07,0-.15.05-.15.15l-.62.05-.1-.12c.35-.02.54,0,.81-.2l.12.12h-.07ZM52.39,27.47v-.02l.15.17c-.1,0-.15-.07-.15-.15ZM53.6,30.18c0,.27-.27.69-.27.96l-.1-.05v-.22c.05-.07.17-.27,0-.27.07-.1.1-.22.1-.32l.1-.12v-.22l.17.05v.2ZM53.42,29.76h.02s.05.02.05.05h-.02s-.05-.02-.05-.05ZM53.55,29.56s-.05-.07-.05-.1l.1.02s0,.07-.05.07ZM53.6,28.99v-.02l.12.17c-.07,0-.12-.07-.12-.15ZM53.6,28.3h.05s.07,0,.07.05c0,.02-.02.02-.02.02-.05,0-.1-.02-.1-.07ZM53.84,30.7s0,.07-.02.07-.1-.22-.1-.25,0-.05.02-.05c.07,0,.22.07.22.17,0,.05-.07.05-.12.05ZM54.01,22.02c-.17.1-.3.15-.3.37.2,0,.22,0,.22.2-.22,0-.22.22-.22.39.05,0,.1.02.1.1,0,.12-.15.22-.22.3l-.17.47c-.12,0-2.05.27-2.07.39l-.25-.1c.1,0,.17-.1.2-.2l.12-.05c.07-.12.15-.35.27-.42v-.12l.39-.2c-.05-.07-.07-.17-.07-.27-.17.12-.32.27-.49.42,0,.15-.22.25-.32.3,0-.07-.05-.17-.12-.2h.05c.1,0,.17-.05.17-.15.22,0,.32-.27.49-.27-.05-.05-.07-.1-.07-.17,0-.02.02-.02.05-.02.22,0,.05-.2.25-.2,0-.25.27-.3.27-.47l.35-.39c.15,0,0-.2.22-.2l.05.3s-.1,0-.1.05.1.07.12.07c.2,0-.12-.22.39-.22.25,0,.1-.39.27-.39l.42-.27s0-.12.05-.12c.02,0,.05.17.05.2,0,.15.1.22.1.39-.25,0,.05.49-.2.49ZM55.15,30.4c0,.14-.06.29-.11.44h-.12s0-.04,0-.07l-.17-.37.3-.35v-.39l.1.15v.59ZM55.22,29.54l-.07-.12v-.25l.07.17v.2ZM55.15,28.99v-.12l.07.17s-.07,0-.07-.05ZM55.32,29.46v-.1l.1.17s-.1-.02-.1-.07ZM55.52,27.96l-.1-.02v-.22l.1.05v.2ZM55.74,27.76l-.12-.02v-.2l.12.05v.17ZM55.86,21.16s-.05-.07-.05-.1c.02,0,.02-.02.05-.02s.05.02.05.05,0,.07-.05.07ZM55.99,20.83s-.07,0-.07-.05h.05s.07,0,.07.05h-.05ZM65.26,13.09s.05.02.05.05,0,.07-.05.07c-.02,0-.05-.07-.05-.1.02,0,.02-.02.05-.02ZM60.03,15.73h.22v.22c-.07.07-.12.17-.12.27l-.3.49v.05s-.1-.2-.1-.22c0-.25.3-.54.3-.81ZM59.14,17.61c0-.22.17-.07.17-.22h.49s.1.05.1.07-.02.02-.05.02l-.22.37c0,.3-.32.15-.32.37,0,.07.02.15.05.22.02,0,.1,0,.1.05,0,.07-.1.15-.15.2v.32l-.17-.17c0-.1-.05-.1-.12-.1s-.07-.05-.07-.1c0-.3.2-.67.2-1.04ZM59.24,19.5h-.07s-.02-.05-.02-.07c.05,0,.1.02.1.07ZM58.94,19.11l.1.2c-.07,0-.1-.02-.1-.1v-.1ZM58.58,20.37s.05.02.05.05,0,.05-.02.05c-.05,0-.05-.07-.05-.1h.02ZM58.55,20.61s0,.07-.05.07c-.02,0-.05-.07-.05-.1l.1.02ZM57.74,21.16s-.02.07-.07.07c-.07,0-.12-.1-.12-.17l.2.1ZM56.83,18.07s0,.07-.05.07c-.02-.02-.05-.05-.05-.1l.1.02ZM56.5,18.94s-.07-.05-.07-.1h.02s.07,0,.07.05c0,.02,0,.05-.02.05ZM56.63,18.37v-.1l.1.17s-.1,0-.1-.07ZM62.84,27.24s-.05-.1-.1-.1c-.02,0-.02.1-.02.1l-.07.05-.02.25-.12.25h.02c.07,0,.07.12.07.17-.17,0-.2.37-.2.49l-.12.2c-.02.1-.1.15-.12.25-.07.12-.22.32-.25.47l-.17.15c0,.1-.1.15-.1.25-.07.05-.1.17-.1.25-.07.04-.29.62-.34.83h-4.49c.01-.08.02-.14.02-.17.07-.07.1-.17.1-.27h.2l.02-.2h.12c.07,0,.07-.07.07-.15l-.35-.05c0-.25.22-1.06.44-1.06v.05c0,.07.02.15.1.15,0-.1.02-.2.1-.27,0-.1.1-.1.1-.2,0-.07-.1-.1-.15-.1l-.05-.1-.05-.02c-.17,0-.15.39-.22.39-.02,0-.02-.05-.02-.05,0-.39.2-.89.2-1.26.02-.05.12-.22.17-.22s.02.35.02.42c0,.1-.12.12-.2.1v.52h.3l-.07-.27.07-.17.1-.07c0-.15.02-.39-.1-.52,0-.62.32-.59.81-.59.1,0,.22-.02.27-.1,0-.12.15-.12.22-.1,0-.25.79-.27.86-.35.44.16.97-.14,1.42-.11-.34.15-.75.26-.96.3,0,.2.1.17.25.17l.15-.1.37.1c-.22.07-.47.2-.69.25-.07.02-.42,0-.42.05s.1.12.12.15l.49.02c.02-.15.62-.1.67-.32l.22.02.25-.12c.17,0,.89-.07.96-.15l.22.12s.07-.1.12-.1.05.07.05.1c0,.12.02.67-.2.67ZM58.55,24.43s.07.02.07.07h-.05s-.02-.05-.02-.07ZM58.82,24.34c.49,0,1.01-.1,1.5-.1,0,.17-.86.22-.99.22-.17,0-.37-.05-.52-.12ZM61.41,25.49c0-.12.17-.1.25-.1.12,0,.62-.2.79-.22,0-.03.03-.06.07-.08,0,0,.02.02.03.03-.02.02-.22.2-.07.2l.02.09c-.32.07-.7.08-.96.08-.1,0-.52.37-.81.37-.05,0-.12-.05-.12-.1,0-.15.74-.17.81-.27ZM60.87,24.06l.27.02s-.27.07-.27-.02ZM62.05,24.61l.2.02s-.05.07-.1.07l-.1-.1ZM62.79,24.6c-.16,0-.31-.05-.44-.1l.25-.02.21.1s0,.01-.01.02ZM62.89,25.27s-.27.05-.27-.05l.27.05ZM61.21,26.46s0,.05-.02.05c-.05,0-.07-.07-.07-.1h.02s.07,0,.07.05ZM63.01,25.17v-.02s.07,0,.07.05v.02h-.02s-.05,0-.05-.05ZM63.38,30.5c-.12,0-.07.1-.07.2,0,.05-.05.07-.1.07l-.03.1c-.08,0-.15-.01-.23-.02.17-.08.26-.12.26-.35l.2-.3.07.1c-.12-.02-.12.12-.1.2ZM63.53,29.36l-.2.35c-.07,0-.15-.02-.15-.12,0-.12.25-.44.39-.42v-.07s.02.1.02.1c0,.05,0,.2-.07.17ZM63.78,29.66s-.12-.02-.12-.07c0-.1.07-.17.1-.27l.12.17-.1.17ZM64.25,28.45c-.12,0-.1.2-.07.27-.02-.05-.07-.1-.12-.1s-.07.05-.07.1h-.02c-.07,0-.17-.02-.17-.12l.32-.07c0-.12.1-.17.1-.3l.2-.07-.15.3ZM64.2,27.96h.05s.07,0,.07.05c0,.02-.02.05-.05.05-.05,0-.07-.05-.07-.1ZM64.49,27.84l.02-.12.07.17s-.1,0-.1-.05ZM64.34,23.57l-.44.17c-.07.15-.07.1-.25.07-.05.04-.11.08-.16.12h-.53c0,.12-.54.12-.62.12l-.67-.02s-.3,0-.3-.05c.07-.05.17-.05.25-.05,0-.25.1-.17.32-.17,0-.12.1-.17.2-.15,0-.2.35-.22.49-.22,0-.15.2.02.22.05.2,0,.2-.02.2-.2.12,0,.22.1.35.1.2,0,.07-.2.22-.2l.07.1h.2l.15-.25c.23-.02.44-.08.66-.11-.03.22-.23.54-.36.68ZM64.86,29.61s-.07-.07-.07-.1l.1.05s0,.05-.02.05ZM65.18,26.21s-.02-.05-.02-.07v-.02l.07-.02s.02,0,.02.02c0,.05-.02.1-.07.1ZM65.38,29.27c-.15-.02-.17,0-.17-.17h.17v.17ZM65.72,28.62s-.1-.02-.1-.1c0-.15.22-.47.3-.59l.15.1c-.07.2-.15.39-.25.57l-.1.02ZM66.41,29.51q.02-.1.12-.1s-.07.1-.12.1ZM66.24,29.19l-.2-.02v-.17l.49-.42.05-.39c.1.05.2.15.2.27,0,.22-.42.54-.54.74ZM66.76,26.92l-.17.22-.05.27c-.1,0-.2,0-.2-.12,0-.37.12-.25.15-.47l.17-.17s0-.17.07-.17c.05,0,.1.05.1.1,0,.07-.1.07-.15.07l.07.27ZM66.76,29.04s-.02-.05-.02-.07c.05,0,.1.02.1.07h-.07ZM66.64,27.56v-.15c.12.1.27.2.27.37-.17,0-.27-.05-.27-.22ZM67.6,27.86s-.02-.05-.02-.05v-.05s.02-.02.05-.02.02.02.02.05-.02.07-.05.07ZM67.77,16c-.15.05-.27.1-.39.17v.1l-.52.02c.07.07.67.49.67.17.05.02.3.12.3.17,0,.1-.49,0-.54,0l-.1.07.2.12c.12.02.25,0,.35-.07.02.02.07.05.07.07s-.05.02-.07.02c-.02.12-.12.15-.15.32l-.1.15c-.12.1-.02.35-.17.44-.02.12-.35.42-.35.64l-.2.2c-.02.15-.02.39-.22.39-.02.07-.02.27.1.27-.47.25-.52.86-.74,1.33l-.02.44c-.25,0,.1.2-.35.2-.05,0-.05.1-.05.12h-.02c-.17,0,.02.44-.17.49.02.05.07.1.07.17,0,.15-.2-.1-.22.2,0,.07-.03.17-.06.26-.55.02-1.08.09-1.67.09-.1,0-.2.05-.27.1-.69-.05-1.41.05-2.1.12,0,.15-.89.07-1.04.07-.25,0-.17.27-.42.27l-.76-.02v-.64c.35,0,.22-1.18.22-1.21,0-.05-.02-.05-.07-.05s-.32.1-.32.17c0,.02.05.02.05.02.12,0,.15.27.15.37l-.02.22c-.02-.07-.15-.3-.25-.3-.02,0-.02.07-.02.1v.57s.07,0,.07.02-.15.07-.17.07c-.05.17-.15.35-.25.47,0,0,0,.1-.02.1,0,0-.07-.17-.07-.2,0-.12.12-.22.12-.35-.02-.1-.12-.12-.2-.12.07-.05.12-.12.17-.2.07-.05.15-.12.15-.22l.1-.22c0-.22.17-.54.17-.81.17,0,.1-.25.1-.35l.1-.22c0-.12.12-.1.12-.22l.1-.2s.07-.25.1-.25v.05l.1.15-.02.2.1.17v-.22l.32-.07c0-.07.02-.2.1-.25v-.49s-.12-.05-.12-.07c0-.05.12-.05.15-.05.05-.07.15-.1.22-.1.07-.2-.02-.62.15-.74h-.02c-.07,0-.07-.12-.07-.17.05-.15.17-.27.3-.35v-.52l.15-.12c0-.17.07-.37.17-.49v-.42l.1-.2v-.37c.07-.07.12-.2.12-.3.12-.1.07-.39.17-.42,0-.15-.02-.3-.05-.44l-.25-.1-.07-.15,1.23.05.1-.1c.71.07,1.33-.05,2.05-.05h.12c.05.07.12.15.15,0l.96.05s.07.07.07.12c0,.07-.37.02-.49.02-.15,0-.32.05-.49.07.42.05.84.05,1.26.05.05,0,.12.05.07.1.02,0,.07.02.07.05,0,.05-.37,0-.37.12-.3.02-.57.07-.86.07l.17.07c.12,0,.12.12.25.15,0,.15-.54.05-.59.05-.15,0-.32.07-.47.05l-.52.17c0,.12.17.12.25.12.1,0,.37.02.39-.1.25.02.47-.07.71-.07.76,0,1.55.12,2.29.2-.37.05-.76.1-1.13.07l-.05.1,1.6.07c.17,0,.17.15.3.15.05.02.1.07.1.15,0,.02-.05.02-.07.02ZM67.72,14.35l-.37.02c-.15.02-.32.05-.47.05-.1,0-.12-.07-.12-.15v-.02l1.06.05h.02s-.12.02-.12.05ZM69.67,21.97l-.17.02v-.2c.07,0,.15-.07.17-.15l.2.12-.2.2ZM75.36,22.46s-.1-.05-.1-.1l.25-.12.17.02c-.1.07-.2.2-.32.2ZM75.66,23.67s-.05-.05-.05-.07v-.02l.1.02s-.02.07-.05.07ZM76.77,23s-.02.1-.07.1v-.1c-.15,0-.3.07-.37.2h-.02c-.15,0-.15.17-.3.17-.07.05-.2.1-.3.1-.05,0-.1,0-.1-.07v-.02l.1-.1s.15-.02.15-.1c.02-.02.76-.44.84-.44,0,.02,0,.15.07.12l-.07.15h.07ZM76.92,22.95s-.05-.07-.05-.1l.1.02s0,.07-.05.07ZM78.35,20.37s0,.07-.05.07c-.02,0-.05-.07-.05-.1l.1.02ZM77.78,20.61l.17.02s-.17.07-.17,0v-.02ZM77.04,21.5s.12-.02.15-.07c.2,0,.44-.27.57-.37.05-.07.15-.07.22-.07.07-.07.17-.1.25-.07v-.05h.1l-.32.25c0,.12-.12.07-.2.05l-.12.2c-.15.1-.3.12-.47.2l-.39.17h-.02l-.05.02.25-.25h.05ZM76.52,13.32c.07,0,.35.07.35.12,0,.02-.02.02-.05.02-.12,0-.25-.05-.35-.1,0-.02.02-.05.05-.05ZM76.18,13.83s-.02.07-.05.07c-.07,0-.12-.12-.12-.17l.17.1ZM75.41,13.49c-.22,0-.39,0-.39-.27.12.02.39.12.39.27ZM71.89,17.46c0-.17.2-.17.22-.39.05,0,.25.02.25.05s-.15.1-.17.12l-.2.39s-.05.12-.1.12-.1-.07-.1-.12l.1-.17ZM70.68,20.39l.05-.02s.05.02.05.05-.02.07-.05.07c-.05,0-.05-.05-.05-.07v-.02ZM70.36,21.2c-.07.02-.2.05-.27.05-.05,0-.2-.02-.2-.1l.2-.1c.02-.12.1-.2.12-.32l.27.07c0-.07,0-.2.07-.25l.2-.02s-.02.15-.1.15l-.2.22-.1.3ZM72.95,29.09v-.1l.25.27c-.17,0-.25.02-.25-.17ZM73.19,20.34l-.17.15h-.05s-.12,0-.17.05c-.2,0-.1,0-.1.1l-.02.07-.3-.07q0,.17-.17.17c-.12.05-.25.1-.35.17-.02.07-.1.1-.17.1l-.17.15c-.17.05-.71.27-.91.27-.02,0-.1-.02-.1-.05,0-.05.07-.07.1-.1,0-.1.05-.12.15-.12s.1-.22.12-.3c.02,0,.1,0,.1-.05s-.07-.12-.12-.15l.1-.2c.25,0,.25-.2.32-.37l.05.02c.07,0,.05-.17.05-.22.22-.12-.1-.35.3-.35l.05-.27h-.05c-.2,0-.2.17-.42.12l-.17.2c-.12,0-.12.15-.1.22l-.2.17s-.1,0-.1-.05.07-.12.1-.15c0-.79.67-.94.67-1.33.25-.15.2-.52.42-.52l.1.17c-.02.22-.22.25-.22.44l-.22.25c0,.07-.02.2-.1.25h.39c0-.12-.02-.62.22-.37l.07-.15v-.17l.22-.22c.07-.17.15-.35.2-.54h.05c.15,0,.15-.07.15-.17,0-.07.02-.15.1-.15,0-.12.02-.25.17-.25,1.04,0,1.87.35,2.86.42v.05c0,.3.49.07.49.42l.3.05s0-.07.02-.07c.05,0,.12.25.15.3l-.35.47-.22-.02-.05.07c-.1,0-.07.07-.07.12,0,.2-.35.25-.52.25-.12,0,0,.2-.17.15l-.2.07c-.1-.02-.2,0-.2.12-.07,0-.15.02-.17.1l-.25.15c-.22,0-.57.15-.74.27h-.05s-.07.02-.07.07h-.17l-.02.2-.37.05ZM77.31,30.23s.05.02.05.05v.02h-.07s.02-.05.02-.07ZM76.15,28.08l.05-.02s.05.02.05.05-.02.07-.05.07c-.05,0-.05-.05-.05-.07v-.02ZM75.95,27.76h-.05s-.05-.05-.05-.07c.05,0,.1.02.1.07ZM75.21,30.5s.02.1.02.12l.1.07h-.1s-.07-.05-.07-.1c0-.02,0-.1.05-.1ZM74.94,29.73s0,.17-.05.17c-.02,0-.07-.17-.07-.2-.2,0-.27-.07-.27-.27l-.05-.07c.12.15.3.25.44.37ZM74.13,28.87l.17-.02-.05.2s-.15.02-.15-.05c0-.05.02-.07.02-.12ZM73.93,28.55s-.2.07-.2-.02l.2.02ZM73.79,25.12s0,.07-.02.07c-.05,0-.05-.07-.05-.1l.07.02ZM77.93,37.04l-.73,2.81c-.4,1.66-1.22,2.49-2.47,2.49h-3.12l1.85-7.15h3.12c1.25,0,1.7.62,1.35,1.85ZM82.14,31.67c-.16-.15-.36-.28-.57-.39.02-.05.03-.09.03-.09,0-.15.17-.27.27-.35,0-.07.05-.25.15-.25.05,0,.05.12.05.15-.07.07-.2.2-.2.32,0,.07.07.07.12.07.1,0,.3-.1.07-.1,0-.02,0-.1.05-.1.02,0,.07.07.1.1.02.1.02.22.02.32,0,.04-.05.19-.1.31ZM83.65,27.22s0,.07-.05.07c-.02,0-.05-.07-.05-.1l.1.02ZM82.98,28.87c.1.02.2.12.2.22,0,.12-.1.17-.1.3l-.17.1-.02-.22c0-.15.1-.25.1-.39ZM82.61,29.96l.12-.37.15.17c0,.12-.1.17-.1.3-.05,0-.2,0-.17-.1ZM83.47,31.9l-.02.25-.15.22v.05c0,.07-.05.12-.12.12v.07c0,.07-.02.2-.12.2,0,.07-.12.1-.17.1,0,.04,0,.08-.01.12-.02-.1-.04-.2-.07-.3l.09-.2.2-.1.1-.2s.15-.17,0-.17c.05-.17.12-.32.22-.47l.25.07-.17.22ZM83.65,28.03v.05s-.1-.22-.1-.25c0-.12.1-.17.1-.3l.1.1v.17c-.12,0-.1.15-.1.22ZM83.74,32.25v-.05l.1.17c-.07,0-.1-.07-.1-.12ZM83.89,31.24s-.05-.07-.05-.1l.1.02s0,.07-.05.07ZM84.02,30.77l.1.2v.05s-.1-.22-.1-.25ZM84.11,32.25v-.05l.1.17c-.07,0-.1-.05-.1-.12ZM84.66,30.67l-.1-.02v-.22l.1.05v.2ZM84.73,30.25s-.07-.05-.07-.1h.02s.07,0,.07.05c0,.02,0,.05-.02.05ZM84.76,29.09v-.05s.07.12.07.15c-.05,0-.07-.05-.07-.1ZM84.83,30.52v-.1l.1.17s-.1-.02-.1-.07ZM85,30.01c0,.07,0,.15-.1.15h-.07v-.37l.25-.02s.05.02.05.05c0,.07-.07.15-.12.2ZM85.25,27.91s-.05-.05-.05-.07c.02,0,.05-.02.05-.02.02,0,.05.02.05.05s-.02.05-.05.05ZM85.35,27.64s-.05-.07-.05-.1l.1.02s0,.07-.05.07ZM85.54,28.77s-.05-.07-.05-.1l.1.02s0,.07-.05.07ZM86.11,27.52l-.17.39c-.2,0-.07.37-.27.37-.05-.05-.17-.15-.17-.02-.02,0-.1-.02-.1-.05s.1-.02.1-.02c0-.39.54-.81.54-1.06,0-.07.02-.15.07-.2,0-.02,0-.12.05-.12s.05.1.05.12l-.1.2v.25c.17,0,.07.1,0,.15ZM86.21,26.63l.2.02s-.2.07-.2-.02ZM87.39,28.11s-.05-.07-.05-.1l.1.02s0,.07-.05.07ZM87.62,28.48l-.07-.2c.15,0,.02.2.15.2l.1.2-.17-.2ZM87.98,29.02c0-.07-.05-.07-.1-.07-.02-.02-.1-.07-.1-.12s.07-.05.1-.05l.2.35c-.1,0-.1-.02-.1-.1ZM88.03,13.44s-.05-.07-.05-.1c.02,0,.02-.02.05-.02s.05.02.05.05,0,.07-.05.07ZM88.8,26.53s-.05-.07-.05-.1h.02s.05.02.05.05,0,.05-.02.05ZM89.51,18.96s-.07-.05-.07-.1h.02s.07,0,.07.05c0,.02,0,.05-.02.05ZM89.61,18.79s-.07-.05-.07-.1h.02s.07,0,.07.05c0,.02,0,.05-.02.05ZM90.3,17.66l-.02-.2s.07-.07.12-.07l.12.17s.05,0,.05.02c0,.1-.1.22-.17.3,0,.02,0,.2-.02.2-.05,0-.12-.07-.22-.07-.02,0-.05,0-.05-.02,0-.12.12-.25.2-.32ZM90.47,18.67l.02.1-.1.17s-.1-.02-.1-.05.07-.02.1-.02c0-.05,0-.2.07-.2ZM90.4,18.32v-.02s.07.07.07.1q-.07,0-.07-.07ZM89.83,18.84s-.02-.05-.02-.07c0-.05.12-.35.15-.42l.15.02s.07-.2.15-.2c.05,0,.05.22.05.25-.05.05-.42.42-.47.42ZM90.82,25.44s-.05-.07-.05-.1l-.1-.2h-.1c-.07,0-.17-.02-.17-.1-.1,0-.15-.07-.12-.17-.2,0-.27-.22-.27-.39,0-.1.07-.1.15-.1.02,0,.05,0,.05-.05l-.1-.1s.02-.12.07-.12c.25,0,.3.52.35.67.12,0-.02.17-.05.2l.2.07.05.1.12.02.1.17s-.07.1-.12.1ZM91.78,26.41h-.02s-.07-.02-.07-.07c.05,0,.1.02.1.07ZM91.39,25.74h-.02l-.05-.02h-.1s.1-.02.1-.02l.07.05ZM91.49,25.91s0,.07-.05.07c-.02,0-.05-.07-.05-.1l.1.02ZM91.07,25.25s.05.02.05.05,0,.07-.05.07c-.02,0-.05-.07-.05-.1.02,0,.02-.02.05-.02ZM91.07,28.21s-.05-.07-.05-.1l.1.02s0,.07-.05.07ZM91.16,25.54s-.05-.07-.05-.1l.1.02s0,.07-.05.07ZM91.21,28.4h.02s.07,0,.07.05h-.02s-.07,0-.07-.05ZM92.15,32.08c-.02-.12-.1-.27-.17-.37l-.1.02s-.1-.05-.1-.1l-.1-.2.37.2c0,.17.3.25.3.44h-.2ZM91.78,29.68v-.1l.1.17s-.1,0-.1-.07ZM92.37,29.76c-.3,0-.71-.52-.84-.71l-.22-.12c0-.17.02-.15.17-.15,0,0,0-.1.02-.1,0,0,.02.07.02.1-.02,0-.05,0-.05.02,0,.07.35.32.39.37l.1-.05-.1.1c.07.05.1.15.1.22v.07s.1-.2.1-.22l.07.27.3.12s-.02.07-.07.07ZM92.5,32.3s-.05-.07-.05-.1c.02,0,.02-.02.05-.02s.05.02.05.05,0,.07-.05.07ZM92.67,30.5s.12.02.12.1l.17.15-.27-.02-.15-.2.12-.02ZM92.74,32.79c-.07-.1-.05-.25-.07-.35l.12.12s0,.22-.05.22ZM92.96,33.09v-.17l.2.15-.2.02ZM93.31,33.01s-.15-.22-.15-.3l-.07-.1.3.3s.05,0,.05.02c0,.05-.1.07-.12.07ZM93.64,33.56s-.03-.04-.03-.08c.02,0,.03,0,.05.02l-.02.07ZM93.98,32.26c-.24-.18-.45-.24-.45-.55l-.2-.1c-.05-.07-.1-.17-.1-.25,0-.02.02-.05.05-.05.2.15.35.39.47.59.05,0,.15,0,.15-.07,0-.02-.07-.02-.1-.02l-.07-.3.05-.1c.08.14.2.24.33.33l-.13.52ZM84.21,32.91c0-.15-.15-.2-.27-.2,0,.15.02.2.17.2h.1ZM94.81,30.15l-.2-.2.07.3.12-.1ZM94.34,29.76c0,.1,0,.2.12.2h.15c0-.12-.15-.2-.27-.2ZM93.95,29.12l-.15-.05v.22c.17,0,.2.17.2.3.07,0,.2-.05.2-.15,0-.05-.07-.05-.1-.05,0-.1-.07-.2-.15-.27ZM52.36,52h.21l-.15-.21-.05.21ZM84.53,56.36l5.46-21.09-3.17-4.27-6.56,25.36h4.27ZM127.4,30.83l-1.08,4.33h4.33l1.08-4.33h-4.33ZM124.15,26.51l-1.08,4.33h4.33l1.08-4.33h-4.33ZM133.89,22.18h-4.33l-1.08,4.33h4.33l1.08-4.33ZM112.26,22.18l-1.08,4.33h4.33l1.08-4.33h-4.33ZM118.74,30.88l-.02-.02h-4.3v-.02s-4.32,0-4.32,0l-1.08,4.33h4.33v-.03h.83l-5.49,21.23h4.27l5.48-21.2h3.55l1.08-4.33h-4.33v.05ZM119.83,26.51h-4.33l-1.08,4.33h4.33l1.08-4.33ZM125.24,22.18h-4.33l-1.08,4.33h4.33l1.08-4.33Z"/><path class="cls-1" d="M21.58,62.97h1.49c1.26,0,2.24.93,2.24,2.13,0,1.14-.87,2.14-2.24,2.14h-1.49v-4.28ZM23.05,66.29c.67,0,1.18-.47,1.18-1.19,0-.66-.45-1.18-1.18-1.18h-.42v2.37h.42Z"/><path class="cls-1" d="M27.49,62.97h1.79c.92,0,1.52.56,1.52,1.36,0,.75-.38,1.17-1.01,1.33l1.15,1.59h-1.31l-1.09-1.6v1.6h-1.05v-4.28ZM29.38,64.83c.24,0,.39-.24.39-.49s-.18-.47-.42-.47h-.81v.96h.84Z"/><path class="cls-1" d="M32.91,62.97h1.05v4.28h-1.05v-4.28Z"/><path class="cls-1" d="M36.25,62.97h2.76v.93h-1.71v.91h1.57v.91h-1.57v1.53h-1.05v-4.28Z"/><path class="cls-1" d="M41.79,63.9h-.96v-.93h2.98v.93h-.97v3.35h-1.05v-3.35Z"/><path class="cls-1" d="M49.29,63.9h-.96v-.93h2.98v.93h-.97v3.35h-1.05v-3.35Z"/><path class="cls-1" d="M53.28,62.97h1.79c.92,0,1.52.56,1.52,1.36,0,.75-.38,1.17-1.01,1.33l1.15,1.59h-1.31l-1.09-1.6v1.6h-1.05v-4.28ZM55.17,64.83c.24,0,.39-.24.39-.49s-.18-.47-.42-.47h-.81v.96h.84Z"/><path class="cls-1" d="M58.7,62.97h1.05v4.28h-1.05v-4.28Z"/><path class="cls-1" d="M62.04,62.97h1.05v1.91h.01l1.23-1.91h1.15l-1.47,2.03,1.55,2.25h-1.15l-1.31-2.07h-.01v2.07h-1.05v-4.28Z"/><path class="cls-1" d="M67.49,62.97h2.83v.93h-1.78v.77h1.65v.91h-1.65v.77h1.86v.9h-2.91v-4.28Z"/><path class="cls-1" d="M77.5,62.83c.81,0,1.38.31,1.83.78l-.72.68c-.3-.29-.68-.48-1.11-.48-.76,0-1.25.57-1.25,1.29s.49,1.29,1.25,1.29c.43,0,.81-.19,1.11-.48l.7.68c-.43.45-1.02.78-1.81.78-1.35,0-2.32-1-2.32-2.28s.96-2.28,2.32-2.28Z"/><path class="cls-1" d="M81.33,62.97h1.05v4.28h-1.05v-4.28Z"/><path class="cls-1" d="M84.66,62.97h1.79c.92,0,1.52.56,1.52,1.36,0,.75-.38,1.17-1.01,1.33l1.15,1.59h-1.31l-1.09-1.6v1.6h-1.05v-4.28ZM86.55,64.83c.24,0,.39-.24.39-.49s-.18-.47-.42-.47h-.81v.96h.84Z"/><path class="cls-1" d="M92.27,62.83c.81,0,1.38.31,1.83.78l-.72.68c-.3-.29-.68-.48-1.11-.48-.76,0-1.25.57-1.25,1.29s.49,1.29,1.25,1.29c.43,0,.81-.19,1.11-.48l.7.68c-.43.45-1.02.78-1.81.78-1.35,0-2.32-1-2.32-2.28s.96-2.28,2.32-2.28Z"/><path class="cls-1" d="M96.09,62.97h1.04v2.68c0,.57.27.77.63.77.4,0,.65-.2.65-.77v-2.68h1.05v2.84c0,1.01-.76,1.58-1.7,1.58s-1.67-.6-1.67-1.58v-2.84Z"/><path class="cls-1" d="M101.75,62.97h1.05v4.28h-1.05v-4.28Z"/><path class="cls-1" d="M105.73,63.9h-.96v-.93h2.98v.93h-.97v3.35h-1.05v-3.35Z"/></g></svg>