<?xml version="1.0" encoding="UTF-8"?>
<svg id="Calque_1" data-name="Calque 1" xmlns="http://www.w3.org/2000/svg" viewBox="0 0 780.02 409.47">
  <defs>
    <style>
      .cls-1 {
        fill: #fff;
        stroke-width: 0px;
      }
    </style>
  </defs>
  <path class="cls-1" d="m739.27,180.77l-6.79,27.17h27.17l6.79-27.17h-27.17Zm-20.38-27.17l-6.79,27.17h27.17l6.79-27.17h-27.17Zm61.13-27.17h-27.17l-6.79,27.17h27.17l6.79-27.17Zm-135.84,0l-6.79,27.17h27.17l6.79-27.17h-27.17Zm47.54,27.17h-27.17l-6.79,27.17h27.17l6.79-27.17Zm33.96-27.17h-27.17l-6.79,27.17h27.17l6.79-27.17Z"/>
  <g>
    <path class="cls-1" d="m59.93,46.27c-.92.52-7.58,1.64-8.72.33l-4.13.96c-.69-.64-2.75-.28-3.67-.22-.69.04-1.38.09-2.07.36-.69-.64-1.38.55-2.3-.31-.92.75-1.38.55-2.07-.33l2.53-1.77,1.84-.12c.23-.24.69-.27,1.15-.3.23-.01.69-.04.92.17,1.15.15,3.67-.7,4.59-1.22,2.07.1,3.67-.93,5.74-1.29.69-.04,2.53-.39,2.53-.62l-1.84.12c-.69.5-1.61.56-2.07-.1-3.21.21-6.89,1.36-10.1,1.34-.69.5-1.61.1-2.07-.55-1.38.78-3.21.44-4.59,1.21-.46.03-2.07-.33-2.07-.78s.23-.48.46-.72c1.15-.07,2.53-.16,3.67-.47,1.15-.76,2.3-.61,3.44-1.37,5.74-1.52,13.09-2.22,18.83-2.6l.69-.04c.69-.5,5.28-2.41,5.74-2.44l.69.19,2.98-1.8,1.84.34c2.53-1.54,5.51-1.27,8.27-2.6.46.43,1.38-.09,1.84-.35l3.67-.7c.69.64,1.84.11,2.3-.61l2.07-.13c.92.63,8.04-1.21,10.33-1.36.92-.06,1.15.16,2.07-.59l1.15.38c1.15-.53,2.76-1.1,3.9-.94.69-1.42,4.59-1.45,5.74-1.52-.92-.86,2.53-.85,2.76-.87,1.38-.09,2.3-1.07,3.67-1.16l4.82-.31c5.05-.33,11.48-3.73,16.07-4.03.92-.06,1.84.11,2.76.28,0,1.38,1.38-.55,1.61-.79.46-.03,1.15-.07,1.15-.76s0-1.15.92-1.21c0-.69.23-1.62.92-2.13,0-.46,0-1.38.69-1.42.92-.06,2.53,1.44,2.53,2.59l3.67-2.53c0,.23.23,2.28.69,2.25.23-.01.23-1.16.23-1.16l.92-2.13c.46-.49.46-1.18.46-1.64,0-.92.23-1.39,1.38-1.47l.46-.03c0-1.84,1.84-2.88,1.84-4.71l2.3-3.82c.46-.03,1.38-.09,1.61-.79l.46,2.5-.69.27c-2.76.18-1.15,5.13-1.15,7.65l-.46.95c0,.92,1.15.84,1.84.8l1.84-.12c.23.67,1.15.84,1.84.8-.23,1.16.69,1.79,1.84,1.72,8.04-.52,16.07-3.11,24.11-3.86l-1.15,1.91s-.92.06-.92.29c0,0,2.3.31,2.98.27-.46.95,0,1.84,1.15,1.76l.92.86,6.66-.43-1.15-1.76c-.23.02-1.38.09-1.38-.37s.92-.52,1.15-.53c1.61-.1,3.44-.22,5.05-.56,0-1.15-2.07-.79-2.76-.51,0-.92,1.15-.99,1.84-1.04.46-.03,3.44.24,3.44-.68l5.28-1.72.69.87,1.38-.09c0-.92,1.38-1.01,1.84-1.04l47.99-3.79c1.61,1.96,7.35-.48,7.35.9v.23c.92-.06,2.07-.13,2.76.28,0,.46-2.98.65-3.44.68-.69.04-1.38-.14-1.84-.57l-10.79.7c-.23.01-1.15.07-1.15.53s1.61.35,1.84.34c5.97-.39,5.05-.79,9.41,1,4.59-.53,8.04.17,12.17-.1l-.69,1.88c-7.12.23-13.32,2.47-20.44,3.39-.69,1.19-3.44.68-4.59,1.9-1.38.32-7.35,2.31-7.35,3.69,0,.46.46.43.69.41l1.15.84c1.15-.07,5.97-.62,6.89-.22,0,.92-5.97.85-5.97,1.31,0,.69.69,1.33,1.15,1.76.23.67,1.61,1.27,1.61,1.96,0,.23-1.61.33-1.84.35-1.15.07-8.73-.35-8.73,1.48-4.82.31-10.1,1.57-14.92,2.57-.23.47-.92,1.21-.92,1.67,0,.23.23.44.46.43,10.79-.7,22.04-2.34,33.06-3.29l.92.63c0-.46.23-.93.69-.96l6.2-.17c0,.23,0,.92.46.89.23-.01.69-.73.92-.98l5.74-.6c.46.43,1.84,1.49,1.84-.12,1.38.37,3.21.71,4.59.39l.92.86c5.28-1.49,10.79,1.6,13.32.75l.23.9c-3.9.25-22.96.11-25.03,3-2.53.16-15.61,1.47-17.91,3.23.23.9.46,1.81,1.15,2.22l-1.84,1.04c0-1.84-1.61-.58-2.3.15l-2.3-.77c-.23.01-.69.04-.69.5,0,1.15-4.59.3-5.05.1-3.67,2.07-4.82.31-7.35.48-.23.01-4.36,1.89-4.36,2.12-.23.01-1.84.81-1.84,1.04l3.9-.25c.46-1.87,10.33-1.82,11.94-1.92,1.15-.07,2.53.3,3.44.92,0,1.15-3.9.25-4.36,1.89-4.13.27-10.33,1.82-13.78,2.04-2.76.18-5.51.59-8.04-.17.23-.7-.92-.86-1.38-.83-.69.04-1.38.32-1.61,1.02,0,0-.46.03-.46.26,0,.69,3.67.68,3.67.91s-2.76.41-4.13.5c-.46.49-11.02,2.55-13.78,2.96-.69.73-1.61,1.02-2.53,1.08-1.38.09-2.98-.5-4.13-1.34l-1.84.81c-.23.02-.92.06-.92.52s1.38,1.06,1.84,1.26l-3.21.21-1.61-1.73-1.38,2.16c-.46.03-2.07-.1-2.07.59l.23.44-3.44.22c0,.69-.92.98-1.61,1.02-1.15.07-12.4,3.79-12.86,4.51-.92.06-1.84-.34-2.53-.76l-3.9,1.17c0,.69-.23,1.62-.92,2.13,0,.23,0,.46-.46.49-.69.04-1.38-.14-1.38.78l-2.76,6.15c-2.3,1.76-5.97,10.03-6.89,13.07.69.41,1.84.8,2.53.75,5.05-.33,9.64-1.77,14.7-2.1.23-.7,1.15-.99,1.84-1.04,1.15-.07,1.61.82,2.75.74,3.67-.24,7.35-.94,11.25-1.19.46-.03,2.98-.19,2.98.73.23-.01.92.17.92.63,0,.23-1.61.33-1.84.35-2.3.15-4.82.54-7.12.92l-.92.98.92.86c0,1.15.92-.29,1.15-.53l.92.86c.46-.49,1.15-1.22,1.38-1.93l1.15.84c2.3-.15,4.59.39,6.43.27,1.15-.07,2.3-.38,3.21-.67,0-.23,0-.46.23-.47.46-.03.92.63,1.15.84l1.84.8c1.38-.09,5.74,1.24,7.12,1.38,0,1.61,1.84-.35,1.84,1.49l1.84-.35v1.84l-2.53-.3c-3.9,1.4-8.27,2.14-12.17,2.62l-1.61,1.48-5.51.13c1.15.16,3.9.9,4.82.84.69-.04,4.13.19,4.13-.96v-.23l1.38.83.46.89,1.61-.1c.69-1.42,6.89-1.59,8.5-1.7.69-.04,2.07-.13,2.07,1.01-3.21.9-6.66,2.04-9.87,2.25,0,1.61-10.56,2.75-12.17,2.85-1.84.12-5.28,1.26-8.04,1.44,0,1.84-7.81.96-7.81,2.34,0,.23.69.18.92.17,3.21-.21,6.43-.88,9.64-1.54,0,1.84,5.74-.6,6.66-.66,1.61-.1,2.98.73,4.59.39l.23-.47c1.38-.55,2.76-.87,4.13-.73l.23-.93,1.15.84,10.56-.91c.23-.01.69-.04.69.41,0,.69,4.36.64,5.05.82,0-1.38.92-.75,1.38-.09,2.07.1,4.36.64,6.43.5.92-.06,1.84-.12,2.53.52,1.38-.09,2.98,1.64,3.67,2.52l-2.53-.3-2.07-1.24-3.21.9s0,.46-.23.47c-.46.03-.92-.4-1.38-.83-4.36.28-9.41,1.53-14.01,2.05-.46.03-1.84.12-1.84,1.04-4.82.31-10.33,2.51-15.38,2.83l-3.9.25c0,.23,2.07.78,2.3.77.23.67,1.15.84,1.84.8,1.38-.09,1.84-1.27,2.98-1.34,2.75-.18,7.58-.72,7.58.89,0,.46-3.44,1.14-3.9,1.4l.46.89c-2.76.41-6.2,1.55-8.73,1.71l-.69.5c-6.66,1.58-13.09,4.06-19.98,4.51l-1.84,1.04c-9.41.61-19.29,3.54-28.24,5.96,0,.23,0,.92-.23.93-.46.03-.92-.63-1.15-.84-.46.03-.69.5-.69.96,0,.69.23,1.36.46,2.04l-2.53,4.53c-.69.27-.69,1.42-.69,1.88-.69.73-.92,1.44-.92,2.36l-2.53,1.08-1.15,2.14c0,.92-.69,1.42-.69,2.11v.46l-.69,1.88c0,1.38-.92,1.44-.92,2.59-.69,2.11-2.53,4.76-3.9,6.45-1.61.1-1.61,3.78-1.61,4.93v.46c-1.15,2.14-2.3,4.28-3.9,6.22l.69,1.79-1.38.09-.69,1.88-1.38,1.47c-.23.47-.92,2.59-1.38,2.62-.23.01-.23-.9-.23-1.13l2.07-4.73-.46-2.73-.92-.86c-.46.03-1.38.55-1.38,1.24-.46.03-1.38.32-1.38,1.01s.46.89,1.15.84c.23-.01,2.53-.16,2.53.3,0,.23-1.38.32-1.61.33-.92,1.67-2.07,3.35-2.76,5.23,0,.92.23,1.36,1.15,1.3l1.61-.33c-.69.73-.92,1.9-.69,2.8l-1.84,1.27c0,.92-.23,1.85-.92,2.58,0,1.61-.92,3.96-2.53,4.99l-.46,1.18c0,1.15-1.15,1.91-2.3,1.99,0-1.15.92-1.67.92-2.82l-2.53-.3-1.84,1.5-.92,1.67-.23-.67c-.46,1.18-.46,2.33-.46,3.47-.92,1.67-2.07,3.35-3.21,5.03l.69,1.56-1.15.07-.46,1.41c-.23.24-2.3,3.36-2.53,3.38-.23.01-.23-.67-.23-.9l1.84-3.79v-1.15l-1.15.53v.69c-.69,1.65-1.84,2.88-2.76,4.31,0,.46,0,1.15.69,1.1l1.38-.32c-.46.72-.46,1.64-.46,2.33l-1.38,1.01c0,.69-.23,1.62-.92,2.12,0,1.38-.69,2.57-1.38,3.76l-.69.27c-.23,1.39-.23,2.54-2.07,2.66,0-.69,0-1.61.46-2.33l-1.84-.34c-1.84,1.96-3.44,4.58-5.05,6.76h-.23s-1.15,2.16-1.15,2.16l-.92.75c0,1.84-6.66,7.78-7.58,12.43-.46.03-.69.04-.69.5s0,.92-.69.96l-3.21,4.8c-.46.03-.46-.2-.46-.66,0-1.15,3.67-7.58,4.13-8.53,0-.69.23-1.62.69-2.11l3.67-9.88-1.15-1.99c1.15-1.68,2.3-3.36,3.21-5.03l-1.61-.58-.69.96c0-1.15-3.44,4.82-3.67,5.06-1.15.07-2.07,1.97-2.3,2.9-1.61,2.17-3.44,4.36-5.51,6.1,0,.46,0,1.38-.69,1.65-1.15.99-2.07,1.97-2.98,3.18-.46,1.18-.92,2.58-1.15,3.75-.46.03-.69.04-.69.5,0,1.61-1.61.33-1.61,2.63l-1.38,1.47,1.38-3.76c0-1.15.69-2.11.69-3.26v-.46l1.38-.78v-2.76l.69-1.88.69-.27c1.15-.99,3.44-5.04,3.67-6.44.23-.24.23-.47.23-.7,0-.46-.46-.43-.69-.42-.92.06-3.67,6.21-3.9,6.68l-2.98,2.72c-.92,2.81-2.98,4.33-3.9,6.68v1.84c-2.53,2.46-5.05,5.15-5.97,8.65l-1.38.55-2.3,3.36-.69-.64-1.15.76c-1.38,2.84-3.44,5.5-4.59,8.33-.23.01-.69.04-.69-.41s.46-.95.69-1.42c0-1.61,2.53-4.75,2.53-8.66l1.15-.99c0-.92.23-2.08.69-2.8l.23-4.15,1.38-1.7c.46-.03.69-.04.69-.5s-.69-1.1-.92-1.32c0-1.38,1.38-1.93,1.38-3.53,0-1.38.69-4.87,2.3-4.97-.46-.43-.69-1.1-.69-1.79.46-.49,1.84-6.09,2.53-7.28-.23-2.74,2.07-5.64,2.07-7.48l1.15-1.22c.23-.93.69-4.64,1.84-4.71l.46-.03c0-.69,0-1.61.69-2.11,0-2.3,1.84-1.96,1.84-4.02l.46-1.18c-.23-.21.23-.24.23-.24v-.46l1.61-4.7c-.23-3.66,2.53-6.82,2.53-9.12l1.38-1.47c.23-1.16.92-5.57,2.3-5.66l.46-.03c0-1.38,1.84-4.02,1.84-5.17,1.38-.32,1.84-2.87,1.84-4.02l1.84-1.27v-2.07l.69-1.19c-.23-.9.69-.73.69-1.88.46-.95,2.76-4.54,2.76-5.46,0-1.15-1.61-.13-1.61-1.27,0-2.3,2.75-4.08,4.13-6.24,0-.69.23-1.39.69-1.88l-2.53.16c-1.15.07-2.3,1.07-3.44,1.6l-2.07-2.16.69-.27c.46-.03.46-.26.46-.72l5.05-1.7,2.07.33c2.53-1.77.46-3.7,2.3-3.82l.92-.06.69-2.34-2.3.84c-.92.06-5.05.1-5.05,1.25-.92.29-1.84.81-2.76.87-.23.01-.69-.19-.69-.64v-.23l-.46.03c-1.15.07,0,1.61-1.61,1.25-.46.49-1.15.76-1.84.81l-.69-.19c-4.59.76-11.25,2.34-16.07,2.65-.46.03-1.15-.16-1.15-.84s.92-.98,1.38-.78l.92-.98,2.3.31.23-1.62,1.38.37,3.67-2.08-2.3-.31c-2.3.38-4.82,1.23-6.89,2.28-1.38.09-7.12.46-7.12,1.61,0,.23.23.21.46.2l-2.07,1.97v.46s0,.46.23.45c.46-.03,1.15-.53,1.38-1.01,5.97.76,2.53-1.08,5.51-1.28l.23-.02c.23.45.46.89.46,1.35s-.23.7-.69.5l-.69.96c-2.07-.1-2.98.19-5.05.33l-.46.03c.23,2.05-2.3,1.99-3.67,2.07-.46.03-1.84.12-1.84-.57,0-2.3,2.53-.16,2.76-1.79-.46.26-1.38.32-1.38-.37v-.46c-.69.04-2.3-.08-2.3-1,0-1.15,1.15-1.22,1.38-2.16.92-.06,1.61-.33,2.53-.39s2.07.33,2.98-.65c0-.69.46-1.41,1.15-1.45l.46-.03,1.61-.79,2.53-.16,1.84-1.04c.46-.03,1.38.14,1.84-.35,1.38.14,1.61.36,1.84-1.27l2.07-1.05c0-.46.23-.93.69-.96.69-.04.92.17,1.15-.76.69-.04,3.44,0,3.44-1.14,1.15-.07,4.13.42,4.82-1l1.61-.33.23-1.62-1.61-1.5,2.76.05c.23-.02,1.84-.81,1.84-1.04,0-.92-5.28,1.03-5.28-.35v-.23c-1.61,1.25-3.44,1.37-5.28,2.18l-1.61-.13c-.46.49-1.15.76-1.61.79-4.13.27-2.53,1.31-4.59,1.45l-.23.02c-.46-.66-1.61-1.5-2.3-1.46-2.3.15-4.59,1.44-7.12,1.38-.23.7-.69.73-1.15.76-1.84.12-3.67-.68-5.05-1.51l-.92.98-1.61-.35-1.15-1.3c.46-1.18,3.44-1.83,4.59-2.13l.92-.75,1.38.14c4.59-.3,3.9-2.32,6.2-2.47.69-.04,1.61.13,2.3-.15,0-.46-2.98-.73-3.44-.7-1.38.09-1.15,2.14-2.53,2.23-.69.04-1.84-.34-2.53-.52.46-3.7,9.64-4.53,11.94-5.59-.46.03-1.61.1-1.61-.81v-.23c-.69.04-1.61.1-2.3.61-1.15-.16-1.15.76-2.07.82-2.3.15-4.82.54-7.12.69-.23,1.39-.23,1.85-1.84,1.95l-1.38-.14-.46.95c-2.53,1.08-5.05,1.7-7.81,1.88l-2.3-.08-1.15.99c-2.3-.54-2.07.13-3.21.21-.92.06-1.84.12-2.53,1.08-.69-.19-1.84-.11-2.3.61-1.15-.39-1.61-.81-2.3.61-.69.04-1.61.1-2.3.61-.92-.17-1.15.07-2.07.13l-.92.06-1.61,1.02c-.92-.17-2.3.38-3.21.44-.69.04-.92-.17-.92-.86v-.46l4.59-1.45c1.15.16,4.13-.04,4.59-1.21l4.13-1.19,1.15-1.91,2.76-.64c0,.23.23,1.82.46,1.81.23-.01.23-1.85.69-1.88.46-.03.92.17,1.38.37,3.21-1.13,6.66-1.12,9.64-2.46.23-.7.23-1.62,1.15-1.68l.92-.06c.23-1.62,1.84.57,2.07-1.28.69-.04,1.61-.1,2.07-.82l1.84-1.27c1.61.13,2.3-.38,3.67-.47l.92-.06c4.13-2.1,8.5-3.08,12.86-4.96l2.75.05,1.84-.81,2.3.08c1.84-.58,2.98-2.49,5.05-2.62.23-.01.46-.03.46.2v.23c1.38-.32,5.74-1.06,6.2-2.47,1.38-.32,3.67-.93,5.28-1.03l.46-.03.69-.27.92-1.21.92-.29c.69.18,1.61-.1,2.3-.84l.23.21,2.98-.19.46-.26.92-1.44c1.38-.32,6.89-.22,6.89-1.59,2.07-.36.92-.29,2.07-1.28.69-.04,1.61-.33,1.61-1.25,0-1.15-.69-2.25,1.15-2.37,2.07-.13.46-4.62,2.3-4.74,0-1.38.92-3.04,1.61-4.24,0-4.82,9.18-15.52,9.41-20.59l-.69-2.48,1.61-.33.23-.24v-1.15c-1.38.32-2.53.62-3.67,1.39-1.84-.57-3.44.22-5.28.57l-1.84-.34c-1.15.53-3.9,1.86-4.82,1l-3.9.94c-1.38-1.29-2.53.39-3.9.48-.46.03-.69.04-.92-.17-2.3.84-5.28,1.49-7.81,1.65-.23.01-.92.06-.92-.17s.23-.48.46-.49l1.84-.12,3.9-2.32c1.15.16,2.76-.41,3.9-.94l1.15.16.23-.93,1.15-.76.92.63c1.84-.58,4.36-.97,6.2-.63l1.15-1.91c-1.15.07-4.36.51-5.28.11l-1.38.32c-.92.06-1.84.35-2.76-.05l-1.61.56c-.69.96-2.76-.51-3.44-.7l-2.53,1.31c-.23-1.36-5.74.14-6.66.2l-1.38,1.01-2.07-.78c-1.61,1.25-3.67.7-5.28,1.72l-1.84.35-2.07-1.47s-.23-.44-.46-.43c-.69.04-.92,1.21-1.61.33-1.38,1.01-5.28.8-6.66.89-1.15-1.3-3.9.71-5.28.8-.46.03-.92-.17-1.15-.38v-1.38c.23-.24.69-.5,1.15-.53.23-.01.46-.03.69.19l1.15.16,3.67-1.62,1.84.11c1.15-1.22,2.76-1.1,4.13-1.87.46.43,1.38.6,1.84.11l1.84-.12c.46-.26,3.21-1.59,3.21-1.82s-.46-.2-.69-.19l-.69.04c-.69.5-1.61.1-2.07-.33l-.23-1.36.92-3.27c-.69.73-1.61,1.02-2.07.13l-2.07.36c-.69-.19-1.38.09-2.07.36-.69-.64-1.38.78-2.3.15l-3.67.47c-2.76-1.2-5.05.56-7.81.05q-.23-.21-.23-.44c0-.69,2.76-.87,3.21-.9,2.07-.13,4.13-1.42,5.28-1.49.46-.03.92.63,1.15.84,1.15-.76,2.53-.62,3.67-1.39l-1.15-.62Zm-36.28,101.54c-.23.02-.46-.43-.46-.66,0-.46.23-1.62.92-1.67.69-.04,1.15.61,1.61,1.04-.46.49-1.15,1.22-2.07,1.28Zm2.07-1.28c.23-1.16,1.15-2.14,1.84-.81l2.3-1.07c.23.44.46.89.46,1.35,0,.69-.69.96-1.38,1.01-.92.06-2.3-.31-3.21-.48Zm11.71-3.05l-1.61-.35,1.15,1.76.46-1.41Zm1.84-.81c-.23.02-.92.29-.92.52,0,.46.46.43.69.41l.23-.93Zm7.81,80.78l-.92-1.32c.23.67,0,1.38.92,1.32Zm1.15-6.27c0,.46.23.9.69.87l.23-.47c-.23-.44-.46-.66-.92-.63v.23Zm5.05-100.44c-.23.02-.69.04-.69.5,0,.23.69.41.92.4l-.23-.9Zm5.28,21.01c0-.46,0-.69-.46-.66,0,.23-.23.47-.23.7s.46.2.69.19v-.23Zm2.3,108.46c0-1.61.92-2.36,2.53-2.46,0,1.84-.92,2.36-2.53,2.46Zm1.84-199.19l3.21.48c.69-.73,1.84-1.27,2.76-.87.23-.02.23-.24.23-.24,0-.46-1.61-.59-1.84-.57-.69.5-1.61.1-2.3.61l-2.3-.54-1.38,1.01c.46.43,1.15.84,1.61.13Zm-.23,89.33c0-.46-.46-.66-.69-.64h-.23c0,.47.46.9.92.87v-.23Zm1.38-6.75c-.69.04-1.61-.35-2.07-.79,0-.46.23-.93.69-.96.69-.04,1.61.58,2.07,1.01,0,.46-.23.7-.69.73Zm2.07,77.71c1.38-.78,1.84-1.27,1.84-2.87l-.46-.2c-.69.96-1.15,2.14-1.38,3.07Zm2.3-3.82c.69-.04,1.38-.32,1.61-1.02l-1.61,1.02Zm1.84-73.14c-.23.02-.92.29-.92.52,0,.46.46.43.69.41l.23-.93Zm.92-5.57q0-.23-.23-.21c-.23.01-.69.27-.69.5,0,.46.46.43.69.41.23-.24.23-.47.23-.7Zm2.98-63.57c0,.92-2.07,1.28-2.76,1.33v-1.61c.69-.04,1.61-.33,2.3-.61.23.21.46.66.46.89Zm1.84-18.26c-.46.26-1.38.78-1.84.35l-2.3,1.53-.23.7,2.07-.13,1.61-1.25,2.07.55.69-1.19c-.69.27-1.61.1-2.07-.55Zm-3.67,80.6c0,1.15.69,1.33,1.61,1.5-.46-.66-.92-1.32-1.61-1.5Zm1.15,70.19v-.46l-.69-.18c0,.23.23.67.69.64Zm.46-1.18c.23-.01.23-.47.23-.7l-.69-.19c0,.23,0,.92.46.89Zm1.15,1.53c-.46.26-1.15.76-1.38,1.47.46-.49,1.15-.99,1.84-1.27l-.46-.2Zm.23-4.15c.23-.02.23-.24.23-.24q0-.23-.23-.21h-.23c0,.24,0,.47.23.46Zm3.9-129.3c0,.23-.23.47-.46.49.69.64,1.61.13,2.07,1.01,0,.69-.69,1.19-1.15,1.68-1.15-.61-2.07.59-2.98.65-.46.03.23-1.62-.23-2.05l1.84-1.04q-.92-.86.23-1.62c.23.21.69.41.69.87Zm-2.76,146.44c0,.46.69,1.1.92,1.32l.69-1.88-.92.06c-.23.01-.69.04-.69.5Zm1.15-20.74c.23-.02.23-.24.23-.47s0-.46-.23-.44c-.23.01-.23.24-.46.26,0,.23.23.67.46.66Zm.23-6.67c0,.23.69,1.79.92,1.78v-.46l1.15-2.14c.92-.29,1.38-1.01,2.3-1.3,0-.92.92-1.44.92-2.58l-1.84-.8c0,1.84-1.61,2.63-1.61,4.47v.23c-.92.06-.92.75-1.84.81Zm.92,22.44l-.69,1.65c0,.23.23,1.13.46,1.12.23-.01.23-.7.23-.7l.92-.98.69-1.65v-1.15c-1.38.32-.46,1.41-1.61,1.71Zm.69-158.48c0,.23.23.44.46.43h.23s-.46-.9-.46-.9c-.23.01-.23.24-.23.47Zm2.75,137.82l1.61-.1s.46-.03.46-.26c0-.46-.92-.63-1.15-.84l-.92,1.21Zm1.15-7.65c2.53-.16,2.75-3.85,2.75-5.92,0-.23,0-.69-.23-.67l-.23.24-2.3,6.35Zm15.15-108.67c-.69.5-1.61.79-2.53.62-.92.52-2.07.59-2.98,1.11l-3.44.22-.92-.86.92-1.21c.92-.52,1.84-.12,2.76-.64.92.4,2.07.33,2.76-.41l1.38.14,1.84-1.27.23,2.28Zm-9.64,124.39l.69-.04c0-.46-.69-.41-.92-.4,0,.23,0,.46.23.44Zm.69-27.37c.23-.02.23-.24.23-.47v-.23l-.92-.17c0,.23.23.9.69.87Zm.69-1.65c.46-.03.46-.49.46-.72s-.23-.44-.46-.43c-.23.02-.23.24-.46.26,0,.23.23.9.46.89Zm-.23,22.75c.23-.02.23-.24.46-.26l-.23-.21c-.23.02-.23.24-.23.24v.23Zm2.07-25.62c.23-.01.23-.47.23-.7l-.69-.19c0,.23,0,.92.46.89Zm1.38,20.81c0,.69.23,1.13.46,1.58l.69-.27c-.23-.67-.46-2.04.69-2.11,0-.23,0-.92-.46-.89-.46.03-.46.72-.46.95-.46.03-.92.29-.92.75Zm1.15-25.33c.46-.03.46-.49.46-.72s-.23-.44-.46-.43c-.23.02-.23.24-.46.26,0,.23.23.9.46.89Zm2.3,17.99c0,.46,0,.92-.69.96l-.92,2.13c0,.23.46,1.35.69,1.33.23-.02,0-1.84.92-1.9l.23-.02.92-2.13c0-.92.69-1.42.69-2.34l-.69.96c-.69.04-1.15.3-1.15.99Zm-1.38,25.81l.69-.04c-.23-.22-.23-.67-.23-.9l-.46.95Zm.92-2.13l1.38-1.24v-.23l-1.38,1.47Zm3.21-140.27c0,.23.23.44.46.43.23-.02.23-.24.23-.47s-.23-.44-.46-.43c0,0-.23.24-.23.47Zm.69,92.72l2.07-.13c.23-.02.46-.03.46-.49s-.92-1.32-1.38-1.29l-.23.24v.23c-.69.04-.92.98-.92,1.44Zm.92-92.14c0,.46.46.66.69.87l1.15-.76-.92-.86c-.23.24-.92.52-.92.75Zm6.2,7.18c0,.23,0,.46-.23.47-.46.03-.92-.4-1.15-.62l-1.15.3c-.23.01-.46.26-.46.03,0-.92,1.61-1.02,2.3-1.53.23.21.69.87.69,1.33Zm2.07-10.47l-1.15.3-1.61.79-.92,2.35,1.84-.58v-1.84l1.84-1.04Zm-.92,105.22l.46-.03c0-.46-.46-.66-.92-.63,0,.23,0,.69.46.66Zm.92-5.11c.46-.03.46-.49.46-.72s-.23-.44-.46-.43c-.23.01-.23.24-.46.26,0,.23.23.9.46.89Zm1.15-1.91c.23-.01.23-.24.23-.47,0-.46-.23-.44-.69-.41l-.23.02c0,.46.23.9.69.87Zm-.46,17.71c.23-.01.23-.24.23-.47q-.23.24-.23.47Zm5.51-112.87l-2.75-.05c-.46.03-.92.06-.92.52,0,.69,1.15,1.3,1.84,1.26.69-.04,1.38-.55,2.07-1.05.23.44,1.15.39,1.15-.07l.46-.03-1.84-.57Zm.69,110.4c0,.46.46.66.92.63l-.92-1.55v.92Zm.92-2.81c0,.23,0,.92.46.89.46-.03,1.15-.99,1.38-1.47,0-1.15.69-1.19.69-1.88v-.46c0-.23.23-.7,0-.69-.23.02-.69,1.65-.69,1.88l-1.84,1.73Zm.69-11.07c0,.69,1.38,3.12,1.61,3.11.69-.04.92-.75.92-1.21.69-.27.92-.98.92-1.67.69-.5,1.15-1.22,1.61-1.94,0-.92.92-1.44.92-2.35l1.84-1.96c0-.69.23-.93.92-.98.46-.03.92-.06.92-.75,0-2.07,2.3-4.74,2.3-6.58,1.38-1.93,2.53-3.84,3.44-5.96,0-.92.23-2.08.92-2.58l-1.15-1.53c-.69.04-1.38.55-1.38,1.47,0,0,0,1.15.23,1.13s.69-1.65.69-.73v.23l-1.84,1.5c0-1.38-.69.27-.92.75.23-.02,1.84.34,1.84.57s-.69.28-.69.28l-.92.98-1.15-.61-.69-1.56c-.46.72-1.15,1.22-1.84,1.73-.46,1.18-1.15,2.6-1.15,3.98,0,.23.23.67.69.64,1.61-.1,1.38-.55,1.38-1.93,0,0,0-.69.23-.7,0,0,.69,1.33.69,1.56,0,1.15-.92,1.67-.92,2.81-.69.5-1.38,1.01-2.07,1.05-.46.03-.69-.42-.69-.87l-1.84,1.73c0,.92-.69,1.42-.69,2.34,0,1.38-.69,1.19-.69,2.34l-1.61,1.71c0,.23,0,1.61.46,1.58.92-.06,1.84-1.73,2.07.1v.69c-.92.06-4.36.05-4.36,1.66Zm1.61,4.72q.23-.02.23-.24c0-.23-.23-.44-.46-.43l-.46.03c0,.23.23.67.69.64Zm14.69-25.75c.23-.02.23-.25.23-.48q-.23.24-.23.48Zm15.38-46.23l1.38-.09.46-1.64-2.98.42c0,.92.23,1.36,1.15,1.3Zm.46-3.24c.92-.06,1.61.59,2.76.51l2.53-7.05c0-.69-.46-.89-1.15-.84l-.69.27c-1.15,1.68-3.44,5.27-3.44,7.11Zm7.81-17.04c-.23.7-1.61,4.7-1.61,5.16v2.53l2.07-1.05,3.9-8.06-2.3-.31-2.07,1.74Zm25.26-10.59c-.92.06-3.21-.71-3.21.9l-1.38,1.93,1.61-.1,1.15-.99c2.76-.18,5.05-1.24,7.81-1.42l-1.84-1.72-2.99.42c0,.69-.69.96-1.15.99Zm-3.44,33.06c.46-.03.46-.49.46-.72l-.92-.17c0,.23.23.9.46.89Zm-.23-67.95c0,.92,2.98.73,3.44.7.92-.06,1.84-.35,1.84-1.27.23-.01.92-.06.92-.52,0-.23-1.38-1.06-1.84-1.26.92,1.78-4.36.28-4.36,2.35Zm3.44,92.31q.23-.01.23-.24c0-.23-.23-.45-.46-.43l-.46.03c0,.23.23.67.69.64Zm5.97-71.8c.69-.04,1.38-.32,1.38-1.01l-2.53.16,1.15.84Zm0-22.27c.69-.04,1.38.14,1.61.81,1.38-.09,2.75-.87,3.9-1.63,0-.69-.23-1.13-.92-1.09-.69.04-1.38.55-1.84.81l-3.44-.47.69,1.56Zm23.65,30.85c0-.46-.69-.87-.92-1.09-1.84.35-3.44,1.37-5.28,1.49-1.15.07-5.97-.53-5.97,1.99,2.3-.15,12.17-1.02,12.17-2.39Zm-7.12-10.1s.92-.06.92-.29c0-.46-2.3-.77-2.76-.74-.46.03-.92.06-.92.52.92.17,1.84.57,2.76.51Zm1.84-3.79l1.38.83c1.38-.09,9.64-.17,9.64-1.54l-11.02.71Zm1.15-19.59c0,.46.92.86,1.38.83,2.76-.18,5.28-.57,7.58-1.64,0-.46-4.59-.85-5.28-1.04-.69.27-3.67.93-3.67,1.84Zm9.64-1.77c0,.92.69,1.1,1.61,1.04,2.76-.18,10.79-.7,10.79-1.85l-.46.03-.92-.86-1.61.1c0-.23-.69-.42-.92-.4l-8.5.55v1.38Zm6.66,20l.69-.04c0-.69-.92-1.32-1.61-1.5,0,.92-.23,1.62.92,1.55Zm10.79-7.82c.46-.03,1.15-.07,1.15-.76,0-.46-.46-.89-.69-1.1l-.46,1.87Zm18.37-15.65l1.15-.07c0-.46-.46-.66-.92-.63l-.69.04c0,.46,0,.69.46.66Zm3.9.21l-1.84-.11c0,.92,1.38.37,1.84.11Z"/>
    <path class="cls-1" d="m141.33,174.46c.79-.05.95.57.95,1.21l-1.43.09-.48-1.24.95-.06Zm127.48-91.23c.48-.03.64-.36.64-.68.64-.04,1.43.07,1.75.52l.16.63,1.59.06,1.27,1.03-1.91.6c0,.79,1.11.72,1.75.68.95-.06,2.38-.95,3.18.11-.16.17-.64.68-.95.7-.16.01-.16-.47-.16-.63l-.64.04.64.91,1.75.52c-.48-.45-.79-.9.16-.96l.95.57-.64.68c.48.29,1.27.4,1.91.35.48.92.79,2.17,2.07,2.09l.95,1.05.79-.53,1.11,1.2,2.86,1.25,1.75,2.75c0,.48,0,.95-.32,1.45-.32-.14-.79-1.06-1.43-1.18,0,0,0-.79-.16-.78-.16.01-.32.66-.32.82,1.43.86,2.38,2.39,3.81,3.25,0,.95.64,2.03,1.11,2.79-.16.17-1.27,1.35-.32,1.29-.16.49,0,1.11.64,1.07-.48,2.42-.79,4.18-.79,6.57l-.48.51c0,.48-.16,1.28-.64,1.63l-.16.96c-1.91,1.08-2.54,4.14-4.61,5.23,0,2.07-9.85,9.06-12.24,11.6,0,.32,0,.64-.32.66-.95.06-1.59-1.01-2.38-.96-.32.02-.48.35-.48.67l-2.38,2.06-1.91.12c-.64.36-1.27,1.04-1.43,1.68-1.27.56-2.7,1.29-3.81,2.31-.16-.15-.64-.44-.64-.75s.48-.35.64-.36c.48-.35.79-1.01.95-1.65l1.75-.11,1.27-1.19-.48-.92-1.27.72c-4.61.62-3.18,2.59-4.61,2.68l-.64.04-1.91.92c0,.64.64.91,1.27.87h.16c0-1.28,2.38,0,2.86.28,0,1.27-1.43,2.16-2.54,2.23l-2.54,1.28c0,.79.95.89,1.59.85l.48-.03c0,.79-.95.54-1.43.41,0,.16,0,.64-.32.66-.16.01-.48-.45-.48-.61l-.64-.59c0,.48-.64.52-.95.54,0,.95-1.91.6-2.07,2.2-.64,1-1.27,1.99-2.07,2.84l-.95-1.21-1.91-.67c.16-1.6-2.86-.61-2.86-1.56v-.16c-1.43.57-2.86,1.3-3.97,2.16-1.11-.09-3.66.24-3.82,1.68l-1.75.11c0,.48-.32.66-.79.69l-.48.03.16.94c.64-.84,2.07-.45,2.86-.34.64-.36,1.59-.74,2.23-.78.48-.03.79-.05.79.43.16-.01.64.12.64-.2s-1.27-.87-.16-.94l1.75-1.23.48.6.79-.69c1.11.09,3.02.12,4.13-.27-1.91,1.24,1.11.72,1.59,1.33,0,.64-1.59.9-2.07.93.16.47-.16.81-.64.84-.95.06-1.43-.22-2.07.77l-1.43.57c-.16.65-.79.85-1.27.88-.16.33-.79,1.8-1.11,1.82-.16.01-.16-.31-.16-.31,0-.48,0-.79-.48-.76-.95.06-1.91.6-2.7,1.13-.48-.13-1.11.07-1.27.72l1.43,1.18c.95.1,2.7,2.69,3.34,3.44,0,.64.16.94.79.9.79-.05,1.59.22,2.38.48,0,.48.16.94.64,1.07-.48.51-.79,1.16-.95,1.81l1.43-1.21,2.23,2.88c0,1.43-.32,1.61,1.27,1.51,0,.48.16,1.1.64,1.23-.32.18-1.59.74-1.59,1.22,0,.16.48.13.64.12,0,.16.16.47.48.45.32-.02.32-.97.32-1.13l1.11-.07c.32-.02.64-.04.64.44,0,1.27-.32,1.45,1.11,1.52,0,.16.95,1.69,1.11,1.68.48-.03.64.28.64.75,0,2.07,2.07,3.68,3.81,4.36l-.16,1.76.95.89,1.27,2.78-.16,1.44.64,1.39.48-.03c1.11-.07.32-1.77,1.11-1.82.16-.01.16.31.16.31v.32c.32.77,1.11,1.68,1.75,2.11l-.16,2.24.64,1.87,1.11.72c0,2.38,1.27-.72,1.27,3.57l1.43,1.5c.64-.2,1.27.08,1.27.87l1.27,1.19c0,1.11.48,2.19.95,3.12-.16.65.16,1.1.79,1.22-.16.81.48.45.48,1.08v.16c.64.75,1.27,1.51,1.59,2.44,0,.79,2.54,2.22,2.54,3.65l.95,1.21c-.16.49-.16,1.28.48,1.24.48.13.64.75.64,1.23l1.11,1.04c-.16.65-.48,1.94.48,2.04.64.59,1.43,1.5,1.43,2.45.48,1.72,1.43,3.4,2.38,4.77l.32-.02c0,.16-1.11.71-1.27.72-.95-.89-1.59-2.44-2.07-3.68.64-1.47-1.11-1.36-2.07-1.46-.48-.45-.48-1.24-.48-1.72l-1.27-1.03c.16-1.44-1.59-1.01-1.59-2.44v-.16c-1.27.08-1.43-1.66-2.86-1.56-.16.17-.79,1.17-.79.37-.48-.29-1.11-.88-1.11-1.52v-.16l-1.11-.88-.64-1.23c-.48-.13-.64-.75-.64-1.23l-1.27-.87-.48-1.88-1.27-1.35c0-.48-.79-.58-1.11-.56-1.11-1.36-2.54-2.22-3.5-3.59-.64-.12-1.11-.72-1.75-.68,0-.32,0-.64-.48-.6-.48.03-.64.04-.64-.59-.64.04-.95.38-.95,1.02v.32l-1.43-.54c0-.95-1.43-.38-1.43-1.34,0-2.7-1.75-.2-1.75-1.63v-.48c-.48-.29-1.27-.71-1.91-.67-.32.02-.79.05-.95.38-.16.01-1.27.56-1.27.56,0,.16.32.14.32.14.64,2.03,3.02,4.42,3.02,6.16l1.11,1.2-.48,1.14c-.64.04-1.27-1.35-1.43-1.81-.16,0-3.97-2.92-5.25-3-.16-.15-2.86-3.63-3.81-3.57-.16.01-.32.34-.32.5l-.79.53.64.44c0,.64.16,1.74.64,2.18.48-.03.64.28.64.75,0,.32,0,1.11-.48,1.14-.32.02-.64-.44-.79-.58-1.27.08-1.43-1.81-2.86-1.88l-.32-1.57c-.64-.91-2.7-2.69-2.7-3.8-.48-.13-.64-.75-.64-1.23l-1.11-1.04c-.32-.14-.48-.45-.48-.76,0-1.59-1.27-.08-1.27-1.83l-.95-.73v-.79c-.16-.15-.79-.27-.79-.58s1.11-.55,1.43-.57l.48-.67-.32-.62c0-.16,0-.32-.16-.31-.64.04-1.75,1.54-1.75.11v-.32c-4.77-2.23-4.29-3.06-7.63-6.66-.95.06-1.43-1.66-1.59-2.44-.32-.46-1.27-1.98-1.75-1.95-.48.03-.16.81-.48.83-.95.06-4.45-2.89-4.77-3.51l-1.75-.68c-.16.01-.48.03-.48-.29s.32-.97-.32-.93c-.32.5-1.59.9-1.59.58s.79-.53.79-1.01c0-.16-1.59-.37-1.91-.51-3.18,1.16-2.23-.65-4.29-.52-1.59.74-3.18,1-3.18,2.91l-.79-.43-.48.51c-.64.04-3.02,5.76-3.18,6.09l-.79,1.16-.64-.28c-1.11,1.19-1.91,2.98-2.54,4.3.16-.17,1.11-1.19,1.11-.39,0,.95-.64,1-.79,1.8-.48.98-.95,1.97-1.75,2.66,0,.64-.64.84-.79,1.64l-1.27,1.35-.64,1.47c-1.27,1.2-2.54,2.39-3.97,3.44,0,1.43-1.91,1.71-1.91,2.98-.32.5-1.11,1.5-1.59,1.53-.32.02-.32-.46-.32-.62v-.32c.95-.06,1.75-2.34,2.07-3.15.32-.02.48-.03.48-.35s-.48-.76-.64-.91c.16-.65.48-1.3.95-1.81,0-1.59-1.43-2.45-2.86-2.36-.64.04-1.43.25-1.43,1.05l-1.27-.71.48,2.04-2.54,4.3c0,.79-.64,1.15-.64,1.95-1.27-.08-1.11,2.3-2.23,2.37-.95.06-1.75-.21-1.75,1.07-.48.35-.79,1.01-.79,1.64-.16-.31-.48-.76-.79-.74-.32.02-.32.5-.32.66-1.27-.08-.16,1.12-1.27,1.2-.16,1.28-1.43,1.84-1.43,3.11l-.64,1.47-1.11.07-.79,1.16c-.16.65,0,2.23-1.11,2.3-1.75.11-.16,1.28-1.59,1.37l-.48-1.88,2.07-2.68c0-1.75,1.27-1.99,1.27-3.58.79-.05.95-.86.95-1.49l-.16-.94,1.91-2.67.79-3.07c.32-.02.64-.2.64-.52,0-.64-.32-1.25.48-1.3-.16-.47-.16-1.42.64-1.31l-.48-.6-1.27,1.99c0,1.59-.64,1.79-1.91,2.51-.16.65-.64,1.31-.64,1.95-.16-.31-.64-.75-.95-.73-.32.02-.64,1.47-.79,1.8,2.07.03-3.5,4.36-3.5,5.63-1.27.08-2.54,5.57-4.77,5.71l-1.43,3.27c-1.43-.07-.79,1.01-1.43,1.05h-.16s-.64,1.01-.64,1.01c0,1.27-1.27.4-1.27,1.35-1.11,1.82-4.77,7.78-6.2,8.67,0,0,0,.32-.16.33,0,0-.32-1.25-.32-1.73l1.27-2.94c.95-.54,1.43-3.75,2.38-4.6.48-1.14,1.75-6.47,2.54-7.16.16-1.12.95-2.13.95-3.4l.64-1.31c0-.79.64-.84.64-1.47l.64-1.15c0-.64.16-1.28.64-1.79l1.43-3.59c0-.79,1.75-5.52,2.23-5.87,0-.48.16-1.28.64-1.63,0-.64.64-.99.64-1.63l1.11-1.02c.16-.96,1.11-2.3,1.59-3.12.16-.65.64-1,.79-1.64l.79-1.32c0-.79.16-3.19,1.27-3.26,0-.32,0-1.11-.48-1.08h-.16s.79-1.63.79-1.63l.16-1.6.48-.35s0-.64.16-.65c.32-.02.48.45.64.6,1.43-.09,1.27-3.58,1.27-4.38,0-.16,0-.64-.32-.62-.32.02-.64.52-.79.69l-1.43-.7c-.48.51-5.09,1.28-6.2,1.35l-1.59.9-1.43-.07c-.32,1.45-4.13,1.38-4.29,2.35l-3.18.05c-.16-.15-.79-.58-.79-.9s2.23-.3,2.7-.49c1.43-.41,3.02-1.31,4.45-1.88l-2.38-.48-.95.7c-.95.06-1.59.26-1.59-1.01,2.23-.62,8.27-2.76,9.38-4.74l2.38-.15c0-.79.64-.68.64-1.63l2.07.03-.32-1.25c-.95.06.32-1.13.48-1.3-.16-.31-.48-.45-.79-.43-1.43.09-4.29,2.03-4.29-.04v-.32l2.38-1.11c.95.1,2.38-1.11,3.5-1.18,1.43-.09,1.27-2.47,2.38-2.54.48-.03,1.27.08,1.27-.72.79-1.01,1.75-1.86,2.7-2.56,1.11.09,1.11.4,1.59-.58l2.86-1.3c.95-1.02,2.38-3.49,2.38-4.92,1.59.37,2.54-2.55,2.7-3.99.16-1.92,1.43-.41,1.43-1.36,0-.48-.32-.77-.48-1.08,1.27-.4,0-3.18,1.11-3.25h.16c0-.17,0-.8.32-.83,2.86-.19.64-1.31,2.23-1.42l.16-2.87c1.43-3.11,1.75-7.11,4.77-8.89-.79.05-.79-1.22-.64-1.71,1.27-.08,1.27-1.67,1.43-2.64l1.27-1.35c0-1.43,2.07-3.47,2.23-4.28.95-.7.32-2.25,1.11-2.93l.64-1c.16-1.12.79-1.32.95-2.13.16-.01.48-.03.48-.19s-.32-.3-.48-.45c-.64.52-1.43.73-2.23.62l-1.27-.71.64-.52c.32-.02,3.5.41,3.5-.23,0-.32-1.59-.85-1.91-.99,0,2.07-3.81-.39-4.29-.83l3.34-.38v-.64c.79-.53,1.59-.9,2.54-1.28.16-.01.48-.03.48-.19,0-.48-.32-.77-.64-.91-.79.05-.79-.9-1.91-.83l-10.33.19.32-.66c2.38,0,4.93-.48,7.31-.95-4.77-.17-9.85-.63-14.78-.31-1.59.1-3.02.83-4.61.77-.16.81-1.91.76-2.54.8-.48.03-1.59.1-1.59-.69l3.34-1.33c.95.1,2.07-.45,3.02-.51.32-.02,3.82.39,3.82-.56-.79-.11-.79-.9-1.59-.85l-1.11-.4c1.91-.12,3.66-.55,5.56-.84,0-.79,2.38-.63,2.38-.95,0-.16-.32-.3-.48-.29.32-.34-.16-.63-.48-.6-2.7.17-5.4.35-8.11.21,1.11-.23,2.23-.62,3.18-.68.79-.05,3.18.11,3.18-.36,0-.32-.32-.62-.48-.76l-6.2.08c-.16.96-.64.52-.95.06l-.79.05c-4.61.3-8.58,1.35-13.19,1.17l-.64.68-12.08.3-.48.67c-.32.02-.79.05-.79-.43,0-.79,0-1.59.79-1.64l1.43.07,1.11-.55c.79.11,2.07-.45,2.86-.82.48-.67,1.27-1.2,2.07-1.25,1.27-.08,2.38,0,3.5.09l3.97-1.53c.32-.34.79-.37,1.11-.39.48-.03,1.59-.1,1.75-.75l2.23-.14c-.16-.63.32-1.29,1.11-1.34,3.18-.21,6.2-1.35,9.38-1.4l1.27-.56,1.27.24c.79-.05,1.43-.57,2.07-.93l1.27.08,1.43-1.05,1.59-.26c2.7-.17,4.13-.74,7.15-.78.48-.83,10.01-.65,11.6-.75,0-.48.32-.5.79-.53,1.11-.07,2.38-.79,2.7-.81.79-.05,1.43.7,2.23.65.32-.02.48-.35.48-.67l7.79-.66c1.75-.11,11.76-.92,11.76.51,3.5-.07,7.79.61,11.13.39-.16.81,1.11.72,1.59.69.48-.03,1.43-.09,1.75.36l4.13.05.48.6,1.59-.1c.32.3.64.59.95.57.32-.02.32-.5.32-.66l1.43.07.64-.68c.95.73,2.38,1.12,3.66,1.19l1.27,1.35c.79-.05,1.59.37,2.38.32l1.75,1.16c0-1.27.79-.05.95.26,1.59-.1,2.54,1.11,4.29.99,0,.32.32.77.64.75Zm-114.92,86.44c.16-.01.16-.17.16-.33,0-.32-.16-.31-.48-.29h-.16c0,.17.16.64.48.62Zm2.23,38.17l.48-.19c0-.48-.32-.62-.79-.58l-.48.03c0,.48.32.77.79.74Zm4.61,6.06c0,.95-.79,2.28-1.75,2.34-.16.01-.48-.13-.48-.29,0-.95.95-1.97,1.59-2.65.48-.03.64.28.64.59Zm1.11-14.22c.16-.01.16-.17.16-.33,0-.32-.16-.31-.48-.29h-.16c0,.33.16.64.48.62Zm3.02-38.67l-1.75-.2c0,.64,1.43.38,1.75.2Zm.79-.69c0,.32.16.31.32.3h.16v-.17c0-.32-.32-.3-.48-.29v.16Zm1.11,28.38c0,.64.48.76.95.73l1.27-2.31c.48.13.48-.83.48-1.14,0,0,0-.64-.16-.63v.48c-.95-.1-2.54,2.07-2.54,2.87Zm3.02-.2c0,.32.48.45.79.43l.64-1.15-.79-1.06c-.16.65-.64,1.15-.64,1.79Zm2.86-7.02l-2.07.61c0,.64.64.75,1.11.72h.16c0-.33.16-.66.48-.68.32-.02.64.28.79.58-.16-.47-.32-1.73.48-1.78l.95-1.97-1.27.56c0,.79-.64,1.15-.64,1.95Zm1.11-3.09c.16-.01.32-.18.32-.34,0-.32-.32-.3-.48-.29l-.32.02c0,.32.16.63.48.6Zm1.43-1.52c0,.32.32.3.64.28l-.48-1.08-.16.81Zm3.66-78.45l-.32.66c-.64.04-2.07-.03-2.07-.82l2.38.16Zm-1.27,89.74c.16-.01.16-.17.16-.33l-.64-.28c0,.16.16.63.48.61Zm1.91-22.54c0,.16,0,.48.16.47.32-.02.48-.35.48-.67,0-.16-.16-.15-.16-.15l-.48.19v.16Zm1.59-68.3c.48-.03.95.1.95.73v.16l-1.11.07c-.64.04-1.27.08-1.27-.71l1.43-.25Zm-.95-15.04c.32-.02.32-.34.32-.5s-.16-.31-.32-.3-.16.17-.32.18c0,.16.16.63.32.62Zm.79,103.44v-1.11l-1.11.07c0,1.11.16.94,1.11,1.04Zm1.59-4.87c0,.48.32.62.64.59l.64-.2c.64-1.15,1.11-2.46,1.59-3.76l-.95-.58c-.48.83-1.91,2.99-1.91,3.94Zm5.88-.06l-3.18,2.91v1.11l1.27.08c.79-1.32,3.5-3.56,3.5-4.99,0-.79-.64-1.39-1.27-1.67l-.32,2.56Zm-.32-11.27c-.16,1.44-.95.7-.95,3.08,0,.79.64.75,1.27.71l.32-1.77,1.11-1.5-.48-1.72c.32-.02.95-.06.95-.54,0-.32-.32-.62-.64-.59-.48.03-.48.98-.48,1.14l-1.11,1.18Zm.32,16.67q-.64.04-.79.69c.32-.02.64-.36.79-.69Zm.64-11.96c0,1.11.64,1.39,1.75,1.32,0-1.11-.95-1.69-1.75-2.27v.95Zm.79,9.49l.48-.03c0-.32-.32-.46-.64-.44,0,.16,0,.48.16.47Zm0-95.22c0,.48.16.94.79.9.95-.06,2.07-.29,3.02-.51l2.38-.31c0-.16.79-.21.79-.37h-.16s-6.83.14-6.83.14v.16Zm5.25,86.93s0,.32.16.31.32-.34.32-.5,0-.32-.16-.31c-.16.01-.16.17-.32.18v.32Zm12.4-39.59v1.27l1.11-.23,1.27-1.35-1.27-.71c-.16.49-.64,1-1.11,1.03Zm6.36-6.77l-1.75-.36c-.16.81-.64,1.31-.79,2.12l-1.27.72c0,.48.95.57,1.27.55.48-.03,1.27-.24,1.75-.43l.64-1.95,1.27-1.51c.48-.03.64-.68.64-1l-1.27.24c-.48.35-.48,1.14-.48,1.62Zm6.68-12.83l1.43-1.68c0-1.27,1.27-1.51,1.43-2.95l-.64-1.07c-1.43.09-1.11,2.46-2.7,3.51,0,2.54-4.29,3.77-4.29,8.86-.16.17-.64.68-.64,1s.48.29.64.28l1.27-1.19c-.16-.47-.16-1.42.64-1.47l1.11-1.34c1.43.22,1.43-.89,2.7-.97l.32-.02-.32,1.77c-2.54.16-.48,1.46-1.91,2.35,0,.32.16,1.42-.32,1.45l-.32-.14c-.48,1.14-.48,2.42-2.07,2.52l-.64,1.31c.32.14.79.58.79.9s-.48.35-.64.36c-.16.49-.16,1.92-.79,1.96s-.95.22-.95.86c-.16.17-.64.36-.64.68,0,.16.48.29.64.28,1.27-.08,4.77-1.74,5.88-2.13l1.11-1.03c.48-.03.95-.22,1.11-.71.64-.52,1.43-.89,2.23-1.26q1.11-.07,1.11-1.19l1.91.35.16-.49c0-.64-.64-.59.64-.68.32-.34.79-.37,1.11-.39l.32-.02,1.11-1.03,2.38-.47.16-1.28,1.11-.07c0-.32.16-.49.48-.51l.32-.02c1.11-.87,3.34-1.96,4.77-2.06l1.59-1.06c.16-.49.64-.68,1.11-.71,0-.79.64-.99,1.27-.88l1.27-.56c1.11.25.32-.97,1.11-1.03,1.11-.07,3.34-.53,3.34-1.81,0-.32-.16-.78.48-.83l.32-.5,1.43.07,2.23-3.16c-.16-.31-.64-1.87-.95-1.85-.16.01-.16.49-.16.49l-1.91-.19c0-2.23-3.18-.59-3.18-2.5v-.32c-6.36-.07-11.76-1.94-18.44-1.51-.95.06-1.11.87-1.11,1.66-.48.03-.64.52-.64,1,0,.64,0,1.11-.95,1.17l-.32.02c-.32,1.29-.79,2.44-1.27,3.58l-1.43,1.52v1.11l-.48.98c-1.59-1.49-1.43,1.68-1.43,2.48l-2.54.16c.48-.35.64-1.15.64-1.63Zm-5.4,10.21c0,.16,0,.48.32.46.16-.01.32-.34.32-.5s-.16-.31-.32-.3l-.32.18v.16Zm7.79-19.58l-.64,1.15c0,.32.32.77.64.75s.64-.52.64-.84l1.27-2.63c.16-.17,1.11-.71,1.11-.87s-1.27-.24-1.59-.21c-.16,1.44-1.43,1.52-1.43,2.64Zm5.09,78.52c-1.27.08-1.43-.54-1.43-1.66l1.43,1.66Zm1.75-3.93c0,1.27.48,1.08,1.59,1.01l-1.59-1.65v.64Zm5.25-25.46c.16-.01.16-.33.16-.49l-.48-.13c0,.16,0,.64.32.62Zm1.11,21.55l-1.27-.08c0,.64.95.26,1.27.08Zm1.11,2.79c0,.48.64.28.95.26l.32-1.29-1.11.23c0,.32-.16.49-.16.81Zm4.61,4.31c0,.16.32,1.25.48,1.24.32-.02.32-.97.32-1.13-.95-.73-2.07-1.3-2.86-2.2l.32.46c0,1.27.48,1.72,1.75,1.64Zm3.81-104.85c0-.95-1.75-1.48-2.54-1.58,0,1.75,1.11,1.68,2.54,1.58Zm-.48,110.99l-.64-.44c0-.16.16-.8-.16-.78-.32.02-.32.5-.32.66,0,.32.16.63.48.6l.64-.04Zm-.48-53.7c0,.32.32.61.64.59.79-.05,1.43-.89,2.07-1.41l-1.11-.09-1.59.9Zm1.43,56.5c.32-.02.32-.34.32-.5l-.64-.12c0,.16.16.63.32.62Zm8.27-53.95c-.48.19-.48-.61-.48-.76-.48.03-5.25,3.04-5.4,3.21,0,.48-.64.68-.95.7l-.64.68v.16c0,.48.32.46.64.44.64-.04,1.43-.41,1.91-.76.95-.06.95-1.18,1.91-1.24h.16c.48-.84,1.43-1.37,2.38-1.44l.48-.98Zm-7.47,5.25c0,.16,0,.48.32.46.16-.01.32-.34.32-.5l-.64-.12v.16Zm.48,49.57h.16c0-.17-.16-.32-.32-.31h-.16c0,.17.16.32.32.31Zm1.43-22.82l.32-.02c0-.32-.32-.46-.64-.44,0,.16,0,.48.32.46Zm1.43-89.43c.16-.01.32-.18.32-.5l-1.11-.56c0,.32.32,1.09.79,1.06Zm.16,91.55c0,.16,0,.48.32.46.16-.01.32-.34.32-.5s-.16-.31-.32-.3l-.32.18v.16Zm4.29-94.7c.16-.01.32-.02.32-.18,0-.32-1.75-.68-2.23-.65-.16.01-.32.18-.32.34.64.28,1.43.54,2.23.49Zm-.79,61.57v.64c.32-.02.48-.51.48-.67l-.48.03Zm9.85-14.47v.32c-.48-.13-1.11.07-1.59.58-.48.03-1.11.07-1.43.57-.79.69-2.38,2.54-3.66,2.62-.16.33-.64.52-.95.54l-.32.02-1.59,1.69.32-.18h.16s2.54-1.29,2.54-1.29c1.11-.55,2.07-.77,3.02-1.47l.79-1.32c.48.13,1.27.39,1.27-.4l2.07-1.72-.64.04Zm-8.42,14.06c.32-.02.32-.34.32-.5l-.64-.12c0,.16.16.63.32.62Zm4.61,60.9l-.79,1-1.59-1.01c.16-1.12.32-1.29,1.43-1.37l.95,1.37Zm-1.75-61.72c.16-.01.48-.03.64-.2l-1.11-.25c0,.32.16.47.48.45Zm-.48,48.04l.48-.03v-.16c0-.16-.16-.31-.32-.3,0,.16-.16.33-.16.49Zm3.18-62.52c0,.48.95.1,1.11-.07l-1.11-.09v.16Zm2.07,65.04c0-.48,0-1.27.48-1.62.48-.03.95.26,1.59.21l.16,1.26-2.23.14Zm1.27-66.53c.32-.02.32-.34.32-.5l-.64-.12c0,.16.16.63.32.62Zm7.63-3.99c-1.27.08-1.27,1.19-2.38,1.27,0,1.91-1.43,2.16-3.02,2.58l-.48,1.3-.79.69c0,.16.16.47.32.46s.16-.33.16-.49c.95-.06,1.11-1.18,1.91-1.24h.16c1.27-1.05,2.54-2.56,3.5-3.89l1.43-.73-.79.05Zm-5.88,2.61c.16-.01.32-.18.32-.34s-.16-.31-.32-.3c0,0-.16.17-.32.18,0,.16.16.47.32.46Zm.32,9.36c.16-.01.16-.49.16-.65,0,0,0-.16-.16-.15l-.48.19c0,.32.16.63.48.6Zm.79.9l1.27.08c0-.79.64-.36.64-.99l-1.27.08c0,.79-.64.04-.64.84Zm2.07-2.04c0,.16,0,.48.16.47.16-.01.32-.34.32-.5l-.48-.13v.16Zm6.52-6.46c.16,1.74.48,2.35-1.43,2.48,0,.16,0,.48-.16.49-.32.02-.48-.61-.48-.76l-1.11-1.2-.79.53.95,1.53-.95.7-.48-.76-.48.67c-.79.05-1.11.07-1.11,1.03,0,0,0,.32.16.31.32-.02.48-.51.64-.68l1.11-.39c0,.79-.64.84-.64,1.63l1.43-.57c.79.11,1.75.36,1.75-.75,1.27-1.67,2.86-3.36,4.45-4.74-.16.01-.95-.73-.32-.77h.16s3.34-1.66,3.34-1.66c1.27-1.99,3.18-3.7,4.77-5.4.32-.02.48-.19.48-.51s0-.64.48-.67l1.11-1.34c.16-.01.48.13.48-.19,0-.16-.16-.63.16-.65l.32-.02c.16-.17.32-.34.32-.5,0-.48-.48-.92-.79-1.22,0-.16,0-.32-.16-.31-.64.04-1.43,2.79-1.59,2.96-.64,1.15-2.07,2.52-3.18,3.23-1.27-.08-.64,1.15-1.59,1.22-1.59,1.06-3.34,3.4-4.45,4.9-.79.05-1.75.91-2.38,1.43Zm-4.45,87.56c.16-.01.16-.17.16-.33,0-.32-.32-.3-.64-.28,0,.16.16.62.48.6Zm2.38-92.35c.32-.02.32-.34.32-.5l-.64-.12c0,.16.16.63.32.62Zm7.95-27.22c0,.16,0,.32.32.3.16-.01.48-.03.64-.2v-.16c0-.16-.32-.14-.48-.13l-.48.03v.16Zm5.25,5.54c0,.16,0,.48.32.46.16-.01.32-.34.32-.5l-.64-.12v.16Z"/>
    <path class="cls-1" d="m440.64,81.33c-.48.03-2.7-.3-2.7.49v.16c-2.7.17-5.09.81-7.79,1.46l-1.43,1.05c-2.54.16-3.66,1.51-4.93,1.59-.48.03-1.27-.24-1.75-.36-4.77.94-9.38,2.2-14.31,2.52l-4.93.32s-.79.05-.79-.11c0-.32.32-.5.48-.51,0-.48.32-.66.79-.69l.48-.03-1.27-.39-.32-.61-1.11-.56c-.48.03-.8.37-.8.85v.16l.48.45c0,.48-1.27.56-1.43.57-1.43.09-.79-.11-1.75.75-1.27.08-1.27-2.46-2.54-2.38-.8.05-1.27.72-2.07.77,0,.16,0,.64-.32.66-.32.02-.64-.44-.79-.58-.32.34-.64.84-1.11.87-.16.01-.16-.31-.16-.31v-.32c-.16.33-.64.68-.95.7-.32.02-.32-.14-.32-.3v-.32l-1.75.59-.48-.6c-.32.02-.79.21-.79.53v.16l-.16.17c-.48.03-.48-.76-.95-.73-.16.01-.16.81-.16.96,0,.48.16,1.1.64,1.39.48-.03,1.27.08,1.59.53l1.91-.92c-.32-.14-2.23-.49-2.23-.65s.79-.21.79-.21l5.41-.35,1.11-.71.95,1.69c.64-.2,2.54-.48,2.54.47l-2.86.19c-.16.17-.32.82-.64.84-.32.02.16-.81-.79-.74-.64.04-1.43.57-2.07.93l-3.34.22c-.16.17-.64.68-.95.7-.16.01-.16-.15-.16-.31v-.32c-.16-.15-.48-.6-.79-.58-.48.03-.48.67-.48.98-1.91.44-3.5-.25-3.81,1.84-1.91.12-3.66.87-5.4.99l-.79.69c-.32-.3-.79-.74-1.43-.7-.32.02,0,.64-.48.67-.32.02-.63-.28-.79-.43-.32.02-3.02,1.31-3.02,1.31l-1.43-.38-3.34.69c0-1.27-2.86.5-3.34.85-1.27.08-2.38-.48-3.66-.4-2.22.14-4.45,1.72-6.68,1.86l-1.11.71c-.16.33-.64.68-.95.7-.79.05-.95-.73-1.59-.69-.32.02-.32.5-.32.66.32.14,1.27.55.16.63l-.32.02c0,.32,1.11.72,1.43.86-.95,1.33-1.91,2.83-2.7,4.31l-1.43-.7-.95,1.65-.64.52.64.12c0-.79,1.27-.4,1.27-.08s-.48.35-.64.36l-1.59,2.49-.32-1.89c-.48-.13-1.27-.39-1.75-.36-.79.05-1.27,3.1-1.27,3.74.48-.03.64.44.64.44.32-.02.48-.67.79-.69.32-.02.64.75.79,1.06-.16,1.28-1.75,1.07-1.91,2.35l.64,1.07c.64-.04,1.11-.71,1.11-1.19,2.54.79,3.5-.86,6.04-1.03.32-.02.79-.05.79.27l2.38.64.95-1.17c.95-.06,3.82-.09,4.29-1.07l1.59-.74c.48.13,1.11.25,1.43.54l.79-.69,2.86-.19.32-.66c.48-.03,1.11.09,1.43.54l3.34-.22c-.16,1.28,2.86-.03,3.34,1.06l1.27-.4c.16-.81.95-.06,1.11.25.48-.19,1.91-.44,1.91.35,1.59-.1,3.34.42,5.25.3.16-.01,1.11-.07,1.11.09,0,.32-1.75.59-1.91.6-.48.19-.95.38-1.43.41l-6.52.74c-1.91.28-4.29,2.19-6.68,2.34-.79.05-4.61-.02-4.61.62,0,1.59,4.77-.31,6.52,1.01,4.61-.3,9.54-1.73,14.15-.12,0,.79-3.02.83-3.66.87,0,.16-.16.33-.32.34-.48.03-.79-.11-.95.54,3.34-.22,6.83.51,10.17.77.16-1.76,4.61.5,4.61-1.57,1.59-.1,2.86.61,4.45.51,0-.64.64-.84,1.11-.87,0,.32.16.78.64.75.32-.02.64-.36.64-.68.63.28,1.11-.07,1.27-.72l1.11.4s.48-.03.48.13c0,.32-.48.51-.64.68,0,.32,0,.64-.32.66-.32.02-.63-.44-.79-.58l-1.11.71c0,.64-.8.69-1.11.71l-4.45.29-.16,1.12c-.48.03-3.5-.09-3.5.86l-5.09.96c-.32.66-1.27.72-1.75.75l-.64.68-3.34,1.17c-2.38.79-4.45,2.51-6.83,2.67-1.43.09-1.75,1.23-3.5,1.34-.32.02-.95.06-.95.54l-.95.06c0,.48-.64.68-.95.7l-1.75-.05-.16.65c0,.32.16.78.63.75s1.11-.39,1.43-.89l2.86-.19c0-.32,1.91-1.24,2.38-1.27,2.7-.17,5.4-1.3,7.63-1.45,3.97-.26,8.74-1.52,13.19-2.28.79-.53,1.59-1.06,2.54-1.12.32-.02.48.13.48.45,0,1.27-.32,1.29-1.43,1.36-.64.04-1.59-.22-1.75.75-3.02.2-5.88.7-8.9,1.21-.79.37-1.59.9-2.54.96-.16.01-.48-.13-.48-.45l-2.38.47c0,.16.63.12,2.23.02l-.32,1.29c-.48.03-2.38-.32-2.38.63l-1.43,1.05c0,1.59,1.27-.72,1.27-.08v.16c.16-.01,1.75.2,1.75.84-1.91.12-5.25,1.61-7.31,1.74-1.27,1.67-5.88,1.81-6.36,2.95-.48-.13-2.07-.02-2.07.77l-1.43-.54-1.75,1.07-1.11.07c0-.48-.32-.93-.8-.9-.79.05-.32,1.29-.79,1.32-.32.02-.8-.9-.95-1.21-.32.02-.32,1.13-.32,1.29-.64.04-.64.68-1.27.72-.95.06-1.27-.55-1.91-1.15-1.11,1.19-3.5,1.66-3.82,2.15l-1.11.07c-.32-.46-.79-.9-1.11-1.04-.48-.13-.48.83-.48,1.14l-4.45.29-.64-.59c-.79.05-.79.69-1.43.73,0-1.27-2.07-1.14-3.02-1.08-1.27.08-2.7.33-3.97.42v1.27c.16,0,.79-.05.79.27s-.48.35-.64.36c-1.11.07-.32,1.13-1.43,1.2,0,.64-.64.84-1.11.87-.79.05-5.25-.14-5.25.66,0,.64,1.43,1.97-.16,2.08l-.16.96-.64.2c-.48.98-1.27,1.99-2.23,2.69,0,.64-.32,1.29-.79,1.64-.48.19-.64.68-.64,1.15-1.11,1.19-2.23,4.12-2.7,5.58l-1.11.07c.79-4.19,6.04-10.56,6.04-10.88,0-.16-.32-.14-.48-.13l-2.07,1.41c-.16.33-.79,2.44-.95,2.45-.32.02-.48-.29-.64-.44-1.27.08-1.75,1.7-1.75,2.66l-1.11,1.34c0,.79-2.23,5.71-2.54,7.16l-1.43,1.05c0,.16-.16.33-.32.34-.48.03-.95-.1-.95.54-.95.7-1.43,3.27-1.43,4.38,0,.32-.16.81-.48.83h-.16s.79,1.55.79,1.55l1.11-2.46c1.27-.08,1.27-1.67,1.27-2.63.64-.04.64-.68,1.27-.72.32-.02,1.43.38,1.75.52,0,.79-.64,1.15-.64,1.95l-1.27,1.35v.16c0,.48.48.45.79.43.79-.05,1.59-.42,2.23-.78l.16-.65,2.86-.19,1.27-.72c0-.64.48-.67.95-.7,1.91-.12,3.97-1.53,6.2-1.67l.16-.65c2.86-.19,12.08-2.05,12.56-2.72,2.38-.15,4.93-1.43,7.47-1.6l1.75-1.07,1.91.03,1.43-.89c6.04-.39,12.72-2.57,18.92-2.97,2.7-.17,5.4-.19,7.95.12.16.15,1.27.55,1.27.71,0,.48-1.91.6-2.23.62-3.02.2-5.88,1.02-8.9,1.21,0,.79-2.22,1.42-3.02,1.47,0-1.27-2.54.16-3.02.51,0,1.27,3.66.24,3.66,1.35.32-.02,1.27-.24,1.27-.72.32.3.95.57,1.43.54.16-.01.32-.18.32-.34l1.27-.4c0-.16,0-.64.16-.65.32-.02.63.44.79.58l-.79.69c-.32.02-.95.22-.95.54,0,1.43,3.82-.25,4.61-.3.32,1.25,8.9.22,11.6-.59l1.91,2.26c.64-.04,4.61-.46,4.61.18,0,.16-.48.19-.64.2l-4.13.27-.32.5-2.22.14-1.11.71c-2.54.16-4.61-.5-6.99-.34l.48,1.24c1.59-.26,3.5-.07,5.09.31,0,.32.16.47.48.45.8-.05,1.43-.73,2.23-.78.32-.02.48.13.48.45v.16c.64-.04.95-.54.95-1.01v-.16c.79-.05.79-.69,1.59-.74,0,.48.16.63.64.59.79-.05,1.59-.42,2.23-.78l.95-.06c.48-.03.79.11.79.58.32-.02,3.66-1.67,3.66.08,0,.16-.16.17-.32.18-.64,1.15-5.09.96-6.04,1.03,0,.48-.79.69-1.11.71,0-.32-.16-.63-.48-.6-.32.02-.48.35-.48.67l-1.91.44c0,.16,0,.32-.16.33-.16.01-.32-.46-.48-.61l-1.75.11c0,.48,0,1.27.63,1.23l1.11-.07s7.15-1.1,7.15.33c.64-.04,1.11.09,1.59.53l.64-.68,1.11-.07c.48.45.95.57,1.59.53l3.02-.2c.16-.33.48-.83.95-.86.32-.02.48.45.64.75l3.34-.22.48-.35c.64-.04,1.11-.55,1.75-.43l.79.58,1.43-.25s0-.64.16-.65c.32-.02.48.6.64.75.79-.69,1.75-1.54,2.86-1.62.64.28,1.27.71,1.59,1.33-.16.01-.95.38-.95.54l.32-.02v.64c-2.7.17-5.25.98-7.95,1.15-.95.86-1.59,1.22-3.02,1.31,0,.48-.64.68-.95.7-1.91.12-3.66.87-5.4.99-1.59.1-4.45-.51-5.41,1.14-3.81.25-6.68,2.18-9.06,2.33l-1.11.55,2.23-.14c.32-.34,1.43-1.21,1.43-.25v.32c.32-.02.48-.51.48-.67l4.29-.28c.79-.85,2.86-.66,3.82-.72.32-.5,1.11-.71,1.59-.74,0,1.43-1.59,1.69-2.7,1.76-5.25.34-10.97,2.46-16.53,2.82-1.59.1-1.75,1.39-3.34,1.49l-1.11.71-4.61.3-.32.66-1.43.09c-.79.53-1.43,1.36-2.38,1.43l-2.38.15c-.48-.76-1.43-1.34-2.07-1.77-.64.04-.64.99-.64,1.31l.64,1.23-2.38.31c-.16.65-1.91.76-2.38.79-1.43.09-2.7.33-4.13.59l-.95.7-2.23.14-.48-.6c0,1.91-1.59,1.37-3.18,1.48l-.8,1.32c-.95.06-1.59.9-2.38,1.43-.32.02-.95.22-.95.7-.64-.12-5.09-.47-5.4.99-.48.03-3.34-.1-3.34.85-1.59.9-3.81,2-5.56,2.11-.32.02-.79-.11-.79-.58l.32-.02c.64-.2-.79-.43-.79-.43-.32.18-1.91.6-1.91.76,0,.32.48.6.64.75-.16.17-.48.35-.79.37-.16.01-.32.02-.32-.3v-.16l-2.38.31c-.32,2.41-3.81,2.31-5.72,3.07,0-.79-1.43.25-1.91.28l-.64.52c-.95-.57-2.38-.32-3.5-.25-.64.04-.32,1.93-.79,1.96-.48.03-.8-.42-1.11-.72l-.79.05-.32,1.29c-3.97.26-8.11,2.11-12.08,3.17,0,.64-.79,1.64-1.59,1.69l-1.75-.04-1.27-.55c-.32.02-2.86-.93-2.86-1.09-.64.04-2.07.61-2.07-.5-1.27.08-1.43-1.18-2.7-1.1-.48-.61-1.43-1.82-2.38-1.75l-2.38-2.07-.64-1.23c-1.59.1-2.07-1.93-2.7-3,0-.32,0-.64-.32-.62-1.91.12,0-2.7-1.27-2.62,0-.95.95-2.13,1.59-2.96l1.27-3.9c.16-.01.48-.19.48-.35,0-.48-.16-.78.48-.83,0-.48.16-1.12.64-1.47l1.75-3.61c.95-.06.95-2.61.95-3.24,0-1.11-.32-6.02,1.11-6.11,0-1.43,1.11-2.3,1.27-3.74l2.38-1.74.32-1.61c.32-.02.48-.03.48-.35s-.48-.76-.64-.91c0-.48.32-.82.95-.86l.32-.02c.95-1.18,3.18-4.34,3.18-5.93l.95-1.33c.16-.01.48-.03.48-.35,0-.64-.79-1.22-.79-1.86,0-.79,1.43-.25,1.43-.89,0-.48-.16-.78.48-.82.16-.65.32-1.13.79-1.64,0-1.11,1.11-1.34,1.11-2.93l-.48-.76,1.27-1.04c0-.79.64-.52.64-1.31l.48-.67-.48-.13c-1.43.41-3.02,1.15-4.45,1.24-.48.98-2.23.46-2.54,1.44-1.27.08-2.54.64-3.81.72l-.95,1.33c-.32.02-1.11.07-1.11.55-2.7.17-5.09,1.12-7.47,1.28l-1.27.72c-.64.04-1.75-.21-1.75.75l-1.91-.2s-.64-.12-.64-.28l.48-.03c.48-.03.95-.22,1.11-.71.48-.03,1.11-.39,1.27-.88.16-.01.95-.06.95-.38v-.16c.48-.03,1.27-.24,1.59-.74,1.27-.08,2.07-.77,2.7-1.92,1.91-.44,4.29-1.23,5.88-2.29,0,0,.32-.02.32-.18,0,0-.8-.43-.95-.42-1.27-.08-1.27-.71-2.07-.66l-1.43.89c-.32.02-1.27.08-1.27-.39l.32-.34c.95-.06,2.86-.82,3.81-1.04,0-.64.32-.97.95-1.01.79-.05,2.07.02,2.7-.81,0-.64.48-.67.95-.7.64-.04,1.59-.1,1.91-.76.95-.06.48-.03,1.11-.71l1.43-.57-1.43-2.29c-1.59.1-1.75-1.64-1.75-2.91l.64-1.47c0-.32.16-.49.48-.51.32-.02.79.11.79-.53.48-.83,1.27-2.15,2.23-2.21.79-1.16,1.11-1.82,2.54-1.91.16-1.92,1.27-1.04,1.91-2.19l1.59-.58c.16-.33.64-.84,1.11-.87.16-.01.32.14.48.29,0,.32.32.46.64.44.64-.04,1.75-.59,1.75-1.38,1.75-.27,3.34-.53,5.09-.96l.79-1.17.79-.53c.32-.82.64-1.63,1.11-2.3v-1.59l1.27-1.51c0-.48.16-1.28.64-1.63,0-1.27.64-1.15.79-2.12.48-.51.64-1.15.64-1.79.32-.5.48-1.14.48-1.62.48-.35.64-1,.79-1.48l1.27-.88c0-1.27.79-2.75,1.91-3.46.32-.97.79-1.8,1.27-2.63,0-.64,0-1.91.79-1.96,0-.64-.64-.75-1.11-.72-.79.05-2.54.8-2.54-.47l-3.18.21c0,.64-.64.84-1.11.87,0-1.11-1.27-.71-2.07-.66-1.59.1-3.66,1.03-4.29,1.07v-.79c0-1.11,3.34-.85,3.97-.89l3.02-1.31c.79-.05,4.29.2,4.45-1.24-.48.19-1.27.08-1.27-.55v-.32l-6.84.44c-.64-1.07-4.13-.37-5.09.33l-2.23.14c0-.48.48-1.46,1.11-1.5l1.59.06c.79-.69,2.54-1.12,3.66-1.19l-1.59-.85-2.86.19-.95.7-1.11.07c-.32.02-.79-.11-.79-.43v-.16c-3.81.25-7.31,2.38-11.29,2.64-.95.06-.95-.58-1.75-.52,0,.48-4.29,1.55-5.25,1.61l-1.59.1c0-.32-.16-1.26.48-1.3,3.97-.26,10.97-2.3,14.94-3.35l1.27-1.04c0-.32-.48-.45-.64-.44-1.11.07-2.23.62-3.18,1-.32.02-.95.22-.95.7l-1.43-.54c-.48.98-3.02.83-3.81.88l-1.27.72-2.7-.14-1.11-.56,1.27-1.04c.79-.05,5.72-1.32,6.04-1.5l2.38-.15c.95-1.02,2.23-1.57,3.18-2.75l1.43-.09.48-.51c1.43-.09,2.54-.8,3.97-.89l1.27-.72c.48-.03,1.27-.24,1.59-.74,1.91-.12,11.76-2.19,12.08-2.69.48-.03,3.5.09,3.5-.86,2.07-.61,6.99-1.25,8.11-2.11,3.66-.39,5.88-1.17,9.54-1.41,0-.64.79-.69,1.27-.72.64-.04,3.66.4,3.81-.4,1.43-.57,3.18-.84,4.77-.79l.79-.53c2.7-.18,9.54-2.05,11.44-2.97.95-.06,6.2.55,6.2-.88l.79-.69c1.11-.07,5.72.11,6.52-1.06l25.75-1.67c5.56-.36,12.08,1.76,17.96,1.38.64.91,2.7.14,2.86,1.25l6.36-.41c.32.3,1.11.4,1.59.37.32.46.95.57,1.43.54l-.95.7c-.48.03-2.23.3-2.23-.49-.16.01-1.27.56-1.27.56,0,.16.32.14.32.14l-.79.69c-.32.02-.95.06-.95.54v.16l-3.97.26-1.11,1.18-3.18.21c-.48.35-1.59,1.37-1.59,1.85,0,.64,1.59.06,1.75-.43l1.43-.09.64.59c.32-.5,1.11-.71,1.59-.74l.32.61.95-.7c1.11-.07,1.59-.9,2.54-.96l1.91-.12c0,.32.16.78.64.75.48-.03.64-.36.64-.84.95-.06.79.74,1.59.69l1.27-1.35,2.23-.3,6.04-.39.16.63c0,1.75-6.36,1.21-7.79,1.3,0,0-.64.04-.64.2,0,1.11,6.52-.58,6.52.85,0,.48-3.34.53-4.29.6l-1.43.73c-.48.03-1.11-.09-1.43-.54-.95.38-4.93.8-4.93,1.43v.16l-4.77.31c-.16.17-.63.68-.63,1,0,.16.16.15.32.14.79-.05,4.61-.78,4.61.81l-.16.81c-.32-.14-1.91-.67-2.23-.65l-1.27.08c-.32.82-2.07.61-2.07,1.56,0,0,.95.42,1.11.4,1.27-.08,2.22.49,3.5.41,5.56-.36,11.44,1.01,17.17.64,1.11-.07,6.83-1.08,7.47.15l-1.43.89Zm-151.17,55.88c.32-.02.64-.2.64-.52s-.32-.3-.64-.28l-.48.03c0,.32.16.78.48.76Zm2.54-1.28l-1.27-.08c0,.64.95.26,1.27.08Zm6.68,67.45c0,.32.32.3.48.29.16,0,1.91-.6,1.91-1.08,0-.16-.32-.14-.48-.13l-1.27.08c-.16.17-.64.52-.64.84Zm.48-20.22l.64.12.16-1.44-.64-.28-.16,1.6Zm4.29-6.48c.16-.01.16-.17.16-.17,0-.64-.48-.92-1.11-.88.16.31.79,1.06.95,1.05Zm2.54.15c-.64.04-.79.69-.79,1.16.16.15.32.46.48.45s.16-.49.16-.49l1.11-1.18-.95.06Zm-.16-3.81c.16-.01.16-.33.16-.49l-.48-.13c0,.16,0,.64.32.62Zm1.11-4.36c.16-.01.32-.34.32-.5l-.48-.13c0,.16,0,.48.16.63Zm2.07-2.52c.16-.01.16-.65.16-.65,0,0,.79-.05.79-.21s-1.27-.55-1.43-.54c0,.32.16,1.42.48,1.4Zm2.07,32.45s-.32.02-.32.18c0,.32,1.11,1.04,1.43,1.18l2.23-.46c-.79-.11-1.91-.19-1.91-.35s1.59-1.06,2.07-1.25l-2.7-.46-.79,1.16Zm.64-31.52c0-.64.64-.68,1.11-.71.16-.01.64-.04.64.12,0,.32-.48.51-.64.68.16.47,0,.95-.64,1l-.48-1.08Zm4.45,32.3c0,.16,0,.48.32.46.16-.01.32-.34.32-.5l-.64-.12v.16Zm6.99-6.97l-.64-.12-.64.84c-2.07.13-3.66,1.35-5.56,1.47l.48,1.24c.95-.22,3.97-.73,4.61-1.57,1.11-.07,2.07-.77,3.34-.85l1.27-.56.79-.85-2.7-.46c0,.48-.48.83-.95.86Zm-4.93-40.85v-1.11l-1.27.08c0,1.11.16,1.1,1.27,1.03Zm-.16,46.11c.16-.01.48-.19.48-.51l-1.11-.09.64.59Zm1.43-47.94c0,.79.64.59,1.11.56l.16-1.28-1.27.24v.48Zm.95,47.79c0-.32-.32-.62-.64-.59q0,.64.64.59Zm.79-49.01c.48-.03.79-.05.79.58l.48-.03c0-.64.48-.82.48-1.46l-2.23.3c0,.32.16.63.48.6Zm8.74,42.67l.16.63,2.23-.14c0,.48-.48,1.46-1.11,1.5l-1.59-.06-1.75,1.39c-.16.01-.95.06-.95.38s.48.6.64.75c1.43-.41,6.04-1.34,7.15-2.21.32-.02,4.29-1.39,4.29-1.39.95-.06.95-.86,1.75-.91.48-.03,1.27-.24,1.59-.74l2.23-.14s.32-.02.32-.18c0,0-.79-.42-.95-.42-1.59-.06-3.02-.44-4.45-.35-.48.03-.64.52-.64.99v.32l-2.23.14c0-.48-.32-.93-.79-.9l-.32.02-1.11-.72c-.79.69-4.45,1.72-4.45,2.04Zm-.95.06v-1.27l-1.27.24c0,1.11.16,1.1,1.27,1.03Zm6.99.18c0,.64-1.59,1.21-2.23,1.26-.16.01-.16-.94-.16-1.1l2.38-.15Zm9.54-53.55c-1.75,1.54-5.09.33-5.4,2.89l3.02-.2c1.27-.56,3.18-1.64,4.45-1.72l1.43-.73c.64-.04.8.58.8,1.06v.32l-1.27.4.32.93,1.11-.07.48-.67,4.29-1.55c-.32-.14-1.59-.85-1.59-1.01,0-.32.8-.05.8-.53,0-.32-.48-.76-.8-.9-2.54.32-5.25,1.61-7.63,1.77Zm-.95,50.93q0,.16.16.15l.32-.02v-.16c0-.32-.32-.3-.48-.29v.32Zm6.36-.57c.16-.01.32-.34.32-.5s-.16-.31-.32-.3c-.16.01-.16.17-.32.18,0,.16,0,.64.32.62Zm1.91-1.87l-.48.03-.32.97c.95-.06,1.59-.74,2.54-.8.48-.03,1.11-.07,1.43-.25,0-.32-2.07-.66-2.38-.8,0,.48-.32.81-.79.85Zm.16-10.02l.32-.02c0-.32-.32-.46-.64-.44,0,.16,0,.48.32.46Zm1.59-1.85c.16-.01.16-.17.16-.33,0-.32-.16-.31-.48-.29h-.16c0,.33.16.64.48.61Zm2.38,9.54c0,.32.32.46.64.44,0-.48-.16-.94-.48-1.24l-.16.81Zm1.11-48.87c.32-.02.64-.2.64-.52l-1.11.07.48.45Zm.16-1.6c0,.48.95.1,1.27-.08l-1.27-.08v.16Zm.16-39.43c0,.64,0,1.27.79,1.22l1.11-.07.48-1.3-2.38.15Zm0,90.29l1.75-.11c.32.46,1.11.56,1.59.53l.95-.06.63-.68,1.27-.08.32-.66c.32-.02.48-.19.48-.51,0-.16-.16-.47-.32-.62-1.59.26-6.68.43-6.68,2.18Zm1.75-50.35c0,.48.95.1,1.11-.07l-1.11-.09v.16Zm.95,29.82c.32-.02.32-.34.32-.5s-.16-.31-.32-.3-.16.17-.32.18c0,.16.16.63.32.62Zm.64-30.88c.32-.02.32-.18.32-.34s-.16-.31-.32-.3l-.32.02c0,.16.16.62.32.62Zm3.18-39.79c.32-.02.95-.22.95-.7l-1.91.12.95.58Zm1.11,77.82l.63-.04v-1.27l-1.27.24c0,.64-.16,1.12.64,1.07Zm-.16-37.51c.16-.01.32-.18.32-.34s-.16-.31-.32-.3l-.32.02c0,.16,0,.64.32.62Zm.79-41.22c.32-.02.32-.34.32-.5l-.64-.12c0,.32.16.47.32.62Zm.8,81.34c.32-.02.32-.34.32-.5l-.64-.12c0,.16.16.63.32.62Zm15.1-86.18c-.16-.15-.48-.6-.79-.58-.16.01-.16.17-.16.33-1.91-.35-.79,1.64-2.54,1.75-3.5.23-3.18,1.32-7.31,1.59,0,1.27-4.13.27-4.13,1.38,0,.32.48.29.64.28,1.43-.09,2.54.47,3.97.38l4.45-.29c.16-.01.64-.04.64-.36,0-.64-1.75.11-1.75-.68,0-.64,2.86-.03,3.34-1.17l4.29-.28c0-.48.48-.83.95-.7l-1.11-.56-1.11.23.63-1.31Zm-13.99,81.66c1.27-.08,2.22.33,3.02.28l2.22-.14c.32-.02.64-.2.64-.52l-.16-.62c-1.59.26-3.5.07-5.09-.31,0,.64-.64.68-.64,1.31Zm2.38,3.66l.48-.19c0-.48-.32-.62-.79-.58l-.32.02c0,.48.16.78.64.75Zm1.11-.87l1.75,1,.48-1.14-2.23.14Zm1.75-40.33c.32-.02.64-.2.79-.37l-1.27-.23c0,.32.16.63.48.6Zm7.47,39.26c.32-.02.79-.21.79-.69l-1.59.1.79.58Zm9.38-89.47s.64-.04.64-.2c0-.32-1.59-.53-1.91-.51-.16.01-.64.04-.64.36.64.12,1.27.4,1.91.35Zm4.29,83.34c0,.48-.64.52-.8.53,0,0-.95.06-.95-.1s.48-.67.48-1.14c.48-.03,1.27.23,1.27.71Zm-1.11-85.61h-.16s.64.92.64.92c0,.32.16.47.48.45.48-.03.95-.38,1.27-.72.79-.05,1.43-.57,2.23-.62,1.91-.12,2.23,1.13,4.45-1.08,0-.48-1.27-.39-1.59-.37,0,.32-.16.81-.48.83-.64.04-1.11-.41-1.43-.7l-4.77.31c0,.32-.16.96-.64.99Zm9.06,97.18c0,1.11-3.66.71-3.66,1.67,0,.32-.48.35-.64.36-.95.06-1.91-.03-2.86-.29v-.16c0-.48,3.5-.38,3.5-1.34l3.66-.24Zm-4.93-2.23c.32-.02.64-.2.79-.37l-1.11-.09c0,.16.16.47.32.46Zm1.43-85.93c.48-.03,1.27-.08,1.27.55l-1.59.26c-.32.02-.79-.11-.79-.58l1.11-.23Zm1.75-14.74c0,.16.32.14.48.13v-.32c0-.16,0-.48-.16-.47-.16.01-.32.5-.32.66Zm.95,99.93c.48-.03.95-.22.95-.7l-1.75.11.79.58Zm.32-100.17c0,.16.16.47.32.46.48-.03,1.11-.55,1.43-.89l-1.75.11v.32Zm.95,5.34c0,.32.32.3.63.28l-.48-1.24-.16.96Zm14.62,95.86c0,.16-.32.18-.48.19-1.27.08-3.97-.22-4.93,1.11-1.75.11-3.5.86-4.93.95l-.64-.44c0,1.11-1.75-.36-2.07-.5,0-.48.32-.97.79-1.01h.16s.32.6.32.6l2.54-.16,1.11-.71,2.54-.16c.32-.02,3.82.23,3.82-.88.48-.03,1.75.36,1.75,1Zm-12.4-95.85l1.27.08c0-.95.64-.36.64-1.15l-1.11-.09c-.16.81-.79.37-.79,1.16Zm2.07-3.95l-1.27-.08c0,.64.95.26,1.27.08Zm9.22-1.39c.32-.02.32-.34.32-.5l-.64-.12c0,.16.16.63.32.62Zm2.86-.66l-1.91-.04c0,.64,1.59.22,1.91.04Zm2.7-.18l-1.59-.06c0,.64,1.27.24,1.59.06Zm23.05,7.25l.32.62-1.11.71-.32-1.25,1.11-.07Z"/>
    <path class="cls-1" d="m566.86,73.17c-.48.03-2.7-.3-2.7.49v.16c-2.7.17-5.09.81-7.79,1.46l-1.43,1.05c-2.54.16-3.66,1.51-4.93,1.59-.48.03-1.27-.23-1.75-.36-4.77.94-9.38,2.2-14.31,2.52l-4.93.32s-.79.05-.79-.11c0-.32.32-.5.48-.51,0-.48.32-.66.8-.69l.48-.03-1.27-.39-.32-.62-1.11-.56c-.48.03-.8.37-.8.85v.16l.48.45c0,.48-1.27.56-1.43.57-1.43.09-.79-.11-1.75.75-1.27.08-1.27-2.46-2.54-2.38-.79.05-1.27.72-2.07.77,0,.16,0,.64-.32.66-.32.02-.64-.44-.79-.58-.32.34-.64.84-1.11.87-.16.01-.16-.31-.16-.31v-.32c-.16.33-.64.68-.95.7s-.32-.14-.32-.3v-.32l-1.75.59-.48-.6c-.32.02-.79.21-.79.53v.16l-.16.17c-.48.03-.48-.76-.95-.73-.16.01-.16.81-.16.96,0,.48.16,1.1.64,1.39.48-.03,1.27.08,1.59.53l1.91-.92c-.32-.14-2.23-.49-2.23-.65s.79-.21.79-.21l5.41-.35,1.11-.71.95,1.69c.64-.2,2.54-.48,2.54.47l-2.86.19c-.16.17-.32.82-.64.84-.32.02.16-.81-.79-.74-.64.04-1.43.57-2.07.93l-3.34.22c-.16.17-.63.68-.95.7-.16.01-.16-.15-.16-.31v-.32c-.16-.15-.48-.6-.79-.58-.48.03-.48.67-.48.98-1.91.44-3.5-.25-3.81,1.84-1.91.12-3.66.87-5.41.99l-.79.69c-.32-.3-.79-.74-1.43-.7-.32.02,0,.64-.48.67-.32.02-.64-.28-.79-.43-.32.02-3.02,1.31-3.02,1.31l-1.43-.39-3.34.69c0-1.27-2.86.5-3.34.85-1.27.08-2.38-.48-3.66-.4-2.22.14-4.45,1.72-6.67,1.86l-1.11.71c-.16.33-.64.68-.95.7-.79.05-.95-.73-1.59-.69-.32.02-.32.5-.32.66.32.14,1.27.55.16.63l-.32.02c0,.32,1.11.72,1.43.86-.95,1.33-1.91,2.83-2.7,4.31l-1.43-.7-.95,1.65-.64.52.64.12c0-.79,1.27-.4,1.27-.08s-.48.35-.64.36l-1.59,2.49-.32-1.89c-.48-.13-1.27-.39-1.75-.36-.79.05-1.27,3.1-1.27,3.74.48-.03.63.44.63.44.32-.02.48-.67.79-.69.32-.02.64.75.79,1.06-.16,1.28-1.75,1.07-1.91,2.35l.64,1.07c.64-.04,1.11-.71,1.11-1.19,2.54.79,3.5-.86,6.04-1.03.32-.02.79-.05.79.27l2.38.64.95-1.18c.95-.06,3.82-.09,4.29-1.07l1.59-.74c.48.13,1.11.25,1.43.54l.79-.69,2.86-.19.32-.66c.48-.03,1.11.09,1.43.54l3.34-.22c-.16,1.28,2.86-.03,3.34,1.06l1.27-.4c.16-.81.95-.06,1.11.25.48-.19,1.91-.44,1.91.35,1.59-.1,3.34.42,5.25.3.16-.01,1.11-.07,1.11.09,0,.32-1.75.59-1.91.6-.48.19-.95.38-1.43.41l-6.52.74c-1.91.28-4.29,2.19-6.68,2.34-.79.05-4.61-.02-4.61.62,0,1.59,4.77-.31,6.52,1.01,4.61-.3,9.54-1.73,14.15-.12,0,.79-3.02.83-3.66.87,0,.16-.16.33-.32.34-.48.03-.8-.11-.95.54,3.34-.22,6.83.51,10.17.77.16-1.76,4.61.5,4.61-1.57,1.59-.1,2.86.61,4.45.51,0-.64.64-.84,1.11-.87,0,.32.16.78.64.75.32-.02.64-.36.64-.68.64.28,1.11-.07,1.27-.72l1.11.4s.48-.03.48.13c0,.32-.48.51-.64.68,0,.32,0,.64-.32.66-.32.02-.63-.44-.79-.58l-1.11.71c0,.64-.79.69-1.11.71l-4.45.29-.16,1.12c-.48.03-3.5-.09-3.5.86l-5.09.96c-.32.66-1.27.72-1.75.75l-.64.68-3.34,1.17c-2.38.79-4.45,2.51-6.83,2.67-1.43.09-1.75,1.23-3.5,1.34-.32.02-.95.06-.95.54l-.95.06c0,.48-.64.68-.95.7l-1.75-.05-.16.65c0,.32.16.78.63.75.48-.03,1.11-.39,1.43-.89l2.86-.19c0-.32,1.91-1.24,2.38-1.27,2.7-.17,5.4-1.3,7.63-1.45,3.97-.26,8.74-1.52,13.19-2.28.8-.53,1.59-1.06,2.54-1.12.32-.02.48.13.48.45,0,1.27-.32,1.29-1.43,1.37-.64.04-1.59-.22-1.75.75-3.02.2-5.88.7-8.9,1.21-.8.37-1.59.9-2.54.96-.16.01-.48-.13-.48-.45l-2.38.47c0,.16.64.12,2.23.02l-.32,1.29c-.48.03-2.38-.32-2.38.63l-1.43,1.05c0,1.59,1.27-.72,1.27-.08v.16c.16-.01,1.75.2,1.75.84-1.91.12-5.25,1.61-7.31,1.74-1.27,1.67-5.88,1.81-6.36,2.95-.48-.13-2.07-.02-2.07.77l-1.43-.54-1.75,1.07-1.11.07c0-.48-.32-.93-.8-.9-.79.05-.32,1.29-.79,1.32-.32.02-.79-.9-.95-1.21-.32.02-.32,1.13-.32,1.29-.64.04-.64.68-1.27.72-.95.06-1.27-.55-1.91-1.15-1.11,1.19-3.5,1.66-3.82,2.16l-1.11.07c-.32-.46-.79-.9-1.11-1.04-.48-.13-.48.83-.48,1.14l-4.45.29-.63-.59c-.8.05-.8.69-1.43.73,0-1.27-2.07-1.14-3.02-1.08-1.27.08-2.7.33-3.97.42v1.27c.16-.01.79-.05.79.27s-.48.35-.64.36c-1.11.07-.32,1.13-1.43,1.21,0,.64-.63.84-1.11.87-.79.05-5.25-.14-5.25.66,0,.64,1.43,1.97-.16,2.08l-.16.96-.64.2c-.48.98-1.27,1.99-2.22,2.69,0,.64-.32,1.29-.8,1.64-.48.19-.63.68-.63,1.15-1.11,1.19-2.23,4.12-2.7,5.58l-1.11.07c.79-4.19,6.04-10.56,6.04-10.88,0-.16-.32-.14-.48-.13l-2.07,1.41c-.16.33-.79,2.44-.95,2.45-.32.02-.48-.29-.64-.44-1.27.08-1.75,1.7-1.75,2.66l-1.11,1.34c0,.79-2.22,5.71-2.54,7.16l-1.43,1.05c0,.16-.16.33-.32.34-.48.03-.95-.1-.95.54-.95.7-1.43,3.27-1.43,4.38,0,.32-.16.81-.48.83h-.16s.79,1.55.79,1.55l1.11-2.46c1.27-.08,1.27-1.67,1.27-2.63.63-.04.63-.68,1.27-.72.32-.02,1.43.38,1.75.52,0,.79-.64,1.15-.64,1.95l-1.27,1.35v.16c0,.48.48.45.8.43.79-.05,1.59-.42,2.22-.78l.16-.65,2.86-.19,1.27-.72c0-.64.48-.67.95-.7,1.91-.12,3.97-1.53,6.2-1.67l.16-.65c2.86-.19,12.08-2.05,12.56-2.72,2.38-.15,4.93-1.43,7.47-1.6l1.75-1.07,1.91.03,1.43-.89c6.04-.39,12.72-2.57,18.92-2.97,2.7-.17,5.4-.19,7.95.12.16.15,1.27.55,1.27.71,0,.48-1.91.6-2.23.62-3.02.2-5.88,1.02-8.9,1.21,0,.79-2.22,1.42-3.02,1.47,0-1.27-2.54.16-3.02.51,0,1.27,3.66.24,3.66,1.35.32-.02,1.27-.24,1.27-.72.32.3.95.57,1.43.54.16-.01.32-.18.32-.34l1.27-.4c0-.16,0-.64.16-.65.32-.02.63.44.79.58l-.79.69c-.32.02-.95.22-.95.54,0,1.43,3.81-.25,4.61-.3.32,1.25,8.9.22,11.6-.59l1.91,2.26c.63-.04,4.61-.46,4.61.18,0,.16-.48.19-.64.2l-4.13.27-.32.5-2.22.14-1.11.71c-2.54.16-4.61-.5-6.99-.34l.48,1.24c1.59-.26,3.5-.07,5.09.31,0,.32.16.47.48.45.79-.05,1.43-.73,2.23-.78.32-.02.48.13.48.45v.16c.64-.04.95-.54.95-1.01v-.16c.79-.05.79-.69,1.59-.74,0,.48.16.63.63.59.8-.05,1.59-.42,2.23-.78l.95-.06c.48-.03.79.11.79.58.32-.02,3.66-1.67,3.66.08,0,.16-.16.17-.32.18-.64,1.15-5.09.96-6.04,1.03,0,.48-.79.69-1.11.71,0-.32-.16-.63-.48-.6s-.48.35-.48.67l-1.91.44c0,.16,0,.32-.16.33s-.32-.46-.48-.61l-1.75.11c0,.48,0,1.27.64,1.23l1.11-.07s7.15-1.1,7.15.33c.64-.04,1.11.09,1.59.53l.64-.68,1.11-.07c.48.45.95.57,1.59.53l3.02-.2c.16-.33.48-.83.95-.86.32-.02.48.45.64.75l3.34-.22.48-.35c.64-.04,1.11-.55,1.75-.43l.79.58,1.43-.25s0-.64.16-.65c.32-.02.48.6.63.75.8-.69,1.75-1.54,2.86-1.62.64.28,1.27.71,1.59,1.33-.16.01-.95.38-.95.54l.32-.02v.64c-2.7.17-5.25.98-7.95,1.15-.95.86-1.59,1.22-3.02,1.31,0,.48-.64.68-.95.7-1.91.12-3.66.87-5.41.99-1.59.1-4.45-.51-5.4,1.14-3.81.25-6.68,2.18-9.06,2.33l-1.11.55,2.23-.14c.32-.34,1.43-1.21,1.43-.25v.32c.32-.02.48-.51.48-.67l4.29-.28c.79-.85,2.86-.66,3.82-.72.32-.5,1.11-.71,1.59-.74,0,1.43-1.59,1.69-2.7,1.76-5.25.34-10.97,2.46-16.53,2.82-1.59.1-1.75,1.39-3.34,1.49l-1.11.71-4.61.3-.32.66-1.43.09c-.79.53-1.43,1.36-2.38,1.43l-2.38.15c-.48-.76-1.43-1.34-2.07-1.77-.64.04-.64.99-.64,1.31l.64,1.23-2.38.31c-.16.65-1.91.76-2.38.79-1.43.09-2.7.33-4.13.59l-.95.7-2.23.14-.48-.6c0,1.91-1.59,1.37-3.18,1.48l-.8,1.32c-.95.06-1.59.9-2.38,1.43-.32.02-.95.22-.95.7-.64-.12-5.09-.47-5.41.99-.48.03-3.34-.1-3.34.85-1.59.9-3.82,2-5.56,2.11-.32.02-.79-.11-.79-.58l.32-.02c.64-.2-.79-.42-.79-.42-.32.18-1.91.6-1.91.76,0,.32.48.6.64.75-.16.17-.48.35-.79.37-.16.01-.32.02-.32-.3v-.16l-2.38.31c-.32,2.41-3.82,2.31-5.72,3.07,0-.79-1.43.25-1.91.28l-.64.52c-.95-.57-2.38-.32-3.5-.25-.64.04-.32,1.93-.79,1.96-.48.03-.79-.43-1.11-.72l-.79.05-.32,1.29c-3.97.26-8.11,2.11-12.08,3.17,0,.64-.79,1.64-1.59,1.69l-1.75-.04-1.27-.55c-.32.02-2.86-.93-2.86-1.09-.64.04-2.07.61-2.07-.5-1.27.08-1.43-1.18-2.7-1.1-.48-.6-1.43-1.82-2.38-1.75l-2.38-2.07-.64-1.23c-1.59.1-2.07-1.93-2.7-3,0-.32,0-.64-.32-.62-1.91.12,0-2.7-1.27-2.62,0-.95.95-2.13,1.59-2.96l1.27-3.9c.16-.01.48-.19.48-.35,0-.48-.16-.79.48-.83,0-.48.16-1.12.64-1.47l1.75-3.61c.95-.06.95-2.61.95-3.24,0-1.11-.32-6.02,1.11-6.11,0-1.43,1.11-2.3,1.27-3.74l2.38-1.74.32-1.61c.32-.02.48-.03.48-.35s-.48-.76-.63-.91c0-.48.32-.82.95-.86l.32-.02c.95-1.17,3.18-4.34,3.18-5.93l.95-1.33c.16-.01.48-.03.48-.35,0-.64-.79-1.22-.79-1.86,0-.79,1.43-.25,1.43-.89,0-.48-.16-.78.48-.83.16-.65.32-1.13.79-1.64,0-1.11,1.11-1.34,1.11-2.93l-.48-.76,1.27-1.04c0-.79.64-.52.64-1.31l.48-.67-.48-.13c-1.43.41-3.02,1.15-4.45,1.24-.48.98-2.23.46-2.54,1.44-1.27.08-2.54.64-3.82.72l-.95,1.33c-.32.02-1.11.07-1.11.55-2.7.17-5.09,1.12-7.47,1.28l-1.27.72c-.64.04-1.75-.21-1.75.75l-1.91-.19s-.64-.12-.64-.28l.48-.03c.48-.03.95-.22,1.11-.71.48-.03,1.11-.39,1.27-.88.16-.01.95-.06.95-.38v-.16c.48-.03,1.27-.24,1.59-.74,1.27-.08,2.07-.77,2.7-1.92,1.91-.44,4.29-1.23,5.88-2.29,0,0,.32-.02.32-.18,0,0-.8-.43-.95-.42-1.27-.08-1.27-.71-2.07-.66l-1.43.89c-.32.02-1.27.08-1.27-.39l.32-.34c.95-.06,2.86-.82,3.82-1.04,0-.64.32-.97.95-1.01.79-.05,2.07.02,2.7-.81,0-.64.48-.67.95-.7.64-.04,1.59-.1,1.91-.76.95-.06.48-.03,1.11-.71l1.43-.57-1.43-2.29c-1.59.1-1.75-1.63-1.75-2.91l.64-1.47c0-.32.16-.49.48-.51.32-.02.79.11.79-.53.48-.83,1.27-2.15,2.23-2.21.79-1.16,1.11-1.82,2.54-1.91.16-1.92,1.27-1.04,1.91-2.19l1.59-.58c.16-.33.63-.84,1.11-.87.16-.01.32.14.48.29,0,.32.32.46.64.44.64-.04,1.75-.59,1.75-1.38,1.75-.27,3.34-.53,5.09-.96l.79-1.16.79-.53c.32-.82.63-1.63,1.11-2.3v-1.59l1.27-1.51c0-.48.16-1.28.63-1.63,0-1.27.64-1.15.8-2.12.48-.51.63-1.15.63-1.79.32-.5.48-1.14.48-1.62.48-.35.64-1,.79-1.48l1.27-.88c0-1.27.79-2.75,1.91-3.46.32-.97.79-1.8,1.27-2.63,0-.64,0-1.91.79-1.96,0-.64-.64-.75-1.11-.72-.8.05-2.54.8-2.54-.47l-3.18.21c0,.64-.64.84-1.11.87,0-1.11-1.27-.71-2.07-.66-1.59.1-3.66,1.03-4.29,1.07v-.79c0-1.11,3.34-.85,3.97-.89l3.02-1.31c.79-.05,4.29.2,4.45-1.24-.48.19-1.27.08-1.27-.55v-.32l-6.83.44c-.64-1.07-4.13-.37-5.09.33l-2.23.14c0-.48.48-1.46,1.11-1.5l1.59.06c.79-.69,2.54-1.12,3.66-1.19l-1.59-.85-2.86.19-.95.7-1.11.07c-.32.02-.8-.11-.8-.43v-.16c-3.81.25-7.31,2.38-11.28,2.64-.95.06-.95-.57-1.75-.52,0,.48-4.29,1.55-5.24,1.61l-1.59.1c0-.32-.16-1.26.48-1.3,3.97-.26,10.97-2.3,14.94-3.35l1.27-1.04c0-.32-.48-.45-.63-.44-1.11.07-2.23.62-3.18,1-.32.02-.95.22-.95.7l-1.43-.54c-.48.98-3.02.83-3.82.88l-1.27.72-2.7-.14-1.11-.56,1.27-1.04c.79-.05,5.72-1.32,6.04-1.5l2.38-.15c.95-1.02,2.23-1.57,3.18-2.75l1.43-.09.48-.51c1.43-.09,2.54-.8,3.97-.89l1.27-.72c.48-.03,1.27-.24,1.59-.74,1.91-.12,11.76-2.19,12.08-2.69.48-.03,3.5.09,3.5-.86,2.07-.61,6.99-1.25,8.11-2.11,3.66-.39,5.88-1.17,9.54-1.41,0-.64.79-.69,1.27-.72.64-.04,3.66.4,3.82-.41,1.43-.57,3.18-.84,4.77-.79l.79-.53c2.7-.17,9.54-2.05,11.45-2.97.95-.06,6.2.55,6.2-.88l.79-.69c1.11-.07,5.72.11,6.52-1.06l25.75-1.67c5.56-.36,12.08,1.76,17.96,1.38.64.91,2.7.14,2.86,1.25l6.36-.41c.32.3,1.11.4,1.59.37.32.46.95.57,1.43.54l-.95.7c-.48.03-2.23.3-2.23-.49-.16.01-1.27.56-1.27.56,0,.16.32.14.32.14l-.79.69c-.32.02-.95.06-.95.54v.16l-3.97.26-1.11,1.18-3.18.21c-.48.35-1.59,1.37-1.59,1.85,0,.64,1.59.06,1.75-.43l1.43-.09.64.59c.32-.5,1.11-.71,1.59-.74l.32.62.95-.7c1.11-.07,1.59-.9,2.54-.96l1.91-.12c0,.32.16.78.64.75.48-.03.63-.36.63-.84.95-.06.8.74,1.59.69l1.27-1.35,2.23-.3,6.04-.39.16.63c0,1.75-6.36,1.21-7.79,1.3,0,0-.64.04-.64.2,0,1.11,6.52-.58,6.52.85,0,.48-3.34.53-4.29.6l-1.43.73c-.48.03-1.11-.09-1.43-.54-.95.38-4.93.79-4.93,1.43v.16l-4.77.31c-.16.17-.63.68-.63,1,0,.16.16.15.32.14.79-.05,4.61-.78,4.61.81l-.16.81c-.32-.14-1.91-.67-2.23-.65l-1.27.08c-.32.82-2.07.61-2.07,1.56,0,0,.95.42,1.11.4,1.27-.08,2.22.49,3.5.41,5.56-.36,11.45,1.01,17.17.64,1.11-.07,6.83-1.08,7.47.15l-1.43.89Zm-151.17,55.88c.32-.02.64-.2.64-.52s-.32-.3-.64-.28l-.48.03c0,.32.16.78.48.76Zm2.54-1.28l-1.27-.08c0,.64.95.26,1.27.08Zm6.68,67.45c0,.32.32.3.48.29.16-.01,1.91-.6,1.91-1.08,0-.16-.32-.14-.48-.13l-1.27.08c-.16.17-.63.52-.63.84Zm.48-20.22l.63.12.16-1.44-.64-.28-.16,1.6Zm4.29-6.48c.16-.01.16-.17.16-.17,0-.64-.48-.92-1.11-.88.16.31.79,1.06.95,1.05Zm2.54.15c-.64.04-.79.69-.79,1.16.16.15.32.46.48.45.16-.01.16-.49.16-.49l1.11-1.18-.95.06Zm-.16-3.81c.16-.01.16-.33.16-.49l-.48-.13c0,.16,0,.64.32.61Zm1.11-4.36c.16-.01.32-.34.32-.5l-.48-.13c0,.16,0,.48.16.63Zm2.07-2.52c.16-.01.16-.65.16-.65,0,0,.79-.05.79-.21s-1.27-.55-1.43-.54c0,.32.16,1.42.48,1.4Zm2.07,32.45s-.32.02-.32.18c0,.32,1.11,1.04,1.43,1.18l2.22-.46c-.79-.11-1.91-.19-1.91-.35s1.59-1.06,2.07-1.25l-2.7-.46-.79,1.16Zm.64-31.52c0-.64.63-.68,1.11-.71.16-.01.64-.04.64.12,0,.32-.48.51-.64.68.16.47,0,.95-.63,1l-.48-1.08Zm4.45,32.3c0,.16,0,.48.32.46.16-.01.32-.34.32-.5l-.64-.12v.16Zm6.99-6.97l-.63-.12-.64.84c-2.07.13-3.66,1.35-5.56,1.47l.48,1.24c.95-.22,3.97-.73,4.61-1.57,1.11-.07,2.07-.77,3.34-.85l1.27-.56.79-.85-2.7-.46c0,.48-.48.83-.95.86Zm-4.93-40.85v-1.11l-1.27.08c0,1.11.16,1.1,1.27,1.03Zm-.16,46.11c.16-.01.48-.19.48-.51l-1.11-.09.64.59Zm1.43-47.94c0,.79.64.59,1.11.56l.16-1.28-1.27.24v.48Zm.95,47.79c0-.32-.32-.62-.64-.59q0,.64.64.59Zm.79-49.01c.48-.03.8-.05.8.58l.48-.03c0-.64.48-.82.48-1.46l-2.23.3c0,.32.16.63.48.6Zm8.74,42.67l.16.63,2.23-.14c0,.48-.48,1.46-1.11,1.5l-1.59-.06-1.75,1.39c-.16.01-.95.06-.95.38s.48.6.64.75c1.43-.41,6.04-1.35,7.15-2.21.32-.02,4.29-1.39,4.29-1.39.95-.06.95-.86,1.75-.91.48-.03,1.27-.24,1.59-.74l2.22-.14s.32-.02.32-.18c0,0-.79-.43-.95-.42-1.59-.06-3.02-.44-4.45-.35-.48.03-.64.52-.64.99v.32l-2.23.14c0-.48-.32-.93-.79-.9l-.32.02-1.11-.72c-.79.69-4.45,1.72-4.45,2.04Zm-.95.06v-1.27l-1.27.24c0,1.11.16,1.1,1.27,1.03Zm6.99.18c0,.64-1.59,1.22-2.23,1.26-.16.01-.16-.94-.16-1.1l2.38-.15Zm9.54-53.55c-1.75,1.54-5.09.33-5.4,2.89l3.02-.2c1.27-.56,3.18-1.64,4.45-1.72l1.43-.73c.64-.04.79.58.79,1.06v.32l-1.27.4.32.93,1.11-.07.48-.67,4.29-1.55c-.32-.14-1.59-.85-1.59-1.01,0-.32.79-.05.79-.53,0-.32-.48-.76-.79-.9-2.54.32-5.25,1.61-7.63,1.77Zm-.95,50.93q0,.16.16.15l.32-.02v-.16c0-.32-.32-.3-.48-.29v.32Zm6.36-.57c.16-.01.32-.34.32-.5s-.16-.31-.32-.3c-.16.01-.16.17-.32.18,0,.16,0,.64.32.61Zm1.91-1.87l-.48.03-.32.97c.95-.06,1.59-.74,2.54-.8.48-.03,1.11-.07,1.43-.25,0-.32-2.07-.66-2.38-.8,0,.48-.32.81-.79.85Zm.16-10.02l.32-.02c0-.32-.32-.46-.64-.44,0,.16,0,.48.32.46Zm1.59-1.85c.16-.01.16-.17.16-.33,0-.32-.16-.31-.48-.29h-.16c0,.33.16.64.48.62Zm2.38,9.54c0,.32.32.46.63.44,0-.48-.16-.94-.48-1.24l-.16.81Zm1.11-48.87c.32-.02.64-.2.64-.52l-1.11.07.48.45Zm.16-1.6c0,.48.95.1,1.27-.08l-1.27-.08v.16Zm.16-39.43c0,.64,0,1.27.79,1.22l1.11-.07.48-1.3-2.38.15Zm0,90.29l1.75-.11c.32.46,1.11.56,1.59.53l.95-.06.63-.68,1.27-.08.32-.66c.32-.02.48-.19.48-.51,0-.16-.16-.47-.32-.62-1.59.26-6.67.43-6.67,2.18Zm1.75-50.35c0,.48.95.1,1.11-.07l-1.11-.09v.16Zm.95,29.82c.32-.02.32-.34.32-.5s-.16-.31-.32-.3c-.16.01-.16.17-.32.18,0,.16.16.62.32.61Zm.64-30.88c.32-.02.32-.18.32-.34s-.16-.31-.32-.3l-.32.02c0,.16.16.63.32.62Zm3.18-39.79c.32-.02.95-.22.95-.7l-1.91.12.95.58Zm1.11,77.82l.64-.04v-1.27l-1.27.24c0,.64-.16,1.12.63,1.07Zm-.16-37.5c.16-.01.32-.18.32-.34s-.16-.31-.32-.3l-.32.02c0,.16,0,.64.32.62Zm.79-41.22c.32-.02.32-.34.32-.5l-.64-.12c0,.32.16.47.32.62Zm.79,81.34c.32-.02.32-.34.32-.5l-.64-.12c0,.16.16.63.32.62Zm15.1-86.18c-.16-.15-.48-.6-.79-.58-.16.01-.16.17-.16.33-1.91-.35-.79,1.64-2.54,1.75-3.5.23-3.18,1.32-7.31,1.59,0,1.27-4.13.27-4.13,1.38,0,.32.48.29.64.28,1.43-.09,2.54.47,3.97.38l4.45-.29c.16-.01.64-.04.64-.36,0-.64-1.75.11-1.75-.68,0-.64,2.86-.03,3.34-1.17l4.29-.28c0-.48.48-.83.95-.7l-1.11-.56-1.11.23.64-1.31Zm-13.99,81.66c1.27-.08,2.22.33,3.02.28l2.23-.14c.32-.02.64-.2.64-.52l-.16-.63c-1.59.26-3.5.07-5.09-.31,0,.64-.64.68-.64,1.31Zm2.38,3.66l.48-.19c0-.48-.32-.62-.79-.58l-.32.02c0,.48.16.78.64.75Zm1.11-.87l1.75,1,.48-1.14-2.23.14Zm1.75-40.33c.32-.02.64-.2.79-.37l-1.27-.23c0,.32.16.62.48.6Zm7.47,39.26c.32-.02.79-.21.79-.69l-1.59.1.79.58Zm9.38-89.47s.63-.04.63-.2c0-.32-1.59-.53-1.91-.51-.16.01-.63.04-.63.36.63.12,1.27.4,1.91.35Zm4.29,83.34c0,.48-.64.52-.79.53,0,0-.95.06-.95-.1s.48-.67.48-1.14c.48-.03,1.27.23,1.27.71Zm-1.11-85.61h-.16s.64.92.64.92c0,.32.16.47.48.45.48-.03.95-.38,1.27-.72.79-.05,1.43-.57,2.22-.62,1.91-.12,2.23,1.13,4.45-1.08,0-.48-1.27-.39-1.59-.37,0,.32-.16.81-.48.83-.64.04-1.11-.41-1.43-.7l-4.77.31c0,.32-.16.96-.64.99Zm9.06,97.18c0,1.11-3.66.71-3.66,1.67,0,.32-.48.35-.64.36-.95.06-1.91-.04-2.86-.29v-.16c0-.48,3.5-.38,3.5-1.34l3.66-.24Zm-4.93-2.23c.32-.02.64-.2.79-.37l-1.11-.09c0,.16.16.47.32.46Zm1.43-85.93c.48-.03,1.27-.08,1.27.55l-1.59.26c-.32.02-.8-.11-.8-.58l1.11-.23Zm1.75-14.74c0,.16.32.14.48.13v-.32c0-.16,0-.48-.16-.47-.16,0-.32.5-.32.66Zm.95,99.93c.48-.03.95-.22.95-.7l-1.75.11.79.58Zm.32-100.17c0,.16.16.47.32.46.48-.03,1.11-.55,1.43-.89l-1.75.11v.32Zm.95,5.34c0,.32.32.3.64.28l-.48-1.24-.16.96Zm14.62,95.86c0,.16-.32.18-.48.19-1.27.08-3.97-.22-4.93,1.11-1.75.11-3.5.86-4.93.95l-.64-.44c0,1.11-1.75-.36-2.07-.5,0-.48.32-.97.79-1.01h.16s.32.6.32.6l2.54-.16,1.11-.71,2.54-.16c.32-.02,3.81.23,3.81-.88.48-.03,1.75.36,1.75,1Zm-12.4-95.85l1.27.08c0-.95.64-.36.64-1.15l-1.11-.09c-.16.81-.79.37-.79,1.16Zm2.07-3.95l-1.27-.08c0,.64.95.26,1.27.08Zm9.22-1.39c.32-.02.32-.34.32-.5l-.64-.12c0,.16.16.63.32.62Zm2.86-.66l-1.91-.04c0,.64,1.59.22,1.91.04Zm2.7-.17l-1.59-.06c0,.64,1.27.24,1.59.06Zm23.05,7.25l.32.62-1.11.71-.32-1.25,1.11-.07Z"/>
  </g>
  <g>
    <path class="cls-1" d="m267.33,312.44l-20.15-27.45,27.36-104.25h57.02c19.07.14,26.11,9.72,21.12,28.76l-26.96,102.74c-5,19.04-17.07,28.63-36.21,28.76h-1.11l-20.1-27.25h18.27c7.87,0,12.72-3.87,14.55-11.61l21.64-82.45c2.23-7.74-.59-11.61-8.46-11.61h-19.58l-27.38,104.36Zm0,0l-.34,1.31h1.31l-.97-1.31Z"/>
    <path class="cls-1" d="m353.61,280.55l26.19-99.81h57.02c19.07.14,26.11,9.72,21.11,28.76l-10.99,41.88c-4.22,16.08-13.43,25.4-27.62,27.96l8.31,62.17h-28.76l-7.72-61.36h-10.29l-7.23,27.55-20.02-27.15Zm74.4-60.86c2.23-7.74-.59-11.61-8.46-11.61h-19.58l-11.78,44.91h19.58c7.87,0,13.08-5.21,15.61-15.64l4.63-17.66Z"/>
    <path class="cls-1" d="m503.8,208.59l-34.77,132.51h-26.85l41.82-159.36,19.8,26.85Z"/>
    <path class="cls-1" d="m489.18,341.2l42.11-160.47h79.23l-7.04,26.85h-52.38l-8.84,33.71h34.11l-7.04,26.85h-34.11l-19.17,73.07h-26.85Z"/>
    <path class="cls-1" d="m704.27,207.68h-21.6l-35.01,133.42h-26.85l35.01-133.42h-32.19l7.04-26.85h81.44l-7.85,26.85Z"/>
  </g>
  <g>
    <path class="cls-1" d="m71.19,381.57h9.4c7.96,0,14.13,5.85,14.13,13.45,0,7.2-5.49,13.54-14.13,13.54h-9.4v-27Zm9.27,20.97c4.23,0,7.47-2.97,7.47-7.52,0-4.18-2.83-7.47-7.47-7.47h-2.66v14.98h2.66Z"/>
    <path class="cls-1" d="m108,381.57h11.29c5.8,0,9.58,3.51,9.58,8.59,0,4.72-2.38,7.38-6.39,8.37l7.29,10.03h-8.28l-6.88-10.08v10.08h-6.61v-27Zm11.92,11.7c1.48,0,2.47-1.53,2.47-3.1s-1.17-2.97-2.65-2.97h-5.13v6.07h5.31Z"/>
    <path class="cls-1" d="m141.79,381.57h6.61v27h-6.61v-27Z"/>
    <path class="cls-1" d="m162.46,381.57h17.41v5.85h-10.8v5.76h9.94v5.76h-9.94v9.63h-6.61v-27Z"/>
    <path class="cls-1" d="m197.08,387.42h-6.03v-5.85h18.81v5.85h-6.12v21.15h-6.66v-21.15Z"/>
    <path class="cls-1" d="m245.99,387.42h-6.03v-5.85h18.81v5.85h-6.12v21.15h-6.66v-21.15Z"/>
    <path class="cls-1" d="m270.69,381.57h11.29c5.8,0,9.58,3.51,9.58,8.59,0,4.72-2.38,7.38-6.39,8.37l7.29,10.03h-8.28l-6.88-10.08v10.08h-6.61v-27Zm11.92,11.7c1.49,0,2.48-1.53,2.48-3.1s-1.17-2.97-2.66-2.97h-5.13v6.07h5.31Z"/>
    <path class="cls-1" d="m304.48,381.57h6.61v27h-6.61v-27Z"/>
    <path class="cls-1" d="m325.15,381.57h6.61v12.06h.09l7.79-12.06h7.29l-9.27,12.82,9.76,14.17h-7.29l-8.28-13.09h-.09v13.09h-6.61v-27Z"/>
    <path class="cls-1" d="m359.11,381.57h17.86v5.85h-11.25v4.86h10.39v5.76h-10.39v4.86h11.75v5.67h-18.36v-27Z"/>
    <path class="cls-1" d="m408.96,381.57h17.41v5.85h-10.8v5.76h9.94v5.76h-9.94v9.63h-6.61v-27Z"/>
    <path class="cls-1" d="m438.89,381.57h11.29c5.8,0,9.58,3.51,9.58,8.59,0,4.72-2.38,7.38-6.39,8.37l7.29,10.03h-8.28l-6.88-10.08v10.08h-6.61v-27Zm11.92,11.7c1.49,0,2.48-1.53,2.48-3.1s-1.17-2.97-2.66-2.97h-5.13v6.07h5.31Z"/>
    <path class="cls-1" d="m472.71,381.57h17.86v5.85h-11.25v4.86h10.39v5.76h-10.39v4.86h11.75v5.67h-18.36v-27Z"/>
    <path class="cls-1" d="m504.25,381.57h17.86v5.85h-11.25v4.86h10.39v5.76h-10.39v4.86h11.75v5.67h-18.36v-27Z"/>
    <path class="cls-1" d="m554.11,381.57h11.29c5.8,0,9.58,3.51,9.58,8.59,0,4.72-2.38,7.38-6.39,8.37l7.29,10.03h-8.28l-6.88-10.08v10.08h-6.61v-27Zm11.92,11.7c1.49,0,2.48-1.53,2.48-3.1s-1.17-2.97-2.66-2.97h-5.13v6.07h5.31Z"/>
    <path class="cls-1" d="m587.58,381.57h6.57v16.92c0,3.6,1.71,4.86,4,4.86,2.52,0,4.09-1.26,4.09-4.86v-16.92h6.62v17.91c0,6.39-4.77,9.99-10.71,9.99s-10.57-3.78-10.57-9.99v-17.91Z"/>
    <path class="cls-1" d="m622.93,381.57h6.97l10.48,16.02v-16.02h6.57v27h-6.88l-10.53-16.06v16.06h-6.61v-27Z"/>
  </g>
</svg>