<?xml version="1.0" encoding="UTF-8"?><svg id="Calque_2" xmlns="http://www.w3.org/2000/svg" viewBox="0 0 62.69 69.57"><defs><style>.cls-1{fill:#fff;stroke-width:0px;}</style></defs><g id="activités"><path class="cls-1" d="M7.93,37.74c-2.54-.7-3.83-1.77-3.86-3.2v-.83c-.03-1.15.54-1.73,1.71-1.73h1.2c1.11,0,1.68.51,1.71,1.53v1.41h4.05v-2.72c0-2.83-1.42-4.26-4.26-4.28h-4.22c-2.84.02-4.26,1.45-4.26,4.28v3.12c.09,3.08,1.69,4.98,4.8,5.7,2.56.77,3.86,1.77,3.89,3v1.94c.03,1.15-.54,1.73-1.71,1.73h-1.2c-1.11,0-1.68-.51-1.71-1.53v-1.43H.01v3c.09,2.66,1.51,4,4.26,4.02h4.22c2.84-.02,4.26-1.45,4.26-4.28v-4.29c-.03-3.1-1.64-4.92-4.83-5.46ZM26.17,28.01h-.03l-4.06,15.62v-16.82h3.21l-3.99-3.99h-8v3.99h4.79v19.85h3.21l-1.33,5.12h4.49l1.13-4.56h5.25l1.08,4.56h4.64l-4.71-18.09-5.67-5.67ZM26.53,43.34l1.74-7.07,1.67,7.07h-3.41ZM49.29,38.45v-6.23c0-2.83-1.42-4.26-4.26-4.28h-8.48v14.85l4.04,4.04v-4.1h1.53l3.54,9.13h4.28l-3.66-9.25c2.01-.38,3.02-1.77,3.02-4.16ZM45.24,36.36c.03,1.55-.54,2.33-1.71,2.33h-2.91v-6.68h2.91c1.17,0,1.74.58,1.71,1.73v2.63ZM58.69,22.81h-8v3.99h4.79v19.85h3.99v-19.85h3.21l-3.99-3.99ZM10.79,26.96h.69v-4.57h-.69c-1.98,0-3.72-1.49-4.05-3.44h12.78v-3c0-4.82-3.91-8.7-8.73-8.7S2.09,11.13,2.09,15.94v2.31c0,4.82,3.88,8.7,8.7,8.7ZM10.82,11.81c1.71,0,3.11,1.07,3.77,2.53h-7.57c.61-1.49,2.12-2.53,3.8-2.53ZM48.36,26.96h.69v-4.57h-.69c-1.98,0-3.72-1.49-4.05-3.44h12.78v-3c0-4.82-3.91-8.7-8.73-8.7s-8.7,3.88-8.7,8.7v2.31c0,4.82,3.88,8.7,8.7,8.7ZM48.39,11.81c1.71,0,3.11,1.07,3.77,2.53h-7.57c.61-1.49,2.12-2.53,3.8-2.53ZM30.41,21c-.31-.08-.64-.13-.98-.13-1.81,0-3.32,1.27-3.7,2.96l4.45,4.55c1.74-.35,3.04-1.88,3.04-3.72,0-.34-.05-.67-.13-.98-.29.8-1.06,1.37-1.96,1.37-1.15,0-2.09-.93-2.09-2.09,0-.9.57-1.66,1.37-1.96Z"/><path class="cls-1" d="M14.48,58.17h1.09l.86,2.06.86-2.06h1.09l-1.89,4.42h-.13l-1.89-4.42Z"/><path class="cls-1" d="M20.31,58.17h1.05v4.28h-1.05v-4.28Z"/><path class="cls-1" d="M23.65,58.17h1.79c.92,0,1.52.56,1.52,1.36,0,.75-.38,1.17-1.01,1.33l1.15,1.59h-1.31l-1.09-1.6v1.6h-1.05v-4.28ZM25.54,60.02c.24,0,.39-.24.39-.49s-.18-.47-.42-.47h-.81v.96h.84Z"/><path class="cls-1" d="M29.77,59.09h-.96v-.93h2.98v.93h-.97v3.35h-1.05v-3.35Z"/><path class="cls-1" d="M33.76,58.17h1.04v2.68c0,.57.27.77.63.77.4,0,.65-.2.65-.77v-2.68h1.05v2.84c0,1.01-.76,1.58-1.7,1.58s-1.67-.6-1.67-1.58v-2.84Z"/><path class="cls-1" d="M40.97,58.03h.19l2.09,4.42h-1.12l-.21-.44h-1.69l-.21.44h-1.13l2.08-4.42ZM41.56,61.25l-.49-1.08h-.01l-.5,1.08h1Z"/><path class="cls-1" d="M45.21,58.17h1.05v3.38h1.86v.9h-2.91v-4.28Z"/><path class="cls-1" d="M14.77,65.29h1.79c.92,0,1.52.56,1.52,1.36,0,.75-.38,1.17-1.01,1.33l1.15,1.59h-1.31l-1.09-1.6v1.6h-1.05v-4.28ZM16.66,67.14c.24,0,.39-.24.39-.49s-.18-.47-.42-.47h-.81v.96h.84Z"/><path class="cls-1" d="M20.19,65.29h2.83v.93h-1.78v.77h1.65v.91h-1.65v.77h1.86v.9h-2.91v-4.28Z"/><path class="cls-1" d="M27.04,65.15h.19l2.09,4.42h-1.12l-.21-.44h-1.69l-.21.44h-1.13l2.08-4.42ZM27.62,68.38l-.49-1.08h-.01l-.5,1.08h1Z"/><path class="cls-1" d="M31.27,65.29h1.05v3.38h1.86v.9h-2.91v-4.28Z"/><path class="cls-1" d="M36.16,65.29h1.05v4.28h-1.05v-4.28Z"/><path class="cls-1" d="M40.14,66.22h-.96v-.93h2.98v.93h-.97v3.35h-1.05v-3.35Z"/><path class="cls-1" d="M45.53,67.5l-1.52-2.21h1.18l.86,1.28.86-1.28h1.18l-1.52,2.21v2.07h-1.04v-2.07Z"/><path class="cls-1" d="M32.77,19.83h-6.35v-7.62l-7.72-7.72L23.18,0l6.41,6.44,6.41-6.44,4.48,4.48-7.72,7.72v7.62ZM28.19,18.05h2.79v-6.58l6.98-6.98-1.96-1.96-6.42,6.44-6.42-6.44-1.96,1.96,6.98,6.98v6.58Z"/></g></svg>