<?xml version="1.0" encoding="UTF-8"?><svg id="Calque_2" xmlns="http://www.w3.org/2000/svg" viewBox="0 0 57.79 56.28"><defs><style>.cls-1{fill:#fff;stroke-width:0px;}</style></defs><g id="activités"><path class="cls-1" d="M51.85,21.12l2.56-6.77L40.52,0h-5v7.67h-7.14l-11.38,7.9,2.63-7.9H4.2l4.37,4.11L0,37.43h9.67l3.98-11.9,1.92-1.32c1.1,3.53,2.13,6.87,3.13,10.03,1.71,5.4,3.63,11.61,4.66,14.69h11.42c-1.35-3.64-3.98-11.31-6.26-18.04-1.35-3.93-2.77-8.12-4.3-12.53l14.42-9.85h9.1l-4.62,12.61h-2.53c-.82,0-1.53.55-1.78,1.4l-1.24,4.81h3.28l-5.12,13.96h8.53l5.27-13.96h5.29c.82,0,1.46-.55,1.74-1.4l1.24-4.81h-5.94ZM36.76,7.26V1.25h3.22l5.82,6.01h-9.05ZM43.37,40.03h-5.88l4.66-12.71h6.01l-4.8,12.71ZM44.44,21.12l4.06-11.08,4.46,4.6-2.44,6.47h-6.08Z"/><path class="cls-1" d="M1.94,51.86h1.05v1.91h.01l1.23-1.91h1.15l-1.47,2.03,1.55,2.25h-1.15l-1.31-2.07h-.01v2.07h-1.05v-4.28Z"/><path class="cls-1" d="M9.35,51.72h.19l2.09,4.42h-1.12l-.21-.44h-1.69l-.21.44h-1.13l2.08-4.42ZM9.94,54.94l-.49-1.08h-.01l-.5,1.08h1Z"/><path class="cls-1" d="M13.59,51.86h1.79c.92,0,1.52.56,1.52,1.36,0,.75-.38,1.17-1.01,1.33l1.15,1.59h-1.31l-1.09-1.6v1.6h-1.05v-4.28ZM15.48,53.71c.24,0,.39-.24.39-.49s-.18-.47-.42-.47h-.81v.96h.84Z"/><path class="cls-1" d="M20.9,51.72h.19l2.09,4.42h-1.12l-.21-.44h-1.69l-.21.44h-1.13l2.08-4.42ZM21.49,54.94l-.49-1.08h-.01l-.5,1.08h1Z"/><path class="cls-1" d="M27.15,51.72c1.35,0,2.3,1,2.3,2.28s-.96,2.28-2.3,2.28-2.3-1-2.3-2.28.95-2.28,2.3-2.28ZM27.15,55.29c.75,0,1.24-.57,1.24-1.29s-.49-1.29-1.24-1.29-1.24.57-1.24,1.29.48,1.29,1.24,1.29Z"/><path class="cls-1" d="M31.67,51.86h1.05v1.91h.01l1.23-1.91h1.15l-1.47,2.03,1.55,2.25h-1.15l-1.31-2.07h-.01v2.07h-1.05v-4.28Z"/><path class="cls-1" d="M37.12,51.86h2.83v.93h-1.78v.77h1.65v.91h-1.65v.77h1.86v.9h-2.91v-4.28Z"/></g></svg>