<?xml version="1.0" encoding="UTF-8"?><svg id="Calque_2" xmlns="http://www.w3.org/2000/svg" viewBox="0 0 85.16 73.4"><defs><style>.cls-1{fill:#fff;stroke-width:0px;}</style></defs><g id="activités"><path class="cls-1" d="M41.83,29.47s-.07.03-.1.05c-.05.03-.11.05-.16.08,0,.04.01.08.01.12,0,.06,0,.11,0,.15,0,.03,0,.05,0,.05,0,0,0-.02-.01-.05,0-.03-.02-.08-.03-.14,0-.03-.02-.06-.03-.1-.12.06-.23.11-.33.16l-.09.19.8.1c0-.13,0-.26-.01-.4,0-.07-.02-.14-.04-.21ZM7.77,25.82c.1.01.2.02.3.02l.07-.61-.15-.14-.21.73ZM36.89,41.02c-.22-.36-.59-.51-1.1-.46,0,0-.01,0-.02,0-.53.06-.83.27-.92.63-.04-.22-.08-.43-.12-.65-.27.06-.54.11-.8.17.28,1.52.48,2.9.63,4.13.33-.04.65-.08.98-.12-.12-.97-.23-1.94-.35-2.91.04-.22.19-.35.44-.37.25-.02.41.16.47.56.02.14.04.32.06.55.04.46.08,1.1.13,1.93.34-.03.67-.06,1.01-.09-.02-.63-.05-1.17-.08-1.62-.07-.93-.18-1.52-.33-1.76ZM33.92,42.66c-.15-1.26-.73-1.84-1.73-1.69-1.03.15-1.45.93-1.25,2.3,0,.04.01.07.02.11.22,1.28.78,1.85,1.69,1.71.01,0,.02,0,.03,0,.96-.15,1.37-.9,1.25-2.27,0-.05,0-.1-.01-.15ZM33,43.78c-.04.3-.18.46-.41.49,0,0-.02,0-.03,0-.25.02-.42-.15-.52-.53-.04-.15-.07-.3-.1-.46-.03-.23-.05-.45-.04-.69,0-.39.1-.62.27-.71.06-.03.12-.05.18-.06.1-.01.19,0,.27.06.13.09.24.35.32.78.01.08.03.16.04.24.04.33.05.61.01.86ZM26.3,44.73c.03.08.06.16.07.23.08.33,0,.53-.24.61,0,0-.02,0-.03,0-.27.07-.49-.24-.66-.91.62-.15,1.25-.3,1.88-.44-.02-.17-.05-.33-.08-.48-.26-1.21-.9-1.72-1.9-1.48-.94.23-1.25,1.03-.92,2.38.01.04.02.08.03.12.33,1.26.92,1.77,1.79,1.56,0,0,.02,0,.03-.01.9-.23,1.25-.83,1.03-1.84-.33.08-.66.16-.99.25ZM25.5,43.04c.29-.07.5.13.61.61,0,.03.01.06.02.09-.32.07-.64.15-.96.23-.1-.55,0-.86.33-.94ZM40.66,38.66c-.4.01-.8.03-1.2.05.07.81.12,1.51.14,2.11-.2-.27-.45-.41-.75-.41-.04,0-.08,0-.11,0-.88.05-1.28.72-1.2,1.99,0,.03,0,.05,0,.08.1,1.26.57,1.86,1.43,1.81.34-.02.61-.18.81-.49.02.21.04.41.06.62.33-.02.66-.03.99-.04-.04-.99-.08-1.93-.11-2.84-.03-1-.05-1.95-.06-2.87ZM39.18,43.42s-.05,0-.08,0c-.26-.02-.42-.34-.49-.95,0-.06-.01-.12-.02-.18-.03-.51.07-.82.29-.95.07-.04.14-.06.22-.06.18,0,.36.09.53.29.03.47.06.93.08,1.4-.14.29-.31.44-.54.46ZM48.04,40.37c-.96-.06-1.49.61-1.58,2,0,.04,0,.08,0,.12-.06,1.3.35,1.96,1.23,2.02,0,0,.02,0,.03,0,.93.05,1.43-.42,1.52-1.45-.34-.02-.68-.04-1.02-.06,0,.09,0,.17,0,.24-.02.34-.16.51-.41.51-.01,0-.02,0-.03,0-.28-.02-.4-.37-.35-1.06.64.04,1.28.09,1.92.14.03-.17.05-.33.06-.48.11-1.24-.35-1.91-1.37-1.98ZM48.36,41.9s0,.06,0,.1c-.33-.02-.65-.04-.98-.06.07-.55.26-.82.59-.8.3.02.43.28.4.77ZM30.63,43.45c-.1-.58-.22-1.28-.37-2.09-.35.09-.71.17-1.06.26.15.69.27,1.25.35,1.69.1.55.15.89.14,1.05-.02.26-.14.41-.36.46-.01,0-.03,0-.05,0-.26.03-.45-.23-.57-.79-.04-.15-.07-.32-.11-.52-.1-.51-.22-1.17-.35-1.97-.38.1-.75.21-1.12.32.32,1.29.53,2.16.65,2.61.12.45.3.78.55.99.25.21.55.29.91.24.02,0,.04,0,.06-.01.32-.06.54-.23.66-.49,0,.02,0,.04.01.06.07.36.03.63-.12.83-.14.19-.44.33-.89.42-.05,0-.1.02-.15.03.1.31.21.63.31.94.07,0,.14-.02.21-.03.58-.12,1-.36,1.27-.73.3-.41.41-.95.32-1.62-.05-.37-.13-.92-.26-1.65ZM54.77,39.4c-.37-.05-.74-.1-1.1-.15-.12,1.02-.26,2.1-.42,3.25-.11.82-.24,1.67-.37,2.55.35.02.7.04,1.05.06.16-1.29.34-2.52.52-3.71.11-.69.22-1.36.33-2.01ZM51.52,40.56s-.06,0-.09-.01c-.99-.11-1.53.32-1.62,1.25.34.06.68.12,1.02.18,0-.02,0-.04,0-.06.04-.42.21-.62.49-.59.02,0,.04,0,.06.01,0,0,.01,0,.02,0,.26.03.37.23.32.61-.02.16-.04.31-.06.47-.21-.05-.4-.08-.57-.1-.91-.1-1.43.18-1.54.81-.02.08-.03.17-.04.24-.06.62.16,1.01.64,1.17.16.06.31.1.45.11.33.04.61-.04.84-.24,0,.13,0,.26-.01.39.32.03.65.07.97.11.13-.95.25-1.9.38-2.85.11-.84-.31-1.35-1.28-1.51ZM51.52,43.78c-.22.08-.4.12-.55.1-.11-.01-.2-.05-.26-.13-.08-.09-.12-.19-.11-.3,0-.09.05-.18.11-.27.11-.15.3-.22.56-.19.1.01.21.04.33.08-.03.24-.06.47-.08.71ZM44,38.28c-.37,0-.79.01-1.26.06.05,1.22.07,2.43.07,3.63,0,.78,0,1.56-.02,2.33.43,0,.87-.01,1.3-.02-.04-.74-.07-1.52-.08-2.34.05,0,.09-.01.13,0,.22,0,.41.11.57.32.14.19.19.69.17,1.5,0,.27-.02.57-.04.91.42,0,.84.01,1.26.03,0-.06,0-.12,0-.17.06-1.28,0-2.09-.17-2.41-.18-.34-.46-.54-.84-.59.54-.14.91-.5,1.11-1.09.06-.18.09-.36.1-.53.02-.38-.1-.73-.35-1.06-.27-.35-.93-.54-1.96-.56ZM44.98,40.53c-.16.31-.5.47-1.05.49,0-.58,0-1.15,0-1.73.11,0,.22-.01.32-.01.43,0,.69.13.79.36.06.13.08.27.08.41,0,.16-.05.32-.13.49ZM57.91,42.47c.28.04.56.09.85.14.05-.25.1-.5.15-.75-.28-.05-.56-.1-.84-.15.09-.44.18-.87.27-1.31-.34-.05-.68-.09-1.02-.14-.08.42-.16.84-.23,1.26-.24-.05-.49-.1-.73-.14-.05.3-.09.59-.14.89.24.03.48.06.72.09-.12.65-.25,1.3-.37,1.94-.15.87.22,1.38,1.08,1.56.12.02.25.04.38.06.07-.29.15-.57.22-.86-.1,0-.18-.01-.26-.03-.38-.08-.52-.33-.44-.75.12-.6.24-1.2.37-1.8ZM60.78,44.26c-.13.54-.24.88-.3,1.01-.12.23-.3.32-.52.26-.01,0-.03,0-.04-.01-.25-.08-.32-.4-.2-.96.03-.15.07-.33.11-.52.12-.51.28-1.15.5-1.94-.39-.06-.77-.12-1.16-.18-.25,1.3-.41,2.18-.49,2.64-.08.46-.05.83.09,1.13.14.3.38.49.73.59.02,0,.04,0,.06.01.32.08.59.02.81-.18,0,.02-.01.04-.02.06-.09.35-.24.59-.45.7-.21.11-.54.11-.99,0-.05-.01-.1-.02-.15-.04-.04.33-.07.66-.11.99.07.02.14.04.2.06.58.14,1.07.09,1.47-.13.44-.25.77-.69.97-1.34.11-.36.26-.89.45-1.6.15-.57.33-1.26.52-2.05-.36-.07-.72-.14-1.08-.2-.15.69-.27,1.25-.38,1.68ZM56.23,40c-.11-.14-.25-.22-.44-.25-.18-.03-.34,0-.49.1-.15.09-.23.22-.26.38-.03.16.02.31.12.45.11.14.25.22.43.25.18.03.34,0,.49-.09.15-.09.23-.22.26-.38.03-.16-.01-.31-.12-.44ZM54.35,45.28c.32.05.65.11.97.16.05-.28.1-.57.15-.86.19-1.07.39-2.14.62-3.22-.37-.04-.74-.09-1.11-.13-.18,1.13-.39,2.48-.62,4.04ZM7.43,21.73c-.16.06-.32.14-.46.23l.23.31.44.08.37-.37.14.32.14-.7c-.13,0-.26,0-.39.01-.16.02-.32.06-.47.11ZM57.98,9.23c-1.02.04-2.04.07-3.06.1,0-1.7.01-3.41.02-5.11-1.05.09-2.1.17-3.15.24,0,2.44-.01,4.88-.02,7.32,2.07,0,4.14,0,6.21,0,0-.85,0-1.7,0-2.55ZM45.88,11.79c1.05,0,2.1,0,3.15,0,0-1.61,0-3.21.01-4.82.59-.02,1.17-.04,1.75-.06,0-.79,0-1.58,0-2.38-2.22.13-4.45.21-6.67.24,0,.77,0,1.53,0,2.3.59,0,1.17-.01,1.76-.02,0,1.58,0,3.17,0,4.75ZM72.06,27.26s0,.01,0,.02c0,.09.02.18.04.27l.6-.06.07-.07-.03-.06-.67-.1ZM38.67,7.04c0,1.58,0,3.17,0,4.75,1.05,0,2.1,0,3.15,0,0-1.57,0-3.15,0-4.72.59,0,1.17,0,1.76,0,0-.77,0-1.53,0-2.3-2.22.02-4.45-.02-6.67-.1,0,.78,0,1.55,0,2.33.59.02,1.17.03,1.76.04ZM31.42,10.85c.79,0,1.58.01,2.38.02.09.31.19.61.28.92,1.13,0,2.25,0,3.38,0-1.03-2.37-2.06-4.77-3.09-7.25-1.17-.07-2.34-.15-3.51-.24-1.03,2.41-2.06,4.9-3.1,7.49,1.13,0,2.25,0,3.38,0,.09-.31.18-.63.27-.94ZM32.21,8.27c.06-.2.12-.38.16-.54.04-.16.08-.3.1-.42.02-.12.04-.24.06-.34.02-.1.02-.21.02-.31.02,0,.04,0,.06,0,0,.1,0,.21.03.31.02.1.04.22.06.34.02.12.06.27.11.43.05.16.1.34.17.55.09.28.18.56.27.84-.44-.01-.87-.02-1.31-.03.09-.28.18-.55.27-.83ZM84.89,12.48c-.27,2.82-.54,5.59-.81,8.33l-.15,1.55-3.58,2.78.03,16.41c-3.53,1.17-10.46,4.01-10.46,4.01l-2.1-.41c-1.3-.25-2.64-.48-4-.67-.08.31-.15.59-.22.86-.2.74-.35,1.29-.47,1.69-.35,1.12-.98,1.95-1.87,2.45-.51.29-1.08.44-1.7.46-.37,0-.76-.03-1.16-.13-.11-.03-.23-.06-.35-.1-.78-.25-1.31-.95-1.35-1.75-8.03-1.37-16.2-1.57-24.27-.6-.09.17-.18.34-.3.5-.56.77-1.39,1.27-2.46,1.49-.11.02-.23.04-.36.06-.06,0-.12.01-.18.01-.83.02-1.58-.5-1.87-1.27-.66.12-1.32.25-1.98.39-1.15.25-2.47.64-2.47.64-.31.09-.66.19-1.03.27-.13.03-.26.05-.39.05-.87.02-1.65-.55-1.91-1.38-.21-.71-.43-1.41-.65-2.09-.1-.33-.21-.65-.31-.97-1.3.56-2.55,1.15-3.77,1.81l-2.54,1.37c-3.26-.69-11.63-3.17-11.63-3.17L0,11.99l1.95-.03c3.19-.05,6.53-.05,9.21-.06h1.98s.69.95.69.95c.25-.28.5-.56.75-.84l2.32-2.65.19.21c.13.14.25.28.37.42.09.1.17.19.26.29V0s8.12,1.24,13.46,1.73c1.11.09,2.24.17,3.35.23l1.23.07,1.26.05c1.81.07,3.65.11,5.46.11.36,0,.73,0,1.09,0h.54c2.18-.03,4.38-.11,6.55-.24l.49-.03.47-.03c1.03-.07,2.07-.15,3.09-.24l1.87-.16,1.86-.22c1.9-.22,3.83-.48,5.73-.78l2.99-.47.18,13.17,17.82-3.42-.26,2.72ZM24.23,44.91c-.09-.34-.23-.58-.43-.72-.24-.17-.57-.23-.99-.17.33-.22.53-.5.6-.82.05-.24.04-.5-.04-.78-.03-.1-.06-.2-.1-.3-.16-.4-.48-.67-.96-.8-.31-.08-.81-.03-1.5.18-.37.11-.8.27-1.28.47.39,1.12.78,2.27,1.16,3.47.22.69.44,1.4.65,2.12.33-.08.63-.16.91-.24.35-.11.65-.22.89-.34.44-.21.76-.46.96-.75.2-.29.26-.66.18-1.11-.01-.07-.03-.14-.05-.21ZM20.96,42.49c.11-.04.21-.08.3-.11.42-.12.71-.09.87.1.09.11.16.23.2.36.04.16.05.33.02.51-.06.34-.34.6-.86.79-.18-.55-.35-1.1-.53-1.65ZM23.2,45.5c-.06.3-.35.53-.86.68-.06.02-.12.03-.18.05-.13-.43-.26-.87-.39-1.3.12-.04.23-.08.33-.11.44-.13.74-.14.9-.03.1.07.16.16.19.28.03.12.03.26,0,.43ZM66,16.12c.6.92.9,2.12.9,2.12-.35-.9-.82-1.48-1.22-1.84-.64-.53-1.47-.92-2.5-1.17-1.32-.32-2.96-.32-4.94-.04-3.7.49-7.55.93-11.55,1.33.14,4.77.28,9.54.42,14.31-4.91-5.58-9.8-10.81-14.66-16.61-3.91,5.16-7.84,10.54-11.76,16.82l1.56,1.56-2.33-1.46h0c-2.15-1.29-4.29-2.65-6.44-4.13,2.93-2.73,5.86-5.09,8.81-7.25-2.05-2.03-4.1-4.2-6.15-6.56-1.44,1.6-2.89,3.29-4.33,5.09l-.31.39c-.15.19-.3.38-.45.57h0s-.96,1.21-.96,1.21l.98-1.85c.03-1.59.06-3.18.1-4.76-3.07,0-6.13.01-9.18.06.17,9.4.33,18.71.49,27.93,2.7-1.46,5.42-2.67,8.15-3.71.02-1.11.04-2.21.06-3.32l-1.83-2.02,3.01,2.3c1.63,1.11,3.26,2.15,4.9,3.15.73-1.11,1.45-2.18,2.18-3.22,2.95.34,5.91.72,8.88,1.15.44-1.27.88-2.53,1.31-3.78,1.7-.16,3.39-.3,5.09-.42h0s4.26-.29,4.26-.29l-2.31.66c.76.91,1.51,1.81,2.27,2.72,2.55-.78,5.1-1.47,7.64-2.13h0s3.3-.99,3.3-.99l-2.21,1.2c.02.53.03,1.06.05,1.59,2.56.27,5.13.62,7.68,1.04.02-1.2.05-2.4.07-3.6l-1.8-1.81,2.71,1.85h0c2.27,1.44,4.54,2.99,6.81,4.71,1.62-1.25,3.24-2.54,4.86-3.9-1.91-1.36-3.82-2.6-5.73-3.76l-2.43-1.36,2.03.62c1.27-.61,2.34-1.36,3.23-2.25.99-1,1.72-2.08,2.17-3.22.13-.32.23-.65.32-.97.09-.46.13-1.12-.04-1.93,0,0,.38.81.51,1.85.58-.05,1.17-.09,1.75-.14l2.92-.24-2.31.7c-.13,5.2-.26,10.37-.4,15.51,2.97.34,5.93.79,8.87,1.37-.01-5.88-.02-11.77-.03-17.65l-2.29-.31,3.26-.29c.93-.11,1.85-.21,2.77-.32.27-2.73.54-5.51.81-8.32-5.63,1.38-11.28,2.43-16.94,3.26,0,.19-.01.38-.02.57ZM9.9,35.19c.06-.29.14-.48.14-.48,0,0,.07.19.12.49.06.29.08.68.08,1.07,0,.39-.05.77-.12,1.06-.06.29-.14.48-.14.48,0,0-.07-.2-.12-.49-.06-.29-.08-.68-.08-1.07,0-.39.05-.77.12-1.06ZM13.66,16.89c.37-.47.75-.93,1.13-1.39.38-.46.77-.9,1.17-1.35l.17-.19.17.19,2.5,2.82,1.25,1.41c.41.47.83.94,1.24,1.43-.48-.41-.94-.84-1.41-1.27-.46-.43-.91-.87-1.35-1.32-.45-.45-.88-.91-1.31-1.37-.37-.4-.73-.81-1.1-1.22l-2.19,2.47-1.18,1.33c-.4.44-.79.89-1.19,1.33.66-.99,1.36-1.95,2.1-2.89ZM4.6,14.53c.65-.04,1.31-.06,1.97-.08.66-.02,1.31-.03,1.97-.04.33,0,.66,0,.98,0,.33,0,.66,0,.98,0h.22s0,.22,0,.22l-.05,1.13c-.02.38-.04.75-.06,1.13-.05.75-.11,1.5-.19,2.26-.05-.75-.08-1.51-.1-2.26-.01-.38-.01-.75-.02-1.13v-.91c-.26,0-.51,0-.77.01-.33,0-.66.01-.98,0-.66,0-1.31,0-1.97-.01-.66-.01-1.31-.03-1.97-.06-.66-.03-1.31-.06-1.97-.12.65-.07,1.31-.11,1.96-.14ZM8.39,19.68s0,.1-.01.24c-.01.14-.03.33-.06.52-.03.19-.07.37-.1.51-.03.14-.06.23-.06.23,0,0,0-.1.01-.24.01-.14.03-.33.06-.52.03-.19.07-.37.1-.51.03-.14.06-.23.06-.23ZM10.97,23.52c0,.07,0,.15,0,.22,0,.07,0,.14-.01.22-.01.15-.04.29-.08.42-.07.27-.18.5-.3.69-.12.19-.24.32-.33.41-.04.05-.08.08-.11.1-.03.02-.04.03-.04.03,0,0,.04-.06.12-.16.07-.1.17-.25.26-.44.09-.19.18-.42.23-.67.03-.13.04-.26.06-.39,0-.07,0-.14,0-.21,0-.07,0-.14,0-.2,0-.14-.03-.27-.06-.41,0-.02,0-.03-.01-.05l-1,.28-.3.41.31.33.07.41-.43.18-.08.56-.28-.3-.59.3-.11.1-.08.5c.29,0,.57-.06.78-.13.11-.03.2-.07.27-.09.06-.03.1-.04.1-.04,0,0-.03.03-.08.07-.05.04-.14.1-.24.16-.11.06-.24.11-.39.15-.15.04-.31.06-.47.07l-.39,2.31.26-2.32s-.08,0-.12,0c-.07,0-.14-.02-.21-.04l-.17.59.11-.61c-.13-.04-.25-.08-.34-.13-.11-.05-.19-.11-.25-.16-.06-.04-.08-.07-.08-.07,0,0,.04.01.1.04.06.02.16.06.27.09.1.03.21.05.33.07l.15-.85-.02-.02-.59.24-.3-.6-.52-.29-.84-.03c.05.27.13.52.21.71.06.14.12.26.16.33.05.08.07.13.07.13,0,0-.04-.04-.1-.1-.06-.07-.15-.17-.23-.31-.08-.13-.17-.3-.23-.49-.03-.09-.05-.18-.07-.28l-.94-.04.93-.04c-.01-.09-.03-.17-.03-.26-.01-.21,0-.43.04-.63.04-.2.1-.38.17-.52.07-.15.14-.26.19-.33.05-.08.09-.12.09-.12,0,0-.02.05-.05.13-.04.08-.08.21-.12.35-.04.15-.08.32-.1.51-.02.19-.03.39-.02.59,0,.09.02.18.03.27l.76-.03.44-.26s.04-.31.03-.39l-.17-.62.4.1s.04-.4.06-.6l-.2-.33c-.08.06-.16.12-.23.19-.11.11-.21.22-.29.34-.08.11-.14.23-.2.35-.1.22-.16.43-.18.57-.02.15-.03.23-.03.23,0,0-.01-.08,0-.23,0-.15.03-.37.12-.61.04-.12.1-.25.18-.38.08-.13.17-.26.28-.38.08-.08.17-.16.26-.23l-.66-1.1.76,1.03c.16-.11.33-.2.51-.27.17-.06.34-.1.51-.12.15-.02.3-.01.44,0l.34-1.75-.23,1.76c.31.05.58.16.79.28.23.13.38.29.48.4.05.06.09.1.11.14.02.03.04.05.04.05,0,0-.06-.06-.17-.16-.06-.05-.13-.1-.21-.16-.08-.06-.18-.11-.3-.17-.21-.1-.47-.18-.76-.21l-.1.79.69-.17v.42s.23.34.23.34l.44.2,1-.22c-.02-.08-.04-.15-.07-.22-.09-.24-.21-.46-.32-.63-.12-.17-.23-.31-.32-.4-.09-.09-.14-.14-.14-.14,0,0,.01.01.04.03.03.02.07.04.12.08.1.08.24.19.38.36.14.17.29.38.39.64.03.08.06.16.09.25l1.77-.38-1.74.48c.04.16.07.33.08.49ZM19.27,31.79c-.41-.21-.87-.47-1.37-.75-.25-.15-.5-.29-.76-.45-.26-.16-.51-.32-.77-.48-.26-.17-.51-.33-.76-.5-.25-.16-.49-.34-.73-.5-.47-.33-.9-.65-1.26-.93-.72-.56-1.18-.97-1.18-.97,0,0,.54.29,1.33.76.39.23.85.51,1.33.81.49.3,1,.63,1.51.95.26.16.51.33.76.49.25.16.5.33.74.48.48.31.92.61,1.29.87.75.52,1.24.89,1.24.89,0,0-.56-.24-1.37-.67ZM28.57,32.53c-.03.18-.08.39-.14.61-.06.22-.13.45-.21.68-.08.23-.17.46-.26.66-.09.21-.18.4-.27.56-.17.33-.32.53-.32.53,0,0,0-.25.08-.62.03-.18.08-.39.14-.61.06-.22.13-.45.21-.68.08-.23.17-.46.26-.66.09-.21.18-.4.27-.56.17-.33.32-.53.32-.53,0,0,0,.25-.08.62ZM34.05,28.81c-.49.11-.99.21-1.49.31-.5.1-.99.19-1.49.28l-.74.14-.75.13-.47.08.23-.42c.28-.51.58-1.01.87-1.51.3-.5.6-1,.9-1.49.3-.5.61-.99.93-1.48.32-.49.64-.97.98-1.45-.25.53-.51,1.05-.78,1.57-.27.52-.54,1.03-.81,1.54-.28.51-.56,1.02-.84,1.53-.21.37-.42.74-.62,1.1.34-.06.68-.11,1.03-.16.5-.07,1-.14,1.5-.21.5-.07,1-.12,1.51-.18.5-.05,1.01-.1,1.51-.13-.49.12-.99.23-1.48.34ZM33.42,28.01c-.88.14-1.76.28-2.64.43.58-1.03,1.17-2.03,1.75-3.04h0s1.18-2.17,1.18-2.17l-.52,1.84c.37.75.74,1.5,1.11,2.25h3.6s-4.49.68-4.49.68ZM42.04,29.66c.02.15.02.3,0,.44l.26.03h-.26s0,0,0,0c-.02.15-.07.29-.12.39-.05.11-.11.19-.15.25-.04.05-.07.08-.07.08,0,0,.01-.04.04-.1.02-.06.06-.15.09-.26.03-.11.05-.23.06-.36h-.77s.04.2.04.2l-.26.13-.33.44-.25-.16-.02.6-.11-.68-.29.02-.29-.08v-.28s-.48.23-.48.23c.06.09.13.18.21.27.09.09.19.17.3.23.05.03.11.06.16.08.05.02.1.04.15.05.09.03.17.04.23.05.06,0,.09.01.09.01,0,0-.13.02-.33-.02-.05-.01-.1-.02-.16-.04-.06-.02-.11-.04-.17-.07-.06-.03-.11-.06-.17-.1-.05-.04-.11-.08-.15-.13-.05-.05-.09-.1-.13-.15-.03-.04-.06-.09-.09-.14l-.26.12c.04.06.08.12.12.18.05.06.1.13.16.18.06.06.12.11.18.16.06.05.13.09.19.13.07.04.13.07.19.1.07.03.13.06.19.08.12.04.22.07.3.08.07.01.12.02.12.02,0,0-.04,0-.12.01-.08,0-.19,0-.32-.02-.07-.01-.14-.03-.21-.05-.07-.03-.15-.05-.23-.09-.07-.04-.15-.08-.22-.13-.07-.05-.14-.11-.2-.17-.06-.06-.12-.13-.17-.2-.05-.07-.09-.14-.13-.21l-.42.2.4-.25c-.03-.06-.06-.13-.07-.19-.03-.07-.04-.14-.05-.21,0-.07-.02-.13-.02-.18,0-.05,0-.1,0-.14,0-.08.01-.12.01-.12,0,0,0,.04.02.12,0,.04.02.08.03.13.01.05.03.1.05.16.02.06.04.12.08.19.02.05.05.1.08.16l.25-.15c-.04-.09-.07-.19-.09-.27-.02-.1-.02-.18-.02-.24,0-.06,0-.09,0-.09,0,0,0,.03.01.09,0,.06.03.14.05.23.02.08.06.16.1.24l.46-.29c-.05-.07-.12-.16-.14-.18l-.12-.35.27-.22.17-.09.08-.31.16.05-.05-.45s-.06.02-.09.03c-.12.05-.24.11-.32.17-.08.05-.14.09-.14.09,0,0,.04-.06.11-.13.07-.07.19-.16.32-.21.04-.02.07-.03.11-.04l-.12-1.11.22,1.08c.06-.01.11-.02.16-.02.05,0,.09,0,.12,0,.03,0,.05,0,.05,0,0,0-.07.01-.17.04-.05.01-.1.02-.15.04l.1.48.26-.15.07.33h.66l-.15.47h0s.09-.03.15-.06c.11-.04.25-.09.4-.15-.02-.06-.05-.13-.08-.2-.07-.14-.16-.26-.23-.35-.04-.04-.07-.08-.09-.11-.02-.03-.04-.04-.04-.04,0,0,.07.03.17.11.09.08.2.2.28.35.04.07.06.14.08.21.05-.02.1-.04.15-.06.04-.01.08-.03.11-.04-.05-.18-.13-.35-.21-.48-.06-.1-.11-.18-.15-.23-.04-.05-.07-.09-.07-.09,0,0,.03.02.09.06.06.04.13.11.21.2.08.09.16.21.23.34.02.04.04.09.05.14.34-.13.63-.24.63-.24,0,0-.28.13-.61.3.03.08.05.17.06.26ZM45.97,30.74c-.4-.42-.99-1.02-1.68-1.75-.69-.73-1.49-1.58-2.33-2.51-.42-.46-.86-.94-1.3-1.42-.44-.49-.89-.98-1.34-1.48-.44-.5-.89-1-1.32-1.49-.44-.49-.86-.98-1.27-1.46-.82-.95-1.57-1.84-2.2-2.62-.64-.77-1.15-1.44-1.51-1.89-.36-.46-.56-.73-.56-.73,0,0,.23.24.63.67.4.43.96,1.04,1.64,1.78.67.74,1.46,1.6,2.31,2.53.84.93,1.73,1.92,2.63,2.91.44.5.89,1,1.32,1.49.44.49.86.98,1.27,1.45.82.94,1.58,1.83,2.23,2.6.65.76,1.17,1.41,1.55,1.86.37.45.58.71.58.71,0,0-.24-.24-.64-.66ZM54.19,32.4c.06-.3.14-.51.14-.51,0,0,.07.2.12.51.05.31.08.71.08,1.12,0,.41-.05.81-.12,1.12-.06.3-.14.51-.14.51,0,0-.07-.2-.12-.51-.06-.31-.08-.71-.08-1.12,0-.41.05-.81.12-1.12ZM62.17,30.23c.51.28,1.02.57,1.52.87.5.3.99.61,1.48.93.49.32.97.65,1.44.99l.24.17-.23.18c-.32.25-.64.5-.97.74-.32.25-.65.49-.98.73-.33.24-.66.48-.99.71-.33.23-.67.46-1.01.69.29-.28.59-.56.89-.83.3-.28.61-.54.91-.81.31-.26.61-.53.93-.79.24-.2.47-.39.71-.59l-2.64-1.79-1.44-.98c-.48-.33-.96-.66-1.43-1.01.53.25,1.05.51,1.56.79ZM51.91,25.82c.09,0,1.41-.35,2.29-.71.07-.95.15-1.9.22-2.85l-2.86.23c.29-.13,3.51-.96,3.51-.96h0c.73-.19,1.33-.3,1.79-.31.59-.01,1.03.06,1.31.21.29.16.46.35.54.58.07.23.1.43.08.6-.02.17-.03.26-.03.27-.04.15-.16.35-.36.61-.2.25-.49.52-.87.79-.38.27-.85.53-1.4.76-.21.09-.44.16-.67.23h0s-.03.01-.09.03c-.37.11-.78.19-1.22.26,0,0,0,0,0,0-.65.12-1.46.23-2.26.27ZM58.78,24.26c-.1.14-.25.34-.46.54-.21.21-.47.43-.79.63-.16.1-.32.2-.49.29-.17.09-.35.17-.53.25-.18.07-.37.14-.55.2-.18.06-.37.1-.55.14-.36.08-.7.12-.99.13-.58.03-.97.01-.97.01,0,0,.37-.13.93-.27.27-.07.59-.16.93-.26.17-.05.34-.11.51-.17.17-.06.35-.13.51-.2.18-.07.34-.14.51-.22.16-.08.33-.15.48-.24.31-.16.59-.33.82-.49.47-.31.76-.57.76-.57,0,0-.04.09-.14.23ZM62.93,16.1c-.84-.17-1.85-.19-2.92-.11-.54.04-1.09.11-1.66.19-.57.07-1.15.14-1.72.21-.58.06-1.16.13-1.73.19-.57.06-1.13.12-1.67.17-1.09.11-2.1.2-2.97.27-.87.07-1.6.12-2.11.16-.51.03-.8.05-.8.05,0,0,.29-.05.79-.14.5-.08,1.22-.2,2.09-.33.86-.13,1.87-.27,2.95-.41.54-.07,1.1-.14,1.67-.21.57-.07,1.15-.14,1.72-.21.58-.06,1.16-.13,1.73-.19.56-.08,1.14-.13,1.69-.15,1.1-.05,2.15.02,3.01.26.43.11.81.26,1.14.41.33.15.59.32.8.47.21.15.36.29.45.39.1.1.14.15.14.15,0,0-.05-.05-.16-.13-.11-.09-.27-.2-.49-.33-.22-.13-.49-.26-.82-.39-.33-.12-.71-.23-1.13-.31ZM66.62,21.78c-.01.14-.02.34-.07.58-.02.12-.05.25-.09.39-.04.13-.08.28-.13.42-.05.14-.11.3-.18.44-.07.15-.14.29-.22.43-.16.28-.35.55-.54.79-.19.24-.39.45-.57.61-.18.17-.34.29-.45.38-.12.08-.19.13-.19.13,0,0,.04-.07.12-.19.08-.12.19-.28.32-.48.13-.2.28-.43.44-.67.08-.12.16-.25.24-.38.08-.13.16-.26.24-.4.08-.13.15-.27.22-.41.07-.14.14-.26.21-.4.06-.13.13-.26.18-.38.06-.12.11-.24.16-.35.09-.22.17-.4.23-.53.06-.13.1-.2.1-.2,0,0,0,.08-.01.22ZM73.98,28.69c0,.13-.01.3-.04.47-.02.17-.05.34-.08.46-.03.13-.05.21-.05.21,0,0,0-.09,0-.21,0-.13.01-.3.04-.47.02-.17.05-.34.08-.46.03-.13.05-.21.05-.21,0,0,0,.09,0,.21ZM77.55,28.75c0-.51.01-1.01.02-1.49.01-.97.04-1.87.07-2.64.02-.77.06-1.42.08-1.87.02-.45.04-.71.04-.71,0,0,.02.26.05.71.02.45.06,1.1.09,1.87.03.77.06,1.68.07,2.64,0,.48.02.98.02,1.49,0,.51,0,1.02.01,1.54,0,.52,0,1.03,0,1.54,0,.51-.01,1.01-.02,1.49-.01.97-.04,1.87-.07,2.64-.02.77-.06,1.42-.08,1.87-.02.45-.04.71-.04.71,0,0-.02-.26-.05-.71-.02-.45-.06-1.1-.09-1.87-.03-.77-.06-1.68-.07-2.64,0-.48-.02-.98-.02-1.49,0-.51,0-1.02-.01-1.54,0-.52,0-1.03,0-1.54ZM76.88,24.64l-.95.74s.01.01.02.02c.06.06.11.13.15.19.09.13.16.26.21.38.05.12.08.22.11.29.02.07.03.11.03.11,0,0-.02-.04-.05-.11-.03-.07-.07-.16-.14-.27-.09-.17-.24-.38-.41-.56l-.33.26s.05.05.07.08c.06.08.13.16.18.25.05.09.1.18.14.28.04.09.07.19.09.28.02.09.03.19.04.27,0,.09.01.17,0,.25,0,.15-.03.28-.05.36-.02.09-.04.13-.04.13,0,0,0-.05.01-.14,0-.09.01-.21,0-.36,0-.07-.02-.15-.03-.23-.02-.08-.04-.17-.07-.25-.03-.09-.06-.17-.1-.26-.04-.09-.09-.17-.14-.25-.05-.08-.11-.16-.17-.23-.02-.03-.05-.06-.08-.08l-.21.17-.22.52.52.34-.3.17.08.62.92.8s.04-.06.06-.09c.06-.11.12-.21.15-.3.04-.09.07-.17.09-.23.02-.06.03-.09.03-.09,0,0,0,.03-.01.09-.01.06-.03.14-.06.24-.03.1-.07.21-.13.32-.02.04-.04.07-.06.11l.96.83-1.05-.68s-.04.06-.06.08c-.16.22-.37.4-.55.51-.17.11-.3.16-.3.16,0,0,.03-.02.07-.06.05-.03.11-.09.19-.15.15-.13.34-.32.5-.53.02-.03.04-.05.06-.08l-1.08-.7h-.02s-.17.4-.17.4l-.42.12-.51-.12-.23.88.04-.84-.34.16-.24-.46-.25-.26-.29-.12-.45-.03c.02.12.05.23.08.32.03.09.05.17.07.22.02.05.03.09.03.09,0,0-.02-.02-.06-.06-.04-.04-.09-.11-.14-.19-.05-.08-.1-.19-.14-.31,0-.02-.01-.05-.02-.07l-.27-.02.26-.02c-.02-.09-.04-.18-.04-.28,0-.02,0-.04,0-.06l-.42-.06c0,.1.01.21.03.32.03.23.09.45.14.62.03.08.05.15.07.2.02.05.03.08.03.08,0,0-.07-.09-.15-.25-.08-.16-.16-.39-.19-.62-.02-.12-.02-.24-.02-.35l-1.11-.17,1.11.09c0-.08.01-.16.03-.22.01-.09.04-.16.05-.21.02-.05.03-.08.03-.08,0,0,0,.03,0,.08,0,.05,0,.12-.02.21,0,.07,0,.14,0,.22l.43.03c0-.21.06-.4.12-.54.08-.18.16-.29.16-.29,0,0-.03.13-.06.31-.02.15-.04.34-.04.53l.56.04-.33-.57.35-.21.61.02v-.05s-.65-1.35-.65-1.35c-.05.03-.09.06-.14.1-.11.08-.2.17-.3.25-.09.09-.17.17-.23.25-.06.08-.12.14-.15.19-.04.05-.06.07-.06.07,0,0,.01-.03.04-.08.03-.05.06-.13.12-.21.06-.09.13-.18.21-.28.09-.09.19-.19.3-.27.05-.04.1-.07.16-.11l-.2-.41.27.37s.08-.04.11-.06c.12-.06.23-.1.32-.13.1-.03.18-.05.24-.06.06,0,.09-.01.09-.01,0,0-.03.01-.09.03-.06.02-.13.05-.22.09-.09.04-.19.09-.3.15-.03.02-.07.04-.1.06l.84,1.15.29-.36.2.19.31-.16.75.05.2-.13s0,0-.01-.01c-.07-.06-.13-.11-.2-.16-.06-.05-.13-.09-.19-.13-.06-.03-.12-.07-.17-.1-.05-.03-.1-.06-.14-.07-.08-.03-.13-.06-.13-.06,0,0,.05,0,.14.01.04,0,.1.02.16.03.06.01.13.04.2.07.07.03.15.06.22.11.08.04.15.1.23.16.02.01.03.03.05.05l.36-.24s-.05-.06-.08-.08c-.06-.06-.12-.11-.19-.16-.06-.05-.13-.1-.19-.14-.13-.08-.26-.16-.37-.21-.11-.05-.21-.09-.28-.11-.07-.02-.11-.04-.11-.04,0,0,.04,0,.11.02.07.01.18.04.3.08.12.04.26.1.4.18.07.04.14.08.21.14.07.05.13.11.2.16.03.03.06.06.1.1l1.01-.68ZM74.43,14.72l1.94-.39,1.94-.41,1.94-.42,1.93-.43.27-.06-.03.27-.2,1.72-.21,1.72c-.07.57-.15,1.15-.22,1.72-.08.57-.15,1.15-.24,1.72.03-.58.06-1.16.1-1.73.04-.58.07-1.15.11-1.73l.13-1.73.12-1.45c-.55.14-1.11.27-1.67.4l-1.94.43c-.65.14-1.3.27-1.95.4-.65.13-1.3.25-1.95.37-1.3.23-2.61.44-3.92.63-.66.09-1.31.18-1.97.26-.66.08-1.31.16-1.97.22l7.78-1.52ZM64.64,9.41c-.95.04-1.89.08-2.84.11,0-.29,0-.58,0-.88.84-.04,1.67-.09,2.51-.14v-2.23c-.83.08-1.67.16-2.5.23,0-.27,0-.54,0-.81.92-.09,1.84-.19,2.76-.3v-2.37c-1.94.31-3.89.57-5.83.8,0,2.65-.01,5.3-.02,7.95,1.98,0,3.95,0,5.93,0,0-.79,0-1.58,0-2.38ZM24.48,11.79c1.09,0,1.9-.19,2.45-.56.55-.37.82-.91.82-1.64,0-1.01-.59-1.66-1.77-1.95.44-.06.78-.23,1.01-.49.23-.26.35-.61.35-1.05,0-.68-.25-1.22-.75-1.65-.5-.43-1.2-.7-2.1-.82-1.39-.18-2.78-.38-4.17-.6,0,2.92,0,5.84,0,8.76,1.39,0,2.79,0,4.18,0ZM24.75,9.13c0,.2-.08.36-.25.47-.15.1-.37.15-.65.15-.03,0-.05,0-.08,0-.18,0-.35-.01-.53-.02,0-.44,0-.88,0-1.33.18,0,.35.02.53.03.65.04.98.27.98.7ZM23.65,5.49c.52.05.78.27.78.65,0,.34-.21.51-.63.51-.05,0-.1,0-.15,0-.14-.01-.28-.02-.42-.03,0-.39,0-.78,0-1.16.14.01.28.03.42.04Z"/><path class="cls-1" d="M42.85,63.29c.01-.27.03-.54.04-.81.86-.05,1.73-.09,2.59-.13.14-.85.28-1.7.42-2.55-.96.03-1.92.07-2.88.12,0-.24.02-.47.03-.7,1.33-.04,2.66-.05,4-.04.22-1.23.45-2.46.68-3.68-3.02.05-6.04.2-9.03.47.12,3.81.23,7.61.34,11.42,2.64-.19,5.3-.3,7.96-.31.09-1.35.18-2.69.28-4.04-1.48.06-2.95.14-4.41.26ZM33.18,59.68c-.88-1.23-1.79-2.44-2.72-3.65-.87,1.44-1.71,2.89-2.51,4.34-.73-1.53-1.48-3.05-2.25-4.57-1.41.75-2.8,1.53-4.17,2.33,2.25,3.62,4.36,7.3,6.31,11.03h0c1.07-1.72,2.19-3.43,3.37-5.12,1.37,1.13,2.71,2.29,4.01,3.47,1.04-3.65,2.19-7.29,3.46-10.91-1.26-.78-2.55-1.54-3.85-2.29-.57,1.78-1.12,3.57-1.64,5.36ZM54.22,58.62c-.94-1.09-1.91-2.16-2.91-3.23-1.28.72-2.54,1.47-3.78,2.23,1.19,1.33,2.34,2.68,3.44,4.05-1.28,1.15-2.53,2.33-3.75,3.52,1.1.99,2.18,2,3.22,3.02,1.01-1.36,2.05-2.71,3.13-4.04,1.01,1.51,1.98,3.02,2.91,4.55,1.07-.87,2.16-1.72,3.28-2.56-1.02-1.39-2.09-2.76-3.19-4.11,1.38-1.04,2.8-2.05,4.24-3.04-1.06-1-2.15-1.99-3.27-2.96-1.13.85-2.24,1.71-3.33,2.58ZM62.65,59.14c-.03.43-.22.83-.52,1.14-.02.02-.03.04-.05.05-.02.03-.04.05-.07.07-.02.02-.04.05-.06.07,0,.01-.02.02-.03.03-.03.03-.06.07-.09.1-.02.03-.04.05-.07.07-.02.02-.04.05-.06.07-.02.02-.04.05-.06.07-.02.02-.04.05-.06.07-.02.02-.04.05-.06.07-.02.03-.04.05-.06.07-.03.03-.06.06-.09.09-.02.02-.03.04-.05.06-.02.03-.05.05-.07.08-.02.02-.04.05-.06.07-.02.02-.04.05-.06.07-.02.02-.04.05-.06.07-.02.03-.04.05-.07.07-.02.02-.04.05-.06.07-.02.03-.04.05-.07.07-.02.02-.04.05-.06.07-.02.03-.04.05-.07.07,0,.01-.02.02-.03.03-.03.04-.06.07-.09.1-.02.02-.04.05-.06.07-.02.02-.04.05-.06.07-.02.02-.04.05-.06.07-.02.02-.04.05-.06.07-.03.03-.05.06-.08.09-.02.02-.04.04-.06.06-.02.03-.04.05-.07.08-.02.02-.04.05-.06.07-.03.03-.05.06-.08.09-.02.02-.04.04-.06.06-.02.02-.04.05-.06.07-.02.02-.04.05-.06.07-.02.03-.04.05-.07.07-.01.01-.05.06-.07.08.53.68,1.05,1.36,1.54,2.04.59.8.43,1.94-.35,2.54-.02.02-.1.08-.12.1-.02.02-.47.38-.49.39-.02.02-.04.03-.06.05-.02.02-.04.03-.06.05-.02.02-.16.13-.18.15-.02.02-.04.03-.06.05-.02.02-.22.18-.24.19-.02.02-.04.04-.07.05-.02.02-.9.72-.9.72-.02.02-.05.04-.07.06-.02.02-.04.03-.06.05-.02.02-.04.03-.06.05l-.05.04s-.05.04-.07.06c-.02.02-.71.57-.73.59-.02.02-.04.03-.06.05-.02.02-.35.28-.37.3-.03.02-.05.04-.08.06-.87.65-1.73,1.33-2.56,2-.33.26-.74.41-1.16.41-.1,0-.21,0-.31-.03-.52-.09-.98-.4-1.25-.85-.29-.48-.59-.97-.9-1.45-.3.39-.6.79-.89,1.18-.32.43-.8.69-1.33.74-.05,0-.1,0-.15,0-.48,0-.94-.19-1.28-.52-.21-.2-.42-.4-.63-.61-.26.14-.55.22-.86.22-2.07,0-4.17.09-6.24.24-.05,0-.09,0-.13,0-.45,0-.89-.17-1.23-.47-.1-.09-.18-.18-.26-.28-.24.39-.61.68-1.06.81-.16.05-.33.07-.5.07-.46,0-.9-.17-1.24-.48-.52-.47-1.06-.95-1.6-1.42-.52.78-1.02,1.56-1.51,2.35-.34.54-.92.87-1.56.87-.02,0-.05,0-.07,0-.45-.02-.87-.2-1.19-.5-.01,0-.11-.1-.13-.12-.03-.02-.06-.05-.09-.08-.02-.01-.03-.03-.05-.04-.02-.02-.04-.04-.06-.06,0,0-.04-.03-.05-.04-.04-.03-.07-.06-.11-.09-.02-.02-.04-.04-.06-.06,0,0-.04-.04-.06-.05-.03-.03-.06-.05-.09-.08-.02-.02-.05-.04-.07-.06-.02-.02-.04-.04-.07-.06,0,0-.05-.04-.06-.05-.02-.02-.05-.04-.07-.07-.03-.03-.07-.06-.1-.09-.01,0-.02-.02-.03-.03-.03-.02-.05-.05-.08-.07-.03-.03-.06-.06-.1-.09,0,0-.1-.09-.12-.11-.03-.03-.07-.06-.1-.09,0,0,0,0-.01,0-.03-.02-.06-.05-.08-.08-.01-.01-.03-.02-.04-.03-.03-.02-.06-.05-.08-.07-.03-.02-.06-.05-.08-.07-.03-.02-.06-.05-.09-.08-.01-.01-.03-.03-.04-.04-.03-.03-.07-.06-.1-.09,0,0-.1-.09-.12-.11-.03-.03-.07-.06-.1-.09-.03-.03-.06-.05-.09-.08,0,0-.02-.02-.03-.02-.03-.03-.07-.06-.1-.09-.02-.02-.04-.04-.07-.06-.04-.03-.07-.06-.11-.1-.16-.14-.29-.31-.39-.51-1.93-3.68-4.03-7.36-6.25-10.91-.26-.42-.34-.93-.22-1.41.12-.48.43-.89.85-1.14,1.38-.81,2.81-1.61,4.23-2.37.26-.14.56-.22.86-.22.19,0,.37.03.55.08.44.14.81.44,1.04.84.02.03.03.05.05.08.02.03.03.06.05.08.02.03.03.05.05.08.02.03.04.06.06.09.02.03.03.05.05.08.02.03.03.05.05.08.02.03.03.05.05.08.02.03.04.06.05.09.02.03.04.06.05.08.02.03.03.05.05.08.02.03.04.06.05.09.02.03.03.05.05.08.02.03.03.06.05.08.02.03.03.06.05.08.02.03.03.05.05.08.02.03.04.06.05.09.02.03.03.05.05.08,0,0,0,0,0,.01.24-.42.49-.83.73-1.23.31-.52.86-.85,1.47-.88.04,0,.07,0,.1,0,.56,0,1.11.27,1.45.71.19.24.37.49.56.73.2-.63.39-1.26.6-1.88.17-.53.56-.95,1.08-1.15.21-.08.44-.13.67-.13.32,0,.63.08.91.24.83.47,1.66.96,2.48,1.45.11-.03.21-.05.32-.06,3.03-.26,6.11-.42,9.16-.47,0,0,.02,0,.03,0,.54,0,1.05.24,1.4.65.04.05.08.11.12.16.39-.23.78-.45,1.17-.67.27-.15.59-.24.9-.24.51,0,.99.21,1.34.58.6.64,1.2,1.3,1.79,1.96.67-.52,1.34-1.03,2.01-1.53.32-.24.7-.36,1.1-.36.44,0,.87.16,1.2.45,1.12.98,2.24,1.99,3.32,3,.41.38.62.92.57,1.48Z"/></g></svg>