<?xml version="1.0" encoding="UTF-8"?>
<svg id="Calque_1" data-name="Calque 1" xmlns="http://www.w3.org/2000/svg" viewBox="0 0 1218.9 601.02">
  <defs>
    <style>
      .cls-1 {
        fill: #fff;
      }
    </style>
  </defs>
  <g>
    <g>
      <path class="cls-1" d="M175.51,489.1l-4.76,7.68h-15.36l33.61-53.77h15.36l4.8,53.77h-15.36l-.65-7.68h-17.63ZM192.29,473.74l-.77-11.52-6.91,11.52h7.68Z"/>
      <path class="cls-1" d="M235.58,469.9l-7.22,26.89-19.47,15.36,18.51-69.13h15.36l12.02,26.89,7.18-26.89,19.47-15.36-18.51,69.13h-15.36l-11.98-26.89Z"/>
      <path class="cls-1" d="M266.77,496.78l14.4-53.77h26.89c15.36,0,20.65,8.96,15.86,26.89-4.81,17.92-14.9,26.89-30.26,26.89h-26.89ZM292.42,458.38l-6.18,23.04h11.52c5.12,0,8.72-3.84,10.79-11.52,2.05-7.68.51-11.52-4.61-11.52h-11.52Z"/>
      <path class="cls-1" d="M380.3,382.58h42.93l-14.38,53.67h53.67l14.38-53.67h42.93l-40.25,150.27h-42.93l14.38-53.67h-53.67l-14.38,53.67-51.52,32.2,48.84-182.47Z"/>
      <path class="cls-1" d="M573.5,382.58l-40.25,150.27h-42.93l40.25-150.27h42.93ZM585.79,326.02c3.83,5.22,4.74,11.55,2.74,19-2.01,7.44-6.32,13.77-12.94,19-6.62,5.22-13.65,7.84-21.09,7.84s-13.08-2.61-16.91-7.84c-3.83-5.22-4.74-11.55-2.74-19,2.01-7.44,6.32-13.77,12.94-19,6.62-5.22,13.65-7.84,21.09-7.84s13.07,2.61,16.9,7.84Z"/>
      <path class="cls-1" d="M658.61,425.51l-28.77,107.33-54.42,42.93,40.25-150.27h-42.93l11.49-42.93h128.8l-11.49,42.93h-42.93Z"/>
    </g>
    <g>
      <path class="cls-1" d="M51.1,575.28c-.05.61-.07.91-.12,1.52,1.05-.11-.3,2.15-.67,2.77-.25.41-.37.62-.61,1.03-.11,2.17-2.65,6.51-4.15,8.79,0,.52.01.77.02,1.29-2.22,3.76-3.32,5.65-5.5,9.47-.19.34-.28.51-.47.85-.37,0,0-2.23.1-2.56.47-1.49,5.71-9.48,5.18-11.25.84-1.34,1.27-2.01,2.12-3.34-.13-.45-.19-.67-.32-1.12,1.75-3.01,2.63-4.5,4.41-7.47ZM148.92,419.21c.96.87,2.42,1.56,3.72,2.12-.15.73-.22,1.09-.37,1.82-1.08,1.6-1.62,2.41-2.7,4.01-.81-.71-1.61-1.41-2.59-1.96-.52,1.38-1.36,2.78-2.19,3.88.19.29.29.43.48.71.52.2.78.31,1.31.51-.27.85-.4,1.27-.67,2.12-.78-.18-1.18-.27-1.96-.45-.19-.28-.29-.43-.49-.71.06.89.09,1.33.15,2.21-.66.76-.99,1.14-1.64,1.9,0,.24,0,.36,0,.59-.46.8-.69,1.21-1.14,2.01.13.34.2.51.34.85-.71,1.06-1.07,1.59-1.78,2.65,0,.7.01,1.05.02,1.74-.64,1.22-.95,1.84-1.58,3.06.19,1.28-.9,3.55-2.01,4.69.01.46.02.69.04,1.14-1.08,1.99-1.82,4.21-3.54,6-.07,2.13-.96,3.95-1.51,5.99-.8.85-1.21,1.27-2.01,2.12-.28.77-.42,1.15-.71,1.92-.12.13-.18.2-.31.33,0,0,.65-.11.34.22-.61.65-1.34,2.02-.64,2.73-.72,1-1.07,1.51-1.79,2.51-.09.57-.13.85-.22,1.42-.82,1.24-1.23,1.87-2.05,3.12.11.47.16.71.26,1.18-.41,1.03-.96,2.22-1.85,3.22.04.42.06.64.1,1.06-.62.4-2.16,1.53-1.29,2.02-.52,1.46-1.52,2.88-2.55,4.05-.13,1.9-.92,3.68-1.52,5.54-.83.83-1.24,1.25-2.07,2.09-.16,1.37-1.86,3.63-2.87,4.82-.04.93-.55,2.11-1.26,2.96-.36.31-.53.46-.89.77-.21.84-.11,1.59-.67,2.28-.07.44-.1.65-.17,1.09.89.39-.84,2.18-1.26,2.7.05.3.07.45.11.74-.56.68-1.94,1.48-.86,1.93-.83,1.48-1.25,2.23-2.07,3.71-.15,1.12-.22,1.68-.36,2.79.22.31-.33,1-.61,1.34-.7.99-1.05,1.48-1.74,2.47-.15.66-.22.99-.37,1.64-.76.96-1.15,1.45-1.91,2.42-.29.96-.44,1.44-.72,2.39-.56.6-.84.9-1.39,1.51-.25.79-.37,1.19-.62,1.98-1.61,2.09-2.13,3.66-3.54,5.83.37.11-.03.63-.16.81-.8,1.06-2.33,2.69-2.25,3.01.06.21-1.34,3.89-1.99,4.78-3.26,4.46-6.96,9.08-10.5,13.63.74.13.6.93.04,1.45-.14.8-.58,1.75-1.08,2.49-.38.55-.81.9-1.37.81-.37-.06-.8-.33-1.3.42-.25.37-.58,2.38-1.32,2.28-.55-.08-1.04-.56-1.29-.81.7-1.06,1.05-1.58,1.75-2.64.21-.8.31-1.2.52-2,1.57-2.04-.97-1-.08-2.32.76-1.13,2.46-2.71,3.41-3.79.48-1.68.73-2.52,1.23-4.2-.24-.14-.36-.21-.61-.35.43-.5.65-.76,1.09-1.26-.21-.91,3.75-6.96,3.89-7.92.04-.3.42-1.2.82-1.75-1.46-.39.01-1.53-.53-1.68-.71,3.11-5.71,9.29-5.28,11.11-.26.37-1.09,1.27-.98,1.72-.7.71-5.7,8.71-4.04,9-2.59,3.56-3.42,6.99-5.77,10.64,1.42.59-.99,3.39-1.91,4.53.68-.13-.3,1.41-.42,1.6-.49.77-.97,1.54-.36,1.8-3.3,5.74-4.92,8.64-8.11,14.51.18,0,.44.21.32.4-.35.59-1.45,1.18-2.01,1.17-.37,0-.32-.41-.09-.81.66-1.12.99-1.67,1.65-2.78-1.11-.03,3.1-7.98,3.56-10,.12-.2,1.16-1.56.78-1.59-.56-.05-1.72.9-2.46.84-.18-.01-.25-.23-.31-.44,2.49-3.76,5.5-9.48,6.08-13.23.52-.69.79-1.04,1.31-1.73.41-1.39.61-2.08,1.03-3.48-.22-.29-.33-.44-.54-.73.94-1.14,1.46-2.56,2.04-3.76.36.72.7-.74.51-.78-.57-.02-.85-.03-1.41-.04,4.19-5.12,2.59-2.98,3.61-7.63,1.43-2.12,1.11-5.1,2.43-7.02-.09-.11-.14-.17-.24-.28-.18-.05-2.08,2.42-2.47,3,1.65.39-1.9,4.72-.98,4.92-.78,1.16-1.34,2.48-1.38,3.03-.25,3.23-3.09,4.71-4.09,9.1-1,.79-1.5,1.19-2.49,2-.82,1.61.47,1.8-.4,3.19-.37.59-1.8,1.91-2.36,2.49-1.8,1.93,3.44-.5-2.1,5.33.06.22.31.46.07.86-.3-.03-.45-.04-.74-.07-1.1,1.81-2.82,3.37-3.91,5.21-.08-.52-.12-.78-.2-1.3.37-.62,1.76-3.28,1.21-3.33.74-.96,1.11-1.45,1.85-2.4.98-2.27,2.23-4.93,2.74-7.04-.3-.04-.44-.06-.74-.1-.37-.05-1.05.08-1.43.69-1.42.03-1.18,1.6-2.48,1.44-.8,1.31-1.19,1.97-1.99,3.29-.32-.39-.48-.58-.8-.97,1.11-1.86-1.93.88.69-3.47-.05-.45-.07-.68-.11-1.13.32-.85.82-1.68.95-2.56,1.19-1.63-.1-1.82.53-2.86,1.77-2.89,1.48-6.38,3.68-9.87-.29-.06-.44-.09-.74-.15.26-.41,2.21-3.49,1.48-3.65.13-.2,1.1-1.39.55-1.51.47-.74.71-1.11,1.18-1.84-.06-.29-.09-.44-.16-.74.42-.65.63-.98,1.06-1.63-.17-.13-.25-.2-.42-.33.75-1.47-1.34-.56-.4-1.99-.25-1.25,1.31-3.96,1.75-5.29.72-.77,1.31-1.33,2.26-1.79.07-.75.1-1.13.17-1.88-.68.05-.6-.41-.19-1.02.24-.22.36-.34.59-.56-.18-.05-1.28-.37-.87-.98.14-.2.82-.24,1.14-.4,1.41-1.77,1.28-3.52,2.52-5.33-.68-.95,1.07-2.86,1.77-3.86-.22-.07-.33-.11-.54-.18.28-.4.97-1.41.43-1.59.7-1.01.58-1.8,1-2.4.11-.16.17-.24.28-.4.2-.93.3-1.4.5-2.33-.12-.35-.18-.52-.3-.86.57-.81.45-1.61.84-2.48-.11-.81.42-1.88.81-2.75.42-.45.62-.68,1.04-1.13.1-.27.15-.4.25-.67-.17-.27-.26-.41-.43-.69.47-.53.71-.8,1.19-1.33l-.54-.22c.19-.65.28-.97.47-1.62-.36-.15-.57-.5-.43-.7.14-.2.47-.33.47-.33,1.06-3.72,2.96-9.51,4.29-11.3-.21-.1-.32-.15-.53-.25,2.5-5.28,2.71-10.36,5.51-15.57.51-.4.76-.6,1.27-1,.1-.39.16-.58.26-.97-.16-.31-.23-.46-.39-.77.62-.67.94-1.01,1.56-1.68.05-1.21.08-1.81.13-3.03.58-1.38,3.08-4.52,1.55-4.82.45-.43.67-.65,1.11-1.08.25-.43.37-.65.61-1.08-.24-.72-.36-1.08-.6-1.8.11-1.1,2.26-1.85,3.05-2.82-.14-.2-.21-.31-.36-.51.25-1.89,1.53-4.03,1.95-5.55.37-1.3,1.39-3.58,2.01-5.27-.08-.41-.11-.62-.19-1.03.59-.7.88-1.05,1.47-1.75.14-1.42.45-2.74,1.26-4.02-.27-.19-.41-.28-.68-.47,1.25-1.85,1.87-2.77,3.13-4.61.06-1.08.09-1.62.15-2.7.33-.39.5-.58.84-.97-.13-.35-.2-.52-.33-.87.53-.74.8-1.12,1.34-1.86-.2-.78-.3-1.17-.49-1.95,1.69-2.89,3.24-6.21,2.97-9.37.87-1.61,1.58-3.35,1.96-5.03-.13-.11-.2-.16-.33-.27.71-1.42,1.1-3.11.98-4.56.86-.64,2.69-4.53,2.91-5.72-.1-.77-.15-1.16-.25-1.93.74-1.43,1.02-3.62.93-5.1-.5-.72-.76-1.08-1.26-1.8.4-1.06.59-1.59,1-2.66.5-.41.75-.61,1.24-1.02-.07-1.06-.1-1.59-.17-2.66.15-.16.22-.23.36-.39-.89-1.89-1.22-6.93-1.23-9.14.66-.71,1-1.06,1.67-1.77.01-1.03.02-1.54.04-2.58-.48-.45-.76-1.1-1.08-1.4.09-.22.13-.33.22-.55-2.14-.92-4.71-.72-6.89-1.25-1.82,1.32-3.76,2.17-5.41,3.67-7.25,3.16-13.71,7.98-21.06,10.82-.73.88-1.1,1.32-1.83,2.2-.88.39-1.77,1.14-2.66,1.9-.83.08-1.24.11-2.07.19-.07.09-.11.13-.18.22-.91.31-1.36.47-2.27.79-.03-.76-.05-1.14-.08-1.9.9-.77,2.14-1.63,3.18-1.9,1.1-1.34,1.65-2,2.75-3.33-.22-.93-.33-1.39-.55-2.32-.71.46-1.07.69-1.78,1.16-1.19,1.58-1.78,2.37-2.96,3.95-2.44.66-5.04,1.21-7.47,1.56-1,.86-1.51,1.29-2.51,2.16-4.19,1.26-6.57,4.69-9.94,7.77-.41,0-.62,0-1.03,0,.13.38.19.57.31.95.92-.66,1.38-.99,2.29-1.65,1.04-.27,1.56-.41,2.61-.68.22-.28.32-.42.54-.7.78-.6,1.17-.9,1.95-1.5.66-.98.99-1.47,1.65-2.45,1.26-.39,1.88-.58,3.14-.95.66-.97.99-1.46,1.66-2.43.74.42,1.1.63,1.84,1.06.07.05.1.08.17.13-.93.76-1.39,1.14-2.32,1.9.52.69.78,1.04,1.3,1.72-.09.38-.13.56-.21.94-1.07,1.02-5.12,3.82-5.5,4.64-.82-.02-1.23-.03-2.06-.05-.5.65-.75.98-1.26,1.63-1.94,1.51-4.19,2.43-6.12,3.63.02-1.07.41-2.61.1-3.57-2.11,1.43-3.72,3.59-5.65,5.53-.36.48-.89,1.56-1.08,2.16-1.22.63-3.3,1.41-4.18,2.27-.9.27-1.35.41-2.25.69-.15.91-.23,1.37-.37,2.28-1.18.39-1.77.59-2.95.99-.48-.45-.72-.67-1.2-1.12-1.72-.02-3.63.23-5.54.85-.14-.09-.21-.13-.34-.22.41.69.61,1.04,1.02,1.72,1.04-.51,1.56-.76,2.6-1.26.62.39.93.58,1.54.97-2.42.64-4.85,2.37-7.45,3.32-1.38.24-3.29-.18-4.15-1.07-.77.7-1.15,1.05-1.91,1.76-1.38-.46-3.12-.4-4.86.04-.76-.3-1.14-.45-1.91-.75-.17-.47-1.04.86-1.22,1.12-.56-.32-.83-.48-1.39-.81-.87-2.34-1.36-5.63-3.79-6.32-.27-.91-.41-1.37-.67-2.29-.53.07-1.19-1.85-1.36-2.33.44-1.26.65-1.89,1.09-3.15.07-.11.11-.16.18-.27-.49,0-.73,0-1.22.02.15-.82.23-1.24.39-2.06-.27-.63-.4-.94-.67-1.57.39-1.69.79-3.77.66-5.41-.53-.96-.8-1.45-1.33-2.42.77-2.34,1.16-3.51,1.94-5.86-.44-2.28-1.36-5.7.9-9.02-.36-3.49.87-7.13,2.33-11.05-.14.06-.22.09-.36.15,1.36-5.24,2.79-10.9,4.41-16.06.8-1.27,1.2-1.9,2-3.16.31-1.3.47-1.95.79-3.26.56-.42,1.7-3.41,1.93-4.09.07-.81.1-1.22.18-2.03,5.44-9.58,7.41-15,11.22-24.86,1.17-1.52,1.76-2.27,2.93-3.78.31-1.38.47-2.06.78-3.44,1.21-1.2,2.17-3.1,2.92-4.74,1.06-1.06,1.6-1.58,2.66-2.64.28-1.05.43-1.57.71-2.62.74-.23,1.12-.34,1.86-.57,1.07-1.32,2.84-6.26,4.43-8.53,11.06-16.84,24.97-32.28,37.87-47.89.27.12.4.18.67.3,4.22-5.46,9.08-10.12,13.43-15.48,5.33-4.7,8.02-7.01,13.42-11.56,3.39-3.26,6.42-6.46,9.74-9.23-.07.85-.11,1.27-.17,2.12-1.22,1.14-2.61,2.9-3.25,4.03-2.68,4.74-9.83,9.08-13.05,15.88-1.16.88-1.74,1.32-2.89,2.21.34.46.5.68.84,1.14-.31.7-.46,1.05-.76,1.75-.75.09-1.13.14-1.88.24-.9,1.56-1.89,3.55-2.25,5.24-.47.47-.7.71-1.17,1.19-.35,1.28-.52,1.92-.87,3.2.66.64,1,.96,1.66,1.61,1.02-1.04,1.53-1.56,2.56-2.59.17.22.26.34.43.56.88-.36,1.32-.53,2.2-.89-.5,1.29-.75,1.93-1.24,3.22-1.02,1.03-1.53,1.54-2.54,2.58-2.08,2.11-3.63,4.37-5.69,6.51.26.53.38.79.64,1.32.63-.26.95-.38,1.58-.64,1-1.36,2.6-3,3.75-4.17-.15,1.08-.23,1.61-.37,2.69-.86,1.54-2.08,3.12-3.59,4.35-.62,1.3-.93,1.95-1.54,3.25.45-.07.67-.1,1.11-.17,3.25-3.7,6.19-8.35,10.22-11.06,1.34-.36,2.92-.94,4.18-.88.81-1.06,1.21-1.59,2.02-2.65.89-.09,1.34-.13,2.23-.22-.2,1.24-.3,1.86-.49,3.09.32.21.47.32.79.53,1.15-1.12,2.16-2.43,3.18-3.74,1.09-.66,1.64-.99,2.74-1.65-.43.93-.64,1.39-1.07,2.32-.78,1.08-1.79,2.38-2.72,3.27-3.68,3.57-7.78,8.04-8.96,10.79-.25.58-1.23,2.55-1.25,3.55.34-.6.5-.9.84-1.5,1.04-.52,1.56-.78,2.6-1.29.09-.09.14-.14.23-.23-.41.93-.61,1.39-1.01,2.31-2.19,2.84-4.96,5.97-7.62,8.71-3.56,3.66-5.16,10.61-8.64,14.31-.26.28-.39.42-.65.69-.42,1.25-.64,1.87-1.05,3.11-1.01,1.34-1.51,2.02-2.51,3.36-.1.64-.16.97-.26,1.61-1.01.96-1.51,1.44-2.51,2.4-.5.95-.75,1.42-1.25,2.37-2.13,2.35-3.85,5.6-5.96,7.97-.84.95-2.05,1.98-3.04,2.77-1.02,2.77-1.52,4.16-2.52,6.92-.83.42-1.25.63-2.08,1.06-.02.69-.03,1.04-.04,1.74.56.02.84.03,1.4.06-1.24,1.44-2.68,3.12-3.75,4.72-.87.21-1.31.32-2.18.54.32.3.47.46.79.76.62.07.93.11,1.56.19-.71,1.51-1.41,3.01-2.63,4.46-.56,1.2-.84,1.81-1.39,3.01-1.37,1.31-2.38,2.53-3.58,3.99.27,2.39-1.36,4.72-3.15,6.92.25,1.06.37,1.59.62,2.65.9.12,1.34.18,2.24.31,2.62-1.85,4.52-3.48,6.51-5.87.49-.05.74-.08,1.24-.13,1.47-.75,3.15-1.72,4.66-2.83,1.13-.12,1.7-.18,2.82-.29.05-1.13.08-1.7.14-2.84l-.16-.15c.9-.51,1.34-.76,2.24-1.26.79.43,1.18.64,1.97,1.07,1.82-1.29,2.74-1.94,4.57-3.21.62-1.1.93-1.65,1.56-2.75.98-.57,1.47-.85,2.45-1.41.35.53.53.8.88,1.33.98-.56,1.47-.83,2.44-1.39.08-.09.12-.14.21-.23,1.08-.27,1.62-.4,2.7-.66.06.06.09.1.15.16.08-1.13.12-1.7.2-2.84.16-.18.25-.27.41-.44.92-.08,1.38-.12,2.3-.19.33.17.49.26.81.43,3.22-.52,3.88-1.54,6.5-3.97.46.5.91,1,1.42,1.12.73-.25,1.1-.37,1.83-.62.9-.94,1.36-1.41,2.27-2.35.93.34,1.4.5,2.33.84.82-.84,1.8-1.51,2.62-2.35,1.09.18,1.64.27,2.73.46.06.07.09.1.15.17.85-.98,1.27-1.47,2.12-2.45,1.16.45,2.87.68,4.29.56,1.2-.55,1.81-.81,3.01-1.35,5.67-.41,14.69-4.1,18.67-.83.08-.08.12-.11.21-.19.59.21.89.32,1.48.54-.09-.3-.13-.44-.22-.74,1.2-.46,1.8-.69,2.99-1.14.79.67,1.19,1,1.98,1.67.32.97.48,1.45.8,2.41-.54.74-.82,1.1-1.36,1.84,1.31.07,1.97.11,3.28.2,1.49,1.49,2.73,4.43,5.47,3.58.29.74.44,1.11.73,1.85,1.87.23,3.87.67,5.47,1.47-.17,1.01-.26,1.52-.42,2.52.77.57,2.24,2.09,1.18,3.3.74.1,1.11.16,1.85.27.12,4.51,2.26,7.3,2.25,11.88.75.47,1.13.7,1.87,1.17,1.63,5.03,2.24,7.86,3.21,13.08-.13.47-.2.71-.33,1.18-1.05.27-2.1.55-3.3.66.14.97.21,1.45.36,2.42-.28.84-.62,3.54-1.18,4.02-.38.32-.57.48-1.05.29.47.56.7.85,1.17,1.41.48-.04.72-.07,1.19-.11.54-1.66.46-3.71,1.98-4.98.38-.32.9-.45,1.38-.25-.64,2.82-.95,4.23-1.56,7.02-5.63,3.54-3.57,3.01-6.28,8.07-.56.25-.84.37-1.4.62-.12-.74-.18-1.1-.31-1.84-.46-.08-.69-.12-1.15-.2-.53,1.79-.79,2.68-1.3,4.46.7,1.07,1.04,1.61,1.74,2.68.57-1.1.86-1.66,1.44-2.76.12.14.18.2.3.34.45.51,1.32,1.86.4,2.65-.55.48-1.58.77-2.09.93.48.54.72.81,1.21,1.34-.51.44-.76.67-1.27,1.11-.29.97-.43,1.46-.72,2.43-.6.77-.9,1.15-1.5,1.93-.19,2.2-.28,3.3-.44,5.48.71.2,1.07.3,1.78.5,1.38-.75,2.08-1.12,3.46-1.85-.47.89-.7,1.33-1.17,2.22-1.04.61-1.93,1.4-2.94,1.71-.18.64-.27.95-.45,1.59-.93,0-1.39-.01-2.32-.01-.27,1.43-.06,3.34.52,4.6-.67.13-1,.19-1.67.32-.76,1.58-2.02,3.32-3.41,4.6.23.62.35.93.58,1.55-.27,1.32-.4,1.97-.66,3.28.6-.08.9-.11,1.49-.18-.05,1.12-.08,1.67-.13,2.78-1.08.64-1.62.96-2.7,1.61-.55,1.4-1.09,2.8-1.79,4.04-.05-.43-.08-.64-.13-1.07-.91-.33-1.36-.5-2.27-.82.04-1.23.42-2.49,1.45-3.45.18-1.24.28-1.87.46-3.12.84-1.15,1.27-1.72,2.12-2.87-.27-1.24-.27-4.23.47-5.51-.71-.3-1.07-.45-1.78-.75-.52.96-.78,1.45-1.3,2.41-.06,1.01-.08,1.52-.13,2.52.13,0,.2,0,.33-.01-1.22,1.14-2.6,2.45-3.65,3.75.75-.47,1.12-.71,1.87-1.18.09,1,.13,1.5.22,2.49-1.07,1.91-1.98,3.96-3.19,5.73.04.92.05,1.38.09,2.3-1.19,1.14-1.72,2.56-1.09,4.04.73-.35,1.1-.53,1.83-.87.19-1.08.22-2.3.75-3.4,1.58-.08,2.37-.12,3.96-.18-.36.93-.88,1.71-1.39,2.5ZM51.18,586.95c.37.02.44.24.2.65-.24.41-.97,1-1.34.98-.19-.01.05-.42.05-.42.44-.48.66-.72,1.09-1.21ZM51.54,586.34c0-.51-.01-.76-.02-1.28.25.23.38.66.02,1.28ZM52.13,584.04c-.24.41-.36.61-.61,1.02.05-.42.3-.83.61-1.02ZM65.29,574.78c.25-.39.56-1.19,0-1.25-.59.93-.89,1.4-1.48,2.33.59-.43.89-.65,1.48-1.08ZM56.83,562.98c.07.01.11.02.19.03-1.58,2.2-.85,2.99-1.86,4.62-.13.2-1.26,2.04-.89,2.09.19.03.81-.99.81-.99.75-1.22,1.13-1.83,1.89-3.05.13-.6.2-.9.33-1.51.38-.61.52-1.48-.22-1.6-.1.16-.15.24-.25.41ZM58.63,566.59c.25-.4.5-.8.13-.86-.65.78-.98,1.17-1.63,1.96.55.08,1.12-.5,1.49-1.1ZM75.77,566.5c.5-.74,4.05-5.92,2.89-6.35-.87,1.26-1.3,1.89-2.16,3.15,1.35.45-1.89,2.8-.73,3.2ZM59.07,559.1c.26-.4-.11-.47-.3-.51-.28.31-.42.46-.7.77.19.03.68-.1.99-.27ZM62.2,559.67c.37.07,1.64-1.25.71-1.43-.13.2-1.08,1.36-.71,1.43ZM63.8,555.28c-.26.39-.33.83-.09,1.1.04-.44.06-.66.09-1.1ZM78.8,559.34c.37.07.84-1.52,1.09-1.88-.51.74-.77,1.11-1.28,1.85.07.01.11.02.19.04ZM76.97,533.98c-.18-.05-1,.17-.95.41-.12.8-.18,1.2-.3,1.99.05-.08.08-.12.14-.19.54-.77.09.49-.04.68-3.09,4.41-.46,2.84-1.61,4.81-.06.71-.09,1.07-.15,1.77,2.02-3.55,3.79-6.04,3.75-7.85,0-.15-.14-.73.13-1.11.16-.23.24-.34.41-.57.31-.55.46-.83.76-1.38-.26-.26-.38-.4-.64-.66-.49-.06-.74-.09-1.23-.15-.16.23-.24.34-.41.57.06.67.09,1,.15,1.67ZM84.61,534.45c.07.02.11.03.18.06.18.05.68-.02.82-.2.27-.37.35-.79,0-.9-.13.05-.19.08-.32.13-.27.37-.41.55-.67.92ZM81.6,527.52c-.18-.06-2.09-.22-1.81-.6.27-.38.91-.64,1.23-.77.34.02.52.03.86.05-.4-1.31.29-2.25.08-3.51.19-.88.2-1.83.21-2.78l-.32.12c-.35,1.22-.52,1.83-.86,3.04-.27.38-.83,1.14-.42,1.51-.65,1.2-1.38,1.9-1.02,2.96-.36.82-.87,1.83-1.41,2.59.62,0,.93.01,1.54.02.67-.81,1.01-1.22,1.68-2.02.09-.25.14-.38.23-.63ZM86.81,529.01c.09.49-.27,1.28-.5,1.89.09.12.14.18.23.3.54.17,1.09-.56,1.36-.92,0-.73,0-1.09,0-1.83-.44.22-.65.33-1.09.55ZM82.6,518.4c.26-.1.38-.15.64-.24.14-.19.1-.44-.08-.51-.22.3-.33.45-.56.76ZM84.19,512.21c-.36-.14-.54-.21-.75-.54-.31,1.35-.62,2.7-.74,4.11.66-1.2,1.15-2.48,1.49-3.56ZM93.12,489.47c.06-.07.09-.11.15-.18.07.03.11.05.18.09.06-.08.09-.11.15-.19.15-.18.12-.46-.06-.54-.07-.04-.11-.05-.18-.09-.05.18-.07.28-.12.46-.01-.11-.02-.16-.03-.27-.19.11-.28.17-.47.29.01.11.02.16.03.27.13-.04.2-.06.33-.1-.06.07-.09.11-.15.19.07.03.11.05.18.09ZM93.24,489.01c-.06.08-.09.11-.15.19l.18.09c-.18-.09-.03-.27-.03-.27ZM98.57,478.1c-.23-.34-.34-.51-.57-.85-.26.93-1.19,1.76-.62,2.6.28-.65.73-1.2,1.18-1.76ZM11.76,413.46c.83.2,1.25.3,2.08.5-.07-.77-.1-1.16-.16-1.93-1.04.25-1.56.38-2.6.65-.83-.49-1.25-.74-2.08-1.24,0-1.11-.16-1.95-.85-2.36-.14-.08-.21-.12-.35-.21-.43,1.23-.64,1.85-1.06,3.08.87.14,1.56,1.29,2.07,1.96.9.09,1.35.13,2.26.23.28-.28.42-.41.7-.69ZM10.95,406.31c.91-.34,1.36-.51,2.27-.84-.34-.51-.51-.76-.85-1.27-.57.85-.85,1.27-1.42,2.12ZM14.77,406.42c.62.53.93.79,1.54,1.32.63-.2.94-.3,1.57-.51-.62-.68-.92-1.02-1.54-1.7-.63.35-.94.53-1.57.88ZM103.26,461.39c1.22.42,1.83.63,3.05,1.05.06-.07.09-.11.16-.18,1.24-.46,1.86-.68,3.09-1.12-.03-.58-.04-.86-.07-1.44-.83.59-1.25.88-2.08,1.48-.29-.52-.44-.78-.73-1.3.09-1.34.53-2.76.3-4.04-.94,1.21-1.41,1.82-2.35,3.04-.02.89-.03,1.33-.05,2.22-.52.12-.79.18-1.31.31ZM19.11,406.52c.9.27,1.35.4,2.24.67.41.55.61.83,1.02,1.37-.33-1.23-.5-1.85-.83-3.09-.48-.3-.72-.46-1.2-.76-.5.72-.74,1.08-1.24,1.81ZM24.84,404.99c.34.66.5.98.84,1.64,1.23-1.41,2.98-2.85,4.56-3.65-.76-.06-1.14-.08-1.9-.14-.63.32-.94.49-1.57.82-.48-.31-.72-.46-1.2-.77-1.05.36-1.57.54-2.62.91.75.48,1.13.72,1.89,1.21ZM45.6,395.46c-.56.19-.84.29-1.39.49-.76-.09-1.13-.13-1.89-.22-.44.87-.66,1.31-1.1,2.18-1.39.5-2.78.66-3.85,2.13-.69.12-1.04.18-1.73.3-.88.88-1.59,1.5-2.3,2.5-.36.5-.53.75-.89,1.24-.09,1.11-.13,1.66-.22,2.77.97-.39,1.46-.58,2.43-.96.08-.82.12-1.22.21-2.04,1.22-.65,2.8-1.78,4.03-2.77,2.09-.78,4.18-1.88,5.61-3.81.54-.72.9-1.2,1.09-1.8ZM30.3,400.07c1.36.9,3.45.09,4.88-1.89-.69-.1-1.54-.67-2.41-.52-.99.96-1.49,1.44-2.48,2.41ZM108.82,446.65c.49.68.73,1.02,1.21,1.7.33-.13.49-.19.82-.31.11-.62.17-.93.29-1.55.39-.43.58-.65.97-1.08-.67-.23-1-.35-1.67-.58-.05.55-.08.83-.13,1.38-.59.18-.89.27-1.48.45ZM130.14,452.42c.45-.12.68-.18,1.14-.3-.01-.46-.02-.69-.04-1.15.78-1.4,1.24-2.76,1.69-4.12.06-.07.1-.1.16-.16.37-.86.56-1.29.94-2.15-2.42,2.47-2.35,5.08-3.89,7.89ZM46.31,390.05c.93-.82,1.39-1.22,2.32-2.03-.06-.19-.09-.29-.15-.48-.8.91-1.19,1.36-1.99,2.28-.07.1-.11.14-.18.24ZM71.22,376.74c-.26-.22-.39-.32-.66-.54-.58.58-.88.87-1.46,1.45-1.42.73-2.84,1.47-4.39,1.72.39.46.58.69.97,1.15,1.32,1.05,3.47-.6,5.07-1.54.19-.89.28-1.34.48-2.24ZM139.7,429.92c.93-1.88,1.41-2.82,2.36-4.7-1.01,1.28-2.84,3.09-2.36,4.7ZM49.15,345.17c.07.06.1.08.16.14,1.74,0,2.62.01,4.36.04-.97-.84-1.46-1.27-2.43-2.11-.84.77-1.26,1.16-2.09,1.93ZM91.1,366.98c.82-.79,1.22-1.18,2.04-1.97.13.12.19.18.32.29.95-.67,1.42-1,2.36-1.66,1.4-.39,2.11-.58,3.51-.95-.92-.41-1.39-.61-2.31-1.02-2.66.98-4.87,2.8-7.53,3.85.64.58.96.87,1.6,1.45ZM154.12,411.69c.24.61.36.91.6,1.52-.22,1.38-.76,2.77-1.46,4.01-.73.2-1.09.31-1.82.51.54-1.39,1.24-2.63.79-4,.76-.82,1.13-1.23,1.89-2.05ZM106.56,364.19c-1.48-.65-3.37-.55-5.29-.06.02.63.02.94.04,1.56,1.17.34,9.06-.13,10.85-1.05.17-.44.26-.66.44-1.09-2.16-.59-3.77.14-6.03.64ZM153.79,396.21c.44.44.65.66,1.09,1.1.37-.58.55-.86.92-1.44-.8.13-1.21.2-2.01.34ZM154.43,391.73c.33.9.5,1.34.84,2.23,1.24-1.13,2.17-2.56,2.14-4.33.41-.97.87-2.57.28-3.55-.15-1.43-.22-2.14-.36-3.58,1.17-1.95,1.53-4.08,2.72-6.03-.04-.92-.06-1.39-.1-2.31-.82.12-1.22.18-2.04.3-.48.79-.72,1.18-1.19,1.97.37.99.56,1.49.94,2.48-.58.52-.87.78-1.45,1.3-1.42,2.78-1.3,5.38-3.21,8.64.18.32.26.48.44.8.46.48,1.13.47,1.82.14-.32.77-.49,1.16-.81,1.93ZM63.02,288.39c.14.52.2.78.34,1.3,2.91-4.02,7.21-7.5,8.54-12.33-3.06,3.4-6.02,7.41-8.88,11.03ZM163.76,381.31c.59.8.89,1.2,1.48,1.99-.6,1.12-1.2,2.23-2.12,3.34-.02-1.78.3-3.55.63-5.33ZM76.75,274.02c.09-.1.13-.15.22-.24-.24-.67-.37-1-.61-1.67-.49,1.21-.74,1.81-1.23,3.02.65-.44.97-.66,1.62-1.11ZM160.41,342.15c-.47-.08-.7-.13-1.16-.21.15.35.23.53.39.88-1.5,4.68,1.34,8.91-.07,13.49,1.1-.11,1.64-.16,2.74-.26-1.22,1.67-2.59,3.17-3.49,5.18.44.82.67,1.23,1.11,2.05,1.33-1.66,2-2.49,3.35-4.14-.1-.28-.15-.41-.25-.69.18-.4.28-.6.46-1-.05-.69-.08-1.03-.13-1.71.55-1.69.58-3.23-.25-4.64.94-2.52,1.42-3.78,2.38-6.31-.1-.77-.14-1.16-.24-1.93-.6-.1-.9-.14-1.5-.24-.62-.45-.93-.67-1.54-1.11,0-1.47,0-2.21.02-3.69-.96-.88-1.45-1.32-2.41-2.2-.38.7-.56,1.04-.94,1.74,1.11.56,2.23,1.13,3.29,2.05-.71,1.1-1.06,1.65-1.76,2.75ZM84.93,257.58c-2.48,2.62-4.13,5.71-6.58,8.36.06.47.09.71.15,1.17.37-.07.89-.96.59-1.31.92-1.13,1.38-1.69,2.31-2.81.09-.09.13-.14.22-.24.03.23.04.35.07.59,1.78-1.91,3.81-4.04,4.14-6.71-.36.38-.54.57-.9.95ZM94.8,252.29c.68-.7,1.74-1.44,2.65-2.37-1.03.78-1.54,1.17-2.56,1.95-.03.17-.05.25-.09.42ZM159.97,320.39c-.2.18-.35-.01-.55.16.2-.17.34.01.55-.16ZM153.55,310.15c1.39.03,3.27.26,4.11,1.39-.82.34-1.24.52-2.06.86-.82-.9-1.23-1.35-2.05-2.25ZM165.54,321.18c1.19,1.15,2.58,2.14,3.7,3.64.56.76,1.07,1.87,1.03,3.12-1.3-.44-2.6-.88-3.45-2-.52-1.9-.77-2.85-1.28-4.76Z"/>
      <path class="cls-1" d="M215.78,238.83c.69-.47,1.27.67,1.96.2.46-.31,0-1.23-.12-1.46-.46.31-.92.63-1.15.17-1.05-2.07.13-5.82,0-7.43-.07-.77.24-2.03-.22-2.96,1.41-2.83-1.14-4.19-.06-6.49.02-1.25-.31-2.58-.53-3.68-.26,1.55-.39,2.32-.64,3.86-1,1.31-1.5,1.96-2.49,3.27-2.79-2.42,1.17,15.32,1.53,16s1.4,2.12.26,2.91c-.03,1.14-.05,1.7-.08,2.83-.44.93-1.53,4.15-1.18,4.83q.12.22.35.07c2.03-1.41-.74,2.67-.84,3.05.42.57.64.85,1.06,1.42-.89.62-.53,1.29-.17,1.97.14.27.22.4.36.67-.81,3.64-2.03,15.22-.44,18.09.12.22,1.05.8,1.26.65.21-.15-.15-.81-.15-.81.87-.6,2.84-1.35,2.33-2.83,1.14-.54,1.71-.81,2.85-1.34.29-1.11.15-1.93-.33-2.83.18-1.22.27-1.84.46-3.06-1.02-.23-2.39-1.13-.85-2.18-.88-.75-1.32-1.13-2.19-1.87-.19,1.24-.28,1.85-.47,3.08.12.22.36.67.14.82-.66.45-2.04.33-2.36.1-1.06-.79.81-5.06.81-6.39,0-1.15.69-3.86.43-5.52.43-.92.41-2.13-.06-3.04,1.58-1.09-.95-1.82,1.32-3.37-.7-1.37-1.4-1.51.42-2.76,1.49.52,3.11,1.9,3.81,3.27.1.92.15,1.38.25,2.29,1.05,2.06-.16,4.41.56,6.38-.03.88-.04,1.32-.07,2.19.47.91-.18,1.96.29,2.87-.18,1.95-.45,4.28-.95,6.14.24.45,1.43,9.16,1.46,9.39.13,1.12.1,2.37.71,3.48-.1,2.62-.15,3.93-.23,6.53,1.22,2.22.48,4.82.45,6.06-.01.57.02,2.1.51,2.98-.28,1.15-.41,1.72-.68,2.87.29,1.13.44,1.69.74,2.82-.2.86-.3,1.28-.5,2.14.3,2.33.46,3.48.77,5.8-.81.54-1.55.74-2.06-.12-.3-.52-.45-.78-.75-1.29,1.43-.97-.8-1.87.64-2.84-.91-2.09.12-4.29-1-6.26.83-.56.42-1.79.05-2.45-.12-.22-.49-.87-.7-.73-.21.14-.43,4.82-.51,5.18.37.65.58,2.02-.24,2.58-.41.28-.66-.15-.92-.58-.05-.09-.07-.13-.12-.21.02,4.51.3,6.42,2.17,10.55-.94.34,1.2,16.64,1.39,18.15.09.71-.47,3.28.05,4.12.52.84,1.95-.42,2.53-.81.78-.52,1.04-.99.53-1.83,1.17-.78,2.73-.92,1.58-2.83.52.13.78.2,1.3.33.29-.07.43-.1.72-.17-.13-.21,3.73-4.79,3.93-4.92,1.19-.76,1.71-.8,1.89-2.39,2.79-1.77,7.42-5.01,7.91-6.14.14-.32.53-1.51,1.13-1.88,6.37-5.09,11.5-9.58,17.12-14.85.83-.23,1.25-.35,2.08-.58.19-.7.69-1.88,1.31-2.23.21-.12.64.25.75.49,3.69-3.85,11.34-5.24,14.2-10.03.63.27,1.36.79,1.99.47.42-.22.21-.71.11-.96,1.16-.9,2.54-1.9,3.61-3.04.61,1.5,2.24-1.42,2.56-1.89.94.43,2.3.66,1.6-1.1,1.1-.31,1.65-.46,2.76-.75.52-.5.78-.74,1.3-1.24.47-.11.7-.16,1.17-.27.62.3,2.39.97,1.81-.57.68-.33,1.03-.49,1.71-.82.57,1.54,1.28-.61,1.52-1.33,1.23-.22,1.85-.32,3.08-.53-.44-1.91.27-1.34,1.08-.5.02-.5.03-.74.06-1.24.58.22.87.33,1.45.55.65-.3,1.41-.95,1.57-1.93,1.94.09,2.9.14,4.83.26,0,0,.78-.64.87-.38.18.53-2.01,2.11-2.44,2.3-.4-.31-.61-.46-1.01-.76-2.98.74-5.56,4.03-8.54,5.43-.64.3-2.54.59-1.96,2.13.53.35.8.53,1.33.88.75,2.66-2.08,3.09-3.79,4.5-.1.53-.14.79-.24,1.32.2.5,1.67-.2,1.88-.29,1.01-.48,1.51-.71,2.53-1.19.35-1.06,1.21-2.07,2.27-2.56,4.02-1.86,8.37-3.5,12.46-5.88-.18-.53.07-1.24.71-1.52.22-.09.73,0,.91.52.04.11.05.16.09.26,2.57-1.1,7.21-1.82,9.49-3.06.43-.18,2.29-1.23,2.54-.42-.02.25-.03.38-.05.63-.73-.01-2.1.24-1.68,1.59-3.31,2.55-7.87,4.14-11.57,5.43-.93,1-1.39,1.51-2.31,2.51.27.79-.18,1.59-.81,1.86-1.06.46-2.39.14-3.41,0-.61.76-.92,1.13-1.52,1.89-1.05.35-1.57.53-2.61.88-.51.47-.77.71-1.28,1.18-.27.85-.41,1.27-.68,2.11-1.04.48-4.35.82-3.87,2.7,2.08-.97,3.12-1.45,5.21-2.4-.18-1.12.57-1.76,1.2-2.05.42-.19.93-.12,1.12.39.04.1.06.15.09.26-1.18,1.43-2.99,3.75-4.65,4.52-.03,1.21-1.27,1.79-1.89,2.07-.69-1.78-1.33-.28-1.45.67-1.04.6-1.55.91-2.59,1.51-.63.89-.94,1.34-1.56,2.23,2.67-.67,6.14-1.1,8.41-2.13.62-.28,1.34-.91,1.26-1.77,2.61-1.3,3.91-1.94,6.53-3.21,2.08-.91,4.32-.67,6.4-1.55-.54-1.57-.73-2.1.65-2.99.6.35.9.53,1.49.88,1.85-.17,5.08.08,6.68-.62,4.24-1.85,10.39-4.6,12.76-4.33.57.07,1.93.2,2.77-.11,1.05-.39,7.09-3.76,7.77-1.25,1.57-.67,2.36-1,3.94-1.66-.39.62-.58.93-.97,1.55-.42.14-.91.92-.76,1.48.03.11.05.17.08.28-5.11,1.86-7.65,2.83-12.71,4.82-.37.62-.56.93-.92,1.56.21-.08,1.25-.46,1.41.08.08.28-.25.7-.38,1.05-8.37,5.19-16.39,8.95-24.75,13.68.38,1.04.75,2.07-.26,2.5-4.85,2.05-9.14,5.29-13.57,7.45-2.3,1.12-2.06,4-2.66,3.89-.24-.04-1.21-.63-1.6-.44-.4.19-.09.93.02,1.18.72.14,1.08.21,1.79.35-.63.76-.94,1.14-1.56,1.9-.22-1.08-.63-2.07-1.62-1.6-.99.58-1.48.87-2.46,1.46-.37,1.12-.56,1.68-.93,2.8-.21-.49-.73-1.13-1.12-.94-.59.28-.77.96-.45,1.69-.99.12-1.49.19-2.48.32-.58.63-.87.95-1.44,1.59.48,1.06.71,1.59,1.19,2.65-1.06.17-1.59.25-2.66.42.02.46.03.69.05,1.15-.77.38-1.16.57-1.94.96-.28,2.49-5.27,3.54-6.93,5.56-.68-1.4-1.8,1.23-2.07,1.66-.15.08-.23.12-.38.2-.76.4-1.38.14-1.72-.55-.46-.92.3-1.33,1-1.4-.23-.46-.27-1.03.31-1.33.58-.3,4.18.17,3.39-1.47-1.61-.34-3.62-.46-4.96.26-1.16.61-1.5,1.39-1.31,2.74-3.12,2.13-4.66,3.2-7.74,5.38-.76.42-1.14.63-1.9,1.06-.57.78-.85,1.17-1.41,1.95-.76.43-2.13.63-1.4,1.96-1.2.97-2.46,2.27-3.09,3.79.22.92.33,1.37.56,2.29-.5-.18-.74-.27-1.24-.44.18,1.63-2.67,2.71-3.59,3.25,0,0,.5.86.32.97-.18.11-.75-.43-1.06-.53-.3.76-.54,2.05-1.27,2.48-.37.22-.68.12-.87.23,0,0,.19-.11.31.1.13.21-.25.92-.36,1.08-1,1.44-10.62,9.65-9.69,11.08-.43-.19-.64-.29-1.07-.48,0,.46,0,.69,0,1.15-1.8,1.13-2.93,3.28-4.72,4.43-.59.04-.89.06-1.48.1-.4.54-.04,1.45.37,2.04.32.08,1.3.02,1.57.42.14.2-.22.43-.4.54-.13.94-.56,1.79-1.27,2.24-.61.97-1.73,3.39-2.61,3.97-.17.11-1.05.69-1.47.11-.14-.19.39-.54.56-.66-.41-.58-1.08-.42-1.61-.07-.44.4-.66.61-1.09,1.01-.77-.34-1.75-.25-2.46.22-.53.36-.91.9-.49,1.47.06.08.08.11.14.19-1.77,1.31-2.65,1.97-4.4,3.29.1.27.15.41.25.68-.69.48-3.59,1.93-2.9,3.15-.69.49-3.45,2.44-4.47,1.18-1.41,1.29-3.48-.91-5.03.23-1.47-.17-2.21-.26-3.69-.41-.74-.88-1.43-.36-2.61-1.76-.89-.25-1.33-.37-2.22-.61-2.29,2.04-5.88-7.32-9.02-5.11-.53.42-1.15.05-1.6-.47-.74-.86-1.28-2.18-1.67-3.33,1.06-.86-1.16-1.7.27-2.85-.74-.87-.75-2.28-1.03-2.99-.57-1.44-1.79-3.55-1.22-5.79-.23-1-.27-2.15-.16-3.12-.73-.89-2.27-2.01-.99-3.05-.58-.71-1.13-1.75-1.2-2.59-1.11.91-.99-.08-.59-.71-.73-.89-1.87-1.14-2.41-2.19.49-1.3-1.72-2.47-1.32-4.29-1.17-1.43,1.28-3.45.31-5.06-.96-.41-1.01-1.27-.4-2.07-.58-.72-1.11-1.79-.97-2.81-.29-.36-1.25-4.4-1.2-4.74-.42-.86-.63-1.29-1.05-2.15.74-.86,1.1-1.28,1.84-2.14-.62-1.61-1.03-3.39-1.24-5.35.39-.33.64-.83.36-1.21-.43-.56-.71-.93.08-1.59-.57-.75-.74-1.82-.57-2.88-.56-.75-2.24-7.31-1.84-7.64-.5-1.12.16-1.97-.68-3.11,1.41-1.18.62-3.59-.21-4.74.23-3.26-.34-6.79-1.38-9.64,3.51-2-.14-11.95-1.22-14.47.77-.33,1.69-1.4,1.15-2.2-.48-2.46-.72-3.69-1.19-6.17.3-.75.45-1.12.75-1.86-.27-.4-1.16-1.23-.51-1.76.52-.43.78-.64,1.29-1.07-.66-1.2-1-1.8-1.66-3,.39-.82.59-1.24.99-2.06-.8-1.22-.6-2.95-1.66-4.57.17-.77.26-1.15.43-1.92-.66-1.01.7-1.52-.09-2.74-.07-.95-.1-1.42-.17-2.37-1.19-1.84,1.75-3.63.79-5.67.09-.39-.52-4.6-.91-5.22.26-.46.39-.69.64-1.16.05-.79.07-1.19.12-1.99-.29-1.02-.36-2.23.07-3.2-.41-2.44-.61-3.66-1.01-6.11,1.84-1.5-.57-2.06,1.05-3.38.05-1.05.08-1.58.14-2.64-.28-1.04-1.39-5.2-.22-6.15.47-.38.34-.59.09-1.02-1.27-2.13,2.12-1.71.73-4.07-.61-1.28-.92-1.92-1.53-3.19,4.28-3.47.69-7.22,1.62-11.78-.25-.44-.5-.87-.01-1.26.73-.58,1.46-.53,2.19-.48-.75-2.32-1.12-3.49-1.86-5.82.61-1.44,1.71-2.64,2.94-3.61-1.03-.33-1.54-.49-2.58-.82-.25-.44,1.61-14.66,2.13-15.7-.26-2.09-.39-3.14-.64-5.24.72-1.08,1.08-1.62,1.81-2.7.61-4.31,5.9-15.11,5.99-17.09,1.92-2.5,2.89-3.74,4.84-6.23-.04.66.73,2.96,2.04,1.98,1.05-.78.63-2.39,1.68-3.17.53-.39,1.39-.08,1.76-.04,1.91-.46,3.98-1.34,5.82-2.69.53-.39,1.32-.96,1.25-1.87.68-1.9,1.03-2.84,1.72-4.75.51-.12.77-.17,1.28-.29-.04,2.26.57,4.37,1.07,6.24,1.07.82,3.15,1.56,4.84.69-1.05,4.17-1.57,6.25-2.57,10.39.45-1.27,3.57-10.46,3.84-10.65,1.05-.74,2.54-.51,3.55-.57,1.58-1.1,3.97-2.74,4.81-.78.84,1.96,3.42,2.42,5.53,1,.24,1.86.36,2.79.61,4.65,1.68-.81,2.62-.17,4.03-.79-.21,1.09-.07,2.25.35,3.24-.68.76-.52,1.93-.21,2.67-.08.43-.13.65-.21,1.09,1.25-.2.16,1.16-.26,1.75.46.32,2.38.95,1.09,1.8.02.99.03,1.49.06,2.48-.33.47-.49.7-.82,1.17.32.74.37,1.65-.3,2.4-.11,1.59-.17,2.38-.27,3.96-2.04,1.36.95,2.2-1.08,3.55.95,2.19,1.49,11.56.5,14.41-.5.33-.99.66-.67,1.39.32.72.54,1.2-.45,1.87-.15,1.1-.22,1.65-.37,2.75-3.45,2.31-1.17,5.17-.31,7.72.94.37,1.4.56,2.34.93.24-.16.73-.49.95,0,.33.72-.18,1.68-.45,2.48.34,1.02.51,1.53.86,2.55-.33,1.47-.5,2.2-.83,3.66.55,1.19-.65,1.99-.09,3.17-1.41,4.36.48,8.99-1.66,12.91.44,1.57-2.5,7.57-2.96,7.88-.93,3.11,3.21,4-.45,6.5-.36,1.24-.54,1.85-.9,3.08-.58-1.15-1.98-3.89-1.75-4.05ZM234.2,381.15c.36-.23.85-.25,1.12.15.27.4.4.6.67,1.01-.87.66-1.31.99-2.18,1.66-.26.74-.52,1.47-1.23,1.92-.35.22-.67.14-.94-.25-.05-.08-.08-.12-.14-.2,1.42-.91-1.23-1.8,2.7-4.29ZM232.46,377.4c.13.2.32.08.49-.03,1.32-1.41,1.98-2.12,3.31-3.52-.13-.21-2.94.99-3.3,1.22-.23.43-.78,1.93-.51,2.33ZM252.17,365.13c1.84-1.06,6.96-6.26,7.83-7.32-.11-1.96,10.43-8.56,13.16-10.26-4.57,4.7-21.33,21.16-27.68,24.96.91,1.46-7.12,6.9-8.55,7.79-.77-.09-1.15-.14-1.92-.22-.14-.2-.4-.6-.05-.83.54-.34,1.21-.48.68-1.28,2.01-1.27,3.02-1.89,5.05-3.13.53-2.33,3.23-4.83,3.27-6,1.83-1.1,2.98.8,4.45-.06,1.1-.65.49-3.74.04-4.91,1.5-1,2.25-1.5,3.76-2.48.37-.22.56-.32.81.11.25.43.07,1.4.01,1.72-.86.21-1.48.85-.85,1.93ZM246.64,363.77c-1.18.12-2.56-.49-3.3-.04-.59.36-.89.54-1.48.9-.24.44-.35,1.08-.09,1.5.39.63,3.94-1.8,4.68-2.24.07-.04.11-.07.18-.11ZM219.05,324.81c-.13-.21-.71-.7-.91-.57-.2.14-.4.27-.27.48.39.63.59.49,1.18.08ZM218.75,322.93c.4-.27.14-.69.01-.9-.37.13-.56.2-.93.33.13.21.71.71.92.57ZM213.68,306.92c.53,1.08.79,1.62,1.32,2.7.25.43.59.5.99.21.41-.28.69-.78.77-1.13-.29-.88-.44-1.32-.73-2.21.12-1.17.18-1.75.31-2.93-.5-.86-.75-1.29-1.26-2.15-.86.12-1.3.17-2.16.29.63,1.07,2.4,4.06.76,5.21ZM225.73,319.12c.63,1.08,1.39,4.74,0,5.66-.4.26-.72.19-.98-.24-.89-1.49-1.16-4.29-1.31-5.98.92.22,1.37.34,2.29.57ZM243.55,347.35c.19-.12,1.33-.81,1.21-1.02-.13-.22-2.66-.13-3.17-.12.5.86,1.01,1.72,1.96,1.14ZM214.99,298.76c.38.65.71.72,1.33.29.21-.14,1.58-.79,1.33-1.22-.37-.65-2.46-.72-3.08-.29-.42.29.29,1,.42,1.22ZM213.07,286.74c-1.06.74-.86,2.13-.24,3.21.5.87,2.47,2.23,3.51,3.03.21-.14.84-.58.59-1.01-.5-.87-3.27-1.09-1.37-2.4-.26-.67-.39-1-.65-1.67.13-.82.19-1.23.32-2.04-.37-.66-.74-1.32-.9-2.12.55-.07,1.01.21,1.65-.23-.15-1.11-.22-1.67-.37-2.79-.58-.82-.87-1.23-1.44-2.05-1.46.16-2.2.25-3.66.42,1.15,2.55,1.19,5.27,2.56,7.66ZM255.6,358.26c.12.39.18.59.31.98-.62.47-.93.7-1.55,1.17-.56.32-.99,0-1.37-.66,1.04-.6,1.56-.9,2.61-1.49ZM165.36,189.16c-.25.84-.38,1.26-.63,2.1-.61-1.74-1.35-2.42.89-4.22.24.44.48,1.53-.26,2.12ZM220.32,286.01c.17-.11.25-.17.42-.29-.24-.44-.67-.16-.88-.01-.17.11-.25.17-.42.29.25.44.67.15.88,0ZM268.02,343.57c.19-.1,1.15-.61,1.5.08-3.2,3.45-4.78,5.18-7.89,8.64-.44.53-2.5.81-3.31.68,2.59-2.9,6.46-7.65,9.71-9.4ZM218.68,274.95c.36.67.82.97,1.47.53-.68-.39-1.03-.59-1.71-.97.1.18.15.27.24.45ZM254.05,337.32s.07-.33-.05-.56c-.12-.22-.43-.33-.63-.22-.08.04-.12.07-.19.11.12.22.48.89.87.67ZM218.2,256.59c.24.45.91,0,1.13-.15-.12-.23-1.5-1.13-1.72-.98.24.45.36.68.59,1.13ZM212.32,221.98c.24-.17.36-.56.24-.79-.12-.23-.47-.3-.7-.14,0,0-.12.39-.36.56.12.23.58.53.82.36ZM212.11,219.63c.19-.13.28-.2.47-.33-.23-.46-.69-.76-1.17-.43.11.23.22,1.09.69.76ZM267.83,324.9c.39-.21,1.27-.98.93-1.68-.91.61-1.36.91-2.26,1.52.23.47.93.38,1.33.16ZM217.87,218.48c.11.23.34.7.57.54.24-.16.25-.79.14-1.02-.33.1-.49.15-.82.25.05.09.07.14.11.24ZM213.96,207.75c.91-.25,1.36-.37,2.26-.62-.16-1.14-.24-1.71-.39-2.85-.81.18-1.22.27-2.03.46.06,1.21.09,1.81.16,3.02ZM269.93,322c.2,0,.31.01.51.02,1.67-.89,2.51-1.34,4.18-2.21-.06-.56-.09-.84-.15-1.39,1.09-.87,3.88-2.91,3.77-3.15-.12-.05-.18-.08-.31-.14-.4.21-8.57,5.7-8,6.87ZM218.41,209.7c.52.02.78.03,1.29.06-.08-1.51-.26-3.25-.82-4.44-.11-.24-.33-.71-.57-.55-.15.23-.22.34-.37.56-.03,1.27-.08,3.18.48,4.36ZM279.7,334.86c.39-.2.67-.63.45-1.1-.67.22-1,.33-1.67.55.49.22.73.33,1.22.56ZM273.5,316.85c.2-.11.18-.69.07-.93-.37.07-.55.11-.92.19.11.24.44.95.85.74ZM269.73,308.18c-.16.09-.24.13-.41.22.11.24,2.58.1,2.99-.12.82-.43,2.13-1.43,1.8-2.74-1.07.33-1.6.49-2.67.82-.69.73-1.03,1.09-1.71,1.81ZM217.51,190.62c.49-.34.28-.81.17-1.05-.44.17-.66.26-1.1.43.11.24.44.96.93.62ZM284.21,331.14c.2-.1.17-.67.07-.91-.44.1-.65.14-1.09.24.22.48.63.86,1.02.67ZM283.14,310.69c.32.73,2.13-.77,2.43-1.22-1.02.39-1.52.58-2.54.97.04.1.06.15.11.24ZM280.55,298.9c.21.49,1.04.07,1.45-.14.21-.1,1.86-.95,1.76-1.19-.1-.25-2.6-.18-3.11-.21-.11.35-.31,1.06-.1,1.55ZM219.04,143.61c.11-.07.16-.11.26-.18-.15-.03-.22-.04-.37-.07.04.1.06.15.1.25ZM286.36,295.36c.62-.31,1.36-.97,1.26-1.82.58-.29.88-.43,1.46-.72-.1-.25-.94.16-.94.16-1.17.34-1.75.51-2.92.86.45.61.68.92,1.13,1.53ZM301.59,319.1c1.2-.54,3.29-1.77,3.89-.25.39,1.01-1.99,2.66-2.28,3.09-1.63.37-2.44.56-4.07.94-.31-.75-.22-1.67.38-1.95.8-.36,1.79-.22,1.49-1.56.24-.11.36-.16.6-.27ZM292.53,298.92c.93-.15,5.99-1.64,5.4-3.16-2.17,1.25-3.25,1.89-5.4,3.16ZM293.51,284.34c.42-.21.33-.46.23-.71-.1-.25-.41-.41-.62-.3-.17.08-.25.12-.42.21.1.26.6.91.82.81Z"/>
      <path class="cls-1" d="M486.41,194.37c0,.67.75,1.25,1.25,1.19,2.96-.35,7.2-5.88,8.2-5.99,3.75-.41,10-1.35,13.59-4.05,1.51-.13,2.27-.2,3.78-.32-.02.68-.03,1.03-.06,1.71-.03,1.03-.79,1.09-1.29,1.13-2.01.17-2.74-.45-2.82,2.63-1.75.15-6.22-.79-6.29,3.29-1.99.19-5.21-.16-6.71,2.36-.99.1-1.73.52-2.48,1.61-4.68-.51-10.28,4.85-14.98,3.13-.71,1.1-8.51,2.51-8.4,5.81-.74-.22-2.2-.01-2.13,1.64-.44,1.06-1.64,1.56-2.6,1.71-4.82.72-9.58,4.03-7.51,9.07.49,1.2,1.21,4.75,1.31,6.71-.36.45-.53.67-.89,1.12-.23.96-.35,1.43-.58,2.39.36,1.39.54,2.09.89,3.48-1.11.16-1.67.25-2.78.41-.16-2.73-.24-4.1-.4-6.83.72.21,1.87-.29,1.8-1.59-.05-.98-.07-5.58-.55-5.5-.48.08-1.42,2.6-1.49,3.2-.44,4.04-1.18,11.66-.86,16.85,0,0,.04.65.27.62.69-.1.14-5.27,1.76-5.51.19.1.29.15.48.25.22.49.32.74.54,1.23.46-.07,1.4.13,1.46,1.11.07,1.3-.85,1.43-.78,2.74-.63,1.07-.79,2.41-.71,3.71-.68.1-.97-.85-1.03-1.82-.02-.26-.02-.39-.04-.65-2.06.3-3.41,11.29-3.2,14.53,1.27.08,1.9.13,3.17.22.06.97.12,1.95-.55,2.04-.45.06-.67.09-1.11.15-.02,1.05-.03,1.57-.06,2.62-.71.09-1.06.14-1.77.24.09,1.3-.05,2.62-.64,3.67.09,1.29-.37,10.47-1.02,10.56.09,1.29.43,2.88,1.12,3.44.16,2.32.25,3.49.41,5.81-1.8,1.84-.63,14.7-.51,16.31-2.94-.34-1.38,24.41-.99,29.22-.35.54-.52.81-.87,1.36.71,8.65.61,16.7,1.3,25.02-.44.02-.67.03-1.11.06-1.11.06-2.86-11.05-3.17-14.55-.11-1.27,0-2.24.48-3.25-1.82-3.07-2.23-16.19-3.06-20.92-.46-.6-1.12-1.17-1.72-1.1-.4.04.53,5.65.46,7.01-.03.57-.79,4.25-1.18,4.29-.19.02-.23-.3-.26-.62-1.43-14.58-2.14-21.87-3.57-36.44-.12-1.27-.34-3.49-.97-3.39-.21.03-.12.98-.12.98.2,2.03.3,3.04.5,5.07-.25.04-.38.05-.63.09-.83.12-2.42-2.85-2.55-4.11-.52-4.92-.77-7.38-1.29-12.3-.03-.31-.38-1.54-.59-1.5-.22.04-.12.98-.12.98.77,7.31,1.16,10.97,1.94,18.28-.66-.23-1.91-.04-1.74,1.53.24,2.2,3,20.02,1.2,20.25.19,3.48.18,6.98.57,10.43.07.63.51,2.8-.07,2.87-.29-2.51-1.26-12.89-2.68-14.6-1.46-7.69-2.2-11.52-3.7-19.18-.66-.21-.94-.8-1.06-1.74-.03-.25-.05-.38-.08-.63-1.04.17-1.57-.69-1.73-1.94-.02-.12-.02-.19-.04-.31-.29-.59-1.27-3.28-1.69-3.2-.21.04-.01,1.59.03,1.9.23,1.86,2.22,12.64.99,12.84-2.34-6.91-3.17-13.1-4.35-20.49-.82-.23-1.22-.34-2.04-.56-.21-1.55-1.14-2-1.35-3.54.65-1.71.75-4.27.46-6.44-3.12-5.09-3.62-15.12-4.5-21.61-.17-1.23-.11-2.52.79-2.72-.12-.93-.51-2.11-1.28-2.58-.25-1.85.3-11.87-1.55-11.42-2.54.61-5.36,2.58-8.57,3.4.14.92-.05,1.28-.73,1.45-2.06.53-2.83,1.68-4.66,2.16-.31,1.03-1.17,1.58-1.85,1.76-.46.12-2.04.55-2.25-.66-.26-1.51.1-2.23-1.73-1.73.17.96.25,1.44.41,2.41-.3.46-.45.69-.75,1.15.52,3-1.62,2.96-3.19,3.41-1.35.38-3.04-1.02-3.37-2.81,0,0-.17-.89-.39-.83-.39,2-.59,2.99-.97,4.99-.5.89-.74,1.34-1.23,2.24.17.89-.16,1.61-.83,1.81-.29-.04-.44-.06-.73-.1-.41-2.07-2.01.6-2.34,1.31-2.23.67-3.34,1.01-5.57,1.69-.43,1.13-.64,1.69-1.06,2.81-2.39.74-3.58,1.12-5.97,1.89-.53.79-.99,1.87-1.23,2.87.2.86-.51,3.87-1.16,4.09-.55.06-.83.09-1.38.14.68,2.86-2,4.35-1.58,6.06,1.07.57,2.05,2.71.76,3.13-.86.28-2.92-.58-2.43,1.41-1.71.56.7,4.67-1.63,5.44.58,2.26.1,4.86.68,7.11.29,1.13.09,2.11-.95,2.45-.49,1.26-.73,1.88-1.21,3.14.07.28.3,1.12-.12,1.26-.83.27-1.62-.99-2.65-.65-.41.14-.11,1.25.04,1.81-.69,2.42-1.03,3.62-1.7,6.03.57,2.83-1.33,5.64-2.17,6.46-.29.29-1.53,3.83-1.29,4.65.16.55.56.41.76.35-.08,2.73,1.28,4.38-.9,5.1.49,1.64.65,2.18-.73,2.64.33,1.09-.02,2.1-.8,2.36-.98.33-1.51-.69-2.49-.36-.73-.11-1.09-.16-1.82-.27.42,1.35-.19,2.16.23,3.5-.81,1.83-1.21,2.74-2,4.55-.35-1.07-.95-.26-.69.54.09.27.28.2.47.13.2.88.3,1.32.5,2.2-.58.2-.79.86-.44,1.93.17.53.71,1.53-.05,1.79-.57.2-1.23.13-.88,1.19-.02.95-.04,1.43-.06,2.38-.76.26-.32,1.58-.14,2.11.18.53.27.79.44,1.32-.42.5-.63.74-1.05,1.24-.28,1.16-.42,1.73-.69,2.88-.08.03-.11.04-.19.06-.75.25-1.59.25-1.95-.8.11-2.68.43-5.44.77-8.21-.46-.73-.82-1.78-.05-2.05-.8-2.37.47-3.71-.24-5.83.58-.21.88-.61.61-1.41-.53-1.59-2.97-6.96-1.2-7.6.11-.99.17-1.49.29-2.49-.36-.83-.54-1.24-.89-2.06.2-.07.39-.14.22-.68-.26-.8-.72-1.53.28-1.89-.61-1.87-.12-3.84-.32-5.87-.34-.23-.52-.35-.86-.58-.17-.53-.54-.99-1.15-.77-.21.2-.31.3-.52.49.87,2.67-1.32,4.25-1.32,5.59,0,.49-.56,1.7-.38,2.23.36,1.06,1.99-.74,2.43.59.18.53-.81.9-1.01.97-1.39.52-.97,3.59-1.04,4.85-.04.8-1.02,1.57-1.8,1.86.72,2.1-.03,5.64-1.58,6.22-.39.15-.77-.3-.95-.82-.63-2.01-.94-3.02-1.56-5.03.78-.3.9-1.24.54-2.28-.04-.11-.06-.16-.09-.26-.79.31-1.75-.51-2.34-.27-.39.15-.12.93-.02,1.19-1.12,2.51.11,5.87-2.22,6.79-.35.73-.53,1.09-.88,1.82.48,1.28,0,1.77-.78,2.07-1.15.46-3.11.98-3.95-.47-1.15-1.98.48-6.38-.1-7.91.3-.42-.07-4.41-.35-5.17,1.03-4.58-.37-9.64.64-13.95.52-.51.85-1.69.77-2.41-.2-1.89.63-4.16-.1-6.24,0-1.32.01-1.98.02-3.31.41-.18.53-.53.35-1.05-.27-.79-.46-1.31.38-1.66.44-.67.66-1,1.1-1.67.08-1.84.6-3.86,1.38-5.1-.39-1.17-.59-1.75-.98-2.91.17-.92.26-1.38.44-2.3-.44-1.02-.66-1.54-1.1-2.56-3.41,1.46-5.11,2.2-8.51,3.71-2.28-.19-5.06-1.03-7.18-.05-.47-.74-.71-1.12-1.19-1.86.43-.2,1.61-1.05,1.32-1.83.64-.3,1.4-.95,1.55-1.92.85-.39,1.53-1.31,1.89-2.38.21-.1.43-.2.34-.46-.19-.52-2.19-.88-2.37-1.03-1.12-.89,3.3-2.73,2.84-4.03-.09-.26-.53-.06-.53-.06-2.08.96-3.12,1.44-5.2,2.42-.86.41-4.65,2.52-5.32.73-.67-1.79.18-4.33,1.7-5.06.14-1.28.22-1.93.37-3.21,1.24-.84,1.86-1.26,3.1-2.09-1.02-2.86,3.47-2.54,2.56-5.16.61-1.2,1.54-2.24,2.43-2.66,1.01-.35,1.52-.52,2.54-.87.94-1.04,5.15-3.86,4.72-5.2-.1-.32-.16-.48-.26-.8.67-.3,1.49-.97,1.46-1.88,1.44-.65,2.17-.97,3.62-1.6.5,1.62,5.58-2.73,5.34-3.55,1.64-.7,2.46-1.05,4.1-1.74,1.18-1.23,1.77-1.85,2.96-3.08-.39-1.38.37-2.31.06-3.42-.47-1.66,1.23-3.91,2.62-4.48,0,0,.93-.38.85-.66-.08-.28-.62-.37-.93-.55,0-1.49.01-2.23.02-3.72.95-2.25,1.43-3.38,2.4-5.64.05-1.01.07-1.52.12-2.53,2.14-.88.6-2.73,1.79-3.22.24-1.1.37-1.64.61-2.74,1.05-1.05,2.66-7.31,3.11-8.74,1.45-.59,1.46-4.96,1.36-6.49,2.45-.98.13-5.07,2.6-6.05.38-1.15.57-1.73.95-2.89-.27-1.15.73-1.55.39-2.98.13-1.31.2-1.96.34-3.27,1-.4,1.75-1.95,1.74-3.21.76-.3.37-2.04.24-2.61.2-1.09.3-1.63.5-2.72.33-.51.49-.77.82-1.28.18-.7.27-1.05.45-1.75,1.28-.5.83-2.54,3.14-3.44,2.05-.8-.21-6.25,1.35-6.85.88-3.82,3.04-8.46,5.26-11.54-.29-1.48.77-1.88.54-3.06.98-2.28,2.02-4.27,3.34-6.36-.61-3.27,3.41-6.38,2.87-9.37,1.46.09,2.38-1.21,2.11-2.71.77-3.8,3.41-7.02,5.17-10.55-.2-1.21.95-1.31.75-2.52-.05-.3-.2-1.21.35-1.41.83-.31,1.43-.2,1.24-1.42.83-.3,1.34-.81,1.19-1.72-.1-.61-.52-1.42.32-1.72.69-1.21,1.48-1.82,2.6-2.22-.12-1.5-.17-2.25-.29-3.76.94-.85,1.4-1.28,2.35-2.13.66-1.14.99-1.71,1.66-2.85-.05-.3-.18-1.22-.46-1.12-.57.2-.71,1.22-.95,1.63-.49-.86-.73-1.28-1.22-2.14.85-.31,2.22-1.12,2.37-2.14.71.72,2.02,1.54,1.71-.61,1.09-.71,2.06-2.34,1.89-3.57.28-.1,1.43-.5,1.34-1.12-.52-3.69,3.12-1.4,2.66-4.8,1.44-2.76,5.25-10.89,8.48-11.97,1.02-1.64,2.64-6.09,4.71-6.77,1.09-2.31,1.63-3.47,2.74-5.78,3.28-1.08,3.41-2.74,3.08-5.9-.05-.5-.08-.76-.13-1.26,1.81-.59,6.57-2.76,6.32-5.3-.3-3.17,5.71-2.44,5.48-5,1.25-.06,2.74-.85,2.61-2.45.9-1.19,1.36-1.79,2.27-2.99,1.11-.34,1.66-.5,2.77-.84.33-.63.49-.94.82-1.56,2.15-.65-.44-1.52,2.58-3.4,2.17-1.43,3.26-2.15,5.45-3.57-.42-.54-.62-.81-1.04-1.35-.09-1.3.83-1.89,2.07-2.25,1-.29,1.5-.43,2.5-.72,2.88.17,5.77.69,8.36,1.97.02.32.03.65.66.48.62-.17,1.21-.99,1.51-1.4,1.75-.47,2.63-.7,4.38-1.17-.88,1.56-.53,2.46,1.04,2.05-.26,1.4-.19,3.04,1.37,2.64.62-.16,1.24-.32,1.21-1.31-.03-.66-.68-1.16-1.01-1.74-.13-.1-.19-.15-.32-.25-.03-.66,3.1-1.46,3.73-1.62,1.64,1.58,3.57,2.76,5.47,3.3.66,1.17.99,1.76,1.65,2.94,4.98-1.2,10.64-.16,15.95-1.31.02,3.02,1.61,7.05,1.62,9.06,0,1.35-.29,3.09-1.21,3.95.5.97.75,1.46,1.24,2.43,1.23.28,1.84.43,3.07.72.31,1.96.62,3.91.62,5.94-1.22.58-.6,4.49-2.11,6.14,0,1.35-.59,3.14-1.49,4.33.01,2.02.02,3.02.03,5.04-.47,1.17-.7,1.75-1.17,2.92.02,2.28.02,3.42.04,5.71-1.17,1.9-2.02,4.76-2,7.1-.69.81-1.04,1.21-1.73,2.02.03,2.81.05,4.22.09,7.03-1.43,1.28-2.84,3.23-3.39,5.35.01.67.04,2.34.9,2.17.11-.02.17-.03.28-.05-1.98,2.05-.74,7.51-1.54,10.34-.85.16-1.97.71-2.51,1.82-.28.05-1.68.33-1.67.99,0,.33,1.15.78,1.43.72.06,2.66.09,3.99.14,6.66-.82.82-1.06,2.53-1.04,3.53-1.43.67-2.14,1.01-3.56,1.69.03,1.19.05,1.79.08,2.98-.47-.84-.7-1.27-1.17-2.11.08-1.08.12-1.62.2-2.7-.46-.71-.7-1.06-1.16-1.77,0-.27-.01-.4-.02-.66-.28.06-.74,3.15-1,3.53-.41,1.15-.61,1.72-1.01,2.86.06,1.65-1.33,1.6-1.27,3.24-.4,1.28-.59,1.91-.99,3.19.05,1.32.99,4.45-.91,4.83.14,3.62-1.57,8.27-1.44,11.23-.38,1.27-.56,1.9-.93,3.16.06,1.31-.94,2.49-1.45,3.26-.55.82-.96,2.17-1.72,2.98.79-.16,2,.08,2.17,1.23.22,1.46-1.17,3.2-1.09,4.84.02.33.9,2.47.9,2.47.26-.05.2-1.36.2-1.36.96-1.84,1.91-4.33,2.34-6.73.26-.05,1.81-1,1.8-1.33-.01-.33-.8-.18-.8-.18-.12-3.03-.18-4.54-.3-7.56-.01-.33-.05-1.32.21-1.37,1.07-.21,2.51,2.51,2.81,3.45.06-1.21.09-1.81.16-3.02-.05-1.32-.44-4.9-1.78-4.64,0,0-.54.1-.55-.23-.04-.99,2.87-2.88,3.41-2.98.54-.1.81-.15.83.5.01.33,1.83,15.96-1.84,16.63.12,3.43.18,5.14.31,8.57,3.22-.44,4.84-.64,8.07-1.04,2.6-.43,1.74-3.96,4.36-4.38,1.57-.25,11.03-.64,11.02-2.66,7.37-2.06,15.09-4.39,22.52-4.5.82-.77,1.91-1.57,2.97-1.68,7.73-.8,14.5-2.76,22.03-3.29.81-.06,2.4.18,2.52-1.57,1.08-.07,2.03.96,2.6,1.23,2.8,1.31,12.1-.32,18.02-.17-3.82.48-9.9,2.51-13.39,2.7-.08,1.05-.64,1.43-1.45,1.47-1.34.07-2.84-.98-3.65-1.18-1.46-.36-.74,2.83-2.34,2.93-2.14.13-4.47-.75-6.58-.94-.78.61-1.17.92-1.95,1.53-3.19.24-5.93,1.85-9.12,2.48-.7,1.44-1.05,2.15-1.74,3.59-.84.08-1.26.11-2.11.19-.29-.52-.44-.78-.74-1.3-1.58.15-.37,2.77-2.47,2.98-1.31.13-2.32-1.14-3.64-1.01-.07,2.4-1.18,3.36-2.17,2.96-.2-.08-2.29-2.48-2.34-.43-1.57.17-5.23.93-5.28,3.65-1.04-.22-2.08.58-2.11,2.28-2.33.28-3.36-.61-3.39,2.78-.77.09-1.81.22-2.58,1,0,.67,2.83.32,3.09.29,2.78-.2,4.17-.29,6.95-.45.77-.08,6.45-.67,6.5-2.38,4.25-.42,6.38-.61,10.64-.97,2.94,3.88,5.87-2.4,7.62-1.97.8.2,2.25,1.57,3.55,1.49.52-.03,1.07-.41,1.13-1.46,3.56-.37,5.34-.54,8.92-.86.23,1.11.35,1.66.58,2.77-3.65.17-6.61,1.73-9.99,1.94-.16-1.72-3.52-1.85-3.62-.11,0,.14-.01.21-.02.35-4.67.31-9.13,2.04-13.77,2.45-1.05.64-1.57.96-2.62,1.61-1.03.09-2.57.24-2.63,2.29,1.28-.12,7.26-2.7,7.14.4-.01.28-.02.41-.03.69,1.64-.13,2.46-.2,4.1-.32,0,0,.77-.06.75.29,0,0-3.67,2.35-4.18,2.39-1.28.1-3.93,3.4-5.46,3.53-1.27.11-7.86,1.06-7.91,3.11-1.77.51-6.83,3.74-8.09,3.88-.75.08-2.5-.06-2.51,1.62-.75,1.44-8.21,2.65-8.2,4.67ZM333.85,313.62c.43,1.34-.26,1.29-1.06,1.59.28-1.06.43-1.59.71-2.66.14.43.21.64.34,1.07ZM333.41,306.59c-.12.77-.18,1.15-.3,1.91.27.86.41,1.29.69,2.14.09.27.26.8.46.73.4-.15,1.07-5.2,1.07-5.2.2-.07,1.02-.38.85-.91-.25-.81-1.82-1.43-2.22-1.28-.82.31.47,2.23-.55,2.61ZM333.99,296.73c.42,1.35,1.54,1.23,2.36.92-.27-.87-.4-1.3-.66-2.17.17-.67.25-1,.42-1.67.62-.23.3-1.32.13-1.86-.15.42-.23.63-.38,1.05-1.25.47-1.87,2.22-1.87,3.73ZM336.11,301.37c.2-.08.12-.35.04-.62-.17-.54-.37-.47-.78-.31-.08.03-.12.05-.21.08.17.54.54,1.01.95.85ZM335.42,289.23c.76-.29,1.13-.43,1.89-.71-.08-.27-.2-1.44.15-1.87-.59.22-.89.33-1.48.55.41,1.36-.97.67-.56,2.03ZM340.04,291.46c.33-.12.5-.18.83-.3-.93-.63-1.39-.95-2.32-1.58.32,1.1.44,2.26,1.48,1.88ZM338.39,282.65c-.26-.88-.38-1.31-.64-2.19-.65.37-.97.55-1.62.92.56,1.91.78,1.83,2.26,1.27ZM337.76,285.32c.42-.16.26-.71.18-.98-.08-.27-.37-.46-.58-.38-.21.08-.13.35-.34.43.08.27.54,1.02.75.94ZM341.92,263.92c-.66.25-.57,1.44-.42,1.99.15.56.74.95,1.18.79.32-.24.48-.36.8-.6-.45-1.67,1.15-1.95.55-4.19.14-.91.21-1.37.36-2.28-.71-.11-1.06-.16-1.77-.26-.28,1.83-.42,2.74-.7,4.56ZM373.51,249.42c.65-.08.98-.12,1.63-.19,1.12-.34,2.07-1.57,3.2-1.91.23-.07,1.58-.47,1.46-1.07s-1.25-.25-1.47-.19c-.29-.22-.86-.68-1.08-.61-.68.21-.38,1.68-.26,2.27-1.39.67-2.09,1.01-3.48,1.69ZM383.42,198.53c.73-.23,2.74-.54,2.53-1.75-.05-.3-2.95-.66-3.49-.81.16.9.37,2.1.96,2.55ZM385.83,189.84c.15.91.65.75,1.14.6-.56-.84-.83-1.27-1.39-2.11.1.6.15.91.25,1.51ZM395.34,236.81c.47.51.7.76,1.16,1.27,2.25-.86,3.38-1.28,5.64-2.11-.18-1.22.41-2.01,1.11-2.19.28-.07.42-.11.69-.18-.55-.49-.83-.74-1.38-1.23-2.18,3.1-4.06,3.27-7.22,4.44ZM389.76,181.93c.19,1.22-.46,2.06-1.46,2.37-.2.06-.3.09-.5.16.8.07,1.49,1.13,1.63,2.04.9-.91,2.95-2.82,2.67-4.64,1.47-2.36,2.7-4.65,4.25-6.71.18,1.22.61,2.38,1.25,3.15-1.47,1.46-2.2,2.19-3.65,3.65.09.61.14.92.23,1.53-1.11,1.29-1.43,4.26-1.93,6-.46.39-.68.59-1.14.98-.06,1.29-.6,2.73-1.58,3.03,1.06.18,1.59.28,2.65.47,0-1.59,18.88-10.47,20.13-10.8.41-2.55.62-3.83,1.04-6.39.65-1.14,2.02-2.79,1.84-4.36-.11-.94-.66-1.12-1.17-.98-.26-2.19-.59-5.01,1.72-5.63-.29-2.51-.55-2.44-2.6-1.88-.33-2.81.88-3.79,2.56-5.54,2.59-.7-1.23-6.14,1.39-6.85-.24-2.2-1.4-2.86-1.61-4.74-.03-.31-.54-2.44-.81-2.37-.53.15-.39,1.41-.35,1.72-1.64,1.88-2.46,2.82-4.07,4.7-1.83.52.34,5.06-2.26,5.81-5.46,1.56-1.72,3.39-3.79,3.99-.26.07-1.33.07-1.41-.55-.08-.62.7-.84.96-.92-.4-1.43-.6-2.14-1.01-3.56-2.34.69-.45,2.7-2,3.17-1.18,2.41-1.77,3.61-2.92,6.01.31,2.15-2.42,3.62-1.97,6.68-2.03.61.11,2.52-2.17,3.22-.26.08-.51.15-.46.46.14.92.48,1.45,1.08,1.91-1.77.53-2.25,4.19-4.5,4.89ZM388.97,173.57c-.42,1.41-.62,2.11-1.03,3.52.05.3.24,1.52.75,1.36.5-.16.66-1.06.86-1.22.63-.52,1.96-4.44,2.03-5.74.56-1.2.85-1.8,1.41-2.99-.79-.27-1.18-.4-1.97-.67-.83,1.54-.27,5.19-2.04,5.75ZM398.95,169.24c.07-1.05.1-1.57.17-2.61,2.31-.69,2.36-4.23,4.68-4.91.63.72.94,1.07,1.57,1.79-.97.79-1.45,1.19-2.41,1.99.42,1.16.33,2.47-.95,2.84-.34,1.38-1.19,2.91-2.21,3.21-.34-.92-.51-1.39-.86-2.31ZM408.16,231.26c.13.93.72,1.74,1.65,1.51-.67-.73-1.01-1.09-1.69-1.82.02.12.03.18.04.31ZM406.97,148.55c-.86.12-1.28.18-2.14.31.16,1.24,1.66.16,2.14-.31ZM422.08,262.9c-.28.69-.41,1.04-.69,1.73.15,1.25.13,2.85-.37,4.22,1.53-.3.75,2.4.43,3.42.14,1.12.21,1.68.35,2.8.38.18.56.27.94.46-.43-3.42,1.32-9.18.91-12.61-.12-1-.18-1.5-.3-2.5-.65-.13-.97-.19-1.62-.32.14,1.12.21,1.68.34,2.8ZM421.99,258.45c.09-.02.13-.03.22-.04-.04-.31-.3-.58-.52-.53-.09.02-.13.03-.22.04.04.31.3.58.52.53ZM422.28,255.2c.44-.09.37-.71.33-1.03-.37-.05-.56-.08-.93-.13.04.31.37,1.2.6,1.15ZM421.85,239.92s.23-.05.19-.36c-.07-.63-.53-.53-.76-.48-.18.04-.28.06-.46.1.07.63.57.84,1.03.74ZM421.87,247.93c.11.94.68,1.78,1.35,1.64-.55-.78-.83-1.17-1.39-1.96.02.13.02.19.04.32ZM426.52,270.04c.22-.04.11-.98.11-.98.44-.08,1.09-.2,1.02-.83-.14-1.26-1.56-1.95-2.22-1.83-.22.04-.18.36-.15.67.04.31,1.02,3.01,1.24,2.97ZM436.53,258.95c-.9,1.96-1.34,2.94-2.22,4.89.81,1.79,1.21,2.69,2.01,4.49.22,2.22-.53,3.63-.31,5.84.35-.06.52-.08.87-.14-.25-2.54,1.29-7.3.96-10.79-.29-3.05-.43-4.57-.72-7.62-.43-.7-.64-1.05-1.07-1.75.19,2.03.29,3.05.49,5.08ZM438.79,275.67c-.43.07-.65.1-.59.73.09.96.58,1.52,1.07,2.09.64-.1.74-1.4.68-2.04-.18-1.91-.7-2.79-1.28-4.31.05,1.41.07,2.12.11,3.53ZM436.13,245.14c.06.63.28.59.74.51-.35-.84-.53-1.26-.89-2.1.06.64.09.95.15,1.59ZM436.64,250.54c.33.59.49.88.82,1.47-.09-1.02-.14-1.53-.24-2.54-.35-.84-.53-1.26-.89-2.11.12,1.27.18,1.91.3,3.18ZM442.86,312.12c.2-.02.14-.66.11-.98-.03-.32-.06-.64-.26-.61-.2.02-.38.36-.38.36.03.32.12,1.27.52,1.23ZM441.35,286.89c.21-.03.18-.35.16-.67-.06-.63-.27-.6-.69-.54-.09.01-.13.02-.21.03.06.63.33,1.24.75,1.18ZM438.28,250.9c.06.64.54.88.98.8-.44-.83-.66-1.25-1.1-2.08.05.51.07.77.12,1.28ZM437.4,230.99c.38.06.58.08.96.14-.09-1.02-.14-1.53-.23-2.55-.4-.18-.6-.28-.99-.46.1,1.15.15,1.72.26,2.87ZM439.04,228.09c.48.04.72.06,1.2.1-.08-.9-.11-1.34-.19-2.24-.49-.17-.74-.25-1.23-.41.09,1.02.13,1.53.22,2.55ZM434.3,142.18c.53-.13.48-.77.45-1.09-.03-.32-.32-.57-.59-.51-.26.07-.24.38-.51.45.03.32.37,1.21.64,1.15ZM435.3,137.69c.21-.05.32-.08.54-.13-.05-.64-.59-.51-.86-.44-.21.05-.32.08-.53.13.05.64.58.51.85.44ZM439.13,111.52c.28-.07.25-.39.23-.72-.05-.65-.32-.58-.88-.44-.11.03-.17.04-.28.07.05.65.37,1.22.93,1.08ZM440,103.74c.07.97.63.83,1.19.69-.51-.79-.77-1.19-1.28-1.97.04.52.05.77.09,1.29ZM441.48,100.41c.56-.14.52-.79.5-1.11-.46-.02-.69-.02-1.15-.04.04.65.35.9.65,1.15ZM453.85,138.69c.54-.11.79-.5.76-1.15-.89-.34-1.33-.51-2.22-.84.05.98.66,2.17,1.47,2ZM462.67,129.57c.54-.11.52-.76.5-1.1-.44-.04-.66-.06-1.1-.1.01.33.33,1.26.6,1.2ZM463.65,126.39c.27-.05.26-.38.25-.71-.01-.33-.3-.6-.57-.55l-.27.06c.01.33.05,1.32.6,1.21ZM465.51,180.42c.2-.03.3-.05.51-.09-.03-.66-.29-.95-.8-.86.01.33.04.99.29.95ZM469.02,131.31c.05,1.65-.99,3.18-2.34,3.44-.27.05-1.08.21-1.09-.12-.04-.99,1.04-1.2,1.58-1.3.17-1.5.25-2.24.42-3.74.81-.16,1.39.73,1.42,1.72ZM467.95,177.68c1.55.74,3.6,1.07,5.37.8,1.27-.2,10.14-2.17,10.11-4.51-5.11.72-10.41,2.87-15.48,3.72ZM468.48,86.82c.15,4.96-1.97,10.41-1.83,14.37.02.66.04,1.32.89,1.15.85-.18,1.41-.29,1.45,1.03.82.76,1.23,1.15,2.04,1.92-.05-1.72-.07-2.59-.12-4.31.54-.78,1.65-2,1.63-3-.02-.66-.87-.49-1.15-.43-.31-.94-.62-1.87-.65-2.86-.08-2.99,3.68-1.75,3.59-5.75.99-2.2,1.49-3.31,2.49-5.52.29-.06.58-.12.57-.45,0-.33-.88-.49-1.18-.76-2.32.47-3.48.72-5.79,1.21.06,1.99-2.03.44-1.93,3.41ZM466.9,108.79c.03.99.32,1.26,1.16,1.09-.48-.97-.72-1.45-1.2-2.41.02.53.03.79.04,1.32ZM469.53,112.24c.33-.07.5-.1.83-.17-.02-.66-.58-.88-1.14-.77.01.33.03.99.31.94ZM475.09,71.06c0,.34.94,2.81,1.23,2.75,0-.27,0-.4-.01-.67,1.36-2.96,2.04-4.44,3.42-7.4-.02-1.34.55-2.8,1.43-3.99-.02-1.2-.02-1.8-.04-3.01-1.08.22-1.62.34-2.69.57.06,3.67-3.42,8.42-3.34,11.75ZM491.87,170.81c-1.13.01-1.69.02-2.82.04,0,1.34,2.31.37,2.82-.04ZM502.28,178.04c.51-.05,1.02-.45,1.03-1.13-.81-.05-1.22-.07-2.03-.12.4.5.6.75,1,1.25ZM509.45,175.96c-1-.59-1.51-.88-2.52-1.46-1.03.24-1.54.36-2.56.61,1.52.52,3.29,1.02,5.08.85Z"/>
      <path class="cls-1" d="M463.18,270.85c.07,1.31-.79,1.73-1.44,1.8-.09,0-.13.01-.22.02-.83.75-1.25,1.12-2.08,1.87-.87-.03-1.31-.05-2.18-.08-1.5,1.09-2.25,1.64-3.74,2.73-1.29.16-7.61.02-7.45,1.94.01.13.02.19.03.32-4.28.58-6.42.89-10.69,1.56-.22.03-1.07.17-1.1-.15-.39-3.79,12.75-2.84,14.86-6.69,1.65-.22,2.47-.33,4.12-.53.3-.69.45-1.04.76-1.73,3.65-.46,5.48-.67,9.14-1.07ZM584.81,267.46c3.87-1.41,6.63-5.54,10.48-5.06,1.35-2.44,3.55-4.41,5.35-5.3.23.03.46.06.52-.3.2-1.1-.36-1.92-.69-2.71-.66,1.04-1.87,1.26-2.79,1.15-.94,1.08-1.4,1.62-2.33,2.7-2.19-.27-3.29-.39-5.48-.64-.06.36,2.79,1.43,2.73,1.79-.3,1.82-7.68,4.68-9.26,4.51-.81,1.09-1.21,1.64-2.01,2.73.11-.73.22-1.45-.46-1.52-.67-.07-3,3.36-3.6,4.4-.22-.02-.44-.05-.5.32-.1.72.9,1.56,1.13,1.58.44.05.67.07.77-.65,1.42-1.03,2.13-1.54,3.56-2.56.45.05,1.34.15,1.17,1.24-.11.72-.72,1.76-1.22,2.07-.17,1.09,1.39,1.27,1.83,1.32-.23,1.45-1.33,1.32-2,1.24-.35-.04-.53-.06-.89-.1-.5.32-1.27.97-1.38,1.69-.16,1.09.72,1.19,1.16,1.24-.06,1.61-.1,2.42-.16,4.04-.82-.47-1.59.18-1.81,1.63-1.92.36-2.88.54-4.79.91.49-.31,1.3-1.32,1.4-2.04.21-1.45-1.97-.22-1.71-2.02.1-.72.64-1.4.91-1.73-.87.49-1.31.74-2.18,1.23-1.1-.11-2.92-.27-2.66,1.55.04.3,1.19,2.68.1,2.57-.8,1.01-1.5,1.3-2.36,1.21-.11-1.17-.17-1.76-.28-2.93.22.02,1.53.15,1.62-.57.1-.72-1-.83-1.22-.85-.88-.09-1.67.93-1.85,2.37-.02.14-.03.21-.05.36-1.25.17-1.88.26-3.13.43-.09.71-.52.67-.74.65-3.47-.31-1,2.8-3.37,2.6-.76-.21-1.14-.32-1.9-.53-.12,1.07-4.19,2.53-5.05,2.47-.49.54-.73.81-1.22,1.34-1.5-.11-4.46-.68-4.7,1.8-.03.28-.04.43-.07.71-.85-.06-2.24-1.22-2.44.9-1.84.44-2.75.67-4.58,1.12-3.56,4.39-10.15,5.78-13.9,5.28-1.82,2.37-3.23,1.62-5.11,1.56-.86.53-1.29.79-2.15,1.32-2.49-.07-6.42.31-7.3.87-.42.27-1.29,1.36-1.91,1.35-3.51-.05-5.84,2.67-8.92,2.68-5.75.01-11.5-1.56-17.24-1.01.04,2-3.63,2.48-4.45,2.52-2.04.09-.71-3.62-2.15-3.55-.41.02-2.59,2.45-2.63,1.14-.03-.99.13-2.32.3-3.33,1.22-.4,7.21-.71,7.17-3.04-.03-1.33.18-1.68.8-1.71,1.46-.07,3.55.51,5.01.79,1.9-1.01,2.86-1.51,4.78-2.51.25-.68.38-1.02.63-1.7.67-.02,1.01-.03,1.68-.05.64-1.7,8.02-2.54,9.5-2.55.44-1.03,1.3-1.37,1.93-1.38.06-2.73,1.7-.36,1.77-2.75-3.91,3.1-11.71,1.57-13.4,4.32-.63.02-1.69.05-2.32,1.08-.93-.37-1.39-.56-2.32-.93-1.89,1.75-3.97,2.51-6.06,2.61-.84.04-2.31-.22-2.27,1.78-4.38.22-8.45,3.13-12.8,3.45-.3,2.65-4.05,1.95-5.08,2.04.05.98-.75,1.37-1.16,1.4-.82.07-2.52-.76-2.4,1.18-6.85,1.25-10.26,1.93-17.03,3.39.06.64.09.95-.32,1-.61.07-1.54-1.09-1.64-2.05-.19-1.9,3.35-1.69,3.96-1.77-.12-1.27,1.11-1.42,1.53-1.47,3.43-1.05,6.23-2.32,9.66-3.97.41-.04,1.88.14,1.82-.83-.06-.97-1.37-1.82-1.44-2.79-.04-.65.18-1.53.52-1.68,3.01-1.36,8.86-3.48,13.28-3.83.73-.72,1.1-1.08,1.84-1.79.93.06,1.4.09,2.34.16,1.65-1.18,2.49-1.77,4.16-2.94.16-.54.24-.82.39-1.36,1.5.24,3.19-.54,4.46-1.28-.2,1.01,1.08.94.85-.05-.02-1.07-.02-1.6-.04-2.67,1.5-.09,3.24,1.49,4.52,1.43,2.79-.14,1.7-2.77,3.21-2.84.6-.57.91-.85,1.51-1.42,2.16-.1,5.88-4.3,8.06-4.37.22,0,.87-.03.88-.37.02-1.02-1.29-.98-1.51-.97-1.22.04-1.83.07-3.06.12-.03,3.72-4.8,1.91-5.67,4.31-1.51.07-2.32.96-3.24,1.51-2.19,1.3-7.92,3.14-10.71,3.34-.86.06-2.1-.96-2.61-1.13-1.22-.42-2.06,2.81-3.76,2.95-.64.05-2.82-.75-3.47-1.02-1.53-.52-.09,2.97-2,3.15-1.27.12-2.6-.74-3.91-1.27-.19.35-.35,1.34-.78,1.39-.21.02-.27-.95-.29-1.28-1.91.2-3.93-1.22-5.85-1,.4-.44.6-.66,1-1.09.86-.1,1.9-.54,2.27-1.56.68.58,1.52.16,1.44-1.14,1.14.27,1.71.4,2.84.68,2.75-.94,5.73-1.88,8.49-3.45-.05-1.32-.56-3.25-1.64-3.15-.12-2.96-1.76-.49-1.88-3.12-1.48.15-2.22.23-3.71.39.21-1.07.31-1.61.53-2.69,2.41-.26-1.23-2.52,4.05-3.07.34-.43.5-.65.84-1.08,1.1-.11,2.54-1.26,3.27-1.65,1.66-.91,9.41-7.54,14.58-7.94.09-.41.13-.61.22-1.02.9-.07,4.06-.3,4.28-2,.68-.05,1.36-.43,1.59-1.46.91-.06,1.36-.09,2.27-.15.27-.42.41-.63.69-1.06.82-.05,1.23-.08,2.04-.13.19-.55.28-.83.47-1.38.46-.03.92-.4.93-1.07.02-2.04,5.81-4.75,6.96-4.81.92-.05,1.83.59,2.5,1.24.94-.73,1.41-1.09,2.36-1.82.03-1.03.74-1.4,1.43-1.43.19,0,.28-.01.46-.02.01-.35.08-2.41.54-2.43.47-.02.89,1.53,1.1,1.67.73.52,4.03-2.21,6.36-2.28.8-2.09,3.34-1.48,4.51-1.5.12-.42.17-.63.29-1.05.7-.02,1.66-.38,2.19-1.43,1.17-.02,8.76-4.31,9-4.31.32-.56.49-.84.81-1.4.86,0,1.28,0,2.14-.01.32-1.06,1.3-1.41,2.01-1.41.32-1.05,1.51-1.05,1.99-1.05.14-.56.21-.84.35-1.4,3.83,0,5.76-2.81,8.89-2.77.25-.56.37-.84.62-1.41.87.01,1.3.02,2.17.03.69-1.13,1.04-1.69,1.74-2.81,1.92-.68,2.88-1.02,4.8-1.69.15-1.42.93-1.77,1.66-1.75.2,0,.29,0,.49.01.2-1.78,1.26-2.47,2.48-2.44.98.03,5.37-1.63,5.59-3.42,1.82-.66,3.73-2.03,5.36-3.05,1.24.05,1.68-1.38,3.42-1.3.39-1.07,1.64-1.01,2.14-.99.74-.98,1.11-1.47,1.85-2.46,1-.68,1.51-1.02,2.51-1.7,1.76.09,3.35-3.84,3.67-6.01.9-.54,1.35-.81,2.25-1.34,5.85.3,1.92-2.46,4.73-2.3-.09-1.1.65-2.53,1.68-2.47,1.01-1.12,1.51-1.67,2.52-2.79.24-1.45,1.27-1.39,1.51-2.85.94-1.27,1.41-1.9,2.36-3.17.06-.37.24-1.46.77-1.43.78.05,1.12,1.17,1.52,1.94,1.55-1.37,2.45-3.53,3.35-5.69.23-.13.35-.2.59-.33-.08-2.59-.76-4.85-1.19-7.08-.73-.41-.82-1.52-.7-2.25.05-.29.07-.44.12-.73-2.15-1.29-3.23-1.93-5.4-3.19-1.49-.8-2.16-3.38-3.77-3.44-.55-.6-.83-.9-1.39-1.5-3.93-.85-7.46-6.36-10.65-8.9.84-2.15-6.38-3.25-7.65-3.96-.49-1.29-.74-1.93-1.24-3.21.22-1.79-2.29-1.4-2.21-2.11.04-.36,2.1-1.46,2.41-1.82,1.02.7,2.3,1.41,2.99,2.48,1.63.13,2.45.2,4.08.34.96-.57,1.43-.86,2.39-1.43.26-3.96-5.7-2.86-7.08-2.84-.41-1.14-.61-1.71-1.03-2.85.67-3.23-3.31-2.44-2.97-5.3.02-.14.03-.21.04-.36-.84.02-2.51.06-2.63-1.36-1.99-2.08-4.25-4.49-7.34-4.36.22-2.13-2.35-1.66-3.47-1.61-.06-.56-.09-.84-.14-1.41-.39.58-.59.88-.98,1.46.94.66,1.42.99,2.36,1.65.41,1.4,1.07,3.14,2.47,3.08.56-.02,2.32-.8,2.16.63-.02.14-.02.21-.04.35.84-.03,4.24-.49,4.07.94-.14.29-.22.43-.36.72.38.56.57.84.95,1.39,1.11-.03,1.67-.04,2.79-.07.19.71.06,1.78-.02,2.5-.07.57-.1.86-.17,1.43-1.04-.55-1.56-.82-2.61-1.37-.21,1.79-.77,4.29-2.42,4.33-.2-.7-4.9-3.05-5.73-3.02,1.87-4.67-4.52-1.59-4.28-4.07-1.52-1.48-2.28-2.22-3.81-3.69,1.24-1.33,1.86-2,3.1-3.33-1.79-1.67-7.08-2.06-9.32-1.92-1.48-2.35-3.62-3.59-4.85-5.94-1.13.09-.95,1.47-2.08,1.55-.7-1.2-1.05-1.8-1.75-2.99-.28.02-.85.07-.8-.63.05-.7.69-1.8,1.29-2.19-.81-.63-1.59-1.6-1.49-3,0-.14.01-.21.02-.35-.81-.62-1.29-1.97-1.21-3.01l.05-.7c-.62.75-1.52,1.53-1.59,2.58-.02.35.26.32.55.29.74.9,1.1,1.35,1.83,2.26-.09,1.26-.13,1.89-.22,3.15-.71-1.19-1.06-1.78-1.78-2.97-1.71.16-.21-1.02-1.9-1.21-.57.05-1.12-.24-1.08-.93.07-1.04.39-1.77-.75-1.66.04-.7-.91-3.71-.83-5.11.16-.71.23-1.06.39-1.77-.89-.46-1.34-.69-2.23-1.14.35-1.07.47-3.16-.36-3.76-.61-1.45-.92-2.17-1.53-3.62.19-3.47.99-7.36,1.47-10.86.51-.75.77-1.13,1.28-1.88.06-1.04,3.35-6.61,4.12-9.46.36-1.08.47-2.83,1.72-3.66.8-1.34,1.21-2.01,2.02-3.35,1.22-.14,2.47-.97,3.44-1.78-.8-.6-1.2-.9-2.01-1.5.61-.07,4.29-.83,4.34-1.53-.24.03-.37.04-.61.07,2.42-4.09,7.11-5.64,8.72-10.34,2.79-.29,3.62-2.82,6.11-3.07,1.23-1.38,1.85-2.07,3.09-3.45,3.23-1.36,7.24-4.18,10.06-7.24.66-.41,12.36-3.8,12.97-6.33,1.55.24,3.01-1.28,4.93-1.41.04-.36,4.53-3.14,5.17-3.18-.73,3.25,9-2.65,10.93-2.75.65-.03,1.99-.45,2.09-1.17.02-.14.03-.22.05-.36,3.87-.04,5.8-.05,9.68-.04,1.15-.76,1.73-1.14,2.88-1.9,1.63-.05,3.2.26,4.74-1.22,2.94-.08,6.69-3.06,9.51-4.2,1.81.11,2.72.17,4.54.3,1.31-3.67,10.74-1.15,12.06-1.15,1.17-.59,1.75-.88,2.92-1.46.39.74.58,1.11.97,1.85.53,0,.79,0,1.32.01.5-2.57,6.09-.66,8.79-2.46,23.45,1.33,35.22,2.43,58.79,5.52-.85,1.85,1.49,2.07,2.49,2.16,1,.1,7.23-.05,6.47,1.42,8.21,2.1,12.3,3.21,20.47,5.55-1.81,2.52,5.56,1.14,4.96,3.04-.48,1.51-2.59,1.62-3.58,1.48-1.33-.18-5.29-3.06-6.31-.84-6.28-1.12-9.42-1.65-15.7-2.65-1.32.32-1.98.48-3.3.81-.43,1.51-1.95,2.12-2.95,2.02-.62-.22-.93-.33-1.55-.54.75-1.47-.14-1.95-1.13-2.05-.99-.1-3.2-.69-3.51.43-.2.75-.08,1.53.05,2.32-.21.75-1.07,1.44-1.73,1.38-.22-.18-.33-.27-.56-.44.94-2.22.71-2.63-1.27-2.81-1.32-.12-2.83.51-4.02,1.17-2.1,2.89-7.79-1.02-9.32,4.97-.19.75-.48,1.87-.44,3.02,1.65.29,2.48.43,4.13.73-.71,1.47-1.53,3.32.42,3.49.39.04.58.05.97.09-.71,1.47-2.72,2.82-4.01,2.7-4.84-.43-9.39-1.93-14.23-2.26-.38,1.04-.57,1.55-.95,2.59.23.39,1.66,3.92,2.3,3.97.96.07,1.33-1.42,1.42-1.8,1.5.27,2.25.4,3.75.67-.98,2.59-.75,2.99-3.3,2.79-2.52-.35-3.78-.52-6.29-.85-.96-.07-4.73.81-4.99,1.93-.18.75,1.41.85,1.73.87,5.4.37,10.95,1.57,16.26,2.44-.19.75.03,1.15.35,1.18.95.09,1.59.15,1.3,1.27-1.94,7.5,7.51-.03,5.9,5.98-1.71,6.39-4.58,2.62-5.17,4.87-.2.75,3.66.76,6.79,1.11,1.57.18,1.37,2.09,2.93,2.28.25.03.38.04.63.07-.31,1.13-3.12.78-8.12.24-3.37-.37-5.06-.54-8.42-.87-.29,1.12-1.22,1.03-1.85.97-1.25-.12-5.54-2.04-6.32-.19-2.36.55-5.11,1.46-7.59,1.26-.25-.02-.37-.03-.62-.05-1.26.51-1.89.77-3.14,1.28-1.61-.12-2.41-.18-4.01-.29-.63.56-.95.84-1.58,1.4-1.25-.54-1.88-.81-3.14-1.35-4.43,1.6-11.86.06-16.32-.87-.15.74-.76,2.21-1.45,2.55-.61-.03-1.31-1.17-2.53-1.22-.84,1.08-2.44,1.39-3.36,1.36-.71-.76-1.07-1.15-1.79-1.91-.3,0-2.83.28-2.97,1.02-.07.37,1.15.4,1.46.41.23.37,1.32,1.15,1.17,1.89-1.34-.04-2.01-.07-3.36-.1-.14.74-.59,1.46-1.2,1.44-.91-.03-1.39-.77-1.85-1.52.21-1.1-.51-2.22-1.42-2.24-.61-.01-1.59.33-1.73,1.07-.13.73,1.08.75,1.39.76-.04.88-.06,1.33-.1,2.21-1.97.1-2.96.15-4.93.26-.8,1.09-2.38,1.43-3.29,1.42-.89-.45-1.34-.68-2.23-1.12-.06.36-.49,1.09-1.1,1.09-.91,0-1.39-.74-1.57-1.48-.55,1.46-2.85,2.54-4.06,2.54-1.3-.15-1.96-.22-3.26-.37-1.25,1.02-1.87,1.53-3.11,2.55-.34,2.18,6.37,3.27,7.58,3.28.66,1.47,1.18,3.66,2.97,3.69.86.6,1.28.9,2.13,1.5.39,1.18.59,1.77.98,2.95,1.25-1,1.88-1.5,3.14-2.5,1.29,1.13,2.05,1.89,1.65,4.09-.05.29-.08.44-.13.73,1.97.94,2.96,1.42,4.92,2.38.85-2.93,4.74.19,5.49.97-.67.34-1.99,1.02-2.21,2.13-.07.37.81.41,1.11.43,1.04.79,1.55,1.19,2.58,1.98-.73,2.2,2.29.5,1.84,2.71-.03.15-.04.22-.07.37,1.76.1,1.18-2.92,3.25-2.8.46,1.22.69,1.83,1.15,3.06-1,.24-1.5.36-2.5.6-.15.74,1.9.86,2.19.88,1.36,1.43,2.04,2.15,3.39,3.6,1.22.39,1.83.58,3.05.97-.08.37-.98,1.81-.48,2.22.58.04,1.67.51,1.42,1.62,1.25.25,1.87.37,3.11.63.25,1.53.37,2.3.62,3.84,1.2.41,1.81.62,3.01,1.03.24,1.54.35,2.31.59,3.85,1.26.12,1.9.18,3.16.31.18,1.24.27,1.86.44,3.1.86.09,1.25.9.99,2.02-.07.3-.11.45-.18.75,2.77.68,3.66,4.24,5,7.09-1.02,2.96,4.43,2.09,3.67,5.09-.04.15-.06.22-.09.37,1.68,2.54,2.59,5.76,3.19,8.97-.12.92-.18,1.37-.31,2.29.11.02.17.02.28.04.1.95.15,1.42.24,2.37,1.14-2.17,2.59,0,3.12,1.25-.58,1.08-.13,1.54-.43,2.67-.5,1.88-1.45,3.3-2.4,4.71-.95.17-1.43.25-2.38.42.48,1.63.71,2.45,1.18,4.09-.5,1.88-3.13,9.67-.73,10.06-.05.62-.08.93-.14,1.55-.3,1.13-.67,1.46-1.47,1.33-.9,3.38,1.42,2.98.91,4.86.06,1.42.09,2.14.14,3.56-.31,1.13-.67,1.46-1.46,1.32-.53-.09-.89.24-1.09.99-.41,1.51-.8,4.97-2.62,4.66-.5,1.88,1.2.6.59,2.86-2.56,3.48-7.55,13.19-10.16,15.09-.79,8.1-1.29,5.2-3.03,9.65-1.04,2.66-3.29,5.67-5.33,7.65-.48,1.87-2.28,1.93-2.85,4.17-.5.38-.75.57-1.25.94-.47-.56-.71-.83-1.18-1.39.28-1.12-.6-1.67-1.09-1.75-.13,1.53-.74,2.99-1.95,2.77-.27,1.12-.94,1.78-1.67,1.65-.19-.03-.29-.05-.48-.09-.66.66-1.99,1.98-2.95,1.81-.48-.08-.22-1.2-.13-1.58-.48-.08-1.05.21-1.32,1.33-.17.74-.11,1.53.61,1.65.24.66.37,1,.61,1.66,1.55-1.28,4.54-4.25,5.99-3.99.73.13.6,1.67.41,2.42-.56,2.24-4.31,1.17-4.94,3.78-.98.76-1.47,1.14-2.45,1.89-3.1-.56-4.1-3.81-8.44.09-1.72-2.21-1.61,1.66-2.56,1.5-.47-.08-1.49-1.01-1.33-1.75.08-.37.8-.26.8-.26.56-.29,1.76-1.25,1.92-1.99.08-.37-.15-.41-.4-.45-.15-.64-.23-.96-.39-1.6-.96-.15-.8,1.41-1.76,1.26-1.11.59-1.99,1.22-2.95,2.22-.4,1.85-1.35,2.85-1.75,4.7,1.18.19,1.97-1.22,3.15-1.03-.19.89-.29,1.33-.49,2.22-.41,1.85-.96,2.15-1.9,1.99-.7-.11-1.56-.63-1.79-1.82-.35,1.17-.52,1.75-.87,2.92-.66-.1-.98-.16-1.64-.26-.47,2.22-4.42,2.75-5.59,2.57-.3,1.48-.45,2.21-1.37,2.07-.69-.1-1.78-.64-2.07.83-.66,3.32-1.84.87-3.21,1.81-.21,1.1,1.94,2.18,2.33,2.61.58-2.95,3.82-.17,3.29,2.41-.61-.48-2.37-1.13-2.74.71-1.1-.63-1.65-.94-2.75-1.56-.73.35-1.09.52-1.81.87-.35-1.11-.52-1.67-.88-2.77-.49,2.57-1.83-.26-2.32,2.31.65.54.97.82,1.62,1.36-.28,1.47-2.69,1.87-3.37,1.78-.44-.66-.65-.99-1.09-1.65-1.32,2.07-4.35.91-5.71.73-.45.99-.68,1.48-1.12,2.47,1.13.15-2.92,2.24-3.43,2.54,0,0-1.12-.14-1.18.22-.12.73,2.51,1.44,2.44,1.81-.06.36-1.53.92-1.81,1.25-.45-.06-1.18.22-1.3.95-.02.14-.04.22-.06.36-.49-1.18-1.54-1.69-2.44-1.8-1.52.93-3.02,1.86-4.64,2.04.33-.4.5-.61.84-1.01-.02-1.63-.03-2.44-.05-4.07ZM450.86,285.33c.05.64-.14.99-.56,1.04-.21.03-1.08-.19-1.13-.83-.02-.32.4-.38.61-.4.43.08.65.12,1.09.19ZM451.71,285.23c.4-.38.99-1.09,1.42-1.14-.38.69-.78,1.07-1.42,1.14ZM454.36,283.29c-.4.37-.81.75-1.23.8.17-.67.81-.75,1.23-.8ZM466.55,296.51c.63-.05,1.22-.75,1.18-1.74-1,.08-1.51.12-2.51.2.53.61.8.92,1.33,1.54ZM471.86,268.66c-.22.02-2.39.56-2.37,1.22.01.33,1.11.22,1.32.2,1.48-.14,2.23-.21,3.71-.33.51-.58.76-.86,1.27-1.44.66-.06,1.96-.82,1.94-1.83,0-.33-.02-.66-.23-.64-.22.02-.21.68-.2,1.01-1.98.17-3.48,1.62-5.44,1.81ZM474.63,273.06c-.96-.05-1.44-.08-2.4-.13.05,1.32,1.98.49,2.4.13ZM477.83,304.72c.62-.03,7.41.03,7.38-2.64-1.57.06-2.36.09-3.92.15.06,3-3.53-.5-3.45,2.49ZM481.91,265.49c.44-.03.43-.7.43-1.03-.36-.11-.53-.16-.89-.27,0,.34.25,1.32.47,1.3ZM488.72,300.96c-.99-.1-1.49-.16-2.49-.25.01,1.34,2.08.6,2.49.25ZM513.7,266.08c-.65-.33-3.72-1.31-3.77.41.22,0,1.77-.04,1.76.31-.02.69-2.68,1.08-3.13,1.09-2.42.06-2.28,3.12-4.25,3.18-.63.84-.94,1.26-1.57,2.09,3.97-2.5,7.41-2.48,9.29-3.62.84-.5,2.94-2.1,4.3-2.8.02-.55.04-.83.06-1.38.01-.34.09-2.07-.36-2.06-.22,0-2.1,2.44-2.33,2.79ZM515.71,281.56c.43,0,.88-.34.91-1.03-.6-.14-.9-.21-1.5-.35.24.55.36.83.59,1.38ZM520.58,261.18c-.67,0-.64-.69-.6-1.38.12-.69.19-1.04.31-1.73-.26-.13-.4-.2-.66-.34-1.12.01-1.22,2.08-1.28,3.47-.11,2.41-.07,6.55,1.91,6.55.49-1.04,1.4-1.39,2.06-1.39.02-.34-.68-4.15.22-4.16.44,0,.85.69,1.04,1.38-.02.35-.08,1.39.37,1.39.45,0,.93-.69,1.19-1.39.83,1.12,1.24,1.67,2.06,2.8.22,0,1.62-1.03,1.62-1.03.02-.35-.42-.35-.42-.35-.67,0-1.54-.37-1.92-1.41-.22,0-1.11,0-1.07-.7.04-.7,1.42-1.39,1.89-1.73,1.34-1.39,2.01-2.08,3.36-3.46-.97,1.04-3.28,2.07-3.13-.36-.87.97-1.3,1.46-2.17,2.43.18-3.12-4.74.71-4.77,1.4ZM518.82,279.51c-.03.69,1.7.7,1.91.71,1.18-1.09,1.77-1.64,2.97-2.74.44,0,1.32-.32,1.38-1.37.02-.35.06-1.04-.38-1.05-.22,0-.26.69-.28,1.04-2.26,1.36-3.38,2.04-5.61,3.41ZM526.58,238.24c.7-.01.99-1.06,1.03-1.75-.65-.13-.97-.19-1.61-.32.23.83.35,1.24.58,2.07ZM525.29,257c.22,0,.26-.69.28-1.04-.26-.14-.39-.21-.66-.34-.02.35-.08,1.39.37,1.38ZM536.4,85.62c-.02.28-.02.42-.04.7.63-.9.95-1.35,1.58-2.25.02-.28.03-.42.04-.7.08-1.39-1.73-.15-1.63-1.89.3-5.22,4.35-9.13,4.89-13-4.17.47-5.51,8.58-5.73,12.4-.04.7-.41,2.11.47,2.02-.36,1.08.48,1.67.42,2.72ZM528.31,255.61c.22,0,.25-.35.27-.7.04-.7-.18-.7-.64-.7h-.23c-.04.7.14,1.39.59,1.4ZM543.62,72.73c-.07,1.05,1.41.89,2,.83.3-1,.46-1.5.76-2.51-.94-.04-1.41-.06-2.35-.1-.02.35-.37,1.08-.41,1.78ZM543.02,81.81c-.07,1.05.13,2.42.64,3.4.58-.06.9-.44.95-1.13.1-1.4-.66-3.06-1.18-4.05-.16.71-.24,1.07-.41,1.78ZM544.37,87.57c-.07,1.05.46,1.69.1,2.77-.58.05-1.18.46-1.23,1.16-.05.7.26,1.61.46,1.69,1,.41,2.36-5.08,2.78-6.86-.82.08-1.22.12-2.04.2-.03.42-.04.63-.07,1.05ZM533.41,257.04c.45,0,.5-.69.53-1.04-.35-.14-.53-.22-.88-.36-.02.35.13,1.4.36,1.4ZM547.74,92.81c-.54,1.16-.81,1.74-1.35,2.9,1.15-.1,1.36.92,2.48,1.18.23.68.99,2.01,1.56,1.96.35-.17.53-.25.89-.42-.26-1.1-.38-1.64-.64-2.74-.6.4-1.44.12-1.36-.93.01-.14.02-.21.03-.35,2.88-.25-1.05-5.13-1.32-5.45-.11,1.54-.17,2.31-.28,3.85ZM562.42,113.81c.28-.02.95-1.11.98-1.46-.4-.54-.6-.81-1-1.35.03-.35.59-3.2.02-3.17-.85.05-1.86,1.87-2.71,1.92q-.29.02-.25-.34c.03-.28.04-.42.06-.71-1.23-1.33-1.85-1.99-3.09-3.3-.57.04-1.08-.63-1.02-1.33.02-.28.04-.42.06-.71-1.78-.43-2.67-.65-4.45-1.06-.99,1.06-1.48,1.58-2.47,2.64-.11,1.4.66,2.38,1.8,2.3.73-.75,1.1-1.13,1.84-1.89.85-.06,1.93.56,1.82,1.96,2.97,1.54,4.6,5.29,8.55,5.08,0,0-.42,1.43-.13,1.42ZM538.9,253.27c-.05.7.14,1.06.6,1.07.22-2.81,4.09.1,4.33-2.72.09-1.06-1.02-1.43-1.48-1.44-.09,1.05-1.03,1.38-1.48,1.37-.32-.57-.48-.85-.8-1.42-.51.7-1.08,2.09-1.16,3.14ZM553.81,95.79c-.26,3.17,1.03,4.81,3.29,5,.04-.42.05-.63.09-1.06.09-1.06-.1-2.1-.3-3.13-1.22-.47-1.83-.7-3.05-1.17-.01.14-.02.21-.03.35ZM543.16,284.51c-.01.14-.02.21-.03.36-.06.7-.13,1.41.3,1.43.18-.13.28-.19.46-.32-.52-1.45,7.11-3.81,7.87-4.83.04-.35-.07-1.43-.07-1.43-.22-.01-.36,1.4-.36,1.4-2.75,1.24-5.52,2.84-8.17,3.4ZM568.28,108.58c-.07.71,1.02,1.01,1.59.98.57-.03,1.14-.05,1.49-.78-1.22-.23-1.83-.34-3.05-.57-.01.14-.02.22-.04.36ZM557.58,280.14c.43.03.91-.29.99-1.01-.6-.19-.89-.29-1.49-.47.2.59.3.89.5,1.48ZM590.9,127.96c.05-.36-.74-.72-1.01-.72-.57,2.16-1.67,0-1.85-.71-1.67.01-2.78-2.12-3.4-3.91-.6.36-.93.73-1.02,1.45-.36,2.87,2.88,5.7,4.54,5.69.83,0,1.48-.73,1.58-1.45,0,0,1.11,0,1.16-.36ZM584.31,120.85s-.09.72.19.71c.28,0,.65-.73.69-1.08.04-.36.09-.72-.19-.71-.28,0-.32.37-.61.37-.04.28-.05.43-.09.71ZM565.67,275.4c.44.04.53-.68.58-1.04.05-.36-.13-.74-.35-.76-.22-.02-.26.34-.48.32-.05.36.04,1.46.26,1.48ZM567.49,273.39c.85-.36,1.28-.54,2.13-.9.93-.27,2.19-1.25,3.08-1.16.22.02.45.04.49-.32.1-.72-.74-1.17-1.19-1.21-.45-.04-.77.65-.86,1.37-1.11-.1-2.63,1.21-3.65,2.21ZM592.23,130.48c-.05.36-.15,1.09.4,1.09.28,0,.65-.72.75-1.44,0,0,.05-.36-.23-.36-.35.14-.53.21-.88.36-.02.14-.03.21-.05.36ZM593.91,132.29c.09.15.13.22.22.37.55,0,.66-.72.71-1.08q.05-.36-.22-.37c-.11,0-.17,0-.28,0-.05.36-.38.72-.43,1.08ZM595.87,134.12c.28,0,.33-.36.38-.72-.29-.29-.44-.44-.73-.73-.05.36-.2,1.44.35,1.45ZM595.3,138.09c-.05.36-.1.72.17.73.54,0,.65-.72.7-1.08-.31-.15-.46-.22-.77-.37-.04.29-.06.43-.1.72ZM597.01,139.56c-.05.36-.16,1.08.39,1.09.28,0,.65-.71.71-1.07.05-.37.11-.72-.44-.73,0,0-.32.35-.6.35-.02.15-.03.22-.05.37ZM611.74,71.18c.06,1.16.1,1.73.16,2.89.99-1.02,1.49-1.53,2.49-2.56-1.04-.28-1.56-.42-2.59-.7-.02.15-.03.22-.06.37ZM585.55,259.79c.45.05.56-.68.62-1.04-.43-.19-.65-.29-1.08-.49.18.61.28.92.46,1.53ZM590.21,272.18c-.44.98-.65,1.48-1.09,2.46-1.77-.23-2.46,2.66-4.23,2.44-.4.25-.6.37-1,.61-.66-.08-.38-1.9-.27-2.62,1.16-.23,3.5-.69,3.91-3.23,1.07.13,1.6.2,2.67.33ZM604.93,143.38c-.28,1.81,4.04.5,3.41,2.67,1.02.48,1.52.72,2.54,1.2-.03,1.83.81,3.34,2.16,3.41.27.01.54.03.6-.34.25-1.46-1.71-4.49-2.35-5.61-1.91-.08-3.46-2.33-4.6-3.83-.66.71-1.6,1.41-1.77,2.5ZM601.2,193.37c.51.03.63-.69.69-1.06-.38-.17-.57-.26-.95-.43-.06.37.02,1.47.27,1.49ZM604.45,187.7q-1.03-.07-1.26,1.39c.51.03,1.14-.66,1.26-1.39ZM605.21,186.28c.2.01.31.02.51.03.12-.73-.33-1.13-.84-1.16-.06.37-.18,1.09.33,1.13ZM615,162.93c.19-1.1.85-1.8-.48-1.88-.85-2.56-1.28-3.84-2.15-6.38,0,0,.52-1.45.25-1.46-.54-.03-1.5,2.5-1.57,2.86.15,1.04.23,1.56.37,2.6,1.15,1.16,1.9,3.05,2.38,4.93-.91,2.16,2.01,3.82,2.54,5.34.48-.26.71-.4,1.19-.66-.2-1.87-1-3.4-1.61-4.55-.26-.02-1.06-.07-.93-.8ZM595.34,255.33c.46.05.58-.67.65-1.04.06-.36-.11-.76-.34-.78-.23-.03-.29.34-.52.31-.06.36-.01,1.48.21,1.51ZM608.66,184.3c.52.04.64-.69.7-1.06.06-.36-.14-.75-.39-.77s-.32.35-.58.33c-.06.36.01,1.47.27,1.49ZM604.09,257.56c.67-.06,1-.09,1.67-.15-.48-.97-.72-1.45-1.2-2.42-.19,1.02-.28,1.54-.47,2.56ZM605.1,262.21c.23.03.96-1.37,1.03-1.74-.42.24-.63.36-1.05.61-.07.37-.21,1.1.02,1.13ZM609.55,251.15c-.19-.03-.28-.04-.46-.06-.84.64-1.57,2.04-1.85,3.52-.07.37.09.77.32.8,1.15.16,3.65-1.76,4.79-2.73,1.39.2,2.52-1.91,3.35-3.68-1.86-.27,3.01-4,3.23-4.08,1.2-.42,2.73-2.65,4.85-2.33.23-1.11,1.42-.93,1.89-.86.91-1.08,1.37-1.62,2.29-2.71-.51-.84-.76-1.26-1.27-2.1-.48,1.07-1.9.86-2.38.79-.79,1.41-1.18,2.11-1.96,3.52-.76-.11-1.14-.17-1.89-.27-.56.37-.84.56-1.4.94.01,1.14-1.01,1.37-1.48,1.31-1.93,2.38-6.07,2.57-8.95,5.2-.21,1.1,2.12,1.42,2.59,1.48-.21,1.1-.98,1.37-1.67,1.28ZM620.22,253.85c.93.15,1.86-.85,2.63-2.25.24.04.39.44.31.82-.23,1.11-1.01,2.51-1.63,3.18-1.39-.22-2.62,1.11-4,.89,1.07-1.05,1.61-1.58,2.69-2.63ZM671.22,36.1s-.95-.04-1.03.33c-.08.37-.16.74.08,1.13,3.1.5,6.19,1.03,9.37,1.2.96.05,4.45.26,5.11-1.21-4.37-.64-9.07-1.26-13.53-1.45ZM658.32,205.64c-.16-.65-.24-.97-.39-1.62-.25.58-.37.87-.62,1.45-.51-.08-1.01-.16-1.19.58-.37,1.5-.71,1.83-1.72,1.66-.64,2.61-1.85.1-2.66,3.45-2.06,3.15-4.43,6.64-7.17,8.52.16.41.32.82.81.9q.99.16.55,2.02c-2.14.43-4.44,1.6-6.39,1.29-.53,1.46-.8,2.18-1.33,3.64,1.14-.13,1.71-.19,2.84-.32.64.49,2.59.81,3.02-1.05.46-.23.69-.35,1.15-.59-.03-3.1,4.36-1.21,5.8-7.18,2.34-1.17,4.69-2.32,7.16-3.84.56-2.24,1.19-.58,1.66-2.45-.85.25-.72-1.29-.53-2.04-.5-.09-1.51-.26-1.23-1.38.46-1.87,2.01-2.79,3.65-4.07-1.01-.17-2.37,0-3.41.99ZM642.17,237.48c.1.02.15.03.24.04.18-.75-.22-1.2-.7-1.28-.18.75-.02,1.16.46,1.24ZM647.25,229.82c-.97-.17-2.05,1.2-2.56,2.27.97.17,2.2-.78,2.56-2.27ZM696.89,47.51c.31.03,1.17.48,1.26.1-.34-.18-.51-.27-.86-.45-1.57-.43-2.35-.65-3.93-1.08,1.41.56,2.11.85,3.52,1.42ZM663.13,203.33c.51.09,1.11-.21,1.3-.96.38-1.5.09-3.5-.13-4.7.19-.75.57-2.24-.2-2.37-.77-.13-1.68,2.45-1.87,3.2-.56,2.24.08,3.91-.49,6.15.35-.33.95-.62,1.4-1.32ZM678.99,182.92c.53.09.73-.66.83-1.04-.49-.24-.73-.36-1.22-.6.16.65.23.98.39,1.63ZM687.09,162.28c-.1.38-.92.25-1.19.2-.27-.04-1.9-.3-1.8-.68.2-.75,1.49-1.33,1.79-2.45.45.46,1.5,1.81,1.19,2.93ZM685.59,163.61c.81.13,2.23,1.15,1.82,2.66-.48,1.34-.72,2.01-1.2,3.34-.47.08-.71.12-1.17.19-.54-.09-.98-.55-.67-1.69.49-1.8.73-2.7,1.22-4.51ZM678.97,197.1c-.21.75-1.54,5.64-2.57,5.45-1.28-.24-.77-2.11-.47-3.24.51-1.88,3.79-9.97,4.83-9.78-.72,3.03-1.08,4.54-1.8,7.57Z"/>
      <path class="cls-1" d="M817.54,314.83c.84-1.54,2.12-2.44,3.02-3.36.26-.27,6.5-7.47,7.13-8.62.68-.14,2.02-.93,2.44-1.69.43-.77-.28-1.13-.51-1.25-1.16.78-1.73,1.17-2.88,1.96-.58,1.28-.87,1.91-1.46,3.19-.47-.24-1.14-.09-1.57.67-.63,1.15-.82,2.03-1.74,1.55-.96.88-1.44,1.33-2.39,2.21-1.26,2.3-5.21,10.59-7.46,9.41-1.03,1.04-1.54,1.56-2.56,2.6-2.49,4.61-3.92.9-6.59,5.89-1.93.96-4.26,2.68-6.13,4.64-1.31-.69-5.19,5.62-6.19,7.53-1.29-.68-3.66,5.91-5.14,5.13-3.21,6.14-4.11,3.21-7.28,1.55-2.64,2.02-4.86,3.79-6.61,7.24-.39.77-.97,1.92-.35,2.25-.93,2.04-1.4,3.06-2.33,5.11.02.98-.16,2.36-.75,3.51-.39.76-1,.43-1.2.33-1.6.6-3.78,1.87-5,1.22-.35-1.35-.52-2.03-.88-3.38.19-.38,1.14-2.3.73-2.52-.41-.21-1.93,2.86-2.12,3.24-.57,1.15-8.32,8.19-9.32,7.67-2.11,3.52-3.16,5.28-5.26,8.81-2.27,2.66-5.68,4.21-7.33,7.67-.55,1.15-1.48,2.59-2.23,2.66-.73,1.54-1.85,1.9-2.58,3.44-.37-.01-.56-.02-.94-.03,2.18-4.61,4.76-8.05,6.77-12.27.77.41,11.42-15.65,11.6-16.04.6.31,1.36-.74,1.73-1.5.37-.77,1.65-3.95,1.04-4.26-.2-.1-.94,1.43-1.13,1.82-.62.45-.93.67-1.55,1.12-.66,1.39-.99,2.08-1.66,3.46-1.04-.34-1.55-.51-2.59-.85.41-1.51.62-2.26,1.03-3.77-.14-1.4-.21-2.11-.36-3.51,0,0,.54-1.15.34-1.25,0,0-1.69,2-1.87,2.39-.22.46-.32.69-.54,1.15,1.15-.85.81.4.27,1.56-2.26,2.47-3.38,3.71-5.61,6.19-.78,1.69-1.18,2.54-1.96,4.23-.2-.1-2.89-.05-2.48.63-.39-.2-.77.09-1.12.86-.53,1.15-.69,2.02-1.47,1.62q-1.56-.79-.16-3.87c1.38.69,1.44-2.11,1.39-3.07-1.19-.59,2.49-8.18,3.01-9.33-.2-.1-.61-.29-.26-1.06.35-.77,1.3-1.24,1.68-1.53.88-1.07,1.32-1.61,2.21-2.68.82.39,1.87-1.91,2.39-3.06,1.54-3.38,2.31-5.07,3.86-8.45.21.1,2.24.12,2.59-.65.18-.38-.42-.2-.63-.3-.63-.86-.94-1.28-1.57-2.14-.98.48-2.06,2.3-2.76,3.83-1.02.46-1.52.68-2.54,1.14-1.38,3.07-1.49,4.42-3.55,3.45-.62-.29-.48-1.15.03-2.31,1.88-4.23,4.58-5.76,6.13-9.21.21.1.84.39,1.02,0,.35-.77.26-1.73.02-2.31,1.5-1.63,3.78-3.83,4.82-6.14.34-.76.3-1.25-.13-1.45-1.12,1.34-1.68,2.02-2.8,3.36-.86,1.92-2.4,3.07-3.59,3.46-.68,1.54-1.03,2.31-1.87,1.93-.25-.11-.38-.17-.63-.29-.47,1.07-.71,1.61-1.19,2.69-.68.62-1.01.92-1.69,1.54-1.01,2.3-.98,2.78-2.44,2.12-.42-.19-1.04-.47-.54-1.62.4-.92.6-1.39,1.01-2.31,2-2.04,3-3.07,5.02-5.1,2.03-3.69,3.05-5.53,5.09-9.22,1.03,0,13.55-17.32,14.86-19.69,1.33-2.41,5.52-6.81,7.6-7.75,1.08-2.11,1.62-3.17,2.7-5.29,2.64-3.1,3.96-4.65,6.63-7.75.85-1.85,1.28-2.77,2.13-4.62.97-.14,1.46-.21,2.43-.35,1-2.15,1.5-3.23,2.51-5.38,1.08-.47,2.22-2.29,2.76-3.44,1.45.6,4.47-2.73,5.56-5.04.8-.95,1.2-1.43,2.01-2.39.73-1.53,1.7-2.97,2.99-3.82.18-.38,5.22-6.58,5.47-6.48,1.54-2.59,3.51-5.45,5.7-6.85.59-1.23.89-1.84,1.48-3.07.63-.29.94-.44,1.57-.73,1.3-2.69,6.46-8.88,8.11-10.97.21-1.2.32-1.81.53-3.01.56-1.15,2.06-1.01,2.84-.69,1.2-1.17,1.8-1.76,3.01-2.93.75-1.53.6-2.52-.45-2.95-6.34-2.55-14.22-1.06-20.28-3.32,1.24-2.69-3.51-1.75-4.21-.22-.17.38,2.62,2.32,3.15,2.52-.09.87.16,2.32.68,2.52.78.3,2.56-3.55,3.09-3.35.27.1-.09.87-.27,1.25,1.83.7.25,1.45-.89,1.92,1.53,4.66-10.28,2.43-12.36,1.66-9.08-3.35-19.21.18-27.96-2.7-.5.36-.75.54-1.24.9-.93-.31-1.39-.46-2.32-.76-.56.51-.83.77-1.39,1.28-1.03-.33-1.54-.5-2.57-.83-.55.52-.83.77-1.38,1.29-.51-.16-.77-.25-1.28-.41-.96.99-2.13,1.04-2.9.8-.26-.08-1.58.37-1.72.75-.15.39.1.47.36.55-2.45,4.81-8.53,13.2-12.31,15.86-1.8,2.69-2.7,4.03-4.49,6.72-.98-.31-1.51.38-1.94,1.52-.29.77-1.34,4.28-2.31,3.97-.73-.23.03-2.99.32-3.75,1-2.68,2.84-4.66,3.85-7.34.97-1.41,1.45-2.11,2.43-3.52.7.22,1.04.33,1.74.55,2.24-4.43,6.12-10.93,9.59-13.28.15-.38.59-1.53.34-1.61-.77-.24-1.5,1.68-1.65,2.06-1.16.67-1.74,1-2.9,1.67-2.33,3.13-5.14,6.11-7.67,9.16-.14.39-1.01,2.68-1.75,2.45-.25-.08.18-1.22.32-1.61-1.67.76-3.95,2.4-4.95,4.44-2.25,4.6-5.93,10.93-8.7,15.6-.94-.64-1.41-.95-2.36-1.59-1.1.68-1.64,1.02-2.74,1.7-.55,1.53-1.47,3.36-2.45,3.9,1.42.44,3.12.13,2.02,3.18-1.02,1.38-1.53,2.06-2.55,3.44-.24-.07-.7-.22-.98.54-.27.76.02,2.13.35,2.66-1.66,2.02-2.49,3.04-4.13,5.06-.54,1.52-1.37,1.69-2.06,1.47-.18-.06-.28-.09-.46-.15-.67,1.91-1.99,2.76-2.66,4.67.26.42.39.63.64,1.05-.43,1.22-.65,1.83-1.08,3.06-.96.71-1.43,1.06-2.38,1.77-.68-.22-.64-1.06-.24-2.2.11-.31.16-.46.27-.76-1.01.87-1.51,1.3-2.51,2.16-1.13-.36-1.97.64-2.49,2.16-.05.15-.08.23-.13.38-.71.62-1.07.93-1.77,1.55-.39,1.14-1.26,2.97-2.19,3.52-.82,1.26-1.23,1.89-2.05,3.15-.77,2.28-2.81.37-3.95,3.79-1.56,2.36-2.34,3.55-3.89,5.91-.65-.21-1.86-.18-2.35,1.34-1.58,1.18-2.29,5.56-3.79,5.08-.17-.05-.25-.08-.42-.14-.73,1.11-1.1,1.66-1.83,2.76-1.27-.41,1.34-7.1,1.58-7.86q-1.72-.54-2.69,2.5c-.34-.11-.52-.16-.86-.27-.47-2.23-1.39-4.58-2.34-6.11.35-1.14,1.41-3.05,1.82-3.6,2.21-2.89,5.3-10.85,6.96-16.15,1.22,1.59,2.65,3.25,3.97-.92-.18-.05-.27-.08-.45-.13-1.13-.33-3.95-.72-4.66,1.55-1.49,1.64-3.08,3.66-4.44,5.74-.35,1.14-1.03,2.58-1.93,3.15-.46,1.52-1.24,1.7-1.9,1.51-.18-.05-.26-.08-.44-.13-1.79,2.45-2.68,3.67-4.45,6.12-.22.75-1,2.58-1.65,2.39-.11.38-.56,1.89-.99,1.77-.43-.12-.31-1.32-.42-1.75-.88,1.06-1.31,1.59-2.18,2.65-.95.38-1.42.58-2.37.96-.54,1.07-1.4.83-1.82.71-.94,1.37-1.41,2.05-2.35,3.41-.74.2-1.38,1.65-1.7,2.78-.85.58-2.19,1.99-2.64,2.91-1.12,2.31-3.45,2.69-4.27,5.69-.62,2.26-2.17,4.65-3.29,6.35-.41.21-.61.31-1.02.52-.71,1.82-2.03,3.47-3.14,5.17-.8,3-2.81,4.04-3.7,7.42.04-1.12.06-1.68.09-2.8-1.4-.4-.21-1.67.59-2.25.31-1.52.47-2.29.78-3.81-.2-.06-.61-.17-.41-.92.2-.75,1-1.33,1.31-1.64.56-1.13.84-1.7,1.4-2.84.69-2.62,2.32-4.59,3.64-7.05-1.66-.46,4.3-9.31,5.35-9.84.32-1.52.49-2.29.81-3.81-1.01,1.34-1.51,2.01-2.5,3.36-.91,3.38-3.44,2.71-4.13,5.33-2.33,5.41-8.46,13.78-11.4,18.58-.28,1.12-.68,1.82-1.28,1.65-.8-.22-2.15,2.61-2.52,4.1-1.73,3.52-4.14,5.65-6.14,7.87-.36,1.5-1.11,2.87-2,2.24-.09.37-.18.75-.37.69,0,0-.14-2.02-.05-2.4.79-1.21,1.18-1.82,1.97-3.03.13-1.24.19-1.85.32-3.09-.28,1.19-.43,1.79-.71,2.98-.59-.32-.89-.48-1.49-.79.54-1.6.82-2.4,1.36-4,.79-1.22,1.19-1.82,1.99-3.04-.06-.81-.09-1.21-.16-2.02.69-.77,1.04-1.15,1.74-1.92.45-1.87.02-2.77.46-4.63.27-1.12,1.03-2.5,1.42-3.2-1.43-.36,3.33-7.48,3.81-8.54-.44-.9-.83-2.97.63-2.61.45-1.87,1.66-3.15,2.39-6.14.91-.97,2-2.68,2.8-4.07.28-1.13.86-2.57,1.69-3.16.65-2.61,1.7-5.02,2.52-7.32.36-1.01,4.71-7.63,5.18-9.5,1.39-.87,2.09-5.46,3.8-7.45.39-1.5.57-5.02,2.16-4.67.97-3.75,2.53-6.97,3.31-9.97,1.37-2.48,2.76-4.95,4.52-6.95.79-3,3.18-4.48,4.08-7.85,1.44-2.39,2.17-3.59,3.62-5.98.34-.33,3.77-6.36,4.08-7.49,2.45-4.26,4.88-9.33,8.31-12.2.63-2.26,3.23-4.91,4.77-6.59.32-1.13.89-2.21,1.76-2.43.82-2.87,1.23-4.3,2.05-7.16-2.04-.41,1.96-8.78-.36-9.23-2.07-.4-4.55.72-6.67,1.51-.52-.1-4.22-.38-3.92-1.5.3-1.13,6.24-2.02,6.86-2.3,2.28-.37,3.59-4.09,5.42-3.74,2.18-.7,3.27-1.05,5.46-1.74-.5,2.7,1.35,1.06,2.21.04.87-.31,1.3-.46,2.17-.77-4.88-1.38-9.57-1.47-14.75-1.6-.57,1.08-1.72,1.27-2.5,1.14,1.9-4-4.7-3.95-4.8-6.7,1.64-3.33,2.47-5,4.13-8.33,1.34.21,2-1.24,3.88-.93.2-.75,6.73-2.01,7.91-2.21,5.1-1.09,12.34-.53,17.13-4.01,2.18.42,3.27.64,5.44,1.07.73-1.62,1.1-2.43,1.83-4.06,1.37.27,2.35.87,3.6,1.53,2.76-5.08,7.13-8.63,10.08-14.09,1.96.4,3.96-4.85,4.58-6.75.57.12,1.26-.14,1.51-.91.25-.76.33-1.96,1.18-1.78.97-1.1,1.45-1.65,2.42-2.75.61-.36.91-.54,1.52-.9.3-.91.45-1.37.75-2.28.96-1.43,1.44-2.14,2.41-3.57,1.73.36,1.18-2.61,2.91-2.25.82-.97,1.23-1.45,2.05-2.42,1.54-4.57,7.35-7.84,9.98-11.78.59-1.35.88-2.02,1.47-3.36.6.12,1.02-.2,1.29-.96.39-1.14.75-3.11,2.24-2.79,1.06-3.05,4-4.07,5.07-7.12,2.34-2.62,3.52-3.93,5.89-6.54,1.21-3.43,4.35-4.82,5.58-8.26,1.23.26,1.64-.89,2.89-.62.55-1.52,1.41-2.99,2.45-4,.69-1.91,1.94-1.65,2.49-3.17,4.13-4.89,8.45-10.14,13.17-14.5,2.56.55,4.32-6.92,6.25-6.5.94-.63,2.19-1.18,2.63-2.33.14-.38-.18-.45-.5-.52.25-1.77.37-2.65.61-4.42,1.01,1.04,2.46.94,3.19-.97,1.63.35,3.2-.96,5.16-.53,1.07-.93,1.6-1.39,2.67-2.32.59-1.53,1.73-1.7,2.71-1.48.79.18,1.19.27,1.98.45,1.2-3.06,4.6-4.38,5.96-7.83,1.33.3,2.12-.77,2.73-2.31.46-1.15,1.52-4.36,2.5-4.44,2.63-.22,5.15-5.52,7.52-4.98,1.31-1.04,1.96-1.56,3.28-2.6.34.08,1.7.4,1.39,1.16-.31.77-1.15,1-1.64,1.3-.81,1.07-1.9,3.76-.22,4.15,1.1-2.69,1.48-.91,1.69.4,1.15-.99,3.14-2.2,2.03.49,1.74.08,2.62.13,4.37.22.48-1.15,1.46-2.61,2.8-3.12,2.03.5,3.05.76,5.08,1.27-1.31,3.07,3.04-.93,3.69-2.47,1.38,1.2,3.08,2.49,4.95,2.56.47-1.08.7-1.61,1.17-2.69,1.02.27,2.55.24,3.4-.82.55,1.52.83,2.28,1.38,3.8,1.7.46,4.27-3.59,5.3-3.31.34.09-.69,2.4-.86,2.78-1.72,3.84,3.03,6.02.42,11.78,2.02.57,1.99,2.3,3.67,2.79-.43,1.61-.65,2.42-1.09,4.03.72,1.08,1.08,1.62,1.79,2.71-1.32,1.53-1.97,2.3-3.28,3.84-.34-.1-1.33-.39-1.69.38-.18.39.46,1.44.62,1.93-.53,1.15-.91,2.78-.28,3.85-1.02.57-3.72,2.39-1.75,2.98-1.74,2.8-2.62,4.2-4.35,7.01-1.3-.39-2.16.66-2.69,1.82-.14.31-.21.46-.35.77-1.27.84-1.91,1.27-3.18,2.11-1.4,3.07-4.84,4.23-6.24,7.31-.52,1.15-1.04,2.3.23,2.69.64.19,2.72.39,2.2,1.54-.18.38-1.48.86-1.98,1.15-1.21,1.38-1.81,2.08-3.02,3.46-1.3.48-2.28,1.06-3.43,2.02-1.08,1.77-1.62,2.65-2.7,4.42-1.57-.47-4.19,2.22-5.19,3.67-.17.38-.06,1.72.24,1.82.31.09.83-1.06,1-1.44,2.18.66,3.01-4.33,5.2-3.67.83-.27,1.25-.4,2.09-.67.5.15.75.23,1.25.38.87-.96,1.31-1.44,2.18-2.4.17-.38.88-1.92,1.5-1.72.63.19.6,1.06.73,1.54.31.1.45.58.28.96-2.48,5.39-8.21,9.31-11.71,13.92-2.26,2.81-3.39,4.21-5.63,7.02-.91-.29-1.39,0-1.91,1.15-.35.77-.83,1.06-1.43.87-1.51.58-2.26.88-3.76,1.46-1.47-.1-2.2-.15-3.67-.25.97-1.27,1.46-1.91,2.44-3.18,1.25-.49,2.24-1.93,2.75-3.08.17-.39,2.52-4.9,1.6-5.18-.62-.19-1.29,1.35-1.47,1.74-.96.93-1.45,1.39-2.41,2.32-1.18,1.74-1.77,2.6-2.94,4.34-1.79,2.51-4.98,1.98-6.14,4.67-2.51,1.86-3.9,6.64-4.79,6.38-.3-.09-.27-.95-.4-1.42-2.48,3.25-3.71,4.87-6.16,8.12-2.52,1.84-3.77,2.77-6.26,4.62-.81,1.92.36,2.27-.62,4.57-.96-1.59-2.62,3.11-2.94,3.88-.61.68-1.96,1.57-2.54,1.4-.58-.17-.26-.94-.1-1.32.03-.85-.36-2.26-.94-2.43-.58-.17-.9.59-1.06.98-1.82,2.05-3.92,4.01-5.03,6.7,3.34-.31-.64,5.41.5,5.75.56.17,1.53-2.14,1.69-2.52,2.83-2.17,11.99-11.52,13.89-14.42.25.94.63,2.36,1.22,2.54,1.17.36,3.11-3.39,3.9-4.46.5-1.76.74-2.64,1.24-4.4,2.56-2.52,3.84-3.79,6.42-6.31.67-1.54,1.24-4.41,3.04-3.86.67-1.54,2.32-4.52,3.53-4.16.6.18.4,1.43.53,1.9,1.07-.11,3.18.55,2.32,2.47-1.5-.47-4.78,4.63-5.46,6.17-.59-.18-1.36.01-1.69.78-.51,1.15-.55,2.01-1.73,1.65-.95.93-1.42,1.39-2.36,2.32-.21,1.25-1.72,4.7-3.19,4.25-1.01,1.08-1.51,1.62-2.51,2.71-1.17,2.68-2.58,4.42-4.9,3.71-2.03-.62-4.58,9.89-6.86,9.19-.49,1.15-.37,1.63.49,1.89,2.85.89,6.94.44,10.02.12,1.06.87,1.58,1.3,2.63,2.18.5-.54.75-.81,1.26-1.35,6.82,3.12,16.72,2.53,24.19,5.23,2.49-1.26,3.74-1.89,6.26-3.14,5.63,1.87,8.44,2.84,14.07,4.83,1.74.67,10.86,5.22,13.08,1,1.52.05,2.28.08,3.8.14.32-1.27,1.54-3.58,3-2.99,1.02-1.92,3.12-3.87,4.82-5.04,2.88-4.06,4.33-6.09,7.23-10.15,2.5-1.42,3.76-2.13,6.28-3.54.83-1.53,2.15-1.93,2.98-3.47,3.74-6.9,3.77-.8,6.08-5.03.63-1.15,2.01-5.74,3.54-5.12,2.62-2.31,3.94-3.47,6.58-5.78,1.24.5,1.78-1.15,3.02-.65.41.36.62.53,1.04.89.52-.25,1.98-.12,2.41-.89.21-.38-.72-.76-1.04-.89,1.06-1.08,1.59-1.61,2.65-2.69,1.58-.77,2.75-2.17,3.61-3.7,1.44-.35,2.16-.53,3.6-.88,3.98-4.03,5.98-6.04,10.01-10.05,1.46-.34,2.2-.52,3.66-.86,1.09-1.91.02-2.83,1.12-4.74.7-1.23,1.05-1.84,1.75-3.06.87-.4,1.3-.6,2.17-1-.34-.52-.52-.78-.86-1.3,1.96-.62,3.82-1.75,5.35-3.01,2.95,1.21,3.07-2.53,4.72-1.85,7.57,3.12,7.82-10.07,18.04-12.48,1.01.42,2.02.84,2.92-.68.36-.61.55-.92.91-1.53,2.15-1.49,5.55-2.93,7.59-2.07.69-1.14,2.86-2.62,4.22-2.05,1.23.52,1.84.78,3.06,1.31-.09.15-.14.23-.23.38.36.54.54.81.9,1.35,2.3-2.38,7.38-5.01,10.51-6.55.69.3,1.62.21,2.09-.55.71-1.14,1.18-1.91,2.56-1.31.78,2.28,5.43,6.78,8.07,2.59,2.54.74,3.82,1.12,6.36,1.88.9,2.76,1.35,4.15,2.23,6.92,6.53,3.01,6.01,3.78,13.32.27-.04,1.97-.06,2.96-.11,4.93-.85.19-1.28.29-2.13.48.34,2.75.5,4.13.82,6.89-1.56,1.25-2.33,1.87-3.89,3.12.76.87.08,2.55-.68,3.69,0,0-.5.75-.16.92,0,0,10.69-9.86,13.09-8.69,1.03.5-2.83,6.17-3.34,6.93-.77,1.13-2.57,3.78-4.26,2.95-2.62,2.54-3.93,3.81-6.54,6.35-.67-.33-1.26-.11-1.77.64-.76,1.13-.86,2.6-.71,3.68-1.43,2.12-2.15,3.18-3.58,5.3,3.14-.46,4.71-.68,7.86-1.12.15,1.09.1,3.1-.67,4.23-.52.76-1.18.42-1.51.25-1.7,1.18-5.1,2.01-6.12,2.49-1.34.62-4.2,2.96-6.2,3.97-2.04,3.03-5.84,4.16-7.87,7.19-1.94-.98-12.58,9.86-18.23,14.59-2.51,3.79-6.19,4.96-8.69,8.76-.38,1.83-.57,2.74-.96,4.57,0,0,.93.47.68.85-.25.38-1.98.51-2.29.35-2,3.03-5.64,4.22-7.88,7.63-.61-.31-1.46-.24-1.96.52s-.94,2.05-1.85,1.59c-1.2.6-1.8.9-2.99,1.51-1.24,1.9-3.42,2.81-4.65,4.7-.74,1.14-2.17,3.95-3.66,3.19-.88,1.37-1.33,2.05-2.21,3.42-.77.22-1.15.32-1.92.54-.73,1.14-2.25,2.89-3.62,3.19-.73,1.14-2.39,1.3-3.12,2.44-.25.38,1.5,1.28,1.79,1.43,3.21,1.65,6.12,3.17,9.79,3.58-.25.38-.75,1.14-.17,1.44.29.16,1.63-.67,2.17-.9,1.05.56,1.58.84,2.63,1.4.75-.42,1.13-.63,1.89-1.04.85.87,1.28,1.3,2.13,2.17,4.27.76,8.37,3,11.6,5.34.77-.41,1.15-.61,1.92-1.02,2.22,1.24,3.33,1.87,5.55,3.12.16.93.24,1.4.39,2.34,4.51-.59,7.2,2.01,10.4,3.88,1.17.68,5.2,1.45,3.27,4.08,1.74,1.03,2.62,1.56,4.36,2.6,0,.22,0,.33.01.55-.83,1.12-3.15-.27-3.73-.62-1.39,1.33-17.73-4.52-20.04-5.84-1.37.8-3.08.36-3.95-.13-1.32,1.88-10.69-1.29-12.1-1.55-5.62-1.03-13.05-.42-18.11-2.1-.34,1.46-.51,2.19-.85,3.64-.75,1.14-1.25,1.9-.12,2.51.34.18.51.27.85.46-1.5,2.27-5.54,3.18-6.94,2.42-1.69.73-2.54,1.1-4.23,1.83,2.8,1.5,4.19,2.25,6.99,3.78,2.35-1.82,6.05,1.26,7.45,2.04,1.3-.1,1.96-.16,3.26-.26,1.68.94,2.52,1.42,4.2,2.37.98-.29,1.47-.43,2.44-.72,1.4.8,2.44-.71,4.13.26.84.48,1.69.97,2,2.2-1.34,1.35-14-.63-15.96-1.72-.75.2-1.13.31-1.88.51-1-.56-1.5-.84-2.51-1.4-.74.42-1.11.63-1.85,1.05-1.67-.92-4.62-.47-6.76-.1-1.11-.61-5.73-1.57-6.97.32-1.08-.17-1.62-.26-2.7-.43-3.92,1.47-7.21,4.31-10.76,7-1.63-.87-4.74.02-6.81.44,1.41.74,2.11,1.12,3.52,1.87.09,1.57.65,2.39,1.73,2.98.17,1.32.25,1.98.42,3.3-.73,1.14-1.98,2.51-3,2.98-1.07-.58-4.49-1.41-5.7.49-3.14-.68-4.71-1.01-7.84-1.66-.7.44-1.05.66-1.74,1.1-.95-.51-1.43-.76-2.38-1.26-.49.35-.74.52-1.24.86-1.06-.56-1.59-.83-2.65-1.39-1.01.28-1.51.42-2.52.7-1.66,1.35-2.48,2.02-4.13,3.37-1.16,1.91-2.66,2.13-4.28,4.8-2.4,2.16-3.6,3.25-5.98,5.41-1.24,1.16-1.85,1.74-3.09,2.9-.91,1.52-9.94,8.33-11.62,8.95-2.82,2.33-4.22,3.5-7.01,5.83-.72,1.22-1.07,1.84-1.79,3.06-.75.41-1.13.61-1.88,1.02-1.12,1.91-2.54,2.16-3.43,3.69-.67,1.15-1.31,2.8-2.52,2.16-.89,1.53-2.02,2.94-3.41,3.7-2.54,2.65-3.8,3.98-6.32,6.64-1.43-.76-11.15,12.04-11.81,12.68-2.39,2.72-3.57,4.08-5.94,6.8-2.46,2.67-3.68,4.01-6.12,6.68-1.11.4-2.4,2.2-3.04,3.35-1.09.91-2.17,2.32-3.02,3.85-1.11-.6-5.17,5.17-6.23,6.59-1.53-.84-5.77,4.83-7.45,7.89-1.07-.09-4,5.28-4.63,6.43-.84.13-1.27.2-2.11.33-1.46,2.18-2.92,4.36-4.38,3.55.58-1.27.87-1.91,1.44-3.19,1.83-2.18,2.74-3.27,4.58-5.44.85-.03,1.9-1.45,2.52-2.6.85-.03,1.9-1.45,2.53-2.6,1.06-.91,2.98-1.86,3.82-3.39.21-.38.2-.89-.23-1.12.42-.76,1.03-2.42.38-2.77.94-.68,1.41-1.03,2.35-1.71,2.46-3.25,3.69-4.87,6.17-8.11.9.48,1.77-.05,2.62-1.58.17-.31.25-.46.42-.77,1.3-1.09,1.95-1.64,3.26-2.73.21-.39,1.28-2.31.6-2.67-.23-.12-.87,1.03-1.08,1.42-1.32.69-1.98,1.03-3.29,1.73-1.05,1.91-4.21,7.66-5.77,6.84.84-1.53,4.19-7.67,5.77-6.84-.26-1.13.57-3.16,1.2-4.31ZM679.89,182.68c.1.02.16.03.26.05.2-.75-.22-1.22-.75-1.31-.2.75-.04,1.17.49,1.26ZM663.76,289.84c-1.76,2.46-2.64,3.68-4.38,6.14-.54,1.89-2.6,3.35-3.78,4.25-.11.38-.85,3.83-.42,3.95.21.06.75-1.83.85-2.2.6-1.14.9-1.7,1.51-2.84.91-.57,1.37-.85,2.28-1.41.33-1.13,1.29-2.64,1.63-3.21,1.05-1.75,1.43-1.65,1.97-3.54.77-1.01,1.88-2.35,2.76-2.92.22-.76.67-2.27,1.33-2.09.09.02.13.04.22.06.11-.38.45-2.33,0-2.44-.22-.06-.78,1.83-.89,2.2-1.34-.36-2.66,2.54-3.1,4.06ZM669.65,282.05c.23.06.34-.32.45-.69.22-.76,0-.82-.45-.94-.09-.02-.14-.04-.23-.06-.22.76-.22,1.57.23,1.69ZM698.28,188.12c.53.11.75-.65.86-1.03-.37-.24-.56-.36-.94-.59-.11.38-.19,1.57.07,1.62ZM671,279.15c.27.07.41.11.68.18.23-.76-.12-1.25-.57-1.37-.11.38-.34,1.13-.11,1.19ZM685.83,275.01c.23.06.47-.7.59-1.07,0,0,1.15.33,1.27-.06,0,0-1.6-1.27-1.82-1.34-.12.38-.27,2.4-.03,2.47ZM680.47,304.62c-.99-.48-1.49-.72-2.48-1.19-.48,1.52,1.93,1.43,2.48,1.19ZM690.89,268.59c.09.03.14.04.23.07.25-.76.01-.83-.45-.96-.09-.03-.14-.04-.23-.07-.24.76-.01.83.45.96ZM689.92,271.62q.23.07.36-.32c.12-.38.01-.83-.22-.89-.18-.05-.28-.08-.46-.13-.12.38-.14,1.21.32,1.34ZM695.59,260.38c-.25.76-.38,1.97-1.08,1.77-1.01,1.54-1.52,2.31-2.52,3.85,1.3-.88,2.96-2.07,4.05-3.83.37-1.15.98-2.22,1.81-2.4,1.69-2.01,3.4-4.03,4.28-6.69-1.91-.54-4.48,4.15-5.22,6.42-.47-.13-1.07.11-1.32.87ZM680.65,302.58c.44.14.68-.62.81-1-.3-.26-.45-.39-.75-.65-.12.38-.27,1.59-.06,1.66ZM682.57,298.16c-.24.76-.27,1.59.16,1.72.08-1.15.12-1.72.21-2.86-.15.46-.22.69-.37,1.14ZM703.11,251.69c.24.07.61-.24.73-.62.13-.38.01-.83-.23-.9,0,0-.36.31-.61.24-.13.38-.14,1.21.1,1.27ZM704.96,249.3c.48.13.74-.63.87-1.01.13-.38.01-.82-.23-.89-.24-.07-.37.31-.61.24-.13.38-.27,1.59-.03,1.66ZM706.84,245.25c-.13.38,0,.82.23.89.72.2,1.83-.73,2.22-1.88.13-.38.27-1.59-.21-1.73-.49-.14-1.26,2.15-1.38,2.53-.24-.07-.73-.2-.85.18ZM710.56,241.29c.48.14.74-.63.87-1.01-.34-.26-.51-.39-.85-.65-.13.38-.27,1.59-.02,1.66ZM712.57,238.51c.24.07.62-.24.75-.63.13-.38.01-.83-.23-.9,0,0-.37.32-.62.25-.13.38-.14,1.21.1,1.28ZM714.47,236.12c.24.07.5-.69.64-1.07.13-.38.26-.76.01-.83-.25-.07-.62.24-.62.24-.13.38-.52,1.52-.02,1.66ZM720.44,219.43c-.13.38-.54,3.18-.29,3.25.25.07.65-1.07.65-1.07,1.51.41,1.54-2.09,3.07-2.5-.44-1.29-.66-1.93-1.11-3.21-.39,1.14-1.3,2.98-2.32,3.54ZM707.9,268.17c-.69-.38-1.04-.57-1.73-.96-.53,1.53,1.13,1.19,1.73.96ZM703.67,282.49c.23.07.36-.31.5-.69.27-.76.04-.84-.42-.98-.09-.03-.14-.04-.23-.07-.27.76-.31,1.6.15,1.75ZM710.5,265.17c.24.07.37-.31.5-.69.14-.38.27-.76.03-.84-.23-.07-.37.31-.6.24-.13.38-.4,1.14.07,1.29ZM714.54,262.61c.09.03.14.04.23.07.27-.76.04-.84-.44-.98-.09-.03-.14-.04-.24-.07-.27.76-.04.84.44.98ZM726.94,255.45c-.55,2.13-2.75,3.82-3.59,6.12-.75.61-2.26,1.83-2.97,1.61s-.29-1.37-.02-2.14c1.11-3.06,3.72-4.36,4.97-7.8.72.23,1.88,1.14,1.6,2.21ZM735.91,232.67c.29.43.43.64.71,1.07.46-1.23.68-1.84,1.14-3.06-.29-.43-.43-.64-.72-1.06-.45,1.22-.68,1.83-1.13,3.06ZM746.73,221.05c.29-.77.07-1.69-.44-1.84-.43,1.15-.32,1.61.44,1.84ZM765.36,211.8c.52.16,1.19-.05,1.6-.35-.67-.39-1-.58-1.67-.97-.15.39-.2,1.23.06,1.31ZM774.37,203.43c.53.17.84-.6,1-.98-.36-.29-.54-.44-.9-.72-.16.39-.36,1.62-.1,1.71ZM802.68,209.56c-.64-.23-.95-.34-1.59-.57-.59.5-.89.75-1.48,1.25-10.58-3.8-15.55-.6-22.13-2.76-.34,1.11-.51,1.66-.85,2.77,1.05.35,1.53-.81,2.58-.46-.32.77.04,1.33.57,1.5,6.02,2.02,17.46-1.94,23.27.18-.14-.77-.22-1.15-.36-1.92ZM813.09,128.82c1.42.41,2.13.62,3.55,1.03.64-1.19.96-1.79,1.6-2.98-.88-.77-1.31-1.16-2.19-1.93-1.38.89-2.32,2.34-2.96,3.88ZM830.02,109.58c.55.33.82.49,1.36.83.61.18,1.08-.11,1.41-.88.47-.29,1.72-.79,2.05-1.56s-.59-1.04-.89-1.13c-.78-.75-1.17-1.12-1.96-1.86-.79,1.84-1.19,2.77-1.98,4.61ZM786.34,214.86c-.17.39.62.66.62.66,1.82.64,3.99.52,5.8-.17.34-.77-1.33-1.81-1.59-1.9-.79-.28-2.01-.26-2.51.89-.26-.09-2.16.13-2.33.51ZM795.1,203.76c.53.18.87-.58,1.04-.97-.36-.3-.54-.45-.9-.75-.17.38-.4,1.62-.14,1.72ZM799.1,205.16c.53.19.87-.58,1.04-.96-.36-.3-.54-.46-.9-.76-.17.38-.41,1.63-.14,1.72ZM800.43,217.24c-.7-1.15-1.05-1.73-1.76-2.88-1.12-.23-1.68-.34-2.8-.57,1.23,1.33,2.72,2.77,4.55,3.45ZM846.02,103.9c-.51,1.15-.37,1.63.55,1.91.51-1.15.24-2.11-.04-3.06-.21.46-.31.69-.51,1.15ZM808.77,213.14c.11.04.16.06.27.1.36-.77,0-1.35-.53-1.55-.35.76-.26,1.25.26,1.45ZM751.82,337.87c.42.2.78-.56.96-.95.18-.38.14-.87-.07-.97-.21-.1-.39.29-.6.19-.18.38-.49,1.64-.28,1.73ZM755.36,358.56c.37-.76.34-1.74-.08-1.95-.56,1.15-.54,1.64.08,1.95ZM759.34,352.45c.03.78.05,1.17.08,1.96.63-.45.94-.67,1.57-1.11-.03-.78-.05-1.17-.08-1.96-.63.45-.95.67-1.58,1.11ZM765.91,362.15c.16.09.25.13.41.22.39-.77.17-1.37-.23-1.59-.19.38-.58,1.15-.17,1.37ZM782.44,335.3c.17.09.26.13.43.22.39-.76.16-1.37-.28-1.59-.2.39-.59,1.15-.15,1.37ZM778.06,348.09c.19.88.28,1.32.47,2.21.84.44-.16,2.37-.75,3.52-.32.61-.48.92-.79,1.53-1.16-.23-1.73-.34-2.89-.56.98-1.92.93-3.9,1.91-5.82.42.22,1.46.28,2.05-.88ZM792.59,323.02c.28.33.41.5.69.83.64-1.23.95-1.84,1.59-3.07-.2-.48-.3-.73-.5-1.21-.71,1.38-1.07,2.07-1.78,3.46ZM806.26,311.49c-.41.77.05,1,.28,1.11.23.12.91.46,1.32-.31.41-.77.56-2.15.31-2.77-.63.65-1.5,1.19-1.9,1.96ZM810.14,309.06c.46.23.87-.53,1.07-.92-.29-.34-.43-.51-.71-.84-.2.38-.59,1.65-.36,1.76ZM812.93,306.57c.23.12.44-.26.64-.65.41-.77.18-.89-.28-1.12-.09-.05-.14-.07-.23-.12-.41.77-.59,1.65-.13,1.88ZM813.49,308.81c.46.23.87-.54,1.07-.92-.28-.34-.43-.51-.71-.85-.21.39-.6,1.65-.36,1.77ZM815.59,305.97c.9.07,1.36.1,2.26.17.75-1.38,1.12-2.07,1.87-3.45-.74-.38-1.12-.57-1.86-.94-.91,1.69-1.36,2.53-2.27,4.22ZM824.6,295.88c-.21.38.08,1.51.31,1.62.79-.58,1.19-.87,1.99-1.44.21-.39,1.26-2.3.78-2.54-.47-.24-1.73,2.06-1.93,2.44-.23-.12-.94-.47-1.15-.09ZM835.21,291.45c-.64,1.15-1.46,3.19-1.86,4.46,1.89.97,1.96-2.44,3.39-1.7-.28-6.07,2.29-.8,4.44-4.63.09-.15.13-.23.21-.38,1.61-1.54,2.42-2.31,4.03-3.85-.8-1.01-1.21-1.51-2.02-2.51-2.15,3.83-6.07,4.79-8.2,8.62ZM831.43,299.36c.47.24.89-.53,1.11-.91.21-.38.19-.88-.05-1-.24-.12-.45.26-.68.14-.21.38-.62,1.66-.38,1.78ZM865.68,261.56c-.47-1.22-.71-1.84-1.19-3.06.83-.77,1.24-1.15,2.08-1.92,0,0,.22-.39-.04-.51-.29.05-.44.08-.73.13-1.72,2.09-2.58,3.14-4.29,5.23,1.53-2.68-.62-1.78-1.77-.88-1.08,1.92-3.97,5.88-5.47,5.13-.2,1.27-.3,1.91-.51,3.18,1.25.62,4.01-1.43,5.64-2.58.05.81.08,1.22.13,2.03,1,.51,1.28,1.15.19,3.06-2.42,4.22-2.31,1.79-3.63,4.09,1.4-.67,2.11-1,3.52-1.67,1.54-2.68,5.28-5.23,6.83-7.9,1.16-.2,1.74-.3,2.91-.5,1.12-1.91,2.57-2.16,3.69-4.07,1.76.4,3.67-4.58,5.86-5.46.67-1.15,1.35-2.29,2.28-3.31.29.64-2.44,4.72-1.93,4.98.51.26,5.19-4.8,5.19-4.8.78-.4,1.17-.6,1.95-1,1.14-1.91,2.7-5.1,4.53-4.16.1.05.16.08.26.13.23-.38,1.6-2.67,1.08-2.94-.79-.4-3.73,1.09-2.37-1.2-1.16-.59-1.74-.88-2.89-1.46-1.12,1.91-3.07,2.91-4.19,4.83-1.28.34-1.92.52-3.2.87-.98,1.68-1.47,2.52-2.45,4.21-.52-.26-1.04-.52-1.7.63-.45.77-.6,2.17-.53,3.2.77.39.13,2.05-.32,2.81-2.55-1.3-8.04,9.28-10.81,7.88.76-1.99,1.13-2.98,1.88-4.97ZM839.2,297.46c.47.25.91-.52,1.13-.9-.29-.35-.44-.53-.74-.88-.21.38-.62,1.65-.39,1.78ZM848.49,280.48c-.22.38-.19.89.3,1.14.22-.38,1.57-1.66,1.82-1.54.24.12-.41,1.27-.41,1.27.96.09,1.43.14,2.39.24,1.09-1.02,1.64-1.53,2.74-2.56-.43-1.02-.65-1.53-1.09-2.54.22-.38,1.53-2.68,1.28-2.8-.5-.25-2.92,3.45-3.14,3.84-.93.52-3.02,1.42-3.88,2.96ZM877.24,243.18c-1.57-.77-2.58,2.17-3.46,3.7-.26-.13-1.04-.51-1.48.26-.22.38.12,1.53.16,2.05.78.38,1.92-1.02,2.36-1.79.97-1.68,1.45-2.53,2.42-4.21ZM877.5,243.31c.52.26,1.19-.89,1.41-1.27-.53-.26-1.22.37-1.67,1.14l.26.13ZM1004.33,73.01c.8-.62,1.6.21,1.36.59-.55-.23-.82-.35-1.36-.59ZM985.11,154.41c-.59.91-.88,1.37-1.47,2.28-1.66.68-2.94,2.05-3.92,3.57-1.22-.6-2.44,1.3-3.17,2.44-.39.61-.59.91-.98,1.52-1.4.31-2.37,1.83-3.1,2.97-1.95,3.04-5.32,3.37-7.26,6.41-1.18.62-1.76.92-2.93,1.54-1.42,1.5-2.13,2.24-3.54,3.74-.59-.29-1.18-.59-1.9.55-.48.76-.96,1.52-1.84,1.09-1.43,1.29-2.14,1.93-3.56,3.22-1.67,2.67-1.94,5.53,1.3,4.66,0,0-.48.76-.18.9.58.29,1.6-.7,2.13-.93.29.15,1.17.59,1.66-.17.48-.76-.36-3.7-.71-4.37,1.61-.7,2.62-1.69,3.59-3.22,1.48.74,2.39-1.31,3.11-2.45,0,0,.48-.76.78-.61-.61,1.7-.92,2.55-1.53,4.24-1.01,1.1-1.52,1.65-2.53,2.74,2.06,1.04,5.76-4.13,6.98-6.03,6.87-4.58,13.36-10.88,19.34-16.94.42-1.4.63-2.1,1.06-3.5-.52-.46-.78-.69-1.29-1.14.59-.91.88-1.37,1.47-2.28.74-1.14,1.6-1.22,2.53-.75,1.55.77-1.73,2.66-.19,3.43.93-2.05,1.48-4.79,1.29-6.39-.93-.46-2.16,1.43-2.65,2.19-.93-.46-1.73.15-2.47,1.29ZM975.44,151.19c.61.3,1.09-.47,1.33-.85-.4-.39-.6-.58-.99-.97-.24.38-.65,1.67-.34,1.82ZM945.57,206.89s1.13.59,1.38.21c.49-.76-1.87-2.99-2.44-3.29-.28-.15-1.14-.58-1.62.18.9.96,1.55,2.31,2.69,2.9ZM981.53,146.68c.62.3,1.1-.46,1.35-.85.24-.38.17-.91-.14-1.05-.31-.15-.55.23-.86.08-.24.38-.66,1.67-.34,1.82ZM988.87,140.27c.62.3,1.11-.46,1.35-.84-.4-.4-.61-.59-1.01-.99-.24.38-.66,1.67-.34,1.83ZM948.85,207.08c.57.3,1.06-.46,1.3-.84.25-.38.21-.91-.08-1.06-.28-.15-.53.23-.81.08-.25.38-.69,1.67-.41,1.82ZM946.04,217.3c-1.25-.87-1.87-1.3-3.12-2.16-.98,1.52,2.31,2.24,3.12,2.16ZM953.58,208.03c-.81-.63-1.22-.95-2.04-1.58-.98,1.52,1.22,1.66,2.04,1.58ZM1004.19,128.75c.64.31,1.14-.45,1.38-.83-.41-.4-.62-.6-1.04-1.01-.25.38-.67,1.68-.34,1.83ZM992.89,153.77c.31.16.56-.23.81-.6.25-.38.18-.92-.12-1.07-.13-.06-.19-.09-.31-.16-.25.38-.99,1.52-.37,1.83ZM952.63,214.16c-.1.15-.15.23-.25.38.81-.08,1.98,1.06,2.72-.08.25-.38-.35-1.21-.63-1.36-.85-.46-1.35.31-1.85,1.07ZM996.56,150.06c.62.31,1.12-.44,1.37-.82-.4-.4-.6-.6-1-1-.25.38-.68,1.67-.37,1.82ZM999.93,146.2c.4.4.6.61,1,1.01.7-1.06,1.05-1.59,1.75-2.66-.2-.71-.31-1.06-.51-1.77-.9,1.36-1.34,2.05-2.24,3.41ZM1026.54,124.68c.65.33,1.16-.43,1.41-.81-.42-.41-.63-.62-1.05-1.03-.25.38-.68,1.67-.36,1.84ZM1029.88,122.31c.65.32,1.16-.43,1.42-.81-.42-.41-.63-.62-1.05-1.03-.25.38-.69,1.68-.36,1.84ZM1032.97,120.32c.33.16.84-.59,1.09-.97.26-.38.51-.76.19-.92-.33-.16-.91.05-.91.05-.26.38-1.02,1.52-.37,1.84Z"/>
    </g>
  </g>
  <g>
    <path class="cls-1" d="M750.66,414.76h11.47v36.97h20.36v9.83h-31.83v-46.8Z"/>
    <path class="cls-1" d="M820,413.21h2.03l22.93,48.36h-12.32l-2.34-4.84h-18.49l-2.26,4.84h-12.32l22.78-48.36ZM826.4,448.54l-5.38-11.86h-.16l-5.46,11.86h11Z"/>
    <path class="cls-1" d="M861.65,414.76h12.09l18.17,27.77v-27.77h11.39v46.8h-11.93l-18.25-27.85v27.85h-11.47v-46.8Z"/>
    <path class="cls-1" d="M948.31,413.21c8.89,0,15.05,3.35,20.05,8.58l-7.88,7.49c-3.28-3.2-7.49-5.23-12.17-5.23-8.35,0-13.73,6.24-13.73,14.12s5.38,14.12,13.73,14.12c4.68,0,8.89-2.03,12.17-5.23l7.64,7.49c-4.68,4.91-11.15,8.58-19.81,8.58-14.82,0-25.35-11-25.35-24.96s10.53-24.96,25.35-24.96Z"/>
    <path class="cls-1" d="M985.59,414.76h30.97v10.14h-19.5v8.42h18.02v9.98h-18.02v8.43h20.36v9.83h-31.83v-46.8Z"/>
    <path class="cls-1" d="M1034.66,414.76h19.58c10.06,0,16.61,6.08,16.61,14.9,0,8.19-4.13,12.79-11.08,14.51l12.64,17.39h-14.35l-11.93-17.47v17.47h-11.47v-46.8ZM1055.33,435.05c2.57,0,4.29-2.65,4.29-5.38s-2.03-5.15-4.6-5.15h-8.89v10.53h9.2Z"/>
    <path class="cls-1" d="M750.66,484.76h16.3c13.81,0,24.49,10.14,24.49,23.32,0,12.48-9.52,23.48-24.49,23.48h-16.3v-46.8ZM766.73,521.11c7.33,0,12.95-5.15,12.95-13.03,0-7.26-4.92-12.95-12.95-12.95h-4.6v25.97h4.6Z"/>
    <path class="cls-1" d="M810.95,484.76h30.97v10.14h-19.5v8.42h18.02v9.98h-18.02v8.43h20.36v9.83h-31.83v-46.8Z"/>
    <path class="cls-1" d="M891.6,484.76h11.47v18.41h18.33v-18.41h11.39v46.8h-11.39v-18.49h-18.33v18.49h-11.47v-46.8Z"/>
    <path class="cls-1" d="M972.26,483.21h2.03l22.93,48.36h-12.33l-2.34-4.84h-18.49l-2.26,4.84h-12.32l22.78-48.36ZM978.65,518.54l-5.38-11.86h-.16l-5.46,11.86h11Z"/>
    <path class="cls-1" d="M1032.71,483.21c8.89,0,15.05,3.35,20.05,8.58l-7.88,7.49c-3.28-3.2-7.49-5.23-12.17-5.23-8.35,0-13.73,6.24-13.73,14.12s5.38,14.12,13.73,14.12c4.68,0,8.89-2.03,12.17-5.23l7.64,7.49c-4.68,4.91-11.15,8.58-19.81,8.58-14.82,0-25.35-11-25.35-24.96s10.53-24.96,25.35-24.96Z"/>
    <path class="cls-1" d="M1069.99,484.76h11.47v18.41h18.33v-18.41h11.39v46.8h-11.39v-18.49h-18.33v18.49h-11.47v-46.8Z"/>
    <path class="cls-1" d="M1130.36,484.76h30.97v10.14h-19.5v8.42h18.02v9.98h-18.02v8.43h20.36v9.83h-31.83v-46.8Z"/>
    <path class="cls-1" d="M1190.34,517.84c0,2.73,2.18,4.91,4.84,4.91,2.89,0,4.68-1.64,4.68-4.06,0-3.51-4.6-4.52-8.42-5.85-7.88-2.81-12.25-6.47-12.25-14.51s7.1-15.13,15.91-15.13c10.37,0,15.29,6.63,15.91,15.29h-10.76c0-2.65-1.64-4.84-4.84-4.84-2.5,0-4.91,1.48-4.91,4.53,0,3.51,4.29,4.13,8.27,5.3,8.35,2.5,12.25,7.18,12.25,14.51,0,8.27-7.02,15.13-15.83,15.13-10.22,0-15.99-6.87-15.99-15.29h11.16Z"/>
  </g>
</svg>