<?xml version="1.0" encoding="UTF-8"?><svg id="Calque_2" xmlns="http://www.w3.org/2000/svg" viewBox="0 0 107.9 47.54"><defs><style>.cls-1{fill:#fff;stroke-width:0px;}</style></defs><g id="activités"><path class="cls-1" d="M41.26,30.55h-5.99V12.58h-5.99v23.95h17.96V12.58h-5.99v17.96ZM70.49,24.56v-5.99h-5.99v-5.99h-11.98v23.95h17.96v-11.98ZM64.51,30.55h-5.99v-5.99h5.99v5.99ZM93.74,30.55h-11.98v-5.99h5.99v-5.99h5.99v-5.99h-17.96v23.95h17.96v-5.99ZM107.9,10.46v-4.9c0-3.68-1.79-5.54-5.37-5.56h-5.48c-3.58.03-5.37,1.88-5.37,5.56v3.44h5.1v-1.46c-.04-1.42.62-2.17,1.97-2.24h1.89c1.47,0,2.19.75,2.15,2.24v1c.04,1.98-.64,2.99-2.04,3.03h-3.12v5.39h3.1c1.41.07,2.1,1.13,2.06,3.2v3.34c.04,1.5-.68,2.24-2.15,2.24h-1.7c-1.47,0-2.19-.75-2.15-2.24v-1.89h-5.06l9.09,9.41h1.72c3.58-.03,5.37-1.88,5.37-5.56v-7.24c0-1.54-.6-2.82-1.8-3.86,1.2-1.04,1.8-2.33,1.8-3.86ZM93.53,22.35h2.49v1.12c-.02.87.18,1.56.59,2.07l-3.08-3.19ZM105.6,14.9c1.03.9,1.53,1.97,1.53,3.29v7.24c0,3.25-1.46,4.77-4.6,4.8h-1.39l-4.24-4.39c.5.43,1.18.65,2.04.65h1.7c.94,0,1.68-.26,2.18-.78.51-.52.76-1.28.74-2.24v-3.32c.03-1.44-.31-3.86-2.79-3.97h-.02s-.02,0-.02,0h-2.33v-3.85h2.37c1.07-.03,2.85-.56,2.79-3.8v-.98c.02-.96-.23-1.71-.74-2.24-.51-.52-1.24-.78-2.18-.78h-1.93c-1.75.1-2.73,1.2-2.69,3.02v.69h-3.57v-2.67c0-3.25,1.46-4.77,4.6-4.8h5.48c3.14.02,4.6,1.55,4.6,4.8v4.9c0,1.31-.5,2.39-1.53,3.29l-.66.58.66.58ZM18.73,7.47H0v24.72h6.05v4.35h17.96v-5.99h-5.28v-5.12h-6.7v-6.86h11.98v-5.99h-5.28v-5.12ZM17.96,26.2v4.35h-5.93v-4.35h5.93ZM17.96,12.58H6.05v.87h-.06v12.74h.06v5.22H.77V8.23h17.2v4.35Z"/><path class="cls-1" d="M8.95,43.12h1.79c.88,0,1.39.65,1.39,1.37,0,.8-.6,1.37-1.39,1.37h-.75v1.54h-1.04v-4.28ZM10.64,44.96c.27,0,.42-.25.42-.5,0-.24-.14-.45-.42-.45h-.65v.95h.65Z"/><path class="cls-1" d="M14.21,43.12h1.05v4.28h-1.05v-4.28Z"/><path class="cls-1" d="M18.66,45.17l-1.38-2.05h1.22l.8,1.28.76-1.28h1.2l-1.36,2.13,1.43,2.14h-1.2l-.88-1.35-.85,1.35h-1.2l1.44-2.22Z"/><path class="cls-1" d="M23.31,43.12h2.83v.93h-1.78v.77h1.65v.91h-1.65v.77h1.86v.9h-2.91v-4.28Z"/><path class="cls-1" d="M28.36,43.12h1.05v3.38h1.86v.9h-2.91v-4.28Z"/><path class="cls-1" d="M36.01,43.12h2.76v.93h-1.71v.91h1.58v.91h-1.58v1.53h-1.05v-4.28Z"/><path class="cls-1" d="M40.81,43.12h1.05v3.38h1.86v.9h-2.91v-4.28Z"/><path class="cls-1" d="M47.89,42.98c1.35,0,2.3,1,2.3,2.28s-.96,2.28-2.3,2.28-2.3-1-2.3-2.28.95-2.28,2.3-2.28ZM47.89,46.55c.75,0,1.24-.57,1.24-1.29s-.49-1.29-1.24-1.29-1.24.57-1.24,1.29.48,1.29,1.24,1.29Z"/><path class="cls-1" d="M54.62,42.98c1.35,0,2.3,1,2.3,2.28s-.96,2.28-2.3,2.28-2.3-1-2.3-2.28.95-2.28,2.3-2.28ZM54.62,46.55c.75,0,1.24-.57,1.24-1.29s-.49-1.29-1.24-1.29-1.24.57-1.24,1.29.48,1.29,1.24,1.29Z"/><path class="cls-1" d="M59.14,43.12h1.79c.92,0,1.52.56,1.52,1.36,0,.75-.38,1.17-1.01,1.33l1.15,1.59h-1.31l-1.09-1.6v1.6h-1.05v-4.28ZM61.03,44.97c.24,0,.39-.24.39-.49s-.18-.47-.42-.47h-.81v.96h.84Z"/></g></svg>