<?xml version="1.0" encoding="UTF-8"?><svg id="Calque_2" xmlns="http://www.w3.org/2000/svg" viewBox="0 0 91 43.32"><defs><style>.cls-1{fill:#fff;stroke-width:0px;}</style></defs><g id="activités"><path class="cls-1" d="M67.48,8.5c-.67-.35-1.37-.4-2.1-.18-.77.24-1.32.67-1.66,1.3-.34.63-.43,1.4-.29,2.32l5.68-1.75c-.42-.78-.97-1.34-1.63-1.69ZM66.49,1.91c-5.11,0-9.25,4.31-9.35,9.66l2.2,2.2c-.19-.8-.26-1.57-.21-2.31.07-.94.31-1.79.73-2.56.42-.77,1.01-1.45,1.76-2.03.76-.58,1.67-1.04,2.74-1.37,1.06-.33,2.06-.46,3-.41.94.06,1.8.29,2.57.72.77.42,1.44,1.02,2.02,1.79.58.77,1.03,1.71,1.37,2.8l.14.46-9.29,2.87c.59,1.9,1.77,2.58,3.56,2.03,4.82-1.49,6.12,1.53.94,3.13-1.06.33-2.07.47-3.05.42-.29-.01-.58-.05-.86-.09l2.36,2.36c4.86-.36,8.69-4.61,8.69-9.82s-4.19-9.85-9.35-9.85Z"/><path class="cls-1" d="M.34,16.76V.01h7.21c2.51.02,3.76,1.32,3.76,3.9v3.43c0,1.08-.43,1.99-1.28,2.72.86.72,1.28,1.62,1.28,2.69v5.07c0,2.58-1.25,3.88-3.76,3.9h-2.42L.34,16.76ZM7.74,5.29c.03-1.05-.48-1.57-1.51-1.57h-2.3v4.39h2.3c1.03,0,1.54-.71,1.51-2.12v-.7ZM7.74,14.12c.03-1.5-.48-2.24-1.51-2.24h-2.3v6.15h2.3c1.03,0,1.54-.52,1.51-1.57v-2.34Z"/><path class="cls-1" d="M13.96,11.76V.07h3.59v15.41l-3.59-3.72ZM20.03,18.04h.09c1.03,0,1.54-.52,1.51-1.57V.07h3.57v17.76c0,1.84-.64,3.03-1.92,3.57l-3.26-3.36Z"/><path class="cls-1" d="M34.23,3.64h-6.38V0h2.86l3.52,3.64ZM38.09,7.63l-5.78,10.38h8.05v3.64s-12.44,0-12.44,0v-3.77l7.33-13.17,2.85,2.93Z"/><path class="cls-1" d="M49.4,3.64h-6.38V0h2.86l3.52,3.64ZM53.26,7.63l-5.78,10.38h8.05v3.64s-12.44,0-12.44,0v-3.77l7.33-13.17,2.85,2.93Z"/><path class="cls-1" d="M42.48,40.04l-3.14,3.28-3.55-3.67c-1.19.7-2.63,1.09-4.15,1.09-4.74,0-8.57-3.98-8.57-8.88s3.82-8.85,8.57-8.85,8.59,3.95,8.59,8.85c0,1.65-.46,3.19-1.19,4.59l3.44,3.58ZM27.59,31.89c0,2.32,1.79,4.17,4.04,4.17s4.07-1.85,4.07-4.17-1.82-4.2-4.07-4.2-4.04,1.88-4.04,4.2Z"/><path class="cls-1" d="M47.76,31.86c0,2.35,1.79,4.2,4.07,4.2s4.07-1.85,4.07-4.2v-8.15h4.53v8.15c0,4.9-3.85,8.88-8.59,8.88s-8.59-3.98-8.59-8.88v-8.15h4.53v8.15Z"/><path class="cls-1" d="M68.47,40.04h-4.53v-16.33h4.53v16.33Z"/><path class="cls-1" d="M91,23.72l-11.74,12.12h8.19v4.2h-18l11.77-12.12h-7.75v-4.2h17.54Z"/><path class="cls-1" d="M2.37,28.5c1.35,0,2.3,1.03,2.3,2.29,0,.6-.21,1.13-.58,1.54l.72.66h-1.33l-.13-.13c-.29.13-.62.2-.98.2-1.35,0-2.3-1.01-2.3-2.27s.96-2.29,2.3-2.29ZM2.37,32.08s.1,0,.15,0l-.9-.86h1.28l.45.42c.18-.23.28-.52.28-.84,0-.72-.5-1.3-1.25-1.3s-1.25.58-1.25,1.3.5,1.29,1.25,1.29Z"/><path class="cls-1" d="M6.66,28.64h1.04v2.68c0,.57.27.77.63.77.4,0,.65-.2.65-.77v-2.68h1.05v2.84c0,1.01-.76,1.58-1.7,1.58s-1.67-.6-1.67-1.58v-2.84Z"/><path class="cls-1" d="M12.11,28.64h1.05v4.28h-1.05v-4.28Z"/><path class="cls-1" d="M14.92,32.82l1.95-3.21h-1.71v-.96h3.36v.1l-2.02,3.21h1.95v.97h-3.53v-.1Z"/><path class="cls-1" d="M2.32,35.62c.79,0,1.34.29,1.79.75l-.73.67c-.29-.26-.66-.43-1.06-.43-.76,0-1.25.57-1.25,1.29,0,.79.56,1.29,1.28,1.29.75,0,1.11-.41,1.14-.83h-1.22v-.9h2.35v.41c0,1.26-.74,2.32-2.29,2.32-1.35,0-2.32-1-2.32-2.28s.96-2.28,2.32-2.28Z"/><path class="cls-1" d="M8.13,35.62h.19l2.09,4.42h-1.12l-.21-.44h-1.69l-.21.44h-1.13l2.08-4.42ZM8.72,38.85l-.49-1.08h-.01l-.5,1.08h1Z"/><path class="cls-1" d="M12.16,35.77h.98l1.09,2.31,1.1-2.31h.96v4.28h-1.04v-1.9l-.93,2.04h-.17l-.93-2.06v1.92h-1.05v-4.28Z"/><path class="cls-1" d="M18.37,35.77h2.83v.93h-1.78v.77h1.65v.91h-1.65v.77h1.86v.9h-2.91v-4.28Z"/></g></svg>